<svg xmlns="http://www.w3.org/2000/svg" xmlns:xlink="http://www.w3.org/1999/xlink" viewBox="0 0 79.06 64.96"><clipPath id="a"><path d="m13.36.3h67.42v74.7h-67.42z"/></clipPath><clipPath id="b"><path d="m0 3.78h70v51h-70z"/></clipPath><g clip-path="url(#a)"><path d="m39.9 0c17.51 0 39.24 16.07 39.24 34s-16.78 31-34.29 31-31.71-14.55-31.71-32.5 9.25-32.5 26.76-32.5z" fill="#f9c273"/></g><g clip-path="url(#b)"><path d="m70 50.75c0 2.08-14.38 3.76-32.12 3.76-8.46 0-18.69.63-24.42 0-6.29-.69-6.88-2.67-6.88-3.76 0-2.08 26.68-3.43 44.42-3.43s19 1.35 19 3.43z" fill="#1a2e44"/><path d="m9.17 19.73c-2.49 0-2.15 1.09-2.12 2.33.32 12.94 1.31 19.94 1.59 27.19 0 1.38 2 2.58 4.41 2.76 7.7.61 31.79.78 40.11 1.21 3.71.19 6.81-1.43 6.56-3.5-1.48-12.63-2.72-21.72-3.65-29.63-.15-1.32-1.82-3.1-4.18-3.27-.65-.05-12.8 2.84-13.28 2.83-10.61-.21-24.42.13-29.44.08z" fill="#fff"/><path d="m9.28 19.1c-1.66.1-2.68.46-3 2.17s.11 3.84.18 5.59c.08 2 .18 4 .31 6 .19 3.24.46 6.47.7 9.69.17 2.25-.28 5.61.61 7.66 1.63 3.67 9.51 2.69 12.68 2.79 6 .19 12.06.3 18.08.43 2.93.06 5.86.12 8.79.21a49.18 49.18 0 0 0 7.38.13c1.82-.22 4.31-1 5.17-2.8a4.63 4.63 0 0 0 .14-2.69c-.28-2.63-.63-5.26-1-7.89q-.62-5.34-1.32-10.66c-.41-3.23-.27-7.29-1.35-10.37-1.35-3.85-5.3-3.12-8.3-2.46-2.67.58-5.33 1.21-8 1.79s-5.67.28-8.5.27c-7.54 0-15.07.21-22.6.14-.81 0-1.22 1.25-.22 1.26 5 0 10-.08 15.07-.12s10.4.65 15.28-.13c3.41-.54 6.78-1.53 10.16-2.25 2-.43 4.19-.68 5.44 1.55s.93 5.78 1.23 8.15c.84 6.44 1.67 12.92 2.44 19.44.16 1.27.64 3.34-.28 4.39a5.88 5.88 0 0 1 -3.14 1.19 20.34 20.34 0 0 1 -3.66 0c-1.91-.08-3.83-.13-5.73-.18-9.7-.25-19.41-.3-29.11-.75-2.77-.13-6.67.13-7.37-3.23-.51-2.42-.33-5.24-.52-7.71-.24-3.06-.47-6.1-.65-9.17-.11-1.85-1.53-11 .89-11.12.77-.11 1.2-1.42.2-1.32z" fill="#1a2e44"/><path d="m44.21 15.4c1.93.64 3 2.33 2.71 3.26-3.46 9.68-4.64 15.81-6.67 21.22-.38 1-2.15 1.42-4.08.92-6.11-1.59-25.58-8.09-32.12-10-2.91-.8-3.67-2.27-3.22-3.87 2.63-9.48 5.17-16.07 7.02-21.75.33-1 1.37-.94 3.23-.44 4.92 1.26 26.92 8.62 33.13 10.66z" fill="#fff"/><path d="m43.76 16c2.49 1.07 2.33 2.37 1.7 4.83-.29 1.12-.75 2.21-1.1 3.31-.76 2.39-1.46 4.8-2.16 7.22-.62 2.15-1.22 4.32-1.92 6.45-.92 2.77-3.21 2.59-5.5 1.94-7.56-2.16-15-4.7-22.52-7.07-2.88-.91-6.8-1.44-9.39-3s-.57-5.51.13-7.84c.9-3 1.87-5.91 2.87-8.84.68-2 1.37-3.94 2-5.91.54-1.6.44-2.13 2.44-1.84a14.22 14.22 0 0 1 1.94.52c3 .9 6.05 1.88 9.07 2.85 7.53 2.38 14.98 4.89 22.44 7.38.68.22 1.73-.87.9-1.15-8.56-2.85-17.1-5.69-25.66-8.42-2.83-.9-6.36-2.6-9.37-2.65-1.59 0-2.11.59-2.66 2-1.1 2.85-2 5.83-3 8.73q-1.32 4-2.54 8c-.66 2.1-2.37 5.18-.75 7.24 1.09 1.37 3.1 1.7 4.68 2.17 2 .61 4 1.24 6 1.88 5.16 1.63 10.31 3.3 15.47 4.92 3.26 1 7.57 3.12 11.05 2.91 2-.12 2.87-1.11 3.51-3 .94-2.72 1.69-5.51 2.49-8.27q.7-2.46 1.46-4.92c.64-2.07 1.94-4.54 2.24-6.71.28-2-1.21-3.21-2.93-3.94-.65-.24-1.65.84-.89 1.21z" fill="#1a2e44"/><path d="m8.87 14.22 4.86-2.83 2.62 4.16 5.74-3.26" fill="#fff"/><g fill="#1a2e44"><path d="m9.09 14.86a38 38 0 0 1 4.73-2.75c-.66.26-.36-.46-.25.33 0 .4.64 1 .86 1.36.49.77 1 1.54 1.45 2.31a.48.48 0 0 0 .7.09l5.74-3.26c.65-.37.38-1.77-.45-1.29a47.68 47.68 0 0 0 -5.35 3c-.62.46.29.33.17.08a15.75 15.75 0 0 0 -.89-1.4l-1.59-2.53a.48.48 0 0 0 -.7-.09l-4.86 2.87c-.65.42-.39 1.77.44 1.28z"/><path d="m6.44 20c3.44 1.32 7.07 2 10.5 3.33.68.26 1.69-.85.87-1.17-3.44-1.32-7.07-2-10.5-3.33-.68-.3-1.69.81-.87 1.17z"/><path d="m4.92 23.89c2.25 1 4.66 1.5 6.92 2.48.66.28 1.83-.59 1-1-2.26-1-4.67-1.5-6.92-2.48-.69-.25-1.86.63-1 1z"/><path d="m64.35 19.1c4.5 1-1.15 28.09-2.43 32.34-1.07 3.54-34.63 3-47 2.69-2.33-.06-3.41-1.16-3.71-1.74-.93-1.78 6.16-18.66 6.58-21 .73-4.25 42.36-10.71 42.68-10.81"/></g><path d="m62.57 18.23c2.49 0 1.66 4.14 1.63 5.47-.27 13.82-3.13 17.59-3.39 25.36 0 1.48-2 2.75-4.4 2.95-7.7.62-31.79.73-40.12 1.16-3.71.2-6.8-1.54-6.57-3.76 1.44-13.49 4.19-22.29 5.09-30.75.16-1.42 26.05-.57 28.41-.75.64-.05 2-3.36 3.11-3.41 2.48-.1 5 .45 8.88.38.46 0 1.74 3.07 2.22 3.06 1.95-.01 4.34.29 5.14.29z" fill="#fff"/><path d="m62.28 18.85c2.39.34 1.11 7.83 1 9.27a72.6 72.6 0 0 1 -1.28 9.63c-.44 2.17-1 4.32-1.36 6.5-.2 1.18-.37 2.37-.46 3.58-.2 2.73-2 3.36-4.47 3.61-10.95 1.11-22.19.6-33.19.89-2 .06-4.06.21-6.09.22-3 0-6.16-.77-5.83-4.38.2-2.2.56-4.41.89-6.59 1-6.69 2.68-13.27 3.68-20 .12-.78 0-2.41.43-2.7s1.26-.17 1.61-.2c2-.18 4-.21 5.95-.23 4.68-.07 9.36 0 14 .05a45.63 45.63 0 0 0 5.23 0c1.73-.19 1.81-1.07 3-2.38 1.42-1.58 3.52-.94 5.44-.81.68.05 1.42 0 2.09.12a3.34 3.34 0 0 1 2.87 1.57c.43.54.57 1.13 1.2 1.49 1 .58 4 .27 5.29.33.72 0 1.52-1.2.58-1.24-1.48-.06-3.56.17-4.87-.54-1.08-.58-1.13-2-2.15-2.65-1.24-.75-3.44-.2-4.89-.31s-3.25-.57-4.6-.21c-1.82.49-2.2 3-3.61 3.41s-3.84 0-5.35 0c-5.6-.06-11.21-.17-16.82 0a20.74 20.74 0 0 0 -5 .43c-1.61.47-1.44 1.18-1.66 2.88-1.1 8.15-3.19 16.14-4.31 24.29-.48 3.2-1.6 6.39 1.82 8.12 2.49 1.23 5.39.8 8 .72 6.88-.23 13.77-.31 20.66-.46 3.45-.08 6.91-.16 10.36-.28 2.41-.09 5.14.07 7.48-.62 3.56-1 3.41-3.24 3.82-6.43s1.24-6.16 1.83-9.24a98.57 98.57 0 0 0 1.32-13.39c.11-2.1.68-5.25-2.08-5.65-.68-.15-1.47 1.06-.53 1.2z" fill="#1a2e44"/></g></svg>