<svg xmlns="http://www.w3.org/2000/svg" xmlns:xlink="http://www.w3.org/1999/xlink" viewBox="0 0 79 82"><defs><clipPath id="a"><rect x="6.44" y="18" width="67" height="64" style="fill: none"/></clipPath><clipPath id="b"><rect x="0.44" width="62" height="72" style="fill: none"/></clipPath></defs><g style="clip-path: url(#a)"><path d="M33.61,18c17.78,0,39.83,15.82,39.83,33.5S56.42,82,38.64,82A32.1,32.1,0,0,1,6.44,50C6.44,32.33,15.83,18,33.61,18Z" style="fill: #22d172"/></g><g style="clip-path: url(#b)"><g><path d="M59.48,27.12s1.69-4.71,2.5-1,.41,37.84.23,42.67-34.46,3-34.92,1.8S59.48,27.65,59.48,27.65" style="fill: #1a2e44"/><path d="M52.1,31.9l-.81-.29a2.17,2.17,0,0,1-1.4-2.22,26.33,26.33,0,0,0-.17-4.25,2.28,2.28,0,0,1,1.22-2.27l.75-.34a2.17,2.17,0,0,0,1.05-2.91l-2-4.43a2.18,2.18,0,0,0-2.91-1l-.7.41A2.2,2.2,0,0,1,44.55,14a20.18,20.18,0,0,0-3.08-2.85,2.28,2.28,0,0,1-.76-2.51L41,7.86a2.2,2.2,0,0,0-1.28-2.8L35.19,3.38A2.17,2.17,0,0,0,32.4,4.66l-.29.81a2.16,2.16,0,0,1-2.21,1.4A26.21,26.21,0,0,0,25.66,7,2.24,2.24,0,0,1,23.4,5.82l-.35-.76a2.16,2.16,0,0,0-2.91-1l-4.41,2A2.17,2.17,0,0,0,14.68,9l.35.76a2.23,2.23,0,0,1-.52,2.56,19.79,19.79,0,0,0-2.85,3.09,2.28,2.28,0,0,1-2.5.75l-.81-.29a2.2,2.2,0,0,0-2.79,1.28L3.87,21.65a2.22,2.22,0,0,0,1.28,2.8l.81.29A2.16,2.16,0,0,1,7.36,27a26.28,26.28,0,0,0,.17,4.25,2.26,2.26,0,0,1-1.22,2.27l-.75.29a2.17,2.17,0,0,0-1,2.91l2,4.42a2.16,2.16,0,0,0,2.9,1l.76-.35a2.21,2.21,0,0,1,2.55.53,21.25,21.25,0,0,0,3.08,2.85,2.26,2.26,0,0,1,.76,2.5l-.29.81a2.2,2.2,0,0,0,1.28,2.8L22.12,53a2.21,2.21,0,0,0,2.79-1.28l.29-.82a2.17,2.17,0,0,1,2.21-1.4,26.21,26.21,0,0,0,4.24-.17,2.26,2.26,0,0,1,2.26,1.22l.35.76a2.17,2.17,0,0,0,2.91,1l4.41-2a2.17,2.17,0,0,0,1.05-2.91l-.35-.76a2.23,2.23,0,0,1,.52-2.56A20.18,20.18,0,0,0,45.65,41a2.26,2.26,0,0,1,2.5-.76l.81.29a2.19,2.19,0,0,0,2.79-1.28l1.69-4.54A2.28,2.28,0,0,0,52.1,31.9Zm-27,5.7a10.07,10.07,0,1,1,12.9-6A10.08,10.08,0,0,1,25.14,37.6Z" style="fill: #1a2e44"/><path d="M49.43,29.22l-.82-.29a2.15,2.15,0,0,1-1.39-2.21,26.24,26.24,0,0,0-.17-4.25,2.25,2.25,0,0,1,1.22-2.27l.75-.35a2.17,2.17,0,0,0,1-2.91l-2-4.37a2.17,2.17,0,0,0-2.9-1.05l-.76.35a2.22,2.22,0,0,1-2.56-.52,20.3,20.3,0,0,0-3.08-2.91A2.28,2.28,0,0,1,38,5.94l.29-.82a2.11,2.11,0,0,0-1.28-2.79L32.52.64a2.19,2.19,0,0,0-2.79,1.28l-.29.82a2.15,2.15,0,0,1-2.21,1.39A25.08,25.08,0,0,0,23,4.31a2.29,2.29,0,0,1-2.27-1.23l-.35-.75a2.16,2.16,0,0,0-2.9-1l-4.42,2a2.16,2.16,0,0,0-1,2.91l.35.75a2.25,2.25,0,0,1-.53,2.57A20.15,20.15,0,0,0,9,12.63a2.27,2.27,0,0,1-2.5.76L5.67,13a2.19,2.19,0,0,0-2.79,1.28L1.2,18.86a2.19,2.19,0,0,0,1.28,2.79l.81.29a2.18,2.18,0,0,1,1.4,2.22,26.16,26.16,0,0,0,.17,4.24,2.11,2.11,0,0,1-1.22,2.27L2.88,31a2.18,2.18,0,0,0-1,2.91l2,4.43a2.18,2.18,0,0,0,2.91,1l.75-.35a2.22,2.22,0,0,1,2.56.52,20.18,20.18,0,0,0,3.08,2.85,2.26,2.26,0,0,1,.75,2.5l-.29.82a2.2,2.2,0,0,0,1.28,2.79l4.53,1.69A2.19,2.19,0,0,0,22.23,49l.29-.81a2.14,2.14,0,0,1,2.21-1.4A25,25,0,0,0,29,46.56a2.29,2.29,0,0,1,2.27,1.23l.35.75a2.16,2.16,0,0,0,2.9,1.05l4.42-2A2.17,2.17,0,0,0,40,44.64l-.35-.75a2.22,2.22,0,0,1,.52-2.56A20.77,20.77,0,0,0,43,38.24a2.26,2.26,0,0,1,2.5-.76l.81.3a2.21,2.21,0,0,0,2.79-1.29L50.76,32A2.22,2.22,0,0,0,49.43,29.22Zm-27,5.7a10.07,10.07,0,1,1,12.9-6A10.08,10.08,0,0,1,22.47,34.92Z" style="fill: #fff"/><path d="M49.84,28.64c-2.27-.82-2.79-6.46-1.11-8,.87-.82,1.92-.94,2.21-2.33a4.89,4.89,0,0,0-.76-2.85,14.84,14.84,0,0,0-1.86-3.79,2.8,2.8,0,0,0-2.55-.87c-1.11.17-1.11.58-2.38.35A7.8,7.8,0,0,1,39,7c-.35-1.34.58-2.8-.29-4.08A5.17,5.17,0,0,0,36,1.34c-2-.87-4.71-2.39-6.45-.23-.29.35-.35,1-.64,1.34-1,1.1-2.79,1-4.18,1.16a3.52,3.52,0,0,1-3.55-1.46c-.52-.52-.46-1-1.16-1.33-2-1.11-5,.87-6.68,1.8a3.43,3.43,0,0,0-2,2.15c-.17.7.06,1,.12,1.63,0,.12.12.24.12.35.23,1.63-.59,2.74-1.57,3.84A4.81,4.81,0,0,1,6.2,12.51a10.83,10.83,0,0,0-1.46-.17,3.2,3.2,0,0,0-2.55,2C1.43,15.89-.14,19.15.68,20.9c.35.75.87.81,1.39,1.34.18.11.47.11.58.23A8.63,8.63,0,0,1,4,25.32c.23,1.4.12,4.07-.7,4.95-.35.35-1,.46-1.39.81-2,1.92-.12,4.66.87,6.64a3.81,3.81,0,0,0,1.92,2.33c1.8.69,3-1,4.82.05A9.36,9.36,0,0,1,11,41.62,11.37,11.37,0,0,1,12.59,43c1.68,2.56.41,1.51.29,2.91-.12,1.57.12,2.5,1.57,3.31S19,51.4,20.84,50.93c1.45-.41,1.45-1.4,2.21-2.39,1-1.22,2.32-1,3.66-1.1,1.92-.06,2.79-.12,4.07,1.39.87,1.05,1.45,1.93,3,1.69,1.28-.17,2.61-1.1,3.78-1.63s2.26-.87,2.84-2c.47-.87.18-1.45.12-2.27,0-.11-.12-.23-.12-.35-.23-1.57.58-2.73,1.57-3.84.23-.23,1-1,.81-.93a5.14,5.14,0,0,1,3-1c.75-.06,1,.29,1.86.06a3.37,3.37,0,0,0,2.15-2.27c1-2.5,3-6,0-7.68-.59-.35-1.57.64-.82,1.1,2,1.17.58,3.61.06,4.95-.7,1.86-.81,2.33-3.2,2.33-1,0-1.68-.29-2.67.29a7.52,7.52,0,0,0-1.45,1.57c-.81.93-2.15,1.75-2.67,2.91s-.18,1.63-.06,2.74c.29,2.38-.58,2.73-2.38,3.55-1.63.75-2.85,1.86-4.48.11-.81-.87-.81-1.8-2.15-2.15a7.64,7.64,0,0,0-2,.06,21.2,21.2,0,0,0-3.9.12c-1.22.29-1.51,1-2.21,1.86s.64,1.74-2.09,1.63a3.16,3.16,0,0,1-1.16-.47c-.81-.29-2.61-.58-3.25-1.22-1.75-1.69-.24-2.91-.7-4.66-.41-1.57-2.79-3.31-4-4.25s-1.8-.75-3.14-.64c-1,.06-.29.53-1.86,0S4.8,38,4.16,37a12.19,12.19,0,0,1-1.51-3.26c-.23-2.39,1.4-2.15,2.44-3.49s.47-2.68.41-4.14c-.06-1.62.35-3.2-1-4.3-.29-.24-1.16-.35-1.39-.64a3,3,0,0,1-.87-3,11.47,11.47,0,0,1,1.28-3.55c1.22-1.4,2.26-.58,3.6-.58s2.27-1,3.14-2c1.1-1.28,3.13-2.5,3.08-4.42-.06-1.4-1-2.68.4-4A11.35,11.35,0,0,1,17,2.1a2.76,2.76,0,0,1,2.78.58c.29.35.41,1,.76,1.4,1,1,2.09.81,3.43.75,1.57-.11,3.6.35,5-.64,1.1-.81,1-2,2.26-2.56s2.73.23,4.13.76a4.77,4.77,0,0,1,1.28.46c1.16,1.11.69,2.27.69,3.5,0,2.09,1.11,2.56,2.56,3.89,1.22,1.11,2.09,2.57,4,2.33.47-.06,1-.46,1.45-.52,2.33-.23,1.92.58,2.56,1.63a14.23,14.23,0,0,1,1.63,3.55c.4,2.56-2,2.15-2.79,3.84a3.85,3.85,0,0,0-.23,2.15c.05,1.4-.3,3.09.17,4.43a3.31,3.31,0,0,0,2.44,2.09C49.66,30,50.65,28.93,49.84,28.64Z" style="fill: #1a2e44"/><path d="M22.93,34.4a9.91,9.91,0,0,1-6.16-11A9.31,9.31,0,0,1,29,16.53a9.63,9.63,0,0,1,6.1,10.94,9.35,9.35,0,0,1-12.2,6.93c-.64-.23-1.63.81-.81,1.11A11,11,0,0,0,35.77,29.8,10.67,10.67,0,0,0,29.9,15.48a11,11,0,0,0-13.65,5.71,10.69,10.69,0,0,0,5.87,14.32C22.7,35.74,23.69,34.69,22.93,34.4Z" style="fill: #1a2e44"/><path d="M25.14,67.23c-.23-13.68-.47-27.42-.7-41.1A3.18,3.18,0,0,1,24.91,24a2.87,2.87,0,0,1,2.32-.7l31.9-1.05a.64.64,0,0,1,.64.64,337.73,337.73,0,0,0,1,43.37,2.49,2.49,0,0,1-.47,2,2.1,2.1,0,0,1-1.16.35A169.58,169.58,0,0,1,27.41,69" style="fill: #fff"/><path d="M25.78,67.05c-.18-9.72-.29-19.38-.47-29.1,0-2.27,0-4.54-.11-6.87,0-1.16-.06-2.27-.06-3.43a5.32,5.32,0,0,1,0-1.69,4,4,0,0,1,3.14-2.1,53.2,53.2,0,0,1,7.38-.23c2.44-.06,4.94-.17,7.38-.23,2.26-.06,4.53-.18,6.85-.23s5.29-.76,7.38-.24c2.5.58,1.63,3.79,1.57,5.88-.06,2.45-.12,4.95-.12,7.45,0,4.77.12,9.49.3,14.26s1,10,.93,14.79c0,.93.23,1-.35,1.92-.64,1-1,.87-2.15.93l-4,.35c-2.68.17-5.29.29-8,.35-6,.11-12-.06-18-.53-.7-.06-1.45,1.11-.52,1.17,5.75.46,11.45.64,17.2.58,2.85-.06,5.69-.18,8.54-.35,2.09-.12,5.29.17,7.21-.7a2.44,2.44,0,0,0,1.51-2.15c.34-2.74-.47-6-.64-8.79-.41-5.88-.58-11.76-.7-17.7q-.09-4.28,0-8.55c0-1.86.06-3.73.12-5.53,0-1,.46-2.68.11-3.67s-1.22-.93-2.32-.93c-3,.06-6.1.18-9.13.29-6.1.18-12.14.41-18.24.58-3.31.12-6.86-.4-7,3.73-.24,6.81.23,13.74.35,20.55s.23,13.67.34,20.54C24.44,68.16,25.84,67.75,25.78,67.05Z" style="fill: #1a2e44"/><path d="M33.39,34.05a149.8,149.8,0,0,0,16.15-.29c.7-.06,1.05-1.46.24-1.4-5.41.35-10.75.47-16.16.29C33,32.59,32.63,34,33.39,34.05Z" style="fill: #1a2e44"/><path d="M33.8,38.12c3.66.06,7.32.06,11,.12.7,0,1.34-1.22.41-1.22-3.66-.06-7.33-.06-11-.12C33.51,36.9,32.87,38.07,33.8,38.12Z" style="fill: #1a2e44"/><path d="M34.49,43.3A150.8,150.8,0,0,0,50.82,43c.7,0,.47-1.45-.23-1.45-5.35.35-10.69.46-16,.29C33.74,41.79,33.8,43.25,34.49,43.3Z" style="fill: #1a2e44"/><path d="M35.13,47.32c3.66.06,7.33.06,11,.12.93,0,.34-1.11-.35-1.11-3.66-.06-7.32-.06-11-.11C33.86,46.16,34.44,47.26,35.13,47.32Z" style="fill: #1a2e44"/><path d="M33.39,53.67a149.8,149.8,0,0,0,16.15-.3c.7,0,1.05-1.45.24-1.39-5.41.35-10.75.46-16.16.29C33,52.27,32.63,53.67,33.39,53.67Z" style="fill: #1a2e44"/><path d="M33.8,57.74c3.66.06,7.32.06,11,.12.7,0,1.34-1.23.41-1.23-3.66-.05-7.33-.05-11-.11C33.51,56.52,32.87,57.74,33.8,57.74Z" style="fill: #1a2e44"/></g></g></svg>