<svg xmlns="http://www.w3.org/2000/svg" xmlns:xlink="http://www.w3.org/1999/xlink" viewBox="0 0 79 79"><defs><clipPath id="a"><rect x="12.66" y="17.85" width="62.96" height="61.08" style="fill: none"/></clipPath><clipPath id="b"><rect x="0.44" width="78" height="78.94" style="fill: none"/></clipPath></defs><g style="clip-path: url(#a)"><path d="M38.19,17.85c16.71,0,37.43,15.11,37.43,32s-16,29.11-32.71,29.11A30.4,30.4,0,0,1,12.66,48.4C12.66,31.53,21.48,17.85,38.19,17.85Z" style="fill: #f9c273"/></g><g style="clip-path: url(#b)"><g><path d="M57.08,47.21c0,.84-12.7,1.55-28.32,1.55-7.45,0-17.17.28-22.28,0-5.54-.28-6-1.06-6-1.55,0-.85,24.21-1.41,39.89-1.41S57.08,46.36,57.08,47.21Z" style="fill: #1a2e44"/><path d="M37.07,21.11c5.25,1.26,10.29,4.85,10.29,9.14-.07,7.81.35,10-.07,13.23-.43,2.81-3.55,3.31-5,3.45-4,.28-23.35.35-28.53.42-4.76,0-6.18-3.59-6.18-4.43.07-5.42.21-5.42.43-12.6.14-4.36,5.53-8,10.93-9.21" style="fill: #1a2e44"/><path d="M24.72,28.21,23.51,28a9.51,9.51,0,0,1-7.59-11.26l1.2-6A9.62,9.62,0,0,1,28.41,3.1l1.2.21a9.51,9.51,0,0,1,7.6,11.25l-1.21,6A9.64,9.64,0,0,1,24.72,28.21Z" style="fill: #1a2e44"/><path d="M34.8,20.4c5.25,1.27,10.29,4.86,10.29,9.15-.07,7.88.35,10-.07,13.3-.43,2.81-3.55,3.3-5,3.44-4,.29-23.35.36-28.54.43-4.68.07-6.1-3.52-6.1-4.44.07-5.41.21-5.41.43-12.59.14-4.36,5.53-8,10.93-9.22" style="fill: #fff"/><path d="M34.44,21.11c2.84.77,5.82,2,7.81,4.29s1.91,4.29,1.91,7c0,3.1.78,7,0,10-1,3.94-5.6,3.31-8.73,3.38-3.54.07-7.09.14-10.57.14s-6.89.07-10.29.07-7.45.14-8.45-3.73c-.71-2.6.21-6.61.29-9.35s-.15-5,1.63-7.11c2.13-2.6,5.53-3.94,8.66-4.71,1-.22.92-1.62-.22-1.34-3.9,1-8.16,2.88-10.43,6.33-2,3.17-1.35,7.6-1.49,11.19-.07,2.32-.71,5.2.64,7.24,1.63,2.47,4.33,2.89,7.1,2.89q11.28,0,22.57-.21c5.32-.14,10.85,0,11.14-6.54.07-1.76,0-3.45-.07-5.21-.07-2.53.42-5.42-.29-7.81-1.27-4.43-6.38-6.76-10.5-7.81C34.3,19.49,33.38,20.82,34.44,21.11Z" style="fill: #1a2e44"/><path d="M25.92,26h-1.2a9.62,9.62,0,0,1-9.66-9.57V10.27A9.62,9.62,0,0,1,24.72.7h1.2a9.62,9.62,0,0,1,9.66,9.57v6.19A9.53,9.53,0,0,1,25.92,26Z" style="fill: #fff"/><path d="M26.14,25.33c-6.6,0-10.22-4.29-10.22-10.56,0-1.54-.07-3.09,0-4.64a8.87,8.87,0,0,1,8.65-8.72C31,1.2,34.72,5.7,34.8,11.68c0,1.62.07,3.31,0,4.92a8.84,8.84,0,0,1-8.66,8.73c-.93.07-1.49,1.48-.36,1.4a11.11,11.11,0,0,0,9.44-5.55c1.49-2.75,1.28-5.7,1.28-8.66,0-3.23-.14-6.26-2.34-8.86A11.09,11.09,0,0,0,24.93,0,11.07,11.07,0,0,0,16,4.78c-1.85,2.75-1.71,5.7-1.71,8.8s-.07,6,1.78,8.72c2.34,3.31,5.89,4.43,9.79,4.43C26.7,26.73,27.27,25.33,26.14,25.33Z" style="fill: #1a2e44"/><path d="M15.92,9.36s5.32-.07,8-2.4A29,29,0,0,0,28.48,1.9s-6.53-1.69-9,0S15.92,9.36,15.92,9.36Z" style="fill: #1a2e44"/><path d="M26.7,4.08a2.35,2.35,0,0,1,2.63.49c1.28,1.2.64,4.79,2,6s4.26.28,4.26.28S33,3,31,2.11a6.72,6.72,0,0,0-4.25-.21V4.08Z" style="fill: #1a2e44"/><path d="M40.76,31.31,68.65,35.6l8.09,23.78L73.12,76.55,23.37,68.17l1.84-13.79Z" style="fill: #fff"/><path d="M26,53.05c4.48.77,9,1.55,13.42,2.25l1.49.21c-.64-.14-.5-.77-.21.49a38.9,38.9,0,0,0,1.56,4.15.91.91,0,0,0,.71.64c4.26.63,8.51,1.19,12.77,1.83a.59.59,0,0,0,.43-.28c.78-1.27,1.49-2.68,2.34-3.87.57-.85-.07-.36.28-.43a9.61,9.61,0,0,1,2,.21c4.9.57,9.8,1.2,14.76,1.69-.28-.35-.49-.7-.78-1.12-.21,2.6-.42,5.13-.85,7.67-.35,2.11-.21,4.64-.85,6.61-.92,3-3.34,1.83-5.61,1.48l-5.89-1.06c-3.55-.63-7.17-1.26-10.71-1.9C44,70.36,37,69.23,30,68.39c-2.06-.29-5.61.14-6.32-2.47-.28-1,.29-2.88.36-4a40.61,40.61,0,0,1,1.13-7.74c.22-.84-1-1.9-1.27-.84a43.8,43.8,0,0,0-1.28,8.58c-.14,2-1.21,5.21.5,6.9a5.19,5.19,0,0,0,3.05.91c2.41.28,4.82.57,7.31.92,4.82.63,9.65,1.47,14.41,2.32s9.22,1.69,13.76,2.46c2.42.42,4.83.85,7.31,1.27,1.35.21,3.2.91,4.48,0,1.77-1.34,1.13-5.28,1.49-7.25.49-3.31,1-6.61,1.27-10a1.1,1.1,0,0,0-.78-1.13c-5.67-.63-11.35-1.26-17-2a.61.61,0,0,0-.43.29c-.49.84-1.06,1.68-1.56,2.6-.35.63-1.42,2-.85,1.76-1.42.49-4.83-.71-6.25-.92a59.83,59.83,0,0,1-6.17-.84c-.43-.07.64,1,.43.21-.15-.56-.43-1.05-.57-1.62-.43-1.12-.78-2.18-1.21-3.3a.91.91,0,0,0-.71-.64c-5-.84-10.08-1.62-15-2.53C24.86,51.22,25.14,52.91,26,53.05Z" style="fill: #1a2e44"/><path d="M41.11,32C50,33.42,58.93,34.76,67.8,36.16c1.06.14,1.13-1.12.07-1.33C59,33.42,50.05,32.08,41.18,30.67,40.12,30.53,40.05,31.87,41.11,32Z" style="fill: #1a2e44"/><path d="M40.05,31.45q-7.89,9.29-14.91,19.21c-.64.91.78,1.4,1.28.63q7-9.91,14.9-19.21C42.11,31.24,40.61,30.75,40.05,31.45Z" style="fill: #1a2e44"/><path d="M67.8,35.67c2.77,7.46,6.46,14.78,7.24,22.8.07.84,1.84.7,1.77-.22C76,50.09,72.27,42.71,69.5,35.11,69.22,34.4,67.51,34.83,67.8,35.67Z" style="fill: #1a2e44"/><path d="M70.07,36.3l5.46,22.38L72.91,76,26.56,69.37s-1.42.63.85,2.39S75,80.7,75.32,78.52c.28-2,2.63-15.2,3.12-18.23a3.42,3.42,0,0,0-.07-1.19Z" style="fill: #1a2e44"/></g></g></svg>