<svg xmlns="http://www.w3.org/2000/svg" xmlns:xlink="http://www.w3.org/1999/xlink" viewBox="0 0 76 64.98"><clipPath id="a"><path d="m10.22.3h67.42v74.7h-67.42z"/></clipPath><clipPath id="b"><path d="m0 5.8h76v53h-76z"/></clipPath><g clip-path="url(#a)"><path d="m36.76 0c17.52 0 39.24 16.07 39.24 34s-16.77 31-34.29 31-31.71-14.55-31.71-32.5 9.25-32.5 26.76-32.5z" fill="#f9c273"/></g><g clip-path="url(#b)"><path d="m46.78 21.81c1.13-.67 5 0 4.82 2.39s0 33.57-.89 34.37-45.43-.57-46.3-2.57c-.25-.55-4.15-4.17.71-8.18 12.28-10.07 41.66-26.01 41.66-26.01z" fill="#1a2e44"/><path d="m3.82 19.52 41.92.78a3.2 3.2 0 0 1 2.12.55 3 3 0 0 1 .66 2.32l-.09 32.65a352.51 352.51 0 0 0 -44.92-.53 2.36 2.36 0 0 1 -2-.55 2.18 2.18 0 0 1 -.33-1.21 169.43 169.43 0 0 1 .82-31.84" fill="#fff"/><g fill="#1a2e44"><path d="m3.71 20.11 39 .71c2.11.05 4.36-.29 5.08 2.13.36 1.23 0 3.07 0 4.36v9.57q0 9.57-.05 19.14l1-.79a360.26 360.26 0 0 0 -38.18-.83l-4.61.18a9 9 0 0 1 -2.3.11c-1.41-.4-1.56-1.45-1.85-2.51-.77-2.86-.3-6.71-.31-9.67a171.53 171.53 0 0 1 1.19-20.88c.1-.83-1.32-.58-1.39.11a173.37 173.37 0 0 0 -1.23 20.61c0 3.68-.28 7.76.39 11.39.29 1.57 1 2.06 2.58 2.14 3.53.16 7.2-.31 10.74-.39s7.3-.11 11-.08q11.73.11 23.43 1a.85.85 0 0 0 1-.78q0-10.69 0-21.39c0-3.57.07-7.14 0-10.7 0-2-.28-3.36-2.44-3.78-2.84-.55-6.2-.14-9.08-.2l-11.06-.2-22.7-.43c-.77-.01-1.18 1.16-.21 1.18z"/><path d="m2.09 21.45c4.81 3.49 8.58 7.91 12.7 12.1 2.36 2.41 6.93 8.13 10.8 6.85 4.35-1.4 8.71-4.7 12.41-7.29a52.31 52.31 0 0 0 11.21-10.24c.43-.55-.42-1.68-.94-1a50.27 50.27 0 0 1 -10.27 9.45c-3.58 2.6-7.86 5.85-12.09 7.36-4.7 1.67-10.52-6.16-13.35-9.18a73 73 0 0 0 -10-9.27c-.8-.53-1.04.77-.47 1.22z"/><path d="m48.28 24.56s-12.8 13.76-14.81 15.05-5.86-1.23-5.86-1.23 7.51-3.34 9.31-4.65 10.86-10.13 10.86-10.13z"/><path d="m72.36 7.34a5.83 5.83 0 0 1 3.27 3.66c.9 2.77-.07 29.33-.27 32.91s-39.11 2.22-39.62 1.32 36.54-31.68 36.54-31.68"/></g><path d="m29.37 11.48c0-2.39.95-4.3 2.08-4.34 11.76-.38 32.79-.65 39.4-.76 1.26 0 2.29 1.74 2.4 4.08.35 7.37.18 18.47.37 26.45.08 3.54-1.47 6.52-3.36 6.48-11-.23-31.79 1-38.63 1.42-1.21.07-2.23-1.62-2.33-3.88-.3-5.93-.05-21.78.07-29.45z" fill="#fff"/><path d="m30.07 11.43c.14-2.11 1.05-3.7 3.32-3.76l3-.08q3.85-.11 7.71-.18 7.7-.15 15.39-.27l6.24-.14c1.76 0 4-.49 5.45.55 2.08 1.5 1.48 5.72 1.53 8.06.06 3.16.08 6.31.09 9.46v8.08s1 8.74-2.48 9.61c-1.83.46-4.46 0-6.35 0q-3.88.06-7.76.2c-5.06.17-10.12.41-15.17.68l-6 .33a13.45 13.45 0 0 1 -2.1.12c-2.09-.18-2.83-1.34-3-3.41-.42-4.63-.13-9.42-.11-14.06q0-7.69.17-15.39c0-.74-1.38-.29-1.4.4-.08 5.67-.16 11.34-.18 17v8.11c0 2.16-.32 5 .72 7 .83 1.56 1.93 1.64 3.59 1.54l6.61-.37c6.24-.35 12.48-.64 18.73-.83 2.93-.08 5.84-.08 8.72-.14 1.88 0 4 .45 5.47-.91 1.72-1.57 2-4.18 2-6.34 0-3.34-.08-6.7-.1-10 0-3.5 0-7-.08-10.5 0-2.67.6-7-1.18-9.26-1-1.28-2.19-1.1-3.69-1.08-2.45 0-4.9.08-7.36.12-6.85.03-13.66.18-20.52.33-3 .07-6.8-.38-9.77.26-2.3.49-2.75 3-2.88 5-.06.82 1.32.55 1.39-.13z" fill="#1a2e44"/><path d="m37.4 33.43 4.27-5.87 4.18 3.34 5.3-7.3 5.73 7.61 4.3-5 6.1-3.56" fill="#fff"/><path d="m38 33.75 4.27-5.88h-1.17l4.19 3.35c.28.22.92.31 1.16 0l5.29-7.3-1.27-.09 5.74 7.62a.89.89 0 0 0 1.28.08c1.32-1.56 2.73-3.73 4.22-5 1.72-1.42 4.11-2.4 6-3.54.79-.45-.38-1.18-1-.82-2 1.14-4.35 2.13-6.1 3.56s-3 3.48-4.41 5.13l1.27.09-5.67-7.58a.89.89 0 0 0 -1.28-.08l-5.28 7.3h1.16l-4.18-3.39c-.29-.22-.92-.3-1.17 0l-4.27 5.88c-.49.72.84 1.22 1.22.67z" fill="#1a2e44"/><path d="m34.59 12c-.17 7.81-.64 15.67-.51 23.49.06 3.28 2.26 3.82 5.08 3.82h26.74c.71 0 .94-1.42.14-1.42h-23.38c-2.73 0-6.95.93-7.44-2.66-.52-3.86.18-8.25.27-12.14l.24-11.09c.02-1-1.12-.8-1.14 0z" fill="#1a2e44"/></g></svg>