<svg xmlns="http://www.w3.org/2000/svg" xmlns:xlink="http://www.w3.org/1999/xlink" fill="none" viewBox="0 0 79 83"><clipPath id="a"><path d="m5.72656 18.0391h67v64h-67z"/></clipPath><g clip-path="url(#a)"><path d="m32.8951 18.0391c17.7789 0 39.8315 15.8245 39.8315 33.4976s-17.0283 30.5002-34.8073 30.5002c-17.7789 0-32.19274-14.3258-32.19274-31.9989s9.38954-31.9989 27.16854-31.9989z" fill="#22d172"/></g><path d="m60.1476 34.0692c-8.4711-6.3347-12.2684-15.1197-20.7395-21.4544-.5258-.3585-1.0516-.7769-1.6942-.8964-.8763-.1793-1.8111.2391-2.629.6574-7.9452 4.004-19.1037 12.6694-24.42 19.9603l-.70103 24.801 49.30743-4.0638z" fill="#fff"/><path d="m60.6171 33.4697c-6.9521-5.3187-11.3921-13.0877-17.76-18.9443-1.2852-1.1953-3.0379-3.1076-4.7905-3.4662-1.4605-.2988-2.8626.5976-4.0895 1.255-3.3884 1.7928-6.6016 4.004-9.6979 6.3347-3.3884 2.51-6.6016 5.259-9.581 8.3068-1.4606 1.4941-4.0895 3.5857-4.5569 5.6774-.2921 1.3147-.1168 2.9881-.1168 4.3028-.1753 2.5698-.23372 5.1395-.29214 7.6495-.11684 4.243-.23368 8.4861-.35052 12.6694 0 .2391.17526.5379.46736.5379 16.4163-1.3746 32.8911-2.7491 49.3074-4.0638.409-.0598.7595-.4184.8179-.8367.2921-6.3347.5842-12.6694.8763-19.0041.0584-.9562-1.2268-.4184-1.2268.2988-.2921 6.3347-.5842 12.6694-.8763 19.0041.2921-.2988.5257-.5378.8179-.8366-14.4301 1.1952-28.8601 2.3904-43.2317 3.5856-2.1031.1793-4.1479.5379-6.1342.5379.0585 0 .2921.8367.3506.239.0584-.4183 0-.9561.0584-1.3745.0584-1.9721.1168-3.8845.1752-5.8566.1169-4.6016.2921-9.1435.409-13.7451 0-.9562-.2337-2.51.1168-3.4064.2337-.5976 1.2853-1.5538 1.7527-2.0917 1.5189-1.7331 3.0963-3.3466 4.7905-4.9004 3.3884-3.1076 7.0689-5.9762 10.9247-8.5459 1.6358-1.0757 3.33-2.1514 5.0827-3.1076 3.33-1.7928 5.6668-.1793 8.0621 1.9721 6.4263 5.9164 10.8079 13.6256 17.76 18.9444.5842.4781 1.5189-.6574.9347-1.1355z" fill="#1a2e44"/><path d="m58.2789 35.0206c1.2268-.7172 5.3163.0597 5.0826 2.5697s-.0584 30.4784-.9932 31.315c-.9347.8367-48.1974-1.0757-49.1321-3.1076-.2337-.5976-4.03105-5.7968 2.6874-6.2152 20.7979-1.3147 45.1011-18.2272 42.3553-24.5619z" fill="#1a2e44" stroke="#fff" stroke-linecap="square" stroke-width=".25"/><path d="m10.6677 33.0547c7.4195 5.4383 19.1621 21.3348 23.9527 20.797 4.9073-.5379 17.7016-15.299 23.2516-20.4384.8179 0 1.6942.0597 2.2784.6573.6426.6574.701 1.6734.701 2.6295-.0584 12.2511-.1752 18.9444-.2336 31.2553-16.1243-1.4343-32.3069-1.6733-48.4311-.8964-.8179.0597-1.7527 0-2.22002-.6574-.29211-.3586-.29211-.8964-.35053-1.3745-.70105-11.8926-.35053-20.0799 1.05155-31.9724z" fill="#fff"/><path d="m10.3155 33.7123c5.1995 3.9443 9.4642 9.0837 14.021 13.7451 2.3953 2.3905 6.7185 7.769 10.6327 7.1116 4.3231-.7769 8.6463-5.9761 11.6258-8.8447 2.3952-2.3306 4.7321-4.7809 7.0105-7.1713.9347-.9562 1.9279-1.9722 2.8626-2.9283.3506-.2988.7595-.8965 1.1685-1.1355 1.9863-1.0159 2.6289 1.494 2.6289 2.9881 0 10.2192-.1753 20.4384-.2337 30.6576.2337-.2988.4674-.5976.7011-.8964-14.0211-1.1355-28.0421-1.5538-42.1216-1.0757-1.6942.0597-3.5053.3585-5.1995.1792-1.11-.0597-2.5121-.239-3.2132-1.3745-.35049-.5378-.1168-2.2111-.1752-2.8088-.11687-3.1673-.23371-6.2749-.17529-9.3825.05842-6.5738.64259-13.1475 1.40209-19.7213.1169-.9562-1.0516-.8964-1.11 0-.81788 6.8128-1.40209 13.6854-1.46051 20.558 0 3.7052.05842 7.4104.35052 11.0558.17527 2.271.75948 2.9881 3.03789 3.1076 3.7974.1793 7.7116-.2988 11.509-.4183 4.031-.0598 8.0621-.0598 12.0931 0 8.2958.1195 16.5332.5378 24.7706 1.255.4673.0597.701-.5379.701-.8964.0584-9.0838.1753-18.1675.2337-27.2513 0-2.5697.9932-7.1116-2.4537-7.7092-2.0447-.3586-3.7389 2.3905-5.0242 3.7052-4.6737 4.8407-9.2889 9.9802-14.5468 14.044-1.5774 1.1952-3.6806 3.0478-5.7837 2.4502-2.4537-.6574-4.6737-3.1076-6.4264-4.7809-5.4331-5.1395-10.1068-11.2352-16.0657-15.7771-.6427-.4183-1.34373.8965-.7595 1.3148z" fill="#1a2e44"/><path d="m60.1467 34.0692c-8.471-6.3347-12.2684-15.1197-20.7395-21.4544-.5258-.3585-1.0515-.7769-1.6942-.8964-.8763-.1793-1.811.2391-2.6289.6574-7.9453 4.004-19.1037 12.6694-24.42 19.9603" fill="#fff"/><path d="m60.4982 33.4116c-5.0826-3.8845-8.8215-8.9643-12.911-13.8049-1.7527-2.0319-3.5637-4.0638-5.6084-5.7969-1.8111-1.6136-3.5637-3.4064-6.1343-2.5697-4.7905 1.6733-9.4642 5.5578-13.4368 8.6654-4.3816 3.5259-8.6463 7.3506-12.0347 11.9523-.46741.5976.1168 1.7928.701 1.0159 3.1548-4.1833 7.0105-7.8287 11.1-11.0559 3.7974-3.1076 8.4127-6.9921 13.0279-8.7251 5.1411-1.9124 10.9832 6.8725 13.8458 10.3985 3.2716 4.0637 6.6016 8.008 10.7495 11.1753.6426.5379 1.2852-.8366.701-1.2549z" fill="#1a2e44"/><path d="m19.7217 40.6442c-.1753-5.8566.0584-15.1794 0-19.3627 0-2.0319.5842-3.5857 1.4021-3.5259 8.4126.2988 23.4269 1.1952 28.1006 1.4343.8763.0597 1.6942 1.6135 1.811 3.5857.2921 4.4223.4674 10.4582.6426 16.016" fill="#fff"/><path d="m20.3645 40.5217c-.1168-5.6176 0-11.2352 0-16.9125 0-1.0757-.2336-2.4502.0585-3.4662.5842-2.3904 2.3368-1.6733 4.031-1.6135 2.8627.1195 5.7253.239 8.5879.4183 4.7906.2391 9.7563.1195 14.5469.7769 1.9863.2391 2.5705.9562 2.8626 3.1674.2337 1.6733.2337 3.3466.2921 5.0199.1753 3.6455.2337 7.2909.3505 10.9364 0 .9562 1.2853.4183 1.2853-.2988-.1168-4.4224-.2337-8.9045-.4674-13.3268-.1168-2.0917.1753-5.8567-2.22-6.6933-1.9279-.6574-4.9073-.2988-6.9521-.4184-3.3884-.1792-6.7184-.3585-10.1068-.5378-3.2716-.1793-6.6016-.3586-9.8732-.4781-1.9863-.0598-2.921.3586-3.3884 2.51-.7011 3.1076-.1753 6.8128-.1753 9.9801-.0584 3.7053-.0584 7.4702.0584 11.1754-.1168.9562 1.1685.4781 1.11-.239z" fill="#1a2e44"/><path d="m25.3318 39.5659h5.9005c.7011 0 1.1685-1.3745.3506-1.3745-1.9864 0-3.9143 0-5.9006 0-.701 0-1.1684 1.3745-.3505 1.3745z" fill="#1a2e44"/><path d="m25.2109 41.9531c4.5569.2988 9.1137.3586 13.6706.2391z" fill="#fff"/><path d="m25.1553 42.6737c4.5569.2988 9.1137.3586 13.6705.2391.7595 0 .8179-1.4941.1169-1.4941-4.5569.1196-9.1137.0598-13.6705-.239-.7595 0-.8179 1.4343-.1169 1.494z" fill="#1a2e44"/><path d="m60.1481 67.8949c-.9347-4.0638-13.6121-14.283-17.2926-19.3627z" fill="#fff"/><path d="m60.7896 67.6539c-1.0516-3.5856-4.6737-6.5737-7.1858-9.0239-3.4469-3.4662-7.3027-6.6933-10.2237-10.6376-.409-.5976-1.4605.4781-.9932 1.0757 2.629 3.526 6.0174 6.514 9.1137 9.5619 2.5705 2.5697 6.9521 5.8566 8.0037 9.5618.2337.8367 1.4605.1195 1.2853-.5379z" fill="#1a2e44"/><path d="m9.96387 65.148c7.36103-8.1873 10.34053-8.7849 17.00053-15.9563z" fill="#fff"/><path d="m10.4911 65.4442c5.3163-5.7969 11.6842-10.279 17.0006-15.9563.6426-.6574-.6427-1.1355-1.11-.6574-5.3748 5.7371-11.7427 10.1594-17.00057 15.9563-.58421.7171.64267 1.1952 1.10997.6574z" fill="#1a2e44"/><path d="m23.6936 22.5914c.0584-.7171.5842-1.3148 1.1684-1.3148 6.2511.1196 17.4095.5379 20.9148.6574.6426 0 1.1684.5976 1.2268 1.3148.0584 2.2709-.2337 5.7371-.2921 8.247 0 1.0758-.8763 1.9722-1.8695 1.9124-5.8421-.2988-16.8837-.4183-20.5642-.4183-.6426 0-1.1684-.5379-1.1684-1.255 0-1.8526.3505-6.753.5842-9.1435z" fill="#fff"/><g fill="#1a2e44"><path d="m24.3379 22.5942c.409-1.4343 6.4848-.5379 7.5948-.5379 2.6289.0598 5.1995.1793 7.8284.2391 1.9863.0597 5.959-.7171 6.5432 1.8526.2921 1.255-.1169 2.9283-.1753 4.2431-.0584.6573.1753 1.733-.1168 2.3307-.5842 1.3745-1.519 1.8526-2.6874 1.9721-2.3368.2988-5.0242-.1793-7.4195-.2391-2.4537-.0597-4.9074-.0597-7.4195-.1195-2.22 0-4.7905.5976-4.6736-2.5697.1168-2.51.2921-4.9602.5257-7.4702.0585-.7769-1.3436-.4183-1.4021.2988-.1752 1.9721-.2921 4.004-.4089 5.9761-.0584 1.1355-.4674 2.9284.0584 3.9443.9347 1.6733 4.3816.9562 5.959.9562 3.9726.0597 7.9452.1195 11.9179.239 2.0447.0598 5.55 1.016 6.7184-1.4342.6426-1.3148.3505-3.4065.4089-4.781.0585-1.4342.7011-4.004-.0584-5.3187-1.0516-1.6136-5.0826-.9562-6.7184-1.016-3.7974-.1195-7.5948-.239-11.4505-.3585-2.22-.0598-5.6085-1.016-6.4264 1.7928-.1752.7769 1.2269.6574 1.4021 0z"/><path d="m25.6784 32.0965c1.811-1.3745 4.3231-3.8247 6.5431-2.8685.9932.4183 1.9864 1.7331 3.1548 1.6135 1.5774-.1195 3.4468-1.8526 4.8489-2.5697.7011-.3586 1.9864-1.3148 2.8042-1.3148 1.4606 0 1.9864 1.0758 2.9211 2.0319.6426.6574 1.2268-.5378.7595-1.0757-.8179-.8964-1.6358-1.7331-2.4537-2.6295-.1168-.1793-.2921-.239-.5258-.1793-2.1032.7769-4.0311 1.8526-6.0174 2.9284-1.11.5976-1.6942 1.1952-2.921.9561-1.1684-.1792-2.3953-1.3745-3.33-2.0319-.1169-.0597-.2921-.1195-.409-.0597-2.1031 1.1355-4.0894 2.4502-5.9589 3.8845-.5258.4781-.1169 1.8526.5842 1.3147z"/><path d="m29.3605 22.4121c-.9347.0598-1.4021 1.1952-1.11 2.0319.3506.8964 1.7527 1.0159 2.5706.8964.9931-.1195 1.2268-1.255.8178-2.0319-.4673-.8366-1.5773-1.3745-2.4536-1.0159-.6427.239-.5258 1.7331.2336 1.4343.2922-.1196.6427-.0598.9348.0597.1752.0598.2337.2391.4089.2988.0584.1793.1169.1793.1753-.0597.1168-.1793.1168-.2391-.0584-.1793-.1169-.0598-.3506 0-.4674 0-.1753 0-.3505-.0598-.5258-.0598-.1168 0-.3505-.1195-.4674-.1195-.1168-.0598-.1168 0-.0584.1793 0-.0598 0-.0598 0 0 .6427 0 .7011-1.494 0-1.4343z"/></g></svg>