<svg xmlns="http://www.w3.org/2000/svg" xmlns:xlink="http://www.w3.org/1999/xlink" fill="none" viewBox="0 0 79 82"><clipPath id="a"><path d="m6.5 17.9995h67v64h-67z"/></clipPath><clipPath id="b"><path d="m1.5 5.99951h77v70h-77z"/></clipPath><g clip-path="url(#a)"><path d="m33.6685 17.9995c17.779 0 39.8315 15.8246 39.8315 33.4977s-17.0283 30.5002-34.8072 30.5002c-17.779 0-32.1928-14.3259-32.1928-31.999 0-17.673 9.3896-31.9989 27.1685-31.9989z" fill="#22d172"/></g><g clip-path="url(#b)"><path d="m78.5 73.4371c0 1.3168-17.2337 2.3564-38.4655 2.3564-10.1334 0-23.3689.4159-30.26234 0-7.58281-.4158-8.27216-1.6633-8.27216-2.3564 0-1.3168 32.9508-2.1485 54.2516-2.1485s22.7484.901 22.7484 2.1485z" fill="#1a2e44"/><path d="m63.6115 30.325s2.6885-2.1485 3.9293-.4158 1.7234 15.5941 1.4476 17.8119c-.2757 2.2178-5.1701 2.8416-5.9283 2.2871-.6894-.5545.5514-19.3366.5514-19.3366" fill="#1a2e44"/><path d="m63.5419 49.5239c1.4477-.4851 5.0323-.0693 4.8944 1.6634-.1379 1.3168-.8272 13.099-.5515 18.7129.069 1.4554-1.2408 2.6336-2.9642 2.6336-12.1325.0693-53.3554 1.2476-54.4583.0693-.3447-.4158-5.65267-2.9802.4136-5.9604 15.3724-7.6237 52.666-17.1188 52.666-17.1188z" fill="#1a2e44"/><path d="m3.22484 52.5743c.06893-1.4554 1.30976-2.6336 2.89525-2.7029 16.47541-.2079 45.97941-.4159 55.21671-.4852 1.7923 0 3.2399 1.0396 3.3777 2.4951.4826 4.5049.2758 11.3663.4826 16.2871.1379 2.2178-2.068 4.0198-4.6876 4.0198-15.4413-.1386-44.5318.6238-54.11367.901-1.72336.0693-3.10206-.9703-3.23993-2.3564-.4136-3.6733-.13787-13.4456.06894-18.1585z" fill="#fff"/><path d="m4.05222 52.5031c.55147-2.8416 5.72157-1.9406 7.72068-2.0099 2.6195 0 5.239-.0693 7.7896-.0693 5.239-.0693 10.547-.0693 15.786-.1386 5.0323-.0693 10.0645-.0693 15.0278-.1386 3.2399 0 7.1692-.6238 10.4091-.0693 4.4119.7624 3.3778 6.1683 3.4468 9.495 0 1.5248 0 3.0495.0689 4.5743 0 .7624.0689 1.4554.0689 2.2178 0 2.2178.1379 3.4654-2.068 4.4357-2.2748.9702-4.6876.6237-7.1003.693-2.5506 0-5.1011 0-7.6517.0693-10.2023.1386-20.4047.3466-30.6759.5545-3.3778.0693-12.33934 1.7327-12.95975-2.7723-.82722-5.4059-.06894-11.4356.13787-16.8416.06893-.9703-1.5855-.693-1.65443.1386-.20681 5.6832-.62042 11.505-.13787 17.1882.4136 4.9901 5.44583 3.9504 9.16828 3.8811 12.4083-.3465 24.8854-.6237 37.2937-.693 2.8952 0 5.7905-.0693 8.6857-.0693 2.4128 0 5.1012.2772 7.0314-1.3862 1.7923-1.5247 1.5855-3.396 1.5855-5.5445-.1379-4.0891 0-8.1782-.2758-12.3367-.3446-5.4059-4.205-4.9208-8.4789-4.8514-5.7216.0693-11.5121.0693-17.2337.1386-7.5828-.0693-15.0967 0-22.6106.0693-3.4467.0693-6.9624-.0693-10.40909.1386-2.34378.1386-4.13608.9703-4.61862 3.4653-.20681.9703 1.44762.6238 1.65443-.1386z" fill="#1a2e44"/><path d="m4.25491 29.6339c.06893-1.4554 1.37869-2.6336 2.96419-2.6336 16.4754-.2079 45.9794-.4159 55.2166-.4852 1.7923 0 3.24 1.0396 3.3778 2.4951.4826 4.5049.2758 11.3663.4826 16.2871.1379 2.2178-2.0681 4.0198-4.6876 4.0198-15.4413-.1386-44.5318.6238-54.1826.901-1.72337.0693-3.10206-.9703-3.23993-2.3564-.34467-3.7426-.06893-13.5149.06894-18.2278z" fill="#fff"/><path d="m5.08402 29.5656c.55148-2.8416 5.72158-1.9406 7.72068-2.0099 2.6195 0 5.239-.0693 7.7896-.0693 5.239-.0693 10.547-.0693 15.786-.1386 5.0323-.0693 10.0645-.0693 15.0278-.1386 3.2399 0 7.1692-.6238 10.4091-.0693 4.4118.7624 3.3778 6.1683 3.4468 9.495 0 1.5248 0 3.0495.0689 4.5743 0 .7624.0689 1.4554.0689 2.2178 0 2.2178.1379 3.4654-2.068 4.4357-2.2749.9702-4.6876.6237-7.1003.693-2.5506 0-5.1011 0-7.6517.0693-10.2023.1386-20.4047.3466-30.6759.5545-3.3778.0693-12.33934 1.7327-12.95975-2.7723-.75828-5.4059-.06894-11.3663.13787-16.8416.06893-.9703-1.5855-.693-1.65443.1386-.13787 5.6832-.62042 11.505-.13787 17.1882.41361 4.9901 5.44583 3.9504 9.16828 3.8811 12.4083-.3465 24.8854-.6237 37.2937-.693 2.8952 0 5.7905-.0693 8.6857-.0693 2.4127 0 5.1012.2772 7.0314-1.3862 1.7923-1.5247 1.5855-3.396 1.5855-5.5445-.1379-4.0891 0-8.1782-.2758-12.3367-.3446-5.4059-4.205-4.9208-8.4789-4.8514-5.7216.0693-11.5121.0693-17.2337.1386-7.5139.0693-15.0277.1386-22.5416.2079-3.4468.0693-6.9624-.0693-10.40916.1386-2.34377.1386-4.13608.9703-4.61862 3.4654-.2068.8316 1.44763.5544 1.5855-.2773z" fill="#1a2e44"/><path d="m13.7716 60.4733c0 1.0396-1.1029 1.6633-2.1369 1.6633s-1.86126-.8317-1.86126-1.8713.82726-1.8713 1.86126-1.8713 2.1369 1.0396 2.1369 2.0793z" fill="#1a2e44"/><path d="m20.1115 60.4733c0 1.0396-1.103 1.6633-2.137 1.6633s-1.8612-.8317-1.8612-1.8713.8272-1.8713 1.8612-1.8713 2.137 1.0396 2.137 2.0793z" fill="#1a2e44"/><path d="m27.2131 60.4733c0 1.0396-1.103 1.6633-2.137 1.6633s-1.8613-.8317-1.8613-1.8713.8273-1.8713 1.8613-1.8713c.9651 0 2.137 1.0396 2.137 2.0793z" fill="#fff" stroke="#1a2e44" stroke-linecap="square"/><path d="m13.7716 39.8209c0 1.0396-1.1029 1.6634-2.1369 1.6634s-1.86126-.8317-1.86126-1.8713.82726-1.8713 1.86126-1.8713 2.1369 1.1089 2.1369 2.0792z" fill="#1a2e44"/><path d="m20.1115 39.8209c0 1.0396-1.103 1.6634-2.137 1.6634s-1.8612-.8317-1.8612-1.8713.8272-1.8713 1.8612-1.8713 2.137 1.1089 2.137 2.0792z" fill="#1a2e44"/><path d="m27.2131 39.821c0 1.0396-1.103 1.6634-2.137 1.6634s-1.8613-.8317-1.8613-1.8713.8273-1.8713 1.8613-1.8713c.9651.0693 2.137 1.1089 2.137 2.0792z" fill="#fff" stroke="#1a2e44" stroke-linecap="square"/><path d="m45.273 32.0577c.5515 5.7525 4.0671 10.604 8.0653 12.6832s8.3411 1.802 12.3393.6238c2.3438-.6931 4.6876-1.6634 6.6178-3.5347 1.9301-1.8713 3.4467-4.6436 3.7224-7.9703.4826-5.3366-2.2748-10.4653-5.5147-13.8614-1.9302-2.0792-4.0672-3.6732-6.342-4.8515-3.6536-1.8712-18.6813-3.6732-19.3017 12.6832" fill="#1a2e44"/><path d="m43.273 30.253c.5515 5.7525 4.0671 10.604 8.0653 12.6832s8.3411 1.802 12.3393.6238c2.3438-.6931 4.6876-1.6634 6.6178-3.5347 1.9301-1.8713 3.4467-4.6435 3.7224-7.9703.4826-5.3366-2.2748-10.4653-5.5147-13.8614-1.9302-2.0792-4.0672-3.6732-6.342-4.8514-3.6536-1.8713-18.6813-3.67332-19.3017 12.6831" fill="#fff"/><g fill="#1a2e44"><path d="m42.5842 30.3937c.9651 7.7623 6.4799 14.693 14.752 14.9009 7.6518.1387 15.7861-3.9504 17.1647-12.1287 2.0681-12.198-10.9606-24.81185-22.9552-21.2772-6.342 1.8713-9.0304 7.7624-9.3751 14-.0689 1.0396 1.2408 1.2475 1.3098.1386.3446-6.1683 3.102-11.5049 9.5129-12.7525 4.6187-.9009 8.8237.2773 12.4772 3.1882 7.8586 6.1683 12.1325 19.9604.8962 25.1584-4.4808 2.0792-10.3402 2.8416-14.821.4851-4.4807-2.3564-7.0313-7.1386-7.6517-12.0594-.1379-1.1089-1.4477-.6237-1.3098.3466z"/><path d="m58.1639 30.6727c1.5855-1.1089 3.3088-2.1485 4.8943-3.3267.8962-.6238-.2757-1.5248-1.034-.9703-1.5855 1.1089-3.3088 2.1485-4.8943 3.3267-.8962.6238.3446 1.4555 1.034.9703z"/><path d="m58.0267 29.4944c-1.7923-3.0496-3.3088-6.0991-4.6875-9.3565-.4136-1.0396-1.5166 0-1.1719.8317 1.4476 3.3267 3.0331 6.5842 4.8944 9.703.4825.901 1.3786-.4852.965-1.1782z"/><path d="m56.5787 11.475c-.1379-1.1089.1379-4.64354-1.9302-4.36631-.965.13861.4136.48515.6205.48515.4825.0693 1.034.13861 1.5165.20792 1.103.0693 2.137 0 3.171-.13862 1.034-.13861.7583-1.45544-.2757-1.24752-1.7234.27723-3.24 0-4.9633-.34654-.7583-.13861-1.7923-.13861-2.2059.69307-.3447.69307.1378 1.31684.8272 1.52476.7583.27722 1.034.20792 1.3097 1.10891.2068.76238.2068 1.66338.2758 2.42578.0689.901 1.7233.5544 1.6544-.3466z"/><path d="m59.1986 11.1976c0-1.1089 0-2.21782 0-3.32673 0-.41584-.3447-.62376-.7583-.55445-.4136.13861-.6893.55445-.6893.97029v3.32669c0 .4159.3446.6238.7583.5545.4136-.0693.6893-.5545.6893-.9703z"/><path d="m65.54 14.7342c.9651-.901 1.8612-2.0099 2.4817-3.1881.1378-.2772.0689-.6931-.3447-.8317s-.8962.2079-1.103.5545c-.4825.9009-1.1719 1.8019-1.9301 2.495-.2758.2772-.5515.6931-.2758 1.0396.3447.2772.8962.2079 1.1719-.0693z"/><path d="m66.4349 10.9897c1.1029.7624 2.2059 1.7327 3.171 2.6336.6204.5545 2.137-.0693 1.3097-.7623-1.1029-1.0396-2.2748-2.0099-3.5156-2.91092-.7583-.48515-1.9302.41582-.9651 1.03962z"/><path d="m67.3337 15.5646c.4826-.6931 1.103-1.1782 1.8613-1.5941.3446-.2079.5515-.7623.4136-1.1089-.1379-.4158-.6204-.3465-.8962-.2079-.8272.4852-1.5855 1.1089-2.1369 1.9406-.2068.2772-.4137.7624-.1379 1.1782.1379.2079.6893.0693.8961-.2079z"/></g></g></svg>