<svg xmlns="http://www.w3.org/2000/svg" class="social-link__icon social-link__icon--twitter" viewBox="0 0 20 16"><title>Icon Twitter</title><path d="M6.02 12.31a3.88 3.88 0 0 1-3.6-2.68c.56.1 1.11.08 1.66-.05l.06-.03a3.87 3.87 0 0 1-3.09-3.84c.55.3 1.12.46 1.73.47A3.89 3.89 0 0 1 1.6 1.03a11.09 11.09 0 0 0 7.99 4.05l-.07-.43c-.1-.91.08-1.76.57-2.53A3.72 3.72 0 0 1 12.72.37c1.3-.22 2.44.16 3.39 1.08.06.06.11.08.2.06a7.85 7.85 0 0 0 2.3-.9h.03c-.3.9-.86 1.6-1.66 2.11a7.47 7.47 0 0 0 2.16-.58l.02.02-.45.58c-.41.5-.88.95-1.4 1.34-.05.03-.07.06-.07.12a11.35 11.35 0 0 1-3.16 8.22 10.37 10.37 0 0 1-5.33 2.97c-.7.15-1.43.23-2.15.25-2.24.07-4.3-.49-6.2-1.66l-.1-.06a7.86 7.86 0 0 0 5.72-1.6" fill-rule="evenodd"/></svg>