<svg xmlns="http://www.w3.org/2000/svg" xmlns:xlink="http://www.w3.org/1999/xlink" version="1.1" x="0px" y="0px" viewBox="0 0 450 330" style="enable-background:new 0 0 450 330;" xml:space="preserve">
<style type="text/css">
	.st0{fill:#F9F9F7;}
	.st1{fill:#FEFEFE;}
	.st2{fill:#1A2E44;}
	.st3{fill:#FFFFFF;}
	.st4{fill:#99BFF5;}
	.st5{fill:#DCDFE1;}
	.st6{fill:#22D172;}
	.st7{fill-rule:evenodd;clip-rule:evenodd;fill:#FFE717;}
	.st8{fill-rule:evenodd;clip-rule:evenodd;fill:#273649;}
	.st9{fill:none;stroke:#1A2E44;stroke-width:1.458;stroke-linecap:round;stroke-linejoin:round;stroke-miterlimit:10;}
	.st10{fill:#F4F4EF;}
	.st11{fill:#FAFBFB;}
	.st12{fill:#F9C273;}
	.st13{fill:#1A2E44;stroke:#FFFFFF;stroke-width:0.633;stroke-linecap:square;}
	.st14{clip-path:url(#SVGID_14_);}
	.st15{clip-path:url(#SVGID_16_);}
	.st16{clip-path:url(#SVGID_18_);}
	.st17{fill:#E5E5E5;}
	.st18{clip-path:url(#SVGID_24_);}
	.st19{clip-path:url(#SVGID_26_);}
	.st20{clip-path:url(#SVGID_28_);}
	.st21{clip-path:url(#SVGID_30_);}
	.st22{clip-path:url(#SVGID_32_);}
	.st23{clip-path:url(#SVGID_34_);}
	.st24{fill:none;stroke:#1A2E44;stroke-width:6.4901;stroke-linecap:round;stroke-linejoin:round;stroke-miterlimit:10;}
	.st25{clip-path:url(#SVGID_36_);}
	.st26{clip-path:url(#SVGID_38_);}
	.st27{fill:#97B4EF;}
	.st28{fill-rule:evenodd;clip-rule:evenodd;fill:#273649;stroke:#273649;stroke-width:1.5432;stroke-linejoin:round;}
	.st29{fill:none;stroke:#1A2E44;stroke-width:5;stroke-linecap:round;stroke-linejoin:round;stroke-miterlimit:10;}
	.st30{clip-path:url(#SVGID_40_);}
	.st31{clip-path:url(#SVGID_42_);}
	.st32{fill:#FFFFFF;stroke:#1A2E44;stroke-width:1.9876;stroke-linecap:square;}
	.st33{fill:none;stroke:#1A2E44;stroke-width:1.9876;stroke-dasharray:5.9629,5.9629;}
	.st34{fill:none;stroke:#1A2E44;stroke-width:17;stroke-linecap:round;stroke-linejoin:round;stroke-miterlimit:10;}
	.st35{clip-path:url(#SVGID_44_);}
	.st36{clip-path:url(#SVGID_46_);}
	.st37{clip-path:url(#SVGID_48_);}
	.st38{fill:#FFFFFF;stroke:#1A2E44;stroke-width:2.8788;stroke-linecap:square;}
	.st39{fill:none;stroke:#1A2E44;stroke-width:2.8788;stroke-linecap:round;stroke-linejoin:round;stroke-dasharray:8.6363,8.6363;}
	.st40{clip-path:url(#SVGID_50_);}
	.st41{clip-path:url(#SVGID_52_);}
	.st42{fill:none;stroke:#1A2E44;stroke-width:2.9571;stroke-linecap:round;stroke-linejoin:round;stroke-dasharray:8.8713,8.8713;}
	.st43{fill:none;stroke:#1A2E44;stroke-width:9;stroke-linecap:round;stroke-linejoin:round;stroke-miterlimit:10;}
	.st44{fill-rule:evenodd;clip-rule:evenodd;fill:#273649;stroke:#273649;stroke-width:1.4755;stroke-linejoin:round;}
	.st45{fill:none;stroke:#1A2E44;stroke-width:4.7807;stroke-linecap:round;stroke-linejoin:round;stroke-miterlimit:10;}
	.st46{fill-rule:evenodd;clip-rule:evenodd;fill:#273649;stroke:#273649;stroke-width:0.8978;stroke-linejoin:round;}
	.st47{fill:none;stroke:#1A2E44;stroke-width:1.4922;stroke-linecap:round;stroke-linejoin:round;stroke-dasharray:4.4767,4.4767;}
	.st48{fill:#17354A;}
	.st49{fill:#FDFDFE;}
	.st50{fill:#434D60;}
	.st51{fill:#2B4155;}
	.st52{fill:#354357;}
	.st53{fill:#FCFDFD;}
	.st54{fill:#213349;}
	.st55{fill:#22D173;}
	.st56{fill:#22D072;}
	.st57{fill:none;stroke:#213349;stroke-width:5.6;stroke-dasharray:10,10;}
	.st58{fill:none;stroke:#1A2E44;stroke-width:2.6503;stroke-linecap:round;stroke-linejoin:round;stroke-dasharray:7.9509,7.9509;}
	.st59{fill:#1A2E44;stroke:#1A2E44;stroke-width:0.8403;}
	.st60{fill:#1A2E44;stroke:#1A2E44;stroke-width:0.668;}
	.st61{clip-path:url(#SVGID_54_);}
	.st62{clip-path:url(#SVGID_56_);}
	.st63{fill:#FFFFFF;stroke:#1A2E44;stroke-width:1.5353;stroke-linecap:square;}
	.st64{fill:none;stroke:#1A2E44;stroke-width:1.5771;stroke-linecap:round;stroke-linejoin:round;stroke-dasharray:4.7313,4.7313;}
	.st65{fill:#1A2E44;stroke:#1A2E44;stroke-width:0.4482;}
	.st66{fill:#1A2E44;stroke:#1A2E44;stroke-width:0.3563;}
	.st67{fill:none;stroke:#1A2E44;stroke-width:2.5896;stroke-linecap:round;stroke-linejoin:round;stroke-miterlimit:10;}
	.st68{clip-path:url(#SVGID_58_);}
	.st69{clip-path:url(#SVGID_60_);}
	.st70{fill:none;stroke:#1A2E44;stroke-width:2;stroke-linecap:round;stroke-linejoin:round;stroke-dasharray:7.9509,7.9509;}
	.st71{fill:none;stroke:#1A2E44;stroke-width:1.0159;stroke-linecap:round;stroke-linejoin:round;stroke-dasharray:3.0476,3.0476;}
	.st72{fill:none;stroke:#1A2E44;stroke-width:0.9926;stroke-linecap:round;stroke-linejoin:round;stroke-miterlimit:10;}
	.st73{fill:none;stroke:#1A2E44;stroke-width:0.9965;stroke-linecap:round;stroke-linejoin:round;stroke-dasharray:2.9895,2.9895;}
	.st74{fill:none;stroke:#1A2E44;stroke-width:0.752;stroke-linecap:round;stroke-linejoin:round;stroke-dasharray:2.9895,2.9895;}
	.st75{clip-path:url(#SVGID_62_);}
	.st76{clip-path:url(#SVGID_64_);}
	.st77{fill:#FFFFFF;stroke:#1A2E44;stroke-width:1.1079;stroke-linecap:square;}
	.st78{fill:none;stroke:#1A2E44;stroke-width:1.1079;stroke-linecap:round;stroke-linejoin:round;stroke-dasharray:3.3238,3.3238;}
	.st79{fill:#1A2E44;stroke:#1A2E44;stroke-width:0.3234;}
	.st80{fill:#1A2E44;stroke:#1A2E44;stroke-width:0.2571;}
	.st81{fill:none;stroke:#1A2E44;stroke-width:1.2018;stroke-linecap:round;stroke-linejoin:round;stroke-miterlimit:10;}
	.st82{clip-path:url(#SVGID_66_);}
	.st83{clip-path:url(#SVGID_68_);}
	.st84{fill:#FFFFFF;stroke:#1A2E44;stroke-width:1.3415;stroke-linecap:square;}
	.st85{fill:none;stroke:#1A2E44;stroke-width:1.3415;stroke-linecap:round;stroke-linejoin:round;stroke-dasharray:4.0245,4.0245;}
	.st86{fill:none;stroke:#1A2E44;stroke-width:1.23;stroke-linecap:round;stroke-linejoin:round;stroke-dasharray:3.69,3.69;}
	.st87{fill:none;stroke:#1A2E44;stroke-width:1.2066;stroke-linecap:round;stroke-linejoin:round;stroke-dasharray:3.6197,3.6197;}
	.st88{fill:none;stroke:#1A2E44;stroke-width:0.9105;stroke-linecap:round;stroke-linejoin:round;stroke-dasharray:3.6197,3.6197;}
	.st89{fill:#1A2E44;stroke:#1A2E44;stroke-width:0.3916;}
	.st90{fill:#1A2E44;stroke:#1A2E44;stroke-width:0.3113;}
	.st91{fill:none;stroke:#1A2E44;stroke-width:1.4631;stroke-linecap:round;stroke-linejoin:round;stroke-miterlimit:10;}
	.st92{clip-path:url(#SVGID_70_);}
	.st93{clip-path:url(#SVGID_72_);}
	.st94{fill:#FFFFFF;stroke:#1A2E44;stroke-width:1.6332;stroke-linecap:square;}
	.st95{fill:none;stroke:#1A2E44;stroke-width:1.6332;stroke-linecap:round;stroke-linejoin:round;stroke-dasharray:4.8995,4.8995;}
	.st96{fill:none;stroke:#1A2E44;stroke-width:1.4974;stroke-linecap:round;stroke-linejoin:round;stroke-dasharray:4.4922,4.4922;}
	.st97{fill:none;stroke:#1A2E44;stroke-width:1.4689;stroke-linecap:round;stroke-linejoin:round;stroke-dasharray:4.4066,4.4066;}
	.st98{fill:none;stroke:#1A2E44;stroke-width:1.1085;stroke-linecap:round;stroke-linejoin:round;stroke-dasharray:4.4066,4.4066;}
	.st99{fill:#1A2E44;stroke:#1A2E44;stroke-width:0.4767;}
	.st100{fill:#1A2E44;stroke:#1A2E44;stroke-width:0.379;}
	.st101{fill:none;stroke:#1A2E44;stroke-width:1.4269;stroke-linecap:round;stroke-linejoin:round;stroke-dasharray:4.2807,4.2807;}
	.st102{fill:none;stroke:#1A2E44;stroke-width:1.0768;stroke-linecap:round;stroke-linejoin:round;stroke-dasharray:4.2807,4.2807;}
	.st103{opacity:0.37;}
	.st104{fill:#FEFEFE;stroke:#1A2E44;stroke-width:2.8729;stroke-linecap:round;stroke-linejoin:round;stroke-miterlimit:10;}
	.st105{fill:#FEFEFE;stroke:#1A2E44;stroke-width:1.7429;stroke-linecap:round;stroke-linejoin:round;stroke-miterlimit:10;}
	.st106{fill:#FEFEFE;stroke:#1A2E44;stroke-width:1.4917;stroke-linecap:round;stroke-linejoin:round;stroke-miterlimit:10;}
	.st107{fill:#213349;stroke:#1A2E44;stroke-width:0.4564;stroke-miterlimit:10;}
	.st108{fill:none;stroke:#213349;stroke-width:3;stroke-linecap:round;stroke-miterlimit:10;}
	.st109{fill:#F2F4F4;}
	.st110{fill:none;stroke:#FFFFFF;stroke-width:1.0176;stroke-linecap:round;stroke-linejoin:round;stroke-miterlimit:10;}
	.st111{fill:none;stroke:#FFFFFF;stroke-linecap:round;stroke-linejoin:round;stroke-miterlimit:10;}
	.st112{fill:none;stroke:#99BFF5;stroke-linecap:round;stroke-linejoin:round;stroke-miterlimit:10;}
	.st113{fill:#172D42;}
	.st114{fill:#24374C;}
	.st115{fill:#182D42;}
	.st116{fill:#182E42;}
</style>
<g id="Слой_2">
</g>
<g id="Слой_1">
	<path class="st10" d="M216.6,62.5c60,0,134.4,51.8,134.4,109.6c0,57.8-57.5,99.8-117.4,99.8c-60,0-108.6-46.9-108.6-104.7   S156.6,62.5,216.6,62.5z"/>
	<path class="st2" d="M308.9,221.2c0,1.9-47.4,3.5-105.7,3.5c-27.9,0-64.2,0.6-83.1,0c-20.7-0.6-22.6-2.5-22.6-3.5   c0-1.9,90.5-3.2,148.9-3.2C304.8,218,308.9,219.2,308.9,221.2z"/>
	<g>
		<g>
			<path class="st3" d="M96.5,124.7c0.2-13.9-6.3-16.4,14.1-19.3c20.4-2.9,177.3,2.3,177.3,2.3s-3.2,81.3-1.3,102.9     c0.6,7.2-6.7,11.7-27.3,9c-18.1-2.3-68.4,5.2-103,2.7c-34.6-2.5-44.1,1.7-50.6-4.2c-6.5-5.9-8.2-16.6-7.5-31.7     C99,171.2,96.5,128.3,96.5,124.7z"/>
			<path class="st2" d="M96.5,124.7c0.2-13.9-6.3-16.4,14.1-19.3c20.4-2.9,25.6,2.3,25.6,2.3s0.2,92.5,2.2,114.1     c-12-1.2-26.8,0.6-32.7-3.7c-7.1-5.2-8.2-16.6-7.5-31.7C99,171.2,96.5,128.3,96.5,124.7z"/>
			<path class="st6" d="M98.2,98.8c2.7-5.2,11.7-5.3,26.7-5.7c15-0.4,123.6-2.4,153.1,1.3c0,0,7.8,2,8.7,6.6s1,9.1,1,9.1     s-30.2-2.1-51.2-2.7s-50.7,0.4-63.6,1.1s-73.9,1.4-75.7,1.5C95.4,110.1,98.2,98.8,98.2,98.8z"/>
			<path class="st2" d="M286.9,187.2c0.3-10.7,0.4-38.3,0.8-49c0.4-10.2,1.7-18.3,1.1-28.4c-0.3-6-0.6-13.6-8.2-15.9     c-3.7-1.1-7.8-1.2-11.7-1.5c-5.8-0.4-21.4-0.8-27.3-1.1c-11.9-0.6-23.7-1-35.5-1.2c-23.2-0.4-56.1,0.1-79.3,0.7     c-6.2,0.1-15.2-1.2-21.2,0.6c-5.2,1.5-8.8,4.8-10.4,9.3c-0.8,2.2-1.4,65.2,0.6,86.3c0.4,4.6,0.5,8.1,0.4,12.7     c-0.1,4.2-0.1,8.7,1.6,12.7c2.3,5.5,7.7,8.6,13.9,9.8c6.6,1.4,15.8,2.1,22.5,1.7c9-0.6,27.6,0.4,36.6,0.2     c11.8-0.4,23.5,0.2,35.1-0.5c11.8-0.7,23.6-0.9,35.3-1.2c5.2-0.1,10.3-0.3,15.5,0.1c4.1,0.3,18.1-0.2,22.2-0.8     c7-1.1,8.6-8.7,8.7-14.1c0-3.1-0.3-6.2-0.6-9.4C286.6,194.6,286.8,190.9,286.9,187.2z M285.5,208.6c-0.1,2.5-0.3,5.6-2.1,7.8     c-2.2,2.5-8,2.5-11.2,2.6c-11,0.1-40.6-0.3-54,0.4c-11.3,0.6-22.6,0.4-34,0.9c-10.7,0.4-31.1-0.6-41.8-0.2     c-6.3,0.3-12.6-0.2-18.8-0.3c-6-0.1-13-0.9-17.7-4.7c-6.5-5.2-5.5-13.8-5.4-20.8c0.1-4.4-0.4-5.7-0.7-10.2     c-0.4-5.1-0.8-27-1.1-32.1c-0.6-10.1-0.6-41.4-0.6-41.9c0.1-5,0.8-11,5.7-14c4.5-2.7,10.7-2.8,16-2.9c20.8-0.7,51.5-1.1,72.4-1     c22.6,0.1,54.9,0.8,77.4,2.5c3.5,0.3,7.3,0.4,10.5,1.6c2.6,1,4.3,2.8,5.1,5.3c1.5,4.2,1.4,8.9,1.4,13.1c0,4.9-0.3,9.8-0.6,14.7     c-0.7,10-0.9,17.9-1.1,27.9C284.9,162.5,284.7,197.3,285.5,208.6z"/>
			<path class="st2" d="M287.2,107.7c-4.8,0.9-9.5,0.2-14.3-0.4c-5.5-0.6-20.6-0.5-26.2-0.5c-11.5,0-23-0.2-34.5-0.1     c-11.4,0-22.8,0-34.2,0.5c-11.3,0.5-32.4,0.9-43.7,1.2c-6.3,0.2-12.8,0.4-19.2,0.5c-3,0-5.9,0-9-0.1c-2.6-0.1-5.4-0.3-8,0.5     c-1.1,0.3-1.7,2.6-0.3,2.2c2.4-0.7,5-0.6,7.5-0.5c2.6,0.1,5.4,0.1,8,0.1c5.6,0,11.2-0.2,16.8-0.4c11.4-0.4,32.5-0.7,43.9-1.2     c22.8-1,45.7-0.7,68.4-0.5c6.2,0,22.3-0.3,28.5,0.4c5.3,0.6,10.4,1.4,15.8,0.5C288.1,109.8,288.7,107.5,287.2,107.7z"/>
			<path class="st2" d="M111.2,98.3c0-0.1-0.1-0.1-0.2-0.2c-0.1-0.1-0.3-0.3-0.4-0.3c-0.3-0.2-1.1-0.3-1.3-0.3     c-0.7-0.1-1.3,0.2-1.9,0.5c-0.7,0.4-1.1,1.2-1.4,1.9c-0.1,0.3-0.2,0.6-0.3,0.9c0,0.3-0.1,0.5,0,0.8c0,0.3,0.1,0.4,0.2,0.7     c0.1,0.2,0.2,0.4,0.3,0.5c0.3,0.3,0.7,0.5,1.1,0.6c0.3,0.1,0.8,0.1,1.1,0C111.1,103.1,112.6,100.3,111.2,98.3z"/>
			<path class="st2" d="M121.3,98.1c-0.1-0.1-0.1-0.1-0.2-0.2c-0.1-0.1-0.3-0.2-0.4-0.3c-0.3-0.1-1.2-0.1-1.3-0.1     c-0.7,0-1.3,0.3-1.8,0.8c-0.6,0.5-1,1.3-1.1,2.1c-0.1,0.3-0.1,0.6-0.1,0.9c0,0.3,0,0.5,0.1,0.8c0.1,0.3,0.2,0.4,0.3,0.7     c0.1,0.2,0.3,0.3,0.4,0.5c0.3,0.3,0.7,0.4,1.2,0.4c0.3,0,0.8-0.1,1-0.2C121.7,103,123,100,121.3,98.1z"/>
			<path class="st2" d="M131.4,98c-0.1-0.1-0.1-0.1-0.2-0.1c-0.2-0.1-0.3-0.2-0.4-0.2c-0.3-0.1-1.2,0.1-1.3,0.1     c-0.7,0.1-1.2,0.5-1.7,1c-0.5,0.6-0.8,1.5-0.9,2.2c0,0.3,0,0.7,0,0.9c0,0.3,0.1,0.5,0.2,0.8c0.1,0.2,0.2,0.4,0.3,0.6     s0.3,0.3,0.5,0.4c0.4,0.3,0.8,0.3,1.3,0.3c0.3,0,0.7-0.2,1-0.3C132.4,102.7,133.2,99.6,131.4,98z"/>
		</g>
		<g>
			<path class="st3" d="M110.8,132.2l-1.6,0.9c-0.2,0.1-0.1,0.4,0,0.4l6,3.3c0.4,0.2,0.8,0.2,1.2,0l6.1-3.4c0.2-0.1,0.2-0.3,0-0.4     l-1.6-0.9c-0.2-0.1-0.5-0.1-0.5,0l-3.9,2.2c-0.4,0.2-0.8,0.2-1.2,0l-3.9-2.2C111.2,132.1,111,132.1,110.8,132.2z"/>
			<path class="st3" d="M115.3,119.1c0.4-0.2,0.8-0.2,1.2,0c0,0,4.6,2.5,4.8,2.7c0.2,0.1,0.2,0.4,0,0.5c-0.5,0.3-1.2,0.6-1.6,0.9     c-0.2,0.1-0.3,0.1-0.5,0l-2.8-1.6c-0.4-0.2-0.8-0.2-1.2,0l-2.8,1.6c-0.2,0.1-0.3,0.1-0.5,0c-0.4-0.2-1.1-0.6-1.6-0.9     c-0.2-0.1-0.2-0.3,0-0.4L115.3,119.1z"/>
			<path class="st6" d="M123.4,123.2c0.4,0.2,0.6,0.5,0.6,0.9v7.8c0,0.4-0.2,0.5-0.5,0.3l-1.8-0.9V126l-5.3,2.9     c-0.4,0.2-0.8,0.2-1.2,0L110,126v5.2l-1.6,0.9c-0.2,0.1-0.7,0.2-0.7-0.3v-7.8c0-0.4,0.2-0.8,0.6-0.9c0.6-0.3,1.2,0,1.2,0l6.4,3.6     l6.4-3.6C122.2,123.2,122.8,122.8,123.4,123.2z"/>
		</g>
		<g>
			<g>
				<path class="st2" d="M146.9,159.7c-0.5,3,0.8,6,2.8,7.6c2,1.6,4.6,2.1,7.2,2.1c1.5,0,3-0.2,4.4-0.8c1.4-0.7,2.7-1.9,3.4-3.5      c1.1-2.6,0.2-5.7-1.2-7.9c-0.8-1.3-1.9-2.5-3-3.4c-1.9-1.5-10.5-4.6-13.3,3.6"/>
				<path class="st17" d="M146,159.5c-0.5,3,0.8,6,2.8,7.6c2,1.6,4.6,2.1,7.2,2.1c1.5,0,3-0.2,4.4-0.8c1.4-0.7,2.7-1.9,3.4-3.5      c1.1-2.6,0.2-5.7-1.2-7.9c-0.8-1.3-1.9-2.5-3-3.4c-1.9-1.5-10.5-4.6-13.3,3.6"/>
				<path class="st2" d="M145.8,159.5c-0.7,4.4,2.1,8.4,6.6,9.5c4.2,1,9.7,0.4,11.7-3.8c1.9-4.1-0.7-9.2-4.2-11.8      c-1.7-1.2-4.1-1.8-6.1-1.8c-3.8,0-6.4,2.3-7.5,5.6c-0.1,0.3,0.4,0.3,0.5,0.1c1-2.7,2.9-4.9,6.1-5.3c2-0.2,4.2,0.3,5.9,1.2      c3.1,1.6,5.3,5.4,5.4,8.7c0.1,2.2-0.8,4.4-2.8,5.7c-1.9,1.4-4.5,1.5-6.9,1.3c-2.5-0.2-4.9-1.1-6.4-3c-1.5-1.8-2.1-4.2-1.8-6.5      C146.3,159.2,145.8,159.2,145.8,159.5z"/>
				<g>
					<path class="st2" d="M146,160C146,160,146,160,146,160c-0.2,0-0.3-0.2-0.3-0.3c0.1-0.8,0.3-2.1,0.5-2.7       c0.1-0.1,0.2-0.2,0.3-0.1c0.1,0,0.2,0.2,0.1,0.3c-0.3,0.7-0.4,2.2-0.5,2.6C146.2,159.9,146.1,160,146,160z"/>
				</g>
			</g>
			<g>
				<path class="st2" d="M182.7,159.7c-0.5,3,0.8,6,2.8,7.6c2,1.6,4.6,2.1,7.2,2.1c1.5,0,3-0.2,4.4-0.8c1.4-0.7,2.7-1.9,3.4-3.5      c1.1-2.6,0.2-5.7-1.2-7.9c-0.8-1.3-1.9-2.5-3-3.4c-1.9-1.5-10.5-4.6-13.3,3.6"/>
				<path class="st17" d="M181.8,159.5c-0.5,3,0.8,6,2.8,7.6c2,1.6,4.6,2.1,7.2,2.1c1.5,0,3-0.2,4.4-0.8c1.4-0.7,2.7-1.9,3.4-3.5      c1.1-2.6,0.2-5.7-1.2-7.9c-0.8-1.3-1.9-2.5-3-3.4c-1.9-1.5-10.5-4.6-13.3,3.6"/>
				<path class="st2" d="M181.5,159.5c-0.7,4.4,2.1,8.4,6.6,9.5c4.2,1,9.7,0.4,11.7-3.8c1.9-4.1-0.7-9.2-4.2-11.8      c-1.7-1.2-4.1-1.8-6.1-1.8c-3.8,0-6.4,2.3-7.5,5.6c-0.1,0.3,0.4,0.3,0.5,0.1c1-2.7,2.9-4.9,6.1-5.3c2-0.2,4.2,0.3,5.9,1.2      c3.1,1.6,5.3,5.4,5.4,8.7c0.1,2.2-0.8,4.4-2.8,5.7c-1.9,1.4-4.5,1.5-6.9,1.3c-2.5-0.2-4.9-1.1-6.4-3c-1.5-1.8-2.1-4.2-1.8-6.5      C182.1,159.2,181.5,159.2,181.5,159.5z"/>
				<g>
					<path class="st2" d="M181.7,160C181.7,160,181.7,160,181.7,160c-0.2,0-0.3-0.2-0.3-0.3c0.1-0.8,0.3-2.1,0.5-2.7       c0.1-0.1,0.2-0.2,0.3-0.1c0.1,0,0.2,0.2,0.1,0.3c-0.3,0.7-0.4,2.2-0.5,2.6C182,159.9,181.8,160,181.7,160z"/>
				</g>
			</g>
			<g>
				<path class="st2" d="M220.2,159.7c-0.5,3,0.8,6,2.8,7.6c2,1.6,4.6,2.1,7.2,2.1c1.5,0,3-0.2,4.4-0.8c1.4-0.7,2.7-1.9,3.4-3.5      c1.1-2.6,0.2-5.7-1.2-7.9c-0.8-1.3-1.9-2.5-3-3.4c-1.9-1.5-10.5-4.6-13.3,3.6"/>
				<path class="st6" d="M219.3,159.5c-0.5,3,0.8,6,2.8,7.6c2,1.6,4.6,2.1,7.2,2.1c1.5,0,3-0.2,4.4-0.8c1.4-0.7,2.7-1.9,3.4-3.5      c1.1-2.6,0.2-5.7-1.2-7.9c-0.8-1.3-1.9-2.5-3-3.4c-1.9-1.5-10.5-4.6-13.3,3.6"/>
				<path class="st2" d="M219,159.5c-0.7,4.4,2.1,8.4,6.6,9.5c4.2,1,9.7,0.4,11.7-3.8c1.9-4.1-0.7-9.2-4.2-11.8      c-1.7-1.2-4.1-1.8-6.1-1.8c-3.8,0-6.4,2.3-7.5,5.6c-0.1,0.3,0.4,0.3,0.5,0.1c1-2.7,2.9-4.9,6.1-5.3c2-0.2,4.2,0.3,5.9,1.2      c3.1,1.6,5.3,5.4,5.4,8.7c0.1,2.2-0.8,4.4-2.8,5.7c-1.9,1.4-4.5,1.5-6.9,1.3c-2.5-0.2-4.9-1.1-6.4-3c-1.5-1.8-2.1-4.2-1.8-6.5      C219.6,159.2,219.1,159.2,219,159.5z"/>
				<g>
					<path class="st2" d="M219.3,160C219.2,160,219.2,160,219.3,160c-0.2,0-0.3-0.2-0.3-0.3c0.1-0.8,0.3-2.1,0.5-2.7       c0.1-0.1,0.2-0.2,0.3-0.1c0.1,0,0.2,0.2,0.1,0.3c-0.3,0.7-0.4,2.2-0.5,2.6C219.5,159.9,219.4,160,219.3,160z"/>
				</g>
			</g>
			<g>
				<path class="st2" d="M164.8,161.4c1.4,0.2,2.8,0.1,4.2,0l4.2-0.2l4.2-0.2c1.4-0.1,2.8-0.2,4.2-0.3l0.1,0.7      c-1.4,0.3-2.8,0.4-4.2,0.5c-1.4,0.1-2.8,0.2-4.2,0.2l-4.2,0.1c-1.4,0-2.8,0-4.2,0.2L164.8,161.4z"/>
			</g>
			<g>
				<path class="st2" d="M238.2,161.4c1.4,0.2,2.8,0.1,4.2,0l4.2-0.2l4.2-0.2c1.4-0.1,2.8-0.2,4.2-0.3l0.1,0.7      c-1.4,0.3-2.8,0.4-4.2,0.5c-1.4,0.1-2.8,0.2-4.2,0.2l-4.2,0.1c-1.4,0-2.8,0-4.2,0.2L238.2,161.4z"/>
			</g>
			<g>
				<path class="st2" d="M200.5,161.1c1.6,0.2,3.1,0.1,4.7,0.1l4.7,0c3.1-0.1,6.3,0,9.3-0.5l0.2,0.7c-1.6,0.4-3.1,0.5-4.7,0.6      c-1.6,0.1-3.1,0.1-4.7,0.1l-4.7,0c-1.6,0-3.1-0.1-4.7,0.1L200.5,161.1z"/>
			</g>
			<g>
				<path class="st2" d="M255.8,159.7c-0.5,3,0.8,6,2.8,7.6c2,1.6,4.6,2.1,7.2,2.1c1.5,0,3-0.2,4.4-0.8c1.4-0.7,2.7-1.9,3.4-3.5      c1.1-2.6,0.2-5.7-1.2-7.9c-0.8-1.3-1.9-2.5-3-3.4c-1.9-1.5-10.5-4.6-13.3,3.6"/>
				<path class="st3" d="M254.8,159.5c-0.5,3,0.8,6,2.8,7.6c2,1.6,4.6,2.1,7.2,2.1c1.5,0,3-0.2,4.4-0.8c1.4-0.7,2.7-1.9,3.4-3.5      c1.1-2.6,0.2-5.7-1.2-7.9c-0.8-1.3-1.9-2.5-3-3.4c-1.9-1.5-10.5-4.6-13.3,3.6"/>
				<path class="st2" d="M254.6,159.5c-0.7,4.4,2.1,8.4,6.6,9.5c4.2,1,9.7,0.4,11.7-3.8c1.9-4.1-0.7-9.2-4.2-11.8      c-1.7-1.2-4.1-1.8-6.1-1.8c-3.8,0-6.4,2.3-7.5,5.6c-0.1,0.3,0.4,0.3,0.5,0.1c1-2.7,2.9-4.9,6.1-5.3c2-0.2,4.2,0.3,5.9,1.2      c3.1,1.6,5.3,5.4,5.4,8.7c0.1,2.2-0.8,4.4-2.8,5.7c-1.9,1.4-4.5,1.5-6.9,1.3c-2.5-0.2-4.9-1.1-6.4-3c-1.5-1.8-2.1-4.2-1.8-6.5      C255.1,159.2,254.6,159.2,254.6,159.5z"/>
				<g>
					<path class="st2" d="M254.8,160C254.8,160,254.8,160,254.8,160c-0.2,0-0.3-0.2-0.3-0.3c0.1-0.8,0.3-2.1,0.5-2.7       c0.1-0.1,0.2-0.2,0.3-0.1c0.1,0,0.2,0.2,0.1,0.3c-0.3,0.7-0.4,2.2-0.5,2.6C255,159.9,254.9,160,254.8,160z"/>
				</g>
			</g>
			<g>
				<defs>
					<rect id="SVGID_61_" x="150.1" y="157.1" width="8.6" height="8.2"/>
				</defs>
				<clipPath id="SVGID_2_">
					<use xlink:href="#SVGID_61_" style="overflow:visible;"/>
				</clipPath>
				<g style="clip-path:url(#SVGID_2_);">
					<path class="st2" d="M150.2,161.7c0.4,0.6,0.9,1.2,1.4,1.7c0.4,0.5,0.9,1.3,1.4,1.7c0.5,0.4,0.8,0.2,1.2-0.3       c0.7-1.1,1.3-2.3,2-3.3c0.8-1.2,1.6-2.3,2.5-3.5c0.3-0.5-0.1-1.3-0.6-0.7c-1.2,1.6-2.4,3.3-3.4,5c-0.2,0.4-0.5,1.1-0.8,1.4       c-0.1,0.1-0.1,0.2-0.2,0.4c-0.2-0.1-0.4-0.3-0.6-0.6c-0.8-0.9-1.4-1.9-2.2-2.8C150.4,160.3,149.9,161.2,150.2,161.7z"/>
				</g>
			</g>
			<g>
				<defs>
					<rect id="SVGID_63_" x="186.4" y="157.1" width="8.6" height="8.2"/>
				</defs>
				<clipPath id="SVGID_4_">
					<use xlink:href="#SVGID_63_" style="overflow:visible;"/>
				</clipPath>
				<g style="clip-path:url(#SVGID_4_);">
					<path class="st2" d="M186.5,161.7c0.4,0.6,0.9,1.2,1.4,1.7c0.4,0.5,0.9,1.3,1.4,1.7c0.5,0.4,0.8,0.2,1.2-0.3       c0.7-1.1,1.3-2.3,2-3.3c0.8-1.2,1.6-2.3,2.5-3.5c0.3-0.5-0.1-1.3-0.6-0.7c-1.2,1.6-2.4,3.3-3.4,5c-0.2,0.4-0.5,1.1-0.8,1.4       c-0.1,0.1-0.1,0.2-0.2,0.4c-0.2-0.1-0.4-0.3-0.6-0.6c-0.8-0.9-1.4-1.9-2.2-2.8C186.7,160.3,186.2,161.2,186.5,161.7z"/>
				</g>
			</g>
		</g>
	</g>
	<path class="st2" d="M334.2,247.5c0,1.4-19.3,2.6-43,2.6c-11.3,0-26.1,0.4-33.8,0c-8.4-0.5-9.2-1.8-9.2-2.6   c0-1.4,36.8-2.4,60.5-2.4C332.5,245.1,334.2,246.1,334.2,247.5z"/>
	<path class="st2" d="M317.4,221c1.6-0.6,5.6-0.1,5.5,1.8c-0.1,1.5-0.9,14.6-0.6,20.8c0.1,1.6-1.4,2.9-3.3,2.9   c-13.6,0.1-59.6,1.4-60.8,0c-0.4-0.4-6.3-3.3,0.5-6.6C275.8,231.5,317.4,221,317.4,221z"/>
	<path class="st2" d="M316.4,196.8c1.6-0.6,5.6-0.1,5.5,1.8c-0.1,1.5-0.9,14.6-0.6,20.8c0.1,1.6-1.4,2.9-3.3,2.9   c-13.6,0.1-59.6,1.4-60.8,0c-0.4-0.4-6.3-3.3,0.5-6.6C274.9,207.3,316.4,196.8,316.4,196.8z"/>
	<path class="st3" d="M250.1,224.3c0.1-1.6,1.5-2.9,3.3-3c18.4-0.3,51.3-0.4,61.7-0.5c2,0,3.6,1.2,3.8,2.8c0.5,5,0.3,12.6,0.6,18.1   c0.1,2.4-2.3,4.5-5.3,4.4c-17.3-0.2-49.8,0.7-60.5,1c-1.9,0-3.5-1.1-3.6-2.6C249.6,240.4,249.9,229.6,250.1,224.3z"/>
	<path class="st2" d="M250.7,224.6c0.6-3.3,7.2-2.4,9.5-2.4c2.9,0,5.7-0.1,8.6-0.1c6.3-0.1,12.6-0.1,18.9-0.2   c5.6,0,11.1-0.1,16.7-0.1c3,0,11.5-1.4,13.3,1.3c1.6,2.4,0.8,7.7,0.8,10.5c0,3.2,1.3,9.3-2,11.1c-2.2,1.2-6.1,0.6-8.6,0.6   c-2.9,0-5.9,0-8.8,0.1c-11.6,0.1-23.3,0.4-34.9,0.7c-2.4,0.1-4.8,0.1-7.2,0.2c-3,0.1-6,0.6-6.5-3.4c-0.7-6,0-12.4,0.2-18.4   c0-1-1.2-1-1.3,0c-0.2,6.4-0.9,13.2-0.1,19.6c0.6,5,6,4,9.8,3.9c13.9-0.4,27.9-0.7,41.8-0.8c3.1,0,6.3,0,9.4,0c2.8,0,6,0.5,8.2-1.7   c1.8-1.8,1.4-4.1,1.4-6.5c-0.1-4.3,0-8.6-0.3-12.9c-0.1-2.2-0.2-4.4-2.6-5.5c-1.9-0.8-4.6-0.4-6.7-0.4c-6.1,0-12.3,0.1-18.4,0.1   c-8.3,0.1-16.7,0.1-25,0.2c-3.8,0-7.5,0.1-11.3,0.1c-2.9,0-5.6,0.2-6.2,3.6C249.3,225,250.5,225.6,250.7,224.6z"/>
	<path class="st3" d="M250.1,198.1c0.1-1.6,1.5-2.9,3.3-3c18.4-0.3,51.3-0.4,61.7-0.5c2,0,3.6,1.2,3.8,2.8c0.5,5,0.3,12.6,0.6,18.1   c0.1,2.4-2.3,4.5-5.3,4.4c-17.3-0.2-49.8,0.7-60.5,1c-1.9,0-3.5-1.1-3.6-2.6C249.6,214.2,249.9,203.3,250.1,198.1z"/>
	<path class="st2" d="M250.8,198.1c0.5-3.1,7.5-2.3,9.7-2.3c3,0,6.1-0.1,9.1-0.1c6.1-0.1,12.3-0.1,18.4-0.2c5.5,0,11.1-0.1,16.6-0.1   c3.2,0,12.4-1.5,13.5,2.3c0.9,2.9,0.3,6.8,0.4,9.8c0,3.6,1.4,10.1-3,11.4c-2.5,0.7-5.6,0.2-8.2,0.2c-2.8,0-5.6,0-8.5,0.1   c-11.5,0.1-23,0.4-34.4,0.6c-2.5,0.1-5,0.1-7.5,0.2c-3.1,0.1-6.1,0.3-6.3-3.7c-0.3-6.1,0-12.3,0.2-18.4c0-1-1.4-0.5-1.4,0.3   c-0.2,6.4-0.9,13.2-0.1,19.6c0.6,5,6.7,3.7,10.4,3.6c14-0.4,28-0.7,42-0.8c3.1,0,6.2,0,9.3,0c2.7,0,5.5,0.3,7.6-1.8   c1.9-1.8,1.5-4.1,1.5-6.5c-0.1-4.3,0-8.6-0.3-12.9c-0.2-2.5-0.4-4.8-3.3-5.5c-2-0.5-4.4-0.1-6.5-0.1c-6.2,0-12.5,0.1-18.7,0.1   c-8.3,0.1-16.7,0.1-25,0.2c-3.7,0-7.4,0.1-11.2,0.1c-2.7,0-5.1,0.7-5.7,3.7C249.2,199.1,250.6,199,250.8,198.1z"/>
	<path class="st2" d="M261.9,233.1c0,1.1-1.3,1.8-2.4,1.8s-2.1-0.9-2.1-2.1c0-1.1,0.9-2.1,2.1-2.1   C260.6,230.8,261.9,232,261.9,233.1z"/>
	<path class="st2" d="M261.9,207.9c0,1.1-1.3,1.8-2.4,1.8s-2.1-0.9-2.1-2.1c0-1.1,0.9-2.1,2.1-2.1   C260.6,205.7,261.9,206.8,261.9,207.9z"/>
	<path class="st2" d="M268.9,233.1c0,1.1-1.3,1.8-2.4,1.8c-1.1,0-2.1-0.9-2.1-2.1c0-1.1,0.9-2.1,2.1-2.1   C267.7,230.8,268.9,232,268.9,233.1z"/>
	<path class="st2" d="M268.9,208.2c0,1.1-1.3,1.8-2.4,1.8c-1.1,0-2.1-0.9-2.1-2.1c0-1.1,0.9-2.1,2.1-2.1   C267.7,205.9,268.9,207,268.9,208.2z"/>
	<path class="st77" d="M276.9,233.1c0,1.1-1.3,1.8-2.4,1.8c-1.1,0-2.1-0.9-2.1-2.1c0-1.1,0.9-2.1,2.1-2.1   C275.6,230.8,276.9,232,276.9,233.1z"/>
	<path class="st77" d="M276.9,208.2c0,1.1-1.3,1.8-2.4,1.8c-1.1,0-2.1-0.9-2.1-2.1c0-1.1,0.9-2.1,2.1-2.1   C275.6,205.9,276.9,207,276.9,208.2z"/>
	<path class="st2" d="M300,192.6c-0.9,5.1,1.3,10.2,4.5,13c3.2,2.8,7.4,3.6,11.4,3.6c2.3,0,4.8-0.3,7-1.4c2.2-1.1,4.3-3.2,5.4-6   c1.7-4.5,0.3-9.6-1.8-13.4c-1.3-2.3-3-4.2-4.8-5.8c-3-2.5-16.6-7.8-21,6.2"/>
	<path class="st3" d="M298.5,190.6c-0.8,5.1,1.3,10.2,4.5,13c3.2,2.8,7.4,3.6,11.4,3.6c2.3,0,4.8-0.3,7-1.4c2.2-1.1,4.3-3.2,5.4-6   c1.7-4.5,0.3-9.6-1.8-13.4c-1.3-2.3-3-4.2-4.8-5.8c-2.9-2.5-16.5-7.8-21,6.2"/>
	<path class="st2" d="M298.2,190.5c-1.1,7.4,3.1,14.3,10.2,16.3c6.8,1.9,15.7,0.7,18.6-6.7c2.8-6.9-1.2-15.5-6.6-19.9   c-2.7-2.1-6.5-3.2-9.8-3.2c-5.9,0-9.9,4.1-11.7,9.6c-0.2,0.5,0.4,0.8,0.6,0.3c1.5-4.6,4.6-8.3,9.6-8.9c3.2-0.4,6.6,0.5,9.4,2   c4.8,2.6,8.3,8.8,8.7,14.3c0.3,4-1.2,7.9-4.5,10.2c-3,2.2-6.9,2.5-10.5,2.2c-3.7-0.3-7.5-1.6-10.1-4.4c-2.8-3.1-3.9-7.5-3.3-11.6   C298.9,190.1,298.3,190,298.2,190.5z"/>
	<path class="st78" d="M246.4,227.5c-25.5,1.7-3.8-18.8-11.5-31.8c-7.3-12.4-35.6-6.6-10.4-27"/>
	<g>
		<path class="st2" d="M309.4,195.4l-1.1,0.7c-0.1,0.1-0.1,0.3,0,0.3l4.3,2.4c0.3,0.1,0.6,0.1,0.8,0l4.4-2.4c0.1-0.1,0.1-0.2,0-0.3    l-1.2-0.6c-0.1-0.1-0.3,0-0.4,0l-2.8,1.6c-0.3,0.1-0.6,0.1-0.8,0l-2.8-1.6C309.7,195.3,309.5,195.3,309.4,195.4z"/>
		<path class="st2" d="M312.6,186c0.3-0.1,0.6-0.1,0.8,0c0,0,3.3,1.8,3.5,1.9c0.1,0.1,0.2,0.3,0,0.3l0,0c-0.8,0.4-1.7,0.4-2.5,0    l-0.9-0.5c-0.3-0.1-0.6-0.1-0.8,0l-0.9,0.5c-0.8,0.4-1.8,0.4-2.6,0l0,0c-0.1-0.1-0.2-0.2,0-0.3L312.6,186z"/>
		<path class="st2" d="M318.4,188.9c0.3,0.1,0.4,0.4,0.4,0.7v5.6c0,0.3-0.2,0.3-0.4,0.2l-1.3-0.7v-3.8l-3.8,2.1    c-0.3,0.1-0.6,0.1-0.8,0l-3.8-2.1v3.8l-1.2,0.7c-0.1,0.1-0.5,0.1-0.5-0.2v-5.6c0-0.3,0.2-0.5,0.4-0.7c0.4-0.2,0.8,0,0.8,0l4.6,2.6    l4.6-2.6C317.6,188.9,318,188.6,318.4,188.9z"/>
	</g>
	<g>
		<path class="st3" d="M303.4,64.1c-10.1-5-22-1.8-28,7.6c-5.6,8.8-8.1,21.9,0.5,29.7c8.4,7.6,22.9,5.6,31.7-0.4    c4.2-2.9,7.4-7.9,9-12.6c2.9-8.6-0.9-16.4-8-21.6C308.1,66.4,304,64.3,303.4,64.1z"/>
		<g>
			<path class="st2" d="M303.4,64.1c-10.1-5-22-1.8-28,7.6c-5.6,8.8-8.1,21.9,0.5,29.7c8.4,7.6,22.9,5.6,31.7-0.4     c4.2-2.9,7.4-7.9,9-12.6c2.9-8.6-0.9-16.4-8-21.6c-0.5-0.4-1.1,0.7-0.6,1.1c5.9,4.3,9.8,10.6,8.3,18c-1,4.8-3.8,9.3-7.3,12.6     c-6.2,5.8-17.1,7.8-25.1,5.6c-5.5-1.5-10-5.4-11.8-10.8c-1.8-5.5-0.3-11.6,2-16.8c2.4-5.5,6.3-10.3,12-12.4     c5.6-2.1,11.8-1.5,17,1.1C303.6,65.6,304,64.3,303.4,64.1z"/>
			<path class="st2" d="M303.4,64.2c-5.1-2.6-11.1-3-16.5-1.2c-2.7,0.9-5.2,2.3-7.3,4.2c-2.1,1.9-3.8,4.2-5.2,6.7     c-2.7,5-4.3,10.7-3.8,16.3c0.3,2.8,1.2,5.6,2.7,7.9c1.6,2.3,3.7,4.3,6.2,5.6c5,2.6,11,2.9,16.6,1.8c2.8-0.6,5.5-1.5,8-2.7     c1.3-0.6,2.5-1.4,3.7-2.2c1.2-0.8,2.2-1.8,3.2-2.8c1.9-2.1,3.4-4.6,4.6-7.2c0.6-1.3,1-2.7,1.4-4c0.3-1.4,0.5-2.8,0.5-4.2     c0-2.8-0.8-5.7-2.2-8.1c-1.3-2.5-3.3-4.7-5.5-6.5l-0.8-0.7c-0.1-0.1-0.3-0.2-0.4-0.3c-0.1-0.1-0.3,0-0.4,0.1     c-0.2,0.2-0.3,0.6-0.1,0.9c0.2,0.2,0.6,0.4,0.8,0.7c1.1,0.9,2.2,1.9,3.1,2.9c1.9,2.1,3.5,4.6,4.2,7.4c0.4,1.4,0.6,2.8,0.5,4.2     c0,1.4-0.3,2.9-0.7,4.2c-0.8,2.8-2.1,5.3-3.8,7.7c-1.7,2.3-3.7,4.4-6.1,5.9c-2.4,1.5-5.1,2.6-7.9,3.3c-2.8,0.7-5.6,1-8.5,0.9     c-2.9-0.1-5.7-0.6-8.4-1.7c-2.6-1.1-5-2.9-6.8-5.1c-1.8-2.2-2.9-5-3.3-7.8c-0.4-2.8,0-5.7,0.7-8.5c0.8-2.8,1.8-5.4,3.2-7.9     c1.4-2.5,3.2-4.8,5.4-6.6c2.2-1.9,4.8-3.2,7.6-3.9c2.8-0.7,5.7-0.8,8.5-0.3c1.4,0.2,2.8,0.6,4.1,1.1c0.7,0.2,1.3,0.5,2,0.8     c0.2,0.1,0.3,0.2,0.5,0.2c0.1,0,0.3-0.1,0.3-0.3C303.6,64.7,303.6,64.3,303.4,64.2z M303.5,63.9c0.2,0.1,0.3,0.4,0.3,0.6     c0,0.2,0,0.4-0.1,0.6c-0.1,0.2-0.3,0.4-0.5,0.3c-0.2,0-0.4-0.1-0.5-0.2c-0.6-0.3-1.3-0.6-2-0.8c-1.3-0.5-2.7-0.9-4.1-1.1     c-2.8-0.5-5.7-0.4-8.5,0.3c-2.8,0.7-5.4,2-7.5,3.8c-2.2,1.8-3.9,4.1-5.3,6.6c-1.4,2.5-2.4,5.2-3.2,7.9c-0.7,2.7-1.1,5.6-0.7,8.5     c0.4,2.8,1.5,5.5,3.3,7.8c1.8,2.2,4.1,4,6.7,5.1c2.6,1.1,5.5,1.6,8.3,1.7c2.8,0.1,5.7-0.2,8.5-0.9c2.8-0.7,5.4-1.8,7.8-3.3     c2.4-1.5,4.4-3.6,6.1-5.9c1.7-2.3,3-4.9,3.7-7.6c0.4-1.4,0.6-2.8,0.6-4.2c0-1.4-0.2-2.8-0.5-4.2c-0.7-2.8-2.3-5.2-4.2-7.4     c-1-1.1-2-2-3.1-2.9c-0.3-0.2-0.6-0.4-0.8-0.7c-0.2-0.3-0.1-0.8,0.2-1.1c0.1-0.1,0.4-0.2,0.6-0.1c0.2,0.1,0.3,0.2,0.4,0.3     l0.8,0.7c2.2,1.8,4.2,4,5.5,6.5c1.4,2.5,2.2,5.3,2.2,8.2c0,1.4-0.2,2.9-0.5,4.3c-0.3,1.4-0.8,2.8-1.4,4.1     c-1.1,2.6-2.7,5.1-4.6,7.2c-1,1.1-2,2-3.2,2.9c-1.2,0.8-2.4,1.6-3.7,2.2c-2.6,1.3-5.3,2.2-8.1,2.8c-2.8,0.6-5.7,0.8-8.6,0.5     c-2.9-0.3-5.7-1-8.3-2.3c-2.6-1.3-4.8-3.3-6.4-5.7c-1.6-2.4-2.5-5.2-2.8-8.1c-0.5-5.8,1.1-11.5,3.8-16.5c1.3-2.5,3.1-4.9,5.2-6.8     c2.2-1.9,4.7-3.4,7.4-4.3C292.2,60.8,298.4,61.3,303.5,63.9z"/>
		</g>
	</g>
	<g>
		<path class="st3" d="M290.4,95.4c-0.5,0.2-1.1,0.5-1.7,0.7c-0.2,0.1-0.4,0.1-0.7,0.2c-0.4,0-0.6-0.1-0.9-0.4    c-0.1-0.2-0.3-0.4-0.3-0.7c-0.2-0.7-0.4-1.3-0.5-2c0-0.1,0-0.1,0-0.2c0-0.1-0.1-0.1-0.2-0.2c-0.1,0-0.1,0-0.2,0.1    c-0.2,0.5-0.5,0.9-0.7,1.4c-0.2,0.5-0.5,0.9-0.8,1.3c-0.1,0.1-0.1,0.2-0.2,0.3c-0.1,0.1-0.2,0.1-0.3,0c0,0-0.1,0-0.1,0    c-1.1-0.7-2.2-1.5-3.2-2.3c-0.3-0.2-0.5-0.4-0.7-0.6c-0.1-0.1-0.2-0.2-0.3-0.3c-0.2-0.3-0.2-0.5-0.1-0.8c0.1-0.3,0.3-0.5,0.5-0.7    c0.3-0.4,0.7-0.7,1-1c0.2-0.2,0.4-0.3,0.6-0.5c0,0,0.1-0.1,0.1-0.1c0,0,0.1-0.1,0.1-0.1c0-0.1-0.1-0.1-0.2-0.1    c-0.8,0.1-1.5,0.1-2.3,0.1c-0.3,0-0.6,0-1,0c-0.1,0-0.2,0-0.3-0.1c-0.1,0-0.2-0.1-0.2-0.2c0,0,0-0.1,0-0.1    c0.1-1.3,0.2-2.6,0.4-3.9c0-0.3,0.1-0.6,0.2-0.9c0-0.1,0.1-0.2,0.1-0.4c0.2-0.3,0.4-0.5,0.7-0.5c0.3,0,0.6,0,0.8,0.1    c0.5,0.1,0.9,0.2,1.4,0.4c0.1,0,0.2,0.1,0.3,0.1c0,0,0.1,0,0.1,0c0.1-0.1,0.1-0.2,0.2-0.2c0.1-0.1,0.1-0.1,0-0.2    c-0.2-0.4-0.4-0.7-0.7-1c-0.3-0.4-0.5-0.8-0.7-1.2c0-0.1-0.1-0.2-0.1-0.3c0,0,0,0,0-0.1c0-0.2,0-0.4,0.2-0.5    c0.4-0.3,0.9-0.6,1.3-0.8c0.3-0.2,0.7-0.4,1-0.5c0,0,0.1,0,0.1,0c0.5-0.2,0.9-0.4,1.4-0.6c0.3-0.1,0.6-0.2,0.9-0.2    c0.4,0,0.7,0.2,1,0.5c0.2,0.3,0.3,0.5,0.4,0.8c0,0.2,0.1,0.4,0.2,0.6c0.1,0.4,0.2,0.7,0.3,1.1c0,0.1,0,0.1,0.1,0.1    c0.2,0,0.3,0.1,0.5,0.1c0.1,0,0.1,0,0.2-0.1c0.2-0.3,0.3-0.7,0.5-1c0.2-0.4,0.4-0.8,0.7-1.1c0.1-0.1,0.1-0.2,0.2-0.3    c0.1-0.1,0.2-0.1,0.2,0c0.9,0.4,1.8,0.9,2.6,1.5c0.4,0.3,0.8,0.6,1.2,1c0.2,0.2,0.4,0.4,0.5,0.6c0.1,0.2,0.2,0.4,0.2,0.7    c0,0,0,0.1,0,0.1c-0.1,0.4-0.3,0.7-0.6,1c-0.3,0.3-0.6,0.6-0.9,0.9c-0.1,0.1-0.3,0.3-0.4,0.4c0,0,0,0.1,0,0.1    c0,0.1,0.1,0.2,0.1,0.3c0,0.1,0,0.1,0.1,0.1c0.2,0,0.3,0,0.5,0c0.5,0,1-0.1,1.5-0.1c0.3,0,0.5,0,0.8,0c0.1,0,0.2,0,0.3,0.1    c0.1,0,0.2,0.1,0.2,0.2c0,0,0,0.1,0,0.1c-0.1,1.3-0.2,2.6-0.4,3.9c-0.1,0.3-0.1,0.7-0.2,1c0,0.1-0.1,0.2-0.1,0.4    c-0.1,0.3-0.4,0.4-0.7,0.5c-0.3,0-0.6,0-0.9-0.1c-0.4-0.1-0.9-0.2-1.3-0.4c-0.1,0-0.3-0.1-0.4-0.2c-0.1,0-0.2,0-0.3,0    c-0.1,0-0.1,0-0.1,0.1c0,0.1,0,0.2,0.1,0.2c0.3,0.5,0.6,0.9,0.9,1.4c0.2,0.3,0.4,0.7,0.5,1c0,0.1,0.1,0.2,0,0.3    c0,0.2-0.1,0.3-0.2,0.4c0,0-0.1,0.1-0.1,0.1c-0.6,0.3-1.2,0.6-1.9,0.9C290.7,95.3,290.5,95.4,290.4,95.4z"/>
		<path class="st79" d="M290.4,95.4c-0.5,0.2-1.1,0.5-1.7,0.7c-0.2,0.1-0.4,0.1-0.7,0.2c-0.4,0-0.6-0.1-0.9-0.4    c-0.1-0.2-0.3-0.4-0.3-0.7c-0.2-0.7-0.4-1.3-0.5-2c0-0.1,0-0.1,0-0.2c0-0.1-0.1-0.1-0.2-0.2c-0.1,0-0.1,0-0.2,0.1    c-0.2,0.5-0.5,0.9-0.7,1.4c-0.2,0.5-0.5,0.9-0.8,1.3c-0.1,0.1-0.1,0.2-0.2,0.3c-0.1,0.1-0.2,0.1-0.3,0c0,0-0.1,0-0.1,0    c-1.1-0.7-2.2-1.5-3.2-2.3c-0.3-0.2-0.5-0.4-0.7-0.6c-0.1-0.1-0.2-0.2-0.3-0.3c-0.2-0.3-0.2-0.5-0.1-0.8c0.1-0.3,0.3-0.5,0.5-0.7    c0.3-0.4,0.7-0.7,1-1c0.2-0.2,0.4-0.3,0.6-0.5c0,0,0.1-0.1,0.1-0.1c0,0,0.1-0.1,0.1-0.1c0-0.1-0.1-0.1-0.2-0.1    c-0.8,0.1-1.5,0.1-2.3,0.1c-0.3,0-0.6,0-1,0c-0.1,0-0.2,0-0.3-0.1c-0.1,0-0.2-0.1-0.2-0.2c0,0,0-0.1,0-0.1    c0.1-1.3,0.2-2.6,0.4-3.9c0-0.3,0.1-0.6,0.2-0.9c0-0.1,0.1-0.2,0.1-0.4c0.2-0.3,0.4-0.5,0.7-0.5c0.3,0,0.6,0,0.8,0.1    c0.5,0.1,0.9,0.2,1.4,0.4c0.1,0,0.2,0.1,0.3,0.1c0,0,0.1,0,0.1,0c0.1-0.1,0.1-0.2,0.2-0.2c0.1-0.1,0.1-0.1,0-0.2    c-0.2-0.4-0.4-0.7-0.7-1c-0.3-0.4-0.5-0.8-0.7-1.2c0-0.1-0.1-0.2-0.1-0.3c0,0,0,0,0-0.1c0-0.2,0-0.4,0.2-0.5    c0.4-0.3,0.9-0.6,1.3-0.8c0.3-0.2,0.7-0.4,1-0.5c0,0,0.1,0,0.1,0c0.5-0.2,0.9-0.4,1.4-0.6c0.3-0.1,0.6-0.2,0.9-0.2    c0.4,0,0.7,0.2,1,0.5c0.2,0.3,0.3,0.5,0.4,0.8c0,0.2,0.1,0.4,0.2,0.6c0.1,0.4,0.2,0.7,0.3,1.1c0,0.1,0,0.1,0.1,0.1    c0.2,0,0.3,0.1,0.5,0.1c0.1,0,0.1,0,0.2-0.1c0.2-0.3,0.3-0.7,0.5-1c0.2-0.4,0.4-0.8,0.7-1.1c0.1-0.1,0.1-0.2,0.2-0.3    c0.1-0.1,0.2-0.1,0.2,0c0.9,0.4,1.8,0.9,2.6,1.5c0.4,0.3,0.8,0.6,1.2,1c0.2,0.2,0.4,0.4,0.5,0.6c0.1,0.2,0.2,0.4,0.2,0.7    c0,0,0,0.1,0,0.1c-0.1,0.4-0.3,0.7-0.6,1c-0.3,0.3-0.6,0.6-0.9,0.9c-0.1,0.1-0.3,0.3-0.4,0.4c0,0,0,0.1,0,0.1    c0,0.1,0.1,0.2,0.1,0.3c0,0.1,0,0.1,0.1,0.1c0.2,0,0.3,0,0.5,0c0.5,0,1-0.1,1.5-0.1c0.3,0,0.5,0,0.8,0c0.1,0,0.2,0,0.3,0.1    c0.1,0,0.2,0.1,0.2,0.2c0,0,0,0.1,0,0.1c-0.1,1.3-0.2,2.6-0.4,3.9c-0.1,0.3-0.1,0.7-0.2,1c0,0.1-0.1,0.2-0.1,0.4    c-0.1,0.3-0.4,0.4-0.7,0.5c-0.3,0-0.6,0-0.9-0.1c-0.4-0.1-0.9-0.2-1.3-0.4c-0.1,0-0.3-0.1-0.4-0.2c-0.1,0-0.2,0-0.3,0    c-0.1,0-0.1,0-0.1,0.1c0,0.1,0,0.2,0.1,0.2c0.3,0.5,0.6,0.9,0.9,1.4c0.2,0.3,0.4,0.7,0.5,1c0,0.1,0.1,0.2,0,0.3    c0,0.2-0.1,0.3-0.2,0.4c0,0-0.1,0.1-0.1,0.1c-0.6,0.3-1.2,0.6-1.9,0.9C290.7,95.3,290.5,95.4,290.4,95.4z M290,79.1    c0,0.1-0.1,0.1-0.1,0.2c-0.2,0.4-0.4,0.7-0.5,1.1c-0.2,0.4-0.4,0.8-0.7,1.2c-0.1,0.1-0.2,0.1-0.3,0.1c-0.1,0-0.1,0-0.2,0    c-0.3-0.1-0.6-0.1-0.9-0.2c-0.1,0-0.1-0.1-0.2-0.1c-0.1-0.2-0.2-0.3-0.2-0.5c0-0.1-0.1-0.2-0.1-0.3c-0.1-0.4-0.2-0.7-0.3-1    c0-0.1-0.1-0.3-0.2-0.4c-0.1-0.2-0.2-0.2-0.4-0.2c-0.1,0-0.3,0-0.4,0.1c-0.5,0.2-1,0.3-1.6,0.5c-0.3,0.1-0.7,0.3-1,0.4    c-0.3,0.2-0.6,0.3-0.9,0.4c-0.2,0.1-0.3,0.2-0.5,0.3c-0.1,0.1-0.1,0.1-0.1,0.2c0.1,0.2,0.3,0.4,0.4,0.6c0.4,0.6,0.8,1.2,1.1,1.9    c0.1,0.2,0,0.4,0.1,0.6c0,0,0,0,0,0.1c-0.1,0.2-0.2,0.3-0.4,0.4c-0.1,0.1-0.3,0.2-0.5,0.1c-0.3-0.1-0.5-0.2-0.8-0.2    c-0.5-0.2-0.9-0.3-1.4-0.4c-0.2,0-0.3-0.1-0.5,0c-0.2,0-0.3,0.1-0.4,0.2c-0.1,0.2-0.1,0.3-0.1,0.5c0,0.1,0,0.2,0,0.3    c0,0.3,0,0.5,0,0.8c-0.1,0.9,0,1.9,0,2.8c0,0.1,0,0.1,0.1,0.1c0.5,0.1,1.1,0.2,1.6,0.2c0.4,0,0.8,0.1,1.2,0.2c0.1,0,0.1,0,0.2,0.1    c0.2,0.1,0.3,0.3,0.3,0.5c0,0.2,0,0.3-0.2,0.5c-0.5,0.5-1.1,1-1.6,1.5c-0.1,0.1-0.3,0.3-0.4,0.5c-0.1,0.1-0.1,0.2-0.1,0.3    c0,0.1,0,0.1,0.1,0.2c0.4,0.3,0.7,0.6,1.1,0.8c0.4,0.3,0.7,0.6,1.1,0.8c0.5,0.3,0.9,0.5,1.4,0.8c0.1,0.1,0.1,0.1,0.2,0    c0.3-0.4,0.6-0.8,0.9-1.2c0.3-0.3,0.5-0.7,0.8-1c0.1-0.1,0.2-0.2,0.3-0.3c0.3-0.2,0.5-0.1,0.7,0.1c0.1,0.1,0.2,0.2,0.2,0.3    c0.1,0.1,0.1,0.2,0.2,0.4c0,0.3,0.1,0.5,0.2,0.8c0.1,0.5,0.2,0.9,0.3,1.4c0,0.1,0.1,0.3,0.1,0.4c0,0,0,0.1,0.1,0.1    c0.2,0,0.5,0,0.7-0.1c0.4-0.1,0.8-0.3,1.3-0.5c0.6-0.2,1.2-0.5,1.8-0.8c0.2-0.1,0.4-0.2,0.6-0.4c0.1-0.1,0.2-0.2,0.1-0.4    c-0.1-0.2-0.1-0.5-0.3-0.6c-0.1-0.1-0.1-0.2-0.2-0.3c-0.2-0.4-0.4-0.7-0.7-1.1c-0.1-0.2-0.2-0.4-0.2-0.6c0-0.3,0.2-0.6,0.6-0.7    c0.1,0,0.3,0,0.4,0c0.1,0,0.2,0,0.3,0c0.6,0.1,1.2,0,1.8,0c0.2,0,0.4,0,0.6,0c0.1,0,0.1,0,0.1-0.1c0.2-0.2,0.3-0.4,0.4-0.6    c0-0.1,0.1-0.2,0.1-0.3c0.1-0.2,0.1-0.5,0.2-0.7c0.1-0.6,0.2-1.2,0.3-1.8c0-0.3,0-0.5,0-0.8c0-0.1,0-0.1-0.1-0.1    c-0.3,0-0.6,0-0.9,0c-0.7,0-1.3,0-2,0c-0.1,0-0.2,0-0.2-0.2c-0.1-0.2-0.2-0.5-0.2-0.7c-0.1-0.2,0-0.4,0.1-0.5    c0.2-0.3,0.5-0.5,0.7-0.7c0.3-0.2,0.5-0.5,0.8-0.8c0,0,0.1-0.1,0.1-0.1c0,0,0-0.1,0-0.1c0-0.3-0.1-0.5-0.3-0.7    c-0.3-0.3-0.6-0.6-1-0.9c-0.7-0.5-1.3-1-1.9-1.5C290.4,79.5,290.2,79.3,290,79.1z"/>
		<path class="st2" d="M285.9,82.9c1.1-0.4,2.2-0.4,3.3,0.1c1.1,0.5,1.7,1.4,2,2.5c0.3,1,0.1,2-0.3,3c-0.5,1.1-1.3,1.9-2.4,2.5    c-0.6,0.3-1.3,0.5-2,0.5c-1.2,0-2.8-0.7-3.4-2.2c-0.3-0.8-0.5-1.6-0.3-2.5c0.1-0.3,0.2-0.6,0.3-0.9c0.2-0.5,0.4-1,0.7-1.4    C284.3,83.8,285,83.2,285.9,82.9z M285.9,84c-0.2,0.1-0.6,0.3-0.8,0.5c-0.6,0.5-1.2,1.1-1.3,2c0,0.2-0.1,0.3-0.1,0.5    c-0.1,0.4-0.1,0.8,0,1.2c0.2,1.1,1.1,2,2.2,2.2c0.5,0.1,0.9,0,1.4-0.1c1.3-0.4,2.1-1.2,2.6-2.5c0.3-0.7,0.3-1.4,0.2-2.1    c-0.3-1-1.1-1.8-2.1-1.9C287.2,83.6,286.6,83.7,285.9,84z"/>
		<path class="st3" d="M286,83.8c0.8-0.3,1.4-0.4,2.1-0.3c1.1,0.2,2,1,2.3,2.1c0.2,0.8,0.1,1.6-0.2,2.3c-0.5,1.4-1.5,2.3-2.9,2.7    c-0.5,0.2-1,0.2-1.5,0.1c-1.2-0.2-2.2-1.1-2.4-2.4c-0.1-0.4-0.1-0.9,0-1.3c0-0.2,0.1-0.4,0.2-0.5c0.2-0.9,0.8-1.6,1.5-2.2    C285.4,84.1,285.8,83.9,286,83.8z"/>
	</g>
	<g>
		<path class="st3" d="M304.2,86.6c-0.4,0.1-0.9,0.3-1.4,0.4c-0.2,0-0.4,0.1-0.6,0.1c-0.3,0-0.5-0.1-0.6-0.4    c-0.1-0.2-0.2-0.4-0.2-0.6c-0.1-0.5-0.2-1.1-0.2-1.6c0,0,0-0.1,0-0.1c0-0.1-0.1-0.1-0.1-0.1c-0.1,0-0.1,0-0.2,0.1    c-0.2,0.3-0.5,0.7-0.7,1c-0.2,0.3-0.5,0.7-0.7,1c-0.1,0.1-0.1,0.1-0.2,0.2c-0.1,0.1-0.1,0.1-0.2,0c0,0,0,0-0.1,0    c-0.8-0.7-1.6-1.4-2.3-2.1c-0.2-0.2-0.4-0.4-0.5-0.6c-0.1-0.1-0.1-0.2-0.2-0.3c-0.1-0.2-0.1-0.4,0-0.7c0.1-0.2,0.3-0.4,0.4-0.5    c0.3-0.3,0.6-0.5,0.9-0.7c0.2-0.1,0.3-0.2,0.5-0.3c0,0,0.1,0,0.1-0.1c0,0,0.1-0.1,0.1-0.1c0-0.1-0.1-0.1-0.1-0.1    c-0.6,0-1.2-0.1-1.8-0.1c-0.3,0-0.5-0.1-0.8-0.1c-0.1,0-0.2,0-0.2-0.1c-0.1,0-0.1-0.1-0.1-0.2c0,0,0-0.1,0-0.1    c0.2-1,0.4-2.1,0.7-3.1c0.1-0.2,0.1-0.5,0.2-0.7c0-0.1,0.1-0.2,0.1-0.3c0.1-0.2,0.4-0.3,0.6-0.3c0.2,0,0.4,0,0.7,0.1    c0.4,0.1,0.7,0.3,1.1,0.4c0.1,0,0.2,0.1,0.2,0.1c0,0,0.1,0,0.1,0c0.1-0.1,0.1-0.1,0.2-0.2c0.1-0.1,0.1-0.1,0-0.2    c-0.1-0.3-0.3-0.6-0.4-0.9c-0.2-0.3-0.3-0.7-0.4-1c0-0.1,0-0.2-0.1-0.3c0,0,0,0,0-0.1c0-0.2,0.1-0.3,0.2-0.4    c0.4-0.2,0.7-0.4,1.1-0.5c0.3-0.1,0.6-0.2,0.8-0.3c0,0,0,0,0.1,0c0.4-0.1,0.8-0.3,1.2-0.3c0.2,0,0.5-0.1,0.7-0.1    c0.3,0,0.6,0.2,0.7,0.5c0.1,0.2,0.2,0.5,0.2,0.7c0,0.2,0.1,0.3,0.1,0.5c0,0.3,0.1,0.6,0.1,0.9c0,0.1,0,0.1,0.1,0.1    c0.1,0,0.3,0.1,0.4,0.1c0.1,0,0.1,0,0.1,0c0.2-0.2,0.3-0.5,0.5-0.7c0.2-0.3,0.4-0.6,0.6-0.8c0.1-0.1,0.1-0.1,0.2-0.2    c0.1,0,0.1,0,0.2,0c0.7,0.4,1.3,0.9,1.9,1.4c0.3,0.3,0.6,0.6,0.8,0.9c0.1,0.2,0.3,0.4,0.4,0.6c0.1,0.2,0.1,0.4,0.1,0.6    c0,0,0,0.1,0,0.1c-0.1,0.3-0.3,0.5-0.6,0.7c-0.2,0.2-0.5,0.4-0.8,0.6c-0.1,0.1-0.2,0.2-0.3,0.3c0,0,0,0,0,0.1c0,0.1,0,0.2,0,0.3    c0,0.1,0,0.1,0.1,0.1c0.1,0,0.3,0,0.4,0c0.4,0,0.8,0,1.2,0.1c0.2,0,0.4,0.1,0.6,0.1c0.1,0,0.2,0,0.2,0.1c0.1,0,0.1,0.1,0.1,0.2    c0,0,0,0.1,0,0.1c-0.2,1-0.4,2-0.7,3c-0.1,0.3-0.1,0.5-0.2,0.8c0,0.1-0.1,0.2-0.1,0.3c-0.1,0.2-0.3,0.3-0.6,0.3    c-0.2,0-0.5-0.1-0.7-0.1c-0.3-0.1-0.7-0.3-1-0.4c-0.1-0.1-0.2-0.1-0.3-0.2c-0.1,0-0.2-0.1-0.3-0.1c-0.1,0-0.1,0-0.1,0.1    c0,0.1,0,0.1,0,0.2c0.2,0.4,0.4,0.8,0.6,1.2c0.1,0.3,0.2,0.6,0.3,0.8c0,0.1,0,0.1,0,0.2c0,0.1-0.1,0.2-0.2,0.3c0,0-0.1,0-0.1,0.1    c-0.5,0.2-1,0.4-1.6,0.5C304.4,86.5,304.3,86.5,304.2,86.6z"/>
		<path class="st80" d="M304.2,86.6c-0.4,0.1-0.9,0.3-1.4,0.4c-0.2,0-0.4,0.1-0.6,0.1c-0.3,0-0.5-0.1-0.6-0.4    c-0.1-0.2-0.2-0.4-0.2-0.6c-0.1-0.5-0.2-1.1-0.2-1.6c0,0,0-0.1,0-0.1c0-0.1-0.1-0.1-0.1-0.1c-0.1,0-0.1,0-0.2,0.1    c-0.2,0.3-0.5,0.7-0.7,1c-0.2,0.3-0.5,0.7-0.7,1c-0.1,0.1-0.1,0.1-0.2,0.2c-0.1,0.1-0.1,0.1-0.2,0c0,0,0,0-0.1,0    c-0.8-0.7-1.6-1.4-2.3-2.1c-0.2-0.2-0.4-0.4-0.5-0.6c-0.1-0.1-0.1-0.2-0.2-0.3c-0.1-0.2-0.1-0.4,0-0.7c0.1-0.2,0.3-0.4,0.4-0.5    c0.3-0.3,0.6-0.5,0.9-0.7c0.2-0.1,0.3-0.2,0.5-0.3c0,0,0.1,0,0.1-0.1c0,0,0.1-0.1,0.1-0.1c0-0.1-0.1-0.1-0.1-0.1    c-0.6,0-1.2-0.1-1.8-0.1c-0.3,0-0.5-0.1-0.8-0.1c-0.1,0-0.2,0-0.2-0.1c-0.1,0-0.1-0.1-0.1-0.2c0,0,0-0.1,0-0.1    c0.2-1,0.4-2.1,0.7-3.1c0.1-0.2,0.1-0.5,0.2-0.7c0-0.1,0.1-0.2,0.1-0.3c0.1-0.2,0.4-0.3,0.6-0.3c0.2,0,0.4,0,0.7,0.1    c0.4,0.1,0.7,0.3,1.1,0.4c0.1,0,0.2,0.1,0.2,0.1c0,0,0.1,0,0.1,0c0.1-0.1,0.1-0.1,0.2-0.2c0.1-0.1,0.1-0.1,0-0.2    c-0.1-0.3-0.3-0.6-0.4-0.9c-0.2-0.3-0.3-0.7-0.4-1c0-0.1,0-0.2-0.1-0.3c0,0,0,0,0-0.1c0-0.2,0.1-0.3,0.2-0.4    c0.4-0.2,0.7-0.4,1.1-0.5c0.3-0.1,0.6-0.2,0.8-0.3c0,0,0,0,0.1,0c0.4-0.1,0.8-0.3,1.2-0.3c0.2,0,0.5-0.1,0.7-0.1    c0.3,0,0.6,0.2,0.7,0.5c0.1,0.2,0.2,0.5,0.2,0.7c0,0.2,0.1,0.3,0.1,0.5c0,0.3,0.1,0.6,0.1,0.9c0,0.1,0,0.1,0.1,0.1    c0.1,0,0.3,0.1,0.4,0.1c0.1,0,0.1,0,0.1,0c0.2-0.2,0.3-0.5,0.5-0.7c0.2-0.3,0.4-0.6,0.6-0.8c0.1-0.1,0.1-0.1,0.2-0.2    c0.1,0,0.1,0,0.2,0c0.7,0.4,1.3,0.9,1.9,1.4c0.3,0.3,0.6,0.6,0.8,0.9c0.1,0.2,0.3,0.4,0.4,0.6c0.1,0.2,0.1,0.4,0.1,0.6    c0,0,0,0.1,0,0.1c-0.1,0.3-0.3,0.5-0.6,0.7c-0.2,0.2-0.5,0.4-0.8,0.6c-0.1,0.1-0.2,0.2-0.3,0.3c0,0,0,0,0,0.1c0,0.1,0,0.2,0,0.3    c0,0.1,0,0.1,0.1,0.1c0.1,0,0.3,0,0.4,0c0.4,0,0.8,0,1.2,0.1c0.2,0,0.4,0.1,0.6,0.1c0.1,0,0.2,0,0.2,0.1c0.1,0,0.1,0.1,0.1,0.2    c0,0,0,0.1,0,0.1c-0.2,1-0.4,2-0.7,3c-0.1,0.3-0.1,0.5-0.2,0.8c0,0.1-0.1,0.2-0.1,0.3c-0.1,0.2-0.3,0.3-0.6,0.3    c-0.2,0-0.5-0.1-0.7-0.1c-0.3-0.1-0.7-0.3-1-0.4c-0.1-0.1-0.2-0.1-0.3-0.2c-0.1,0-0.2-0.1-0.3-0.1c-0.1,0-0.1,0-0.1,0.1    c0,0.1,0,0.1,0,0.2c0.2,0.4,0.4,0.8,0.6,1.2c0.1,0.3,0.2,0.6,0.3,0.8c0,0.1,0,0.1,0,0.2c0,0.1-0.1,0.2-0.2,0.3c0,0-0.1,0-0.1,0.1    c-0.5,0.2-1,0.4-1.6,0.5C304.4,86.5,304.3,86.5,304.2,86.6z M305.3,73.6c0,0.1-0.1,0.1-0.1,0.1c-0.2,0.3-0.3,0.5-0.5,0.8    c-0.2,0.3-0.4,0.6-0.7,0.9c-0.1,0.1-0.2,0.1-0.3,0.1c-0.1,0-0.1,0-0.2,0c-0.2-0.1-0.5-0.2-0.7-0.3c0,0-0.1-0.1-0.1-0.1    c-0.1-0.1-0.1-0.3-0.1-0.4c0-0.1,0-0.2,0-0.3c0-0.3-0.1-0.6-0.1-0.9c0-0.1,0-0.2-0.1-0.4c-0.1-0.1-0.1-0.2-0.3-0.2    c-0.1,0-0.2,0-0.3,0c-0.4,0.1-0.9,0.2-1.3,0.3c-0.3,0.1-0.6,0.1-0.8,0.2c-0.2,0.1-0.5,0.2-0.7,0.3c-0.1,0.1-0.3,0.1-0.4,0.2    c-0.1,0-0.1,0.1-0.1,0.2c0.1,0.2,0.2,0.4,0.3,0.5c0.3,0.5,0.5,1,0.7,1.6c0.1,0.2,0,0.3,0,0.4c0,0,0,0,0,0    c-0.1,0.1-0.2,0.2-0.3,0.3c-0.1,0.1-0.2,0.1-0.4,0.1c-0.2-0.1-0.4-0.2-0.6-0.3c-0.3-0.2-0.7-0.3-1.1-0.5c-0.1,0-0.3-0.1-0.4-0.1    c-0.1,0-0.2,0.1-0.3,0.2c-0.1,0.1-0.1,0.2-0.2,0.4c0,0.1,0,0.1,0,0.2c0,0.2,0,0.4-0.1,0.7c-0.2,0.7-0.2,1.5-0.2,2.2    c0,0.1,0,0.1,0.1,0.1c0.4,0.1,0.8,0.2,1.3,0.3c0.3,0.1,0.6,0.1,0.9,0.2c0.1,0,0.1,0,0.1,0.1c0.1,0.1,0.2,0.3,0.2,0.5    c0,0.1-0.1,0.3-0.2,0.4c-0.5,0.3-0.9,0.7-1.4,1.1c-0.1,0.1-0.2,0.2-0.3,0.3c-0.1,0.1-0.1,0.1-0.1,0.2c0,0.1,0,0.1,0,0.2    c0.3,0.3,0.5,0.5,0.8,0.8c0.3,0.3,0.5,0.5,0.8,0.7c0.3,0.3,0.7,0.5,1,0.8c0.1,0,0.1,0,0.1,0c0.3-0.3,0.5-0.6,0.8-0.9    c0.2-0.3,0.5-0.5,0.7-0.7c0.1-0.1,0.2-0.2,0.3-0.2c0.2-0.1,0.4-0.1,0.6,0.1c0.1,0.1,0.1,0.2,0.1,0.3c0,0.1,0.1,0.2,0.1,0.3    c0,0.2,0,0.4,0.1,0.6c0,0.4,0.1,0.8,0.1,1.1c0,0.1,0,0.2,0.1,0.3c0,0,0,0.1,0.1,0c0.2,0,0.4,0,0.5,0c0.3-0.1,0.7-0.2,1-0.3    c0.5-0.1,1-0.3,1.5-0.5c0.2-0.1,0.3-0.1,0.5-0.2c0.1-0.1,0.2-0.2,0.1-0.3c0-0.2-0.1-0.4-0.2-0.5c-0.1-0.1-0.1-0.2-0.1-0.3    c-0.1-0.3-0.3-0.6-0.4-0.9c-0.1-0.2-0.1-0.3-0.1-0.5c0-0.2,0.2-0.5,0.5-0.5c0.1,0,0.2,0,0.3,0.1c0.1,0,0.1,0,0.2,0.1    c0.5,0.1,0.9,0.1,1.4,0.2c0.2,0,0.3,0,0.5,0c0,0,0.1,0,0.1,0c0.1-0.1,0.3-0.3,0.3-0.5c0-0.1,0.1-0.2,0.1-0.3    c0.1-0.2,0.1-0.4,0.2-0.5c0.1-0.5,0.3-0.9,0.4-1.4c0-0.2,0.1-0.4,0.1-0.6c0-0.1,0-0.1-0.1-0.1c-0.2,0-0.5,0-0.7-0.1    c-0.5,0-1-0.1-1.6-0.1c-0.1,0-0.1,0-0.2-0.1c0-0.2-0.1-0.4-0.1-0.6c0-0.2,0-0.3,0.1-0.4c0.2-0.2,0.4-0.4,0.7-0.5    c0.2-0.2,0.5-0.4,0.7-0.5c0,0,0.1-0.1,0.1-0.1c0,0,0,0,0-0.1c0-0.2-0.1-0.4-0.2-0.6c-0.2-0.3-0.4-0.6-0.7-0.8    c-0.5-0.4-0.9-0.9-1.4-1.4C305.6,74,305.4,73.8,305.3,73.6z"/>
		<path class="st2" d="M301.7,76.2c0.9-0.3,1.8-0.2,2.6,0.4c0.8,0.5,1.3,1.3,1.4,2.2c0.1,0.8-0.1,1.6-0.5,2.3    c-0.5,0.8-1.2,1.4-2.1,1.8c-0.5,0.2-1.1,0.3-1.7,0.2c-1-0.1-2.1-0.8-2.5-2c-0.2-0.7-0.2-1.3,0-2c0.1-0.3,0.2-0.5,0.3-0.7    c0.2-0.4,0.4-0.7,0.7-1C300.4,76.8,301,76.4,301.7,76.2z M301.6,77.1c-0.2,0.1-0.5,0.2-0.7,0.3c-0.5,0.4-1,0.8-1.2,1.4    c0,0.1-0.1,0.2-0.2,0.4c-0.1,0.3-0.1,0.6-0.1,0.9c0,0.9,0.7,1.7,1.5,1.9c0.4,0.1,0.7,0.1,1.1,0c1-0.2,1.8-0.8,2.3-1.7    c0.3-0.5,0.4-1.1,0.3-1.7c-0.1-0.8-0.7-1.5-1.5-1.7C302.7,76.9,302.2,77,301.6,77.1z"/>
		<path class="st3" d="M301.8,77c0.6-0.2,1.2-0.2,1.7-0.1c0.9,0.2,1.5,0.9,1.6,1.9c0.1,0.7,0,1.3-0.3,1.8c-0.5,1-1.4,1.7-2.5,1.9    c-0.4,0.1-0.8,0.1-1.2,0c-1-0.2-1.6-1.1-1.7-2.1c0-0.3,0-0.7,0.1-1c0-0.1,0.1-0.3,0.2-0.4c0.2-0.7,0.7-1.2,1.3-1.6    C301.3,77.1,301.6,77,301.8,77z"/>
	</g>
</g>
</svg>