<svg xmlns="http://www.w3.org/2000/svg" xmlns:xlink="http://www.w3.org/1999/xlink" version="1.1" x="0px" y="0px" viewBox="0 0 450 330" style="enable-background:new 0 0 450 330;" xml:space="preserve"><style type="text/css">
	.st0{fill:#F9F9F7;}
	.st1{fill:#FEFEFE;}
	.st2{fill:#1A2E44;}
	.st3{fill:#FFFFFF;}
	.st4{fill:#99BFF5;}
	.st5{fill:#DCDFE1;}
	.st6{fill:#22D172;}
	.st7{fill-rule:evenodd;clip-rule:evenodd;fill:#FFE717;}
	.st8{fill-rule:evenodd;clip-rule:evenodd;fill:#273649;}
	.st9{fill:none;stroke:#1A2E44;stroke-width:1.458;stroke-linecap:round;stroke-linejoin:round;stroke-miterlimit:10;}
	.st10{fill:#F4F4EF;}
	.st11{fill:#FAFBFB;}
	.st12{fill:#F9C273;}
	.st13{fill:#1A2E44;stroke:#FFFFFF;stroke-width:0.633;stroke-linecap:square;}
	.st14{clip-path:url(#SVGID_14_);}
	.st15{clip-path:url(#SVGID_16_);}
	.st16{clip-path:url(#SVGID_18_);}
	.st17{fill:#E5E5E5;}
	.st18{clip-path:url(#SVGID_24_);}
	.st19{clip-path:url(#SVGID_26_);}
	.st20{clip-path:url(#SVGID_28_);}
	.st21{clip-path:url(#SVGID_30_);}
	.st22{clip-path:url(#SVGID_32_);}
	.st23{clip-path:url(#SVGID_34_);}
	.st24{fill:none;stroke:#1A2E44;stroke-width:6.4901;stroke-linecap:round;stroke-linejoin:round;stroke-miterlimit:10;}
	.st25{clip-path:url(#SVGID_36_);}
	.st26{clip-path:url(#SVGID_38_);}
	.st27{fill:#97B4EF;}
	.st28{fill-rule:evenodd;clip-rule:evenodd;fill:#273649;stroke:#273649;stroke-width:1.5432;stroke-linejoin:round;}
	.st29{fill:none;stroke:#1A2E44;stroke-width:5;stroke-linecap:round;stroke-linejoin:round;stroke-miterlimit:10;}
	.st30{clip-path:url(#SVGID_40_);}
	.st31{clip-path:url(#SVGID_42_);}
	.st32{fill:#FFFFFF;stroke:#1A2E44;stroke-width:1.9876;stroke-linecap:square;}
	.st33{fill:none;stroke:#1A2E44;stroke-width:1.9876;stroke-dasharray:5.9629,5.9629;}
	.st34{fill:none;stroke:#1A2E44;stroke-width:17;stroke-linecap:round;stroke-linejoin:round;stroke-miterlimit:10;}
	.st35{clip-path:url(#SVGID_44_);}
	.st36{clip-path:url(#SVGID_46_);}
	.st37{clip-path:url(#SVGID_48_);}
	.st38{fill:#FFFFFF;stroke:#1A2E44;stroke-width:2.8788;stroke-linecap:square;}
	.st39{fill:none;stroke:#1A2E44;stroke-width:2.8788;stroke-linecap:round;stroke-linejoin:round;stroke-dasharray:8.6363,8.6363;}
	.st40{clip-path:url(#SVGID_50_);}
	.st41{clip-path:url(#SVGID_52_);}
	.st42{fill:none;stroke:#1A2E44;stroke-width:2.9571;stroke-linecap:round;stroke-linejoin:round;stroke-dasharray:8.8713,8.8713;}
	.st43{fill:none;stroke:#1A2E44;stroke-width:9;stroke-linecap:round;stroke-linejoin:round;stroke-miterlimit:10;}
	.st44{fill-rule:evenodd;clip-rule:evenodd;fill:#273649;stroke:#273649;stroke-width:1.4755;stroke-linejoin:round;}
	.st45{fill:none;stroke:#1A2E44;stroke-width:4.7807;stroke-linecap:round;stroke-linejoin:round;stroke-miterlimit:10;}
	.st46{fill-rule:evenodd;clip-rule:evenodd;fill:#273649;stroke:#273649;stroke-width:0.8978;stroke-linejoin:round;}
	.st47{fill:none;stroke:#1A2E44;stroke-width:1.4922;stroke-linecap:round;stroke-linejoin:round;stroke-dasharray:4.4767,4.4767;}
	.st48{fill:#17354A;}
	.st49{fill:#FDFDFE;}
	.st50{fill:#434D60;}
	.st51{fill:#2B4155;}
	.st52{fill:#354357;}
	.st53{fill:#FCFDFD;}
	.st54{fill:#213349;}
	.st55{fill:#22D173;}
	.st56{fill:#22D072;}
	.st57{fill:none;stroke:#213349;stroke-width:5.6;stroke-dasharray:10,10;}
	.st58{fill:none;stroke:#1A2E44;stroke-width:2.6503;stroke-linecap:round;stroke-linejoin:round;stroke-dasharray:7.9509,7.9509;}
	.st59{fill:#1A2E44;stroke:#1A2E44;stroke-width:0.8403;}
	.st60{fill:#1A2E44;stroke:#1A2E44;stroke-width:0.668;}
	.st61{clip-path:url(#SVGID_54_);}
	.st62{clip-path:url(#SVGID_56_);}
	.st63{fill:#FFFFFF;stroke:#1A2E44;stroke-width:1.5353;stroke-linecap:square;}
	.st64{fill:none;stroke:#1A2E44;stroke-width:1.5771;stroke-linecap:round;stroke-linejoin:round;stroke-dasharray:4.7313,4.7313;}
	.st65{fill:#1A2E44;stroke:#1A2E44;stroke-width:0.4482;}
	.st66{fill:#1A2E44;stroke:#1A2E44;stroke-width:0.3563;}
	.st67{fill:none;stroke:#1A2E44;stroke-width:2.5896;stroke-linecap:round;stroke-linejoin:round;stroke-miterlimit:10;}
	.st68{clip-path:url(#SVGID_58_);}
	.st69{clip-path:url(#SVGID_60_);}
	.st70{fill:none;stroke:#1A2E44;stroke-width:2;stroke-linecap:round;stroke-linejoin:round;stroke-dasharray:7.9509,7.9509;}
	.st71{fill:none;stroke:#1A2E44;stroke-width:1.0159;stroke-linecap:round;stroke-linejoin:round;stroke-dasharray:3.0476,3.0476;}
	.st72{fill:none;stroke:#1A2E44;stroke-width:0.9926;stroke-linecap:round;stroke-linejoin:round;stroke-miterlimit:10;}
	.st73{fill:none;stroke:#1A2E44;stroke-width:0.9965;stroke-linecap:round;stroke-linejoin:round;stroke-dasharray:2.9895,2.9895;}
	.st74{fill:none;stroke:#1A2E44;stroke-width:0.752;stroke-linecap:round;stroke-linejoin:round;stroke-dasharray:2.9895,2.9895;}
	.st75{clip-path:url(#SVGID_62_);}
	.st76{clip-path:url(#SVGID_64_);}
	.st77{fill:#FFFFFF;stroke:#1A2E44;stroke-width:1.1079;stroke-linecap:square;}
	.st78{fill:none;stroke:#1A2E44;stroke-width:1.1079;stroke-linecap:round;stroke-linejoin:round;stroke-dasharray:3.3238,3.3238;}
	.st79{fill:#1A2E44;stroke:#1A2E44;stroke-width:0.3234;}
	.st80{fill:#1A2E44;stroke:#1A2E44;stroke-width:0.2571;}
	.st81{fill:none;stroke:#1A2E44;stroke-width:1.2018;stroke-linecap:round;stroke-linejoin:round;stroke-miterlimit:10;}
	.st82{clip-path:url(#SVGID_66_);}
	.st83{clip-path:url(#SVGID_68_);}
	.st84{fill:#FFFFFF;stroke:#1A2E44;stroke-width:1.3415;stroke-linecap:square;}
	.st85{fill:none;stroke:#1A2E44;stroke-width:1.3415;stroke-linecap:round;stroke-linejoin:round;stroke-dasharray:4.0245,4.0245;}
	.st86{fill:none;stroke:#1A2E44;stroke-width:1.23;stroke-linecap:round;stroke-linejoin:round;stroke-dasharray:3.69,3.69;}
	.st87{fill:none;stroke:#1A2E44;stroke-width:1.2066;stroke-linecap:round;stroke-linejoin:round;stroke-dasharray:3.6197,3.6197;}
	.st88{fill:none;stroke:#1A2E44;stroke-width:0.9105;stroke-linecap:round;stroke-linejoin:round;stroke-dasharray:3.6197,3.6197;}
	.st89{fill:#1A2E44;stroke:#1A2E44;stroke-width:0.3916;}
	.st90{fill:#1A2E44;stroke:#1A2E44;stroke-width:0.3113;}
	.st91{fill:none;stroke:#1A2E44;stroke-width:1.4631;stroke-linecap:round;stroke-linejoin:round;stroke-miterlimit:10;}
	.st92{clip-path:url(#SVGID_70_);}
	.st93{clip-path:url(#SVGID_72_);}
	.st94{fill:#FFFFFF;stroke:#1A2E44;stroke-width:1.6332;stroke-linecap:square;}
	.st95{fill:none;stroke:#1A2E44;stroke-width:1.6332;stroke-linecap:round;stroke-linejoin:round;stroke-dasharray:4.8995,4.8995;}
	.st96{fill:none;stroke:#1A2E44;stroke-width:1.4974;stroke-linecap:round;stroke-linejoin:round;stroke-dasharray:4.4922,4.4922;}
	.st97{fill:none;stroke:#1A2E44;stroke-width:1.4689;stroke-linecap:round;stroke-linejoin:round;stroke-dasharray:4.4066,4.4066;}
	.st98{fill:none;stroke:#1A2E44;stroke-width:1.1085;stroke-linecap:round;stroke-linejoin:round;stroke-dasharray:4.4066,4.4066;}
	.st99{fill:#1A2E44;stroke:#1A2E44;stroke-width:0.4767;}
	.st100{fill:#1A2E44;stroke:#1A2E44;stroke-width:0.379;}
	.st101{fill:none;stroke:#1A2E44;stroke-width:1.4269;stroke-linecap:round;stroke-linejoin:round;stroke-dasharray:4.2807,4.2807;}
	.st102{fill:none;stroke:#1A2E44;stroke-width:1.0768;stroke-linecap:round;stroke-linejoin:round;stroke-dasharray:4.2807,4.2807;}
	.st103{opacity:0.37;}
	.st104{fill:#FEFEFE;stroke:#1A2E44;stroke-width:2.8729;stroke-linecap:round;stroke-linejoin:round;stroke-miterlimit:10;}
	.st105{fill:#FEFEFE;stroke:#1A2E44;stroke-width:1.7429;stroke-linecap:round;stroke-linejoin:round;stroke-miterlimit:10;}
	.st106{fill:#FEFEFE;stroke:#1A2E44;stroke-width:1.4917;stroke-linecap:round;stroke-linejoin:round;stroke-miterlimit:10;}
	.st107{fill:#213349;stroke:#1A2E44;stroke-width:0.4564;stroke-miterlimit:10;}
	.st108{fill:none;stroke:#213349;stroke-width:3;stroke-linecap:round;stroke-miterlimit:10;}
	.st109{fill:#F2F4F4;}
	.st110{fill:none;stroke:#FFFFFF;stroke-width:1.0176;stroke-linecap:round;stroke-linejoin:round;stroke-miterlimit:10;}
	.st111{fill:none;stroke:#FFFFFF;stroke-linecap:round;stroke-linejoin:round;stroke-miterlimit:10;}
	.st112{fill:none;stroke:#99BFF5;stroke-linecap:round;stroke-linejoin:round;stroke-miterlimit:10;}
	.st113{fill:#172D42;}
	.st114{fill:#24374C;}
	.st115{fill:#182D42;}
	.st116{fill:#182E42;}
</style><g id="Слой_2"></g><g id="Слой_1"><path class="st4" d="M201.8,61.3c58.6,0,131.3,50.1,131.3,106.1c0,56-56.1,96.6-114.7,96.6c-58.6,0-106.1-45.4-106.1-101.3   C112.3,106.7,143.3,61.3,201.8,61.3z"/><path class="st2" d="M329.8,214.1c0,1.8-43.4,3.2-97,3.2c-25.5,0-58.9,0.5-76.2,0c-19-0.6-20.8-2.3-20.8-3.2   c0-1.8,83-2.9,136.6-2.9C325.9,211.1,329.8,212.3,329.8,214.1z"/><g><path class="st3" d="M131.2,121.1c0.2-13.4-6.1-15.9,13.7-18.7c19.8-2.8,171.5,2.2,171.5,2.2s-3.1,78.6-1.3,99.5    c0.6,6.9-6.5,11.3-26.4,8.7c-17.5-2.3-66.2,5-99.6,2.6s-42.7,1.7-49-4.1c-6.3-5.7-7.9-16.1-7.2-30.7    C133.6,166.1,131.2,124.6,131.2,121.1z"/><path class="st2" d="M131.2,121.1c0.2-13.4-6.1-15.9,13.7-18.7c19.8-2.8,24.7,2.2,24.7,2.2s0.2,89.4,2.1,110.3    c-11.6-1.1-25.9,0.5-31.6-3.6c-6.9-5-7.9-16.1-7.2-30.7C133.6,166.1,131.2,124.6,131.2,121.1z"/><path class="st10" d="M132.9,96.1c2.6-5,11.3-5.1,25.8-5.5s119.6-2.3,148.1,1.2c0,0,7.5,1.9,8.4,6.3c0.9,4.5,0.9,8.8,0.9,8.8    s-29.2-2-49.5-2.6s-49,0.4-61.5,1.1c-12.6,0.7-71.5,1.4-73.2,1.5C130.1,107,132.9,96.1,132.9,96.1z"/><path class="st2" d="M315.3,181.6c0.3-10.4,0.4-37.1,0.8-47.4c0.4-9.9,1.6-17.7,1-27.5c-0.3-5.8-0.6-13.2-7.9-15.3    c-3.6-1-7.5-1.1-11.3-1.4c-5.6-0.4-20.7-0.8-26.4-1c-11.5-0.6-22.9-0.9-34.4-1.1c-22.4-0.4-54.2,0.1-76.7,0.7    c-6,0.1-14.7-1.1-20.5,0.6c-5,1.4-8.5,4.6-10.1,9c-0.8,2.2-1.3,63.1,0.6,83.4c0.4,4.4,0.5,7.8,0.4,12.3c-0.1,4-0.1,8.4,1.5,12.2    c2.3,5.3,7.4,8.3,13.5,9.5c6.4,1.3,15.3,2.1,21.8,1.6c8.7-0.6,113.6-2.8,118.5-2.4c4,0.3,17.5,0.9,21.5,0.4    c6.8-1,8.3-8.4,8.4-13.7c0-3-0.3-6-0.6-9.1C315.1,188.8,315.3,185.2,315.3,181.6z M314,202.3c-0.1,2.4-0.3,5.5-2.1,7.5    c-2.2,2.4-6.3,2.3-9.4,2.1c-4.1-0.2-43,0.1-53.7,0.8c-10.9,0.8-64.2,0.8-74.5,1.2c-6.1,0.3-10.9-0.7-16.9-0.8    c-5.8-0.1-12.6-0.8-17.1-4.5c-6.3-5-5.4-13.4-5.2-20.1c0.1-4.2-0.4-5.5-0.7-9.8c-0.4-4.9-0.8-26.1-1-31    c-0.6-9.8-0.6-40.1-0.6-40.5c0.1-4.8-0.7-11.2,4.1-14.1c4.3-2.6,11.8-2.2,16.9-2.3c20.1-0.7,49.8-1,70.1-0.9    c21.8,0.1,53.1,0.8,74.9,2.4c3.4,0.3,7.1,0.4,10.2,1.5c2.5,0.9,4.1,2.7,4.9,5.1c1.4,4,1.3,8.6,1.3,12.7c0,4.7-0.3,9.5-0.6,14.2    c-0.7,9.7-0.8,17.3-1,27C313.5,157.7,313.2,191.3,314,202.3z"/><path class="st2" d="M316.4,105.1c-4.6,0.6-9.9,0.1-14.6-0.3c-5.3-0.4-20-0.4-25.3-0.4c-11.1,0-22.2-0.1-33.3-0.1    c-11,0-22,0-33,0.4c-10.9,0.4-31.4,0.6-42.3,0.9c-6.1,0.1-12.3,0.3-18.5,0.4c-2.9,0-5.7,0-8.7-0.1c-2.5-0.1-5.2-0.2-7.7,0.4    c-1,0.2-1.6,1.9-0.3,1.6c2.4-0.5,4.8-0.4,7.3-0.4c2.5,0.1,5.2,0.1,7.7,0.1c5.5,0,10.8-0.1,16.3-0.3c11-0.3,31.4-0.5,42.5-0.9    c22-0.7,44.2-0.5,66.2-0.4c6,0,21.6-0.2,27.6,0.3c5.1,0.4,10.8,1,16,0.4C317.2,106.6,317.8,104.9,316.4,105.1z"/><path class="st2" d="M145.5,95.6c0-0.1-0.1-0.1-0.2-0.2c-0.1-0.1-0.3-0.3-0.4-0.3c-0.3-0.2-1.1-0.3-1.3-0.3    c-0.7-0.1-1.3,0.2-1.8,0.5c-0.7,0.4-1.1,1.2-1.3,1.8c-0.1,0.3-0.2,0.6-0.3,0.9c0,0.3-0.1,0.5,0,0.8c0,0.3,0.1,0.4,0.2,0.7    c0.1,0.2,0.2,0.4,0.3,0.5c0.3,0.3,0.7,0.5,1.1,0.6c0.3,0.1,0.8,0.1,1.1,0C145.3,100.3,146.8,97.5,145.5,95.6z"/><path class="st2" d="M155.2,95.5c-0.1-0.1-0.1-0.1-0.2-0.2c-0.1-0.1-0.3-0.2-0.4-0.3c-0.3-0.1-1.2-0.1-1.3-0.1    c-0.7,0-1.3,0.3-1.8,0.8c-0.6,0.5-1,1.3-1.1,2c-0.1,0.3-0.1,0.6-0.1,0.9c0,0.3,0,0.5,0.1,0.8c0.1,0.3,0.2,0.4,0.3,0.7    c0.1,0.2,0.3,0.3,0.4,0.5c0.3,0.3,0.7,0.4,1.2,0.4c0.3,0,0.8-0.1,1-0.2C155.6,100.1,156.8,97.3,155.2,95.5z"/><path class="st2" d="M165,95.4c-0.1-0.1-0.1-0.1-0.2-0.1c-0.2-0.1-0.3-0.2-0.4-0.2c-0.3-0.1-1.2,0.1-1.3,0.1    c-0.7,0.1-1.2,0.5-1.7,1c-0.5,0.6-0.8,1.4-0.8,2.2c0,0.3,0,0.7,0,0.9s0.1,0.5,0.2,0.8c0.1,0.2,0.2,0.4,0.3,0.6    c0.2,0.2,0.3,0.3,0.5,0.4c0.4,0.3,0.8,0.3,1.3,0.3c0.3,0,0.7-0.2,1-0.3C166,99.9,166.7,96.9,165,95.4z"/></g><path class="st5" d="M251.4,199c-1.6,0.1-3.1-0.4-4.6-0.6c-2.1-0.3-3.1-1.5-3.3-3.3c-0.4-2.8-0.7-5.7-0.5-8.5   c0.1-1.1-0.4-2.1-0.3-3.2c0.1-1,0.4-2,0.8-2.9c0.8-2,2.6-2.6,4.8-2.7c5.5-0.2,11-0.2,16.6-0.2c3.3,0,6.6,0.2,9.9,0   c1.9-0.1,3.7,0.2,5.6,0.2c2.8,0.1,4.9,2.2,4.8,4.6c-0.1,2.8,0.1,5.6,0.4,8.4c0.1,1.1,0.1,2.2-0.1,3.2c-0.4,2.4-2.3,3.8-5.5,4.2   c-2.8,0.4-5.6,0.3-8.4,0.5c-2.5,0.2-5.1-0.1-7.6,0.3c-0.2,0-0.4,0-0.6,0C259.2,198.9,255.3,198.5,251.4,199z"/><g><path class="st3" d="M145,128.8l-1.5,0.9c-0.2,0.1-0.1,0.4,0,0.4l5.8,3.2c0.4,0.2,0.8,0.2,1.1,0l5.9-3.3c0.2-0.1,0.1-0.3,0-0.4    l-1.6-0.9c-0.1-0.1-0.4-0.1-0.5,0l-3.8,2.1c-0.4,0.2-0.8,0.2-1.1,0l-3.8-2.1C145.4,128.7,145.2,128.7,145,128.8z"/><path class="st3" d="M149.4,116.1c0.4-0.2,0.8-0.2,1.1,0c0,0,4.4,2.4,4.7,2.6c0.2,0.1,0.2,0.4,0,0.5c-0.4,0.3-1.1,0.6-1.5,0.8    c-0.1,0.1-0.3,0.1-0.4,0l-2.7-1.5c-0.4-0.2-0.8-0.2-1.1,0l-2.7,1.5c-0.1,0.1-0.3,0.1-0.4,0c-0.4-0.2-1.1-0.6-1.5-0.9    c-0.2-0.1-0.2-0.3,0-0.4L149.4,116.1z"/><path class="st6" d="M157.2,120c0.4,0.2,0.6,0.5,0.6,0.9v7.5c0,0.4-0.2,0.4-0.5,0.3l-1.7-0.9v-5l-5.1,2.8c-0.4,0.2-0.8,0.2-1.1,0    l-5.1-2.8v5l-1.6,0.9c-0.2,0.1-0.6,0.1-0.6-0.3v-7.5c0-0.4,0.2-0.7,0.6-0.9c0.6-0.3,1.1,0,1.1,0l6.2,3.4l6.2-3.4    C156.1,120,156.6,119.7,157.2,120z"/></g><g><path class="st2" d="M188.3,215.5l0.3-30.5l0.1-15.2c0-5.1,0-10.2-0.3-15.2c-0.1-1.3-0.1-2.6,0.1-3.9c0.2-1.3,0.7-2.7,1.6-3.8    c0.9-1.1,2.2-1.8,3.4-2.3c1.3-0.5,2.6-0.7,3.9-0.8c2.6-0.3,5.2-0.2,7.7-0.2c2.5,0.1,5.1,0,7.6,0l30.5-0.5    c10.2-0.2,20.3-0.3,30.5-0.3c5.1,0,10.2,0,15.3,0.2c2.6,0.1,5.2,0.2,7.8,1.2c1.3,0.5,2.6,1.5,3.3,2.8c0.8,1.3,1.1,2.6,1.3,4    c0.3,2.6,0.3,5.2,0.3,7.7c0,2.5,0,5.1,0,7.6c0.1,5.1,0.3,10.1,0.4,15.2c0.3,10.2,0.8,20.3,1.1,30.5c0,0.4-0.3,0.8-0.7,0.8    c-0.4,0-0.8-0.3-0.8-0.7c0,0,0,0,0-0.1l0,0c0.2-5,0.1-10.1-0.1-15.2l-0.3-7.6l-0.4-7.6l-0.7-15.2c-0.1-2.5-0.2-5.1-0.3-7.6    c0-2.5-0.1-5.1-0.5-7.5c-0.2-1.2-0.5-2.3-1.1-3.2c-0.6-0.9-1.4-1.5-2.5-1.9c-1.1-0.4-2.2-0.6-3.5-0.8c-1.2-0.1-2.4-0.2-3.7-0.2    c-5-0.1-10.1-0.1-15.2-0.1l-30.5,0.1c-10.2,0-20.3,0-30.5,0c-2.5,0-5.1,0-7.6-0.1c-2.5-0.1-5-0.2-7.5,0.1    c-2.4,0.3-4.9,0.8-6.4,2.6c-1.5,1.7-1.6,4.3-1.5,6.8c0.3,5.1,0.3,10.2,0.3,15.3l-0.1,15.2l-0.1,15.2l0,15.2v0    c0,0.4-0.3,0.8-0.8,0.8C188.7,216.2,188.3,215.9,188.3,215.5C188.3,215.5,188.3,215.5,188.3,215.5z"/></g><g><path class="st2" d="M196.9,162.9l48.4-0.2l48.4-0.4c0.2,0,0.4,0.2,0.4,0.4c0,0.2-0.2,0.4-0.4,0.4h0l-48.4,0.2l-48.4,0.4    c-0.2,0-0.4-0.2-0.4-0.4C196.5,163.1,196.7,162.9,196.9,162.9L196.9,162.9z"/></g><g><path class="st2" d="M196.9,151.4l15.7-0.1c0.4,0,0.8,0.3,0.8,0.8s-0.3,0.8-0.8,0.8c0,0,0,0,0,0l-15.7-0.1c-0.4,0-0.7-0.3-0.7-0.7    C196.2,151.7,196.5,151.4,196.9,151.4z"/></g><g><path class="st2" d="M196.5,155.5l33.2,0.8c0.3,0,0.5,0.2,0.5,0.5c0,0.3-0.2,0.5-0.5,0.5l-33.2-0.2c-0.4,0-0.8-0.3-0.8-0.8    C195.7,155.9,196.1,155.5,196.5,155.5C196.5,155.5,196.5,155.5,196.5,155.5z"/></g><g><path class="st7" d="M212.3,173.7c-1.7,0-4.1,4.1-5.1,5.7c-2.1,3.2-3.3,6.6-4.9,10c-2.1,4.4-8,10.7-1,10.7    c5.8,0.1,13.3,0.1,19.1-0.1c1.7,0,5.2,0.1,6.8-1c1.9-1.3-0.8-4.7-1.8-6.1c-3.2-4.7-5.9-10.2-8.8-15    C215.7,176.5,213.9,173.7,212.3,173.7z"/><path class="st8" d="M202.7,199.2c5.9-0.1,11.7,0.1,17.5,0c1.9,0,4.6,0.5,6.3-0.3c1.9-0.9-0.5-4.8-1.2-5.9    c-3-4.4-5.5-9.3-8.7-13.6c-0.9-1.3-2-4.4-3.6-5.1c-2-0.8-4.7,4.3-5.4,5.4c-2.7,4.5-4.4,9.6-7.2,13.9c-0.4,0.6-2,4-1.4,4.7    C199.7,198.9,201.1,199.1,202.7,199.2c0.3,0,0,0.9,0,0.9c-9.8,0.3-3-7.2-0.8-11.8c1.7-3.6,3.3-7.2,5.5-10.5c1.1-1.6,3.4-5.4,6-4.3    c1.8,0.8,2.9,3.2,3.9,4.7c3.1,5.1,6.4,10.2,9.7,15.1c1,1.5,2.3,4.9,0.3,6.3c-1.6,1.1-4.5,0.8-6.3,0.8c-6.1,0.1-12.1-0.2-18.2-0.3"/><g><g><path class="st8" d="M211.5,190.7c-0.2-2.8,0-7.8,0-9.2c-0.1-1.3,2.1-2.7,2.1,0.7c0,3.4-0.3,6.7-0.3,8.5      C213.2,192.5,211.6,192.3,211.5,190.7z"/><ellipse transform="matrix(0.2441 -0.9698 0.9698 0.2441 -27.7949 353.0109)" class="st8" cx="212.5" cy="194.3" rx="1.3" ry="1.2"/></g></g></g><g><path class="st2" d="M243.8,171.7c1.8-0.1,3.6-0.2,5.5-0.2l5.5-0.1c3.7-0.1,7.3-0.1,11-0.2c3.6,0,7.3,0,11,0.1    c3.6,0,7.3-0.3,10.9-0.3l0,0c0.4,0,0.6,0.3,0.6,0.7c0,0.4-0.3,0.6-0.6,0.6c-3.6,0-7.3,0.4-11,0.4c-3.7,0-7.3-0.1-11,0    c-3.6,0-7.3,0.1-10.9,0.2c-3.7,0-7.3,0.2-11,0.1c-0.4,0-0.6-0.3-0.6-0.7C243.2,172,243.5,171.8,243.8,171.7L243.8,171.7z"/></g><path class="st2" d="M228.4,127.8c0-0.1,0.1-0.7,0.8-0.7c2-0.1,5.3-0.1,7,0c0.7,0,0.9,0.6,0.9,0.8c0,0.9-3.1,5.3-4.2,5.3   C231.7,133.1,228.4,128.9,228.4,127.8z"/><g><path class="st72" d="M195.4,133.2c-0.9,0.5-4.4,0.3-4.4,0.3c-0.1-1.7,0-6.7,0-6.7s2.3-0.3,4.2-0.3"/><path class="st72" d="M194.3,129.7c0,0-2.4,0-3,0.3"/><path class="st72" d="M197.6,128.7c0,0-0.3,3.6,0.2,4.9"/><path class="st72" d="M201.6,133.5c0.4-3-0.7-6.4-3.8-3.8"/><path class="st72" d="M204.9,133.4c0.4-3-0.5-6.3-3.6-3.7"/><path class="st72" d="M211.9,128.8c-1.7-1.2-4.8,0.4-4.4,3c0.4,2.6,3.3,1.8,4.4,0"/><path class="st72" d="M212.1,128.4c0,0-0.9,4.8,1,5.1"/><path class="st72" d="M215.1,128.4c-0.1,1-0.5,5,0.9,5.2"/><line class="st72" x1="215.4" y1="126.2" x2="215.5" y2="126"/><path class="st72" d="M218.3,129.3c2.4-3,3.6-6.1,1.7-6.8s-3.1,7.1-1.7,9.9c1.3,2.8,2.9,0,2.9,0"/></g><g><path class="st3" d="M304.5,81.2c0.8-1.3,11.4,2.4,19.3,6.6c7.9,4.1,13.8,7.1,13.7,8.1c0,1-9.1,13.4-20.7,6.9    C305.2,96.2,302.7,83.9,304.5,81.2z"/><path class="st2" d="M329.7,116.7c1.2-2,2.4-4.1,3.4-6.3c0.2-0.4,0.4-0.9,0.6-1.3c0.1-0.2,0.2-0.4,0.3-0.7l0,0    c0.1-0.2,0.2-0.4,0.3-0.6c0.2-0.4,0.3-0.7,0.5-1.1c0-0.1,0.1-0.2,0.1-0.2c0.2-0.5,0.5-1,0.7-1.5c0.2-0.6,0.5-1.2,0.7-1.7l0,0    c0.7-1.6,1.3-3.1,1.9-4.7c1-2.7,0.9-3.1-1.2-4.3c-5.2-3-10.5-6.1-15.8-8.9c-0.4-0.2-0.9-0.4-1.3-0.6l0,0c-0.2-0.1-0.4-0.2-0.6-0.3    l0,0l0,0c-0.2-0.1-0.4-0.2-0.7-0.3c0,0,0,0-0.1,0c-0.1-0.1-0.2-0.1-0.3-0.1c-0.4-0.2-0.9-0.4-1.3-0.6c-0.2-0.1-0.5-0.2-0.7-0.3    c-0.2-0.1-0.6-0.2-0.8-0.3s-0.5-0.2-0.8-0.3c-0.1,0-0.1,0-0.1,0c-0.1,0-0.1,0-0.2-0.1c-0.1,0-0.2-0.1-0.2-0.1    c-0.1,0-0.1,0-0.2-0.1c-0.1,0-0.3-0.1-0.4-0.1s-0.3-0.1-0.4-0.2c0,0,0,0,0,0c-0.1,0-0.2-0.1-0.4-0.1s-0.3-0.1-0.4-0.1    c0,0-0.1,0-0.1,0c-0.3-0.1-0.6-0.2-0.9-0.3c-0.1,0-0.2-0.1-0.3-0.1c-0.1,0-0.2-0.1-0.3-0.1l0,0c-0.1,0-0.2-0.1-0.3-0.1    c-0.2-0.1-0.5-0.1-0.7-0.2c-0.1,0-0.2-0.1-0.3-0.1c-0.1,0-0.2-0.1-0.3-0.1c-0.1,0-0.1,0-0.1,0c-0.2-0.1-0.5-0.1-0.7-0.2    c-0.3-0.1-0.6-0.1-0.9-0.2c-0.3,0-0.7-0.1-1-0.2c-0.7-0.1-1.2-0.2-1.6-0.1c-0.1,0-0.1,0-0.2,0c-0.1,0-0.1,0-0.2,0.1    c0,0-0.1,0-0.2,0.1l0,0c0,0-0.1,0.1-0.2,0.1c0,0-0.1,0.1-0.1,0.1c0,0-0.1,0.1-0.1,0.1c0,0-0.1,0.1-0.1,0.1c0,0-0.1,0.1-0.1,0.1    c-0.2,0.2-0.4,0.6-0.6,1c-0.1,0.1-0.1,0.2-0.2,0.4c-0.3,0.6-0.6,1.2-0.9,1.8c-0.6,1.2-1.2,2.3-1.8,3.5c-0.3,0.6-0.6,1.2-0.9,1.7    c-0.3,0.6-0.6,1.2-0.9,1.8c-0.6,1.3-1.3,2.7-1.9,4c-0.2,0.5-0.4,0.9-0.6,1.3c-0.2,0.4-0.3,0.8-0.5,1.1c0,0.1-0.1,0.2-0.1,0.2    c-0.1,0.2-0.2,0.4-0.2,0.6c-0.1,0.2-0.2,0.5-0.3,0.8l0,0c-0.2,0.6-0.5,1.1-0.7,1.7c-0.2,0.5-0.4,0.9-0.6,1.4    c-0.6,1.6-0.5,1.9,0.8,2.7c0.2,0.1,0.4,0.2,0.6,0.3c0.7,0.3,1.4,0.6,2.1,0.9l0,0c0.7,0.3,1.5,0.7,2.2,1c0.5,0.3,1,0.5,1.5,0.8    c4.1,2.1,8.3,4,12.5,6c0.6,0.3,1.2,0.6,1.8,0.9c0.9,0.4,1.8,0.9,2.7,1.3c0.8,0.4,1.5,0.8,2.3,1.2c1.7,0.9,3.4,1.6,5.3,2    C327.1,119.4,328.6,118.7,329.7,116.7z M305.7,81.7c1.1,0,2.1,0.2,3.1,0.5c3.5,1,6.8,2.3,10.1,3.8c0.2,0.1,0.4,0.2,0.6,0.3l0,0    c1.7,0.8,3.4,1.7,5,2.6c3.8,2.1,7.7,4.2,11.5,6.3c0.2,0.1,0.3,0.2,0.3,0.5c-2,1-3.9,2-5.9,2.9l0,0c-0.7,0.3-1.3,0.6-2,0.8    c-2,0.7-4.1,1.2-6.3,1.3c-0.3,0-0.7,0-1,0s-0.6-0.1-0.9-0.1c-1.9-0.3-3.5-1-4.9-2.4c-3.8-3.6-7.1-7.7-9.3-12.8    c-0.4-0.9-0.7-1.7-0.9-2.7C304.9,82.1,305.1,81.7,305.7,81.7z"/><path class="st3" d="M336.3,97.4c-3.1,6.4-6,13.2-9.3,19.6l0,0c-10.3-4.7-20.9-9.6-31.6-13.5c4.5-2.9,9-4.8,13.9-6.3    c-1.5-0.5-3.1,0-7.4,1.8c-2.3,1-4.5,2.2-7.1,3.6c3-6.6,5.5-12.9,8.5-19c0.6,0.1,0.5,0.7,0.6,1c1.9,6.1,5.4,10.8,9.8,14.8    c2.4,2.2,5.5,2.6,8.7,2.4c2.6-0.2,5.2-0.9,7.7-2c2-0.9,4-1.9,6.1-2.8C336.2,97,336.3,97.2,336.3,97.4z"/><path class="st2" d="M326,117.3c0.6-2.3-1-11.1-2.1-14.4c0,0,0.9,0.3,1.7,3.6c0.8,3.3,2.2,10.3,2.2,10.3S325.6,118.9,326,117.3z"/></g><g><path class="st3" d="M307.3,245.5c-0.3-1.4,8.9-5.8,16.7-8.2s13.5-4.2,14.1-3.6s2.8,14.5-9,17.8    C317.4,254.7,308,248.4,307.3,245.5z"/><path class="st2" d="M346.5,252.2c-0.5-2.1-1.1-4.2-1.8-6.3c-0.1-0.4-0.3-0.9-0.4-1.3c-0.1-0.2-0.1-0.4-0.2-0.6l0,0    c-0.1-0.2-0.1-0.4-0.2-0.6c-0.1-0.4-0.3-0.7-0.4-1c0-0.1-0.1-0.2-0.1-0.2c-0.2-0.5-0.4-1-0.5-1.4c-0.2-0.5-0.4-1.1-0.6-1.6l0,0    c-0.6-1.4-1.1-2.8-1.8-4.2c-1.1-2.4-1.4-2.6-3.6-2c-5.3,1.4-10.7,2.8-16,4.4c-0.4,0.1-0.8,0.3-1.2,0.4l0,0    c-0.2,0.1-0.4,0.1-0.6,0.2l0,0l0,0c-0.2,0.1-0.4,0.1-0.6,0.2c0,0,0,0,0,0c-0.1,0-0.2,0.1-0.3,0.1c-0.4,0.1-0.8,0.3-1.2,0.5    c-0.2,0.1-0.4,0.2-0.6,0.3c-0.2,0.1-0.5,0.2-0.8,0.3c-0.2,0.1-0.5,0.2-0.8,0.3c0,0-0.1,0-0.1,0.1c0,0-0.1,0.1-0.2,0.1    c-0.1,0-0.2,0.1-0.2,0.1s-0.1,0.1-0.2,0.1c-0.1,0.1-0.2,0.1-0.4,0.2s-0.3,0.1-0.4,0.2c0,0,0,0,0,0c-0.1,0.1-0.2,0.1-0.3,0.1    s-0.2,0.1-0.3,0.1c0,0,0,0-0.1,0c-0.2,0.1-0.5,0.2-0.8,0.4c-0.1,0.1-0.2,0.1-0.3,0.2s-0.2,0.1-0.3,0.2l0,0    c-0.1,0.1-0.2,0.1-0.3,0.2c-0.2,0.1-0.4,0.2-0.6,0.3c-0.1,0.1-0.2,0.1-0.3,0.2c-0.1,0-0.2,0.1-0.2,0.1c0,0-0.1,0-0.1,0.1    c-0.2,0.1-0.4,0.2-0.5,0.3c-0.2,0.2-0.5,0.3-0.7,0.4c-0.3,0.2-0.5,0.3-0.8,0.5c-0.5,0.4-0.9,0.6-1.1,0.9c0,0.1-0.1,0.1-0.1,0.2    s-0.1,0.1-0.1,0.2c0,0-0.1,0.1-0.1,0.2l0,0c0,0,0,0.1,0,0.2c0,0,0,0.1,0,0.1s0,0.1,0,0.2c0,0,0,0.1,0,0.1c0,0,0,0.1,0,0.2    c0,0.3,0.1,0.6,0.2,1c0,0.1,0.1,0.2,0.1,0.4c0.2,0.6,0.3,1.1,0.5,1.7c0.3,1.1,0.7,2.3,1.1,3.4c0.2,0.6,0.4,1.1,0.5,1.7    c0.2,0.6,0.4,1.1,0.6,1.7c0.4,1.3,0.9,2.5,1.4,3.8c0.2,0.4,0.3,0.8,0.5,1.2c0.1,0.4,0.3,0.7,0.4,1c0,0.1,0.1,0.2,0.1,0.2    c0.1,0.2,0.1,0.4,0.2,0.5c0.1,0.2,0.2,0.5,0.3,0.7l0,0c0.2,0.5,0.4,1,0.6,1.6c0.2,0.4,0.3,0.9,0.6,1.3c0.6,1.4,0.9,1.6,2.3,1.2    c0.2-0.1,0.4-0.1,0.6-0.2c0.6-0.3,1.3-0.6,1.9-0.8l0,0c0.7-0.3,1.4-0.5,2.1-0.8c0.5-0.2,1-0.3,1.5-0.5c4-1.3,8-2.8,12-4.2    c0.6-0.2,1.2-0.4,1.7-0.6c0.9-0.3,1.7-0.6,2.6-0.9c0.8-0.2,1.5-0.5,2.3-0.7c1.6-0.5,3.2-1.2,4.7-2.1    C346.6,255.6,347.1,254.2,346.5,252.2z M308.5,245c0.7-0.7,1.5-1.2,2.3-1.7c2.9-1.6,5.9-2.9,9-4c0.2,0,0.3-0.1,0.5-0.2l0,0    c1.6-0.6,3.3-1.1,4.9-1.6c3.8-1.1,7.6-2.2,11.5-3.3c0.2-0.1,0.3-0.1,0.5,0.2c-0.6,1.9-1.3,3.8-2,5.7l0,0c-0.2,0.6-0.5,1.2-0.8,1.8    c-0.9,1.8-1.8,3.4-3.2,4.9c-0.2,0.2-0.4,0.4-0.6,0.6c-0.2,0.2-0.4,0.4-0.7,0.5c-1.4,1-2.9,1.6-4.7,1.7c-4.8,0.1-9.6-0.4-14.2-2.3    c-0.8-0.3-1.6-0.6-2.3-1.2C308.2,245.8,308.1,245.4,308.5,245z"/><path class="st3" d="M338.3,235.4c2.1,6.1,4.6,12.4,6.6,18.7l0,0c-9.7,3.6-19.7,7.3-29.1,11.6c1-4.8,2.7-8.9,4.9-13    c-1.3,0.7-2,2-3.6,5.9c-0.9,2.1-1.5,4.4-2.3,6.9c-2.3-6.2-4.8-11.9-6.7-17.8c0.4-0.3,0.7,0.1,1.1,0.3c5.1,2.7,10.5,3.5,15.9,3.3    c3-0.1,5.2-1.9,7.1-4c1.6-1.8,2.7-3.9,3.6-6.2c0.7-1.9,1.4-3.8,2.1-5.7C338,235.3,338.2,235.4,338.3,235.4z"/><path class="st2" d="M344.5,254.9c-1.1-1.9-7.8-6.6-10.6-8c0,0,0.8-0.4,3.4,1.2c2.6,1.6,8.1,5.3,8.1,5.3S345.2,256.2,344.5,254.9z    "/></g><path class="st71" d="M308.4,151.9c0,11.4,51.1,5,23-39.3"/><path class="st71" d="M238.7,200.2c5,8.3-10.9,17.3-20,24.7c-9.1,7.4-2.1,24.2,20,16.4s36.8-0.3,46.3,9.6   c9.5,9.9,20.3,8.5,23.4,3.1"/></g></svg>