<svg xmlns="http://www.w3.org/2000/svg" class="single-testimonial__icon d-block position-absolute" viewBox="0 0 49.92 52"><path d="M3.18,25.16a23.5,23.5,0,0,0,7.23,21.06c5.2,4.54,11.88,5.84,18.34,5.78A24.33,24.33,0,0,0,40,49.7,17.77,17.77,0,0,0,48.69,40c2.74-7.25.55-15.61-3-21.68A36.3,36.3,0,0,0,38,9C33.25,5,11.28-3.59,4.22,19" style="" fill="#1A2E44"/><path d="M.77,21.84A23.48,23.48,0,0,0,8,42.85c5.2,4.49,11.88,5.84,18.35,5.78a24.31,24.31,0,0,0,11.28-2.3,17.77,17.77,0,0,0,8.65-9.66c2.74-7.24.55-15.61-3-21.68A36.3,36.3,0,0,0,35.6,5.67C30.89,1.63,8.93-6.91,1.81,15.72" style="" fill="#FFFFFF"/><path d="M.28,21.73c-1.76,11.91,5,23.14,16.37,26.4,10.9,3.08,25.25,1.12,30-10.79C51.21,26.11,44.74,12.24,36,5.11,31.71,1.68,25.58,0,20.21,0,10.63.06,4.27,6.57,1.37,15.5c-.27.73.66,1.35.93.45C4.77,8.48,9.75,2.47,17.75,1.52A26.22,26.22,0,0,1,33,4.72C40.69,8.93,46.28,19,47,27.8c.49,6.45-1.92,12.74-7.17,16.51-4.88,3.48-11.18,4-16.93,3.53-6-.5-12-2.52-16.21-7.18A23.28,23.28,0,0,1,1.32,21.9C1.43,21,.39,20.89.28,21.73Z" style="" fill="#1A2E44"/><path d="M25.19,30.89c3.13-1.35,5.48-3.21,5.48-6,0-2.41-2.19-2.92-4.43-3.48-.39-.05-.88-1-.88-1.85a3.1,3.1,0,0,1,3.39-3.09c2.91,0,5.86,2.47,5.86,7,0,4.83-4.27,8-8.48,9.27Zm-11.71,0c3.12-1.35,5.47-3.21,5.47-6,0-2.41-2.24-2.92-4.54-3.48-.39-.05-.88-1-.88-1.85a3.14,3.14,0,0,1,3.4-3.09c2.9,0,5.86,2.47,5.86,7,0,4.83-4.28,8-8.49,9.27Z" style="" fill="#1A2E44"/></svg>