<svg xmlns="http://www.w3.org/2000/svg" xmlns:xlink="http://www.w3.org/1999/xlink" version="1.1" x="0px" y="0px" viewBox="0 0 450 330" style="enable-background:new 0 0 450 330;" xml:space="preserve" width="478"  height="351" >
<style type="text/css">
	.st0{fill:#F9F9F7;}
	.st1{fill:#FEFEFE;}
	.st2{fill:#1A2E44;}
	.st3{fill:#FFFFFF;}
	.st4{fill:#99BFF5;}
	.st5{fill:#DCDFE1;}
	.st6{fill:#22D172;}
	.st7{fill-rule:evenodd;clip-rule:evenodd;fill:#FFE717;}
	.st8{fill-rule:evenodd;clip-rule:evenodd;fill:#273649;}
	.st9{fill:none;stroke:#1A2E44;stroke-width:1.458;stroke-linecap:round;stroke-linejoin:round;stroke-miterlimit:10;}
	.st10{fill:#F4F4EF;}
	.st11{fill:#FAFBFB;}
	.st12{fill:#F9C273;}
	.st13{fill:#1A2E44;stroke:#FFFFFF;stroke-width:0.633;stroke-linecap:square;}
	.st14{clip-path:url(#SVGID_14_);}
	.st15{clip-path:url(#SVGID_16_);}
	.st16{clip-path:url(#SVGID_18_);}
	.st17{fill:#E5E5E5;}
	.st18{clip-path:url(#SVGID_24_);}
	.st19{clip-path:url(#SVGID_26_);}
	.st20{clip-path:url(#SVGID_28_);}
	.st21{clip-path:url(#SVGID_30_);}
	.st22{clip-path:url(#SVGID_32_);}
	.st23{clip-path:url(#SVGID_34_);}
	.st24{fill:none;stroke:#1A2E44;stroke-width:6.4901;stroke-linecap:round;stroke-linejoin:round;stroke-miterlimit:10;}
	.st25{clip-path:url(#SVGID_36_);}
	.st26{clip-path:url(#SVGID_38_);}
	.st27{fill:#97B4EF;}
	.st28{fill-rule:evenodd;clip-rule:evenodd;fill:#273649;stroke:#273649;stroke-width:1.5432;stroke-linejoin:round;}
	.st29{fill:none;stroke:#1A2E44;stroke-width:5;stroke-linecap:round;stroke-linejoin:round;stroke-miterlimit:10;}
	.st30{clip-path:url(#SVGID_40_);}
	.st31{clip-path:url(#SVGID_42_);}
	.st32{fill:#FFFFFF;stroke:#1A2E44;stroke-width:1.9876;stroke-linecap:square;}
	.st33{fill:none;stroke:#1A2E44;stroke-width:1.9876;stroke-dasharray:5.9629,5.9629;}
	.st34{fill:none;stroke:#1A2E44;stroke-width:17;stroke-linecap:round;stroke-linejoin:round;stroke-miterlimit:10;}
	.st35{clip-path:url(#SVGID_44_);}
	.st36{clip-path:url(#SVGID_46_);}
	.st37{clip-path:url(#SVGID_48_);}
	.st38{fill:#FFFFFF;stroke:#1A2E44;stroke-width:2.8788;stroke-linecap:square;}
	.st39{fill:none;stroke:#1A2E44;stroke-width:2.8788;stroke-linecap:round;stroke-linejoin:round;stroke-dasharray:8.6363,8.6363;}
	.st40{clip-path:url(#SVGID_50_);}
	.st41{clip-path:url(#SVGID_52_);}
	.st42{fill:none;stroke:#1A2E44;stroke-width:2.9571;stroke-linecap:round;stroke-linejoin:round;stroke-dasharray:8.8713,8.8713;}
	.st43{fill:none;stroke:#1A2E44;stroke-width:9;stroke-linecap:round;stroke-linejoin:round;stroke-miterlimit:10;}
	.st44{fill-rule:evenodd;clip-rule:evenodd;fill:#273649;stroke:#273649;stroke-width:1.4755;stroke-linejoin:round;}
	.st45{fill:none;stroke:#1A2E44;stroke-width:4.7807;stroke-linecap:round;stroke-linejoin:round;stroke-miterlimit:10;}
	.st46{fill-rule:evenodd;clip-rule:evenodd;fill:#273649;stroke:#273649;stroke-width:0.8978;stroke-linejoin:round;}
	.st47{fill:none;stroke:#1A2E44;stroke-width:1.4922;stroke-linecap:round;stroke-linejoin:round;stroke-dasharray:4.4767,4.4767;}
	.st48{fill:#17354A;}
	.st49{fill:#FDFDFE;}
	.st50{fill:#434D60;}
	.st51{fill:#2B4155;}
	.st52{fill:#354357;}
	.st53{fill:#FCFDFD;}
	.st54{fill:#213349;}
	.st55{fill:#22D173;}
	.st56{fill:#22D072;}
	.st57{fill:none;stroke:#213349;stroke-width:5.6;stroke-dasharray:10,10;}
	.st58{fill:none;stroke:#1A2E44;stroke-width:2.6503;stroke-linecap:round;stroke-linejoin:round;stroke-dasharray:7.9509,7.9509;}
	.st59{fill:#1A2E44;stroke:#1A2E44;stroke-width:0.8403;}
	.st60{fill:#1A2E44;stroke:#1A2E44;stroke-width:0.668;}
	.st61{clip-path:url(#SVGID_54_);}
	.st62{clip-path:url(#SVGID_56_);}
	.st63{fill:#FFFFFF;stroke:#1A2E44;stroke-width:1.5353;stroke-linecap:square;}
	.st64{fill:none;stroke:#1A2E44;stroke-width:1.5771;stroke-linecap:round;stroke-linejoin:round;stroke-dasharray:4.7313,4.7313;}
	.st65{fill:#1A2E44;stroke:#1A2E44;stroke-width:0.4482;}
	.st66{fill:#1A2E44;stroke:#1A2E44;stroke-width:0.3563;}
	.st67{fill:none;stroke:#1A2E44;stroke-width:2.5896;stroke-linecap:round;stroke-linejoin:round;stroke-miterlimit:10;}
	.st68{clip-path:url(#SVGID_58_);}
	.st69{clip-path:url(#SVGID_60_);}
	.st70{fill:none;stroke:#1A2E44;stroke-width:2;stroke-linecap:round;stroke-linejoin:round;stroke-dasharray:7.9509,7.9509;}
	.st71{fill:none;stroke:#1A2E44;stroke-width:1.0159;stroke-linecap:round;stroke-linejoin:round;stroke-dasharray:3.0476,3.0476;}
	.st72{fill:none;stroke:#1A2E44;stroke-width:0.9926;stroke-linecap:round;stroke-linejoin:round;stroke-miterlimit:10;}
	.st73{fill:none;stroke:#1A2E44;stroke-width:0.9965;stroke-linecap:round;stroke-linejoin:round;stroke-dasharray:2.9895,2.9895;}
	.st74{fill:none;stroke:#1A2E44;stroke-width:0.752;stroke-linecap:round;stroke-linejoin:round;stroke-dasharray:2.9895,2.9895;}
	.st75{clip-path:url(#SVGID_62_);}
	.st76{clip-path:url(#SVGID_64_);}
	.st77{fill:#FFFFFF;stroke:#1A2E44;stroke-width:1.1079;stroke-linecap:square;}
	.st78{fill:none;stroke:#1A2E44;stroke-width:1.1079;stroke-linecap:round;stroke-linejoin:round;stroke-dasharray:3.3238,3.3238;}
	.st79{fill:#1A2E44;stroke:#1A2E44;stroke-width:0.3234;}
	.st80{fill:#1A2E44;stroke:#1A2E44;stroke-width:0.2571;}
	.st81{fill:none;stroke:#1A2E44;stroke-width:1.2018;stroke-linecap:round;stroke-linejoin:round;stroke-miterlimit:10;}
	.st82{clip-path:url(#SVGID_66_);}
	.st83{clip-path:url(#SVGID_68_);}
	.st84{fill:#FFFFFF;stroke:#1A2E44;stroke-width:1.3415;stroke-linecap:square;}
	.st85{fill:none;stroke:#1A2E44;stroke-width:1.3415;stroke-linecap:round;stroke-linejoin:round;stroke-dasharray:4.0245,4.0245;}
	.st86{fill:none;stroke:#1A2E44;stroke-width:1.23;stroke-linecap:round;stroke-linejoin:round;stroke-dasharray:3.69,3.69;}
	.st87{fill:none;stroke:#1A2E44;stroke-width:1.2066;stroke-linecap:round;stroke-linejoin:round;stroke-dasharray:3.6197,3.6197;}
	.st88{fill:none;stroke:#1A2E44;stroke-width:0.9105;stroke-linecap:round;stroke-linejoin:round;stroke-dasharray:3.6197,3.6197;}
	.st89{fill:#1A2E44;stroke:#1A2E44;stroke-width:0.3916;}
	.st90{fill:#1A2E44;stroke:#1A2E44;stroke-width:0.3113;}
	.st91{fill:none;stroke:#1A2E44;stroke-width:1.4631;stroke-linecap:round;stroke-linejoin:round;stroke-miterlimit:10;}
	.st92{clip-path:url(#SVGID_70_);}
	.st93{clip-path:url(#SVGID_72_);}
	.st94{fill:#FFFFFF;stroke:#1A2E44;stroke-width:1.6332;stroke-linecap:square;}
	.st95{fill:none;stroke:#1A2E44;stroke-width:1.6332;stroke-linecap:round;stroke-linejoin:round;stroke-dasharray:4.8995,4.8995;}
	.st96{fill:none;stroke:#1A2E44;stroke-width:1.4974;stroke-linecap:round;stroke-linejoin:round;stroke-dasharray:4.4922,4.4922;}
	.st97{fill:none;stroke:#1A2E44;stroke-width:1.4689;stroke-linecap:round;stroke-linejoin:round;stroke-dasharray:4.4066,4.4066;}
	.st98{fill:none;stroke:#1A2E44;stroke-width:1.1085;stroke-linecap:round;stroke-linejoin:round;stroke-dasharray:4.4066,4.4066;}
	.st99{fill:#1A2E44;stroke:#1A2E44;stroke-width:0.4767;}
	.st100{fill:#1A2E44;stroke:#1A2E44;stroke-width:0.379;}
	.st101{fill:none;stroke:#1A2E44;stroke-width:1.4269;stroke-linecap:round;stroke-linejoin:round;stroke-dasharray:4.2807,4.2807;}
	.st102{fill:none;stroke:#1A2E44;stroke-width:1.0768;stroke-linecap:round;stroke-linejoin:round;stroke-dasharray:4.2807,4.2807;}
	.st103{opacity:0.37;}
	.st104{fill:#FEFEFE;stroke:#1A2E44;stroke-width:2.8729;stroke-linecap:round;stroke-linejoin:round;stroke-miterlimit:10;}
	.st105{fill:#FEFEFE;stroke:#1A2E44;stroke-width:1.7429;stroke-linecap:round;stroke-linejoin:round;stroke-miterlimit:10;}
	.st106{fill:#FEFEFE;stroke:#1A2E44;stroke-width:1.4917;stroke-linecap:round;stroke-linejoin:round;stroke-miterlimit:10;}
	.st107{fill:#213349;stroke:#1A2E44;stroke-width:0.4564;stroke-miterlimit:10;}
	.st108{fill:none;stroke:#213349;stroke-width:3;stroke-linecap:round;stroke-miterlimit:10;}
	.st109{fill:#F2F4F4;}
	.st110{fill:none;stroke:#FFFFFF;stroke-width:1.0176;stroke-linecap:round;stroke-linejoin:round;stroke-miterlimit:10;}
	.st111{fill:none;stroke:#FFFFFF;stroke-linecap:round;stroke-linejoin:round;stroke-miterlimit:10;}
	.st112{fill:none;stroke:#99BFF5;stroke-linecap:round;stroke-linejoin:round;stroke-miterlimit:10;}
	.st113{fill:#172D42;}
	.st114{fill:#24374C;}
	.st115{fill:#182D42;}
	.st116{fill:#182E42;}
</style>
<g id="Слой_2">
</g>
<g id="Слой_1">
	<path class="st4" d="M207.2,63.9c58.6,0,131.3,50.6,131.3,107.1c0,56.5-56.1,97.5-114.7,97.5s-106.1-45.8-106.1-102.3   S148.5,63.9,207.2,63.9z"/>
	<path class="st2" d="M288.8,225.2c0,1.7-43.8,3.2-97.7,3.2c-25.7,0-59.3,0.5-76.8,0c-19.1-0.6-20.9-2.2-20.9-3.2   c0-1.7,83.6-2.9,137.6-2.9C284.9,222.3,288.8,223.4,288.8,225.2z"/>
	<g>
		<g>
			<path class="st3" d="M90.7,129.8c0.2-13.7-6.2-16.3,14-19.1C124.9,107.9,280,113,280,113s-3.2,80.4-1.3,101.7     c0.6,7.1-6.6,11.5-27,8.9c-17.9-2.3-67.7,5.1-101.9,2.6c-34.2-2.5-43.7,1.7-50.1-4.2c-6.4-5.9-8.1-16.4-7.4-31.3     C93.1,175.8,90.6,133.4,90.7,129.8z"/>
			<path class="st10" d="M155.7,183.5l15.2-12.1c0,0,17.5,9.2,19.8,9.2c2.2,0,20.4-7.5,21.3-8.3s11.3-15.2,16-16.5     c4.7-1.3,27.1-9.6,27.1-9.6s-0.7,48.3,0,49.6c0.7,1.3-75.8-2.7-98.3,0C155.7,196,155.4,184.8,155.7,183.5z"/>
			<path class="st2" d="M89.6,129.8c0.2-13.7-5.1-16.3,15.1-19.1c20.2-2.8,25.3,2.3,25.3,2.3s0.2,91.4,2.1,112.8     c-11.8-1.2-26.5,0.6-32.3-3.7c-7-5.1-7.5-10.9-8.5-25.8C90.3,180.1,89.5,133.4,89.6,129.8z"/>
			<path class="st10" d="M91.3,103.7c3-5,6.2-6.4,21.1-6.8c14.8-0.4,128.7-0.7,157.8,2.9c0,0,7.7,1.9,8.6,6.5s1,9,1,9     s-33.6-1-54.4-1.6s-46.3-0.6-59.1,0.1s-73.1,1.4-74.8,1.5C89.6,115.4,89.3,107,91.3,103.7z"/>
			<path class="st2" d="M278.1,191.6c0.3-10.6,0.4-37.9,0.8-48.5c0.4-10.1,1.6-18.1,1.1-28.1c-0.3-6,0.3-13.5-7.2-15.7     c-3.7-1.1-7.7-1.2-11.6-1.4c-5.8-0.4-21.2-0.8-27-1.1c-11.7-0.6-23.4-1-35.1-1.2c-22.9-0.4-55.4,0.1-78.5,0.7     c-6.2,0.1-15-1.2-21,0.6c-5.1,1.4-8.7,4.7-10.3,9.2c-0.8,2.2-1.3,64.5,0.6,85.3c0.4,4.5,0.5,8,0.4,12.5     c-0.1,4.1-0.1,8.6,1.5,12.5c2.3,5.4,7.6,8.5,13.8,9.7c6.5,1.3,15.7,1.1,22.4,0.6c8.9-0.6,27.3,0.4,36.2,0.2     c11.6-0.4,23.2,0.2,34.8-0.5c11.6-0.7,68.2-1.3,72.2-1.8c6.9-1.1,7.5-7.5,7.6-12.9C278.6,208.8,278,195.3,278.1,191.6z      M277.5,213.1c-0.1,2.5-0.3,5.6-2.1,7.8c-2.2,2.5-7.6,2.8-10.8,2.8c-11.4,0-44.4,0.6-54.2,1.3c-11.3,0.9-86.2,1.1-94.3-0.7     c-6-0.1-13-0.9-17.7-4.7c-6.5-5.1-6-14.8-6.2-21.8c-0.2-5.3-1.1-32.6-1.5-41c-0.6-10.1,0.1-41.2,0.1-41.7     c0.1-4.9-0.3-11.1,5.5-14.7c5.7-3.6,11-2.4,16.3-2.5c20.8-0.7,51.3-0.7,72.2-0.6c22.5,0.1,54.8,0.8,77.2,2.5     c3.5,0.3,7.3,0.4,10.5,1.6c2.6,1,4.3,2.8,5,5.2c1.5,4.2,1.4,8.8,1.4,13.1c0,4.8-0.3,9.8-0.6,14.6c-0.7,10-0.9,17.8-1.1,27.8     C277,167.2,276.7,201.8,277.5,213.1z"/>
			<path class="st2" d="M280,113.5c-4.7,0.6-10.1,0.1-14.9-0.2c-5.4-0.4-20.4-0.3-25.9-0.3c-11.4,0-22.7-0.1-34.1-0.1     c-11.3,0-22.5,0-33.8,0.3c-11.2,0.3-32.1,0.6-43.2,0.7c-6.3,0.1-12.6,0.2-19,0.3c-3,0-5.9,0-8.9-0.1c-2.6-0.1-5.3-0.2-7.9,0.3     c-1.1,0.2-1.6,1.7-0.3,1.4c2.4-0.4,4.9-0.4,7.4-0.3c2.6,0.1,5.3,0.1,7.9,0.1c5.6,0,11.1-0.1,16.7-0.2c11.3-0.2,32.2-0.4,43.4-0.7     c22.5-0.6,45.1-0.4,67.7-0.3c6.2,0,22-0.2,28.2,0.2c5.2,0.4,11.1,0.9,16.4,0.3C280.8,114.8,281.4,113.4,280,113.5z"/>
			<path class="st2" d="M105.2,103.7c0-0.1-0.1-0.1-0.2-0.2c-0.1-0.1-0.3-0.3-0.4-0.3c-0.3-0.2-1.1-0.3-1.3-0.3     c-0.7-0.1-1.3,0.2-1.9,0.5c-0.7,0.4-1.1,1.2-1.4,1.9c-0.1,0.3-0.2,0.6-0.3,0.9c0,0.3-0.1,0.5,0,0.8c0,0.3,0.1,0.4,0.2,0.7     c0.1,0.2,0.2,0.4,0.3,0.5c0.3,0.3,0.7,0.5,1.1,0.6c0.3,0.1,0.8,0.1,1.1,0C105,108.5,106.6,105.7,105.2,103.7z"/>
			<path class="st2" d="M115.2,103.5c-0.1-0.1-0.1-0.1-0.2-0.2c-0.1-0.1-0.3-0.2-0.4-0.3c-0.3-0.1-1.2-0.1-1.3-0.1     c-0.7,0-1.3,0.3-1.8,0.8c-0.6,0.5-1,1.3-1.1,2c-0.1,0.3-0.1,0.6-0.1,0.9c0,0.3,0,0.5,0.1,0.8c0.1,0.3,0.2,0.4,0.3,0.7     c0.1,0.2,0.3,0.3,0.4,0.5c0.3,0.3,0.7,0.4,1.2,0.4c0.3,0,0.8-0.1,1-0.2C115.6,108.3,116.8,105.4,115.2,103.5z"/>
			<path class="st2" d="M125.2,103.4c-0.1-0.1-0.1-0.1-0.2-0.1c-0.2-0.1-0.3-0.2-0.4-0.2c-0.3-0.1-1.2,0.1-1.3,0.1     c-0.7,0.1-1.2,0.5-1.7,1c-0.5,0.6-0.8,1.4-0.9,2.2c0,0.3,0,0.7,0,0.9s0.1,0.5,0.2,0.8c0.1,0.2,0.2,0.4,0.3,0.6s0.3,0.3,0.5,0.4     c0.4,0.3,0.8,0.3,1.3,0.3c0.3,0,0.7-0.2,1-0.3C126.2,108.1,126.9,105,125.2,103.4z"/>
		</g>
		<g>
			<path class="st3" d="M104.8,137.2l-1.5,0.9c-0.2,0.1-0.1,0.4,0,0.4l5.9,3.3c0.4,0.2,0.8,0.2,1.1,0l6-3.3c0.2-0.1,0.2-0.3,0-0.4     l-1.6-0.9c-0.2-0.1-0.5-0.1-0.5,0l-3.8,2.1c-0.4,0.2-0.8,0.2-1.1,0l-3.9-2.2C105.2,137.2,104.9,137.2,104.8,137.2z"/>
			<path class="st3" d="M109.2,124.3c0.4-0.2,0.8-0.2,1.1,0c0,0,4.5,2.5,4.8,2.6c0.2,0.1,0.2,0.4,0,0.5c-0.5,0.3-1.2,0.6-1.5,0.8     c-0.2,0.1-0.3,0.1-0.5,0l-2.8-1.6c-0.4-0.2-0.8-0.2-1.1,0l-2.8,1.6c-0.2,0.1-0.3,0.1-0.5,0c-0.4-0.2-1.1-0.6-1.6-0.9     c-0.2-0.1-0.2-0.3,0-0.4L109.2,124.3z"/>
			<path class="st6" d="M117.2,128.3c0.4,0.2,0.6,0.5,0.6,0.9v7.7c0,0.4-0.2,0.5-0.5,0.3l-1.8-0.9v-5.1l-5.2,2.9     c-0.4,0.2-0.8,0.2-1.1,0l-5.2-2.9v5.1l-1.6,0.9c-0.2,0.1-0.7,0.2-0.7-0.3v-7.7c0-0.4,0.2-0.8,0.6-0.9c0.6-0.3,1.1,0,1.1,0     l6.3,3.5l6.3-3.5C116.1,128.3,116.6,128,117.2,128.3z"/>
		</g>
		<g>
			<path class="st2" d="M149.8,126.7c0.3,6.2,0.5,12.4,0.6,18.6l0.2,9.3l0,9.3c0,6.2,0.1,12.4,0.3,18.5c0.2,6.2,0.6,12.3,1.1,18.5     l0,0l-0.7-0.6c8.9-0.8,17.8-0.8,26.7-0.7l26.6,0.5l26.6,0.6c4.4,0.1,8.9,0.2,13.3,0.2c4.4,0,8.9,0,13.2-0.4l0,0     c0.3,0,0.6,0.2,0.6,0.5c0,0.3-0.2,0.6-0.5,0.6l0,0c-4.5,0.4-8.9,0.3-13.4,0.3l-13.3-0.2l-26.6-0.5l-13.3-0.2c-4.4,0-8.9,0-13.3,0     c-8.9,0.1-17.7,0.2-26.6,0.7l0,0c-0.3,0-0.6-0.2-0.7-0.6l0,0c-0.7-6.2-1.3-12.4-1.5-18.6c-0.3-6.2-0.4-12.4-0.4-18.6l-0.1-18.6     c0-6.2,0-12.4,0.1-18.6v0c0-0.3,0.2-0.5,0.5-0.5C149.6,126.2,149.8,126.4,149.8,126.7z"/>
		</g>
		<g>
			<g>
				<path class="st2" d="M150.1,181.7c3.6-2.7,7.1-5.4,10.6-8.2c1.7-1.4,3.5-2.8,5.2-4.2c1.7-1.4,3.4-2.9,4.9-4.4l0,0      c0.1-0.2,0.4-0.2,0.6-0.1c2.9,2.1,5.8,4,8.7,5.9c1.5,0.9,3,1.9,4.5,2.8c0.8,0.4,1.5,0.8,2.3,1.2c0.4,0.2,0.8,0.3,1.2,0.5      c0.2,0.1,0.4,0.1,0.6,0.2c0.2,0.1,0.4,0,0.3,0l0,0l0,0l0,0c5.9-2.1,11.9-4.2,17.8-6.4l2.2-0.9c0.2-0.1,0.3-0.1,0.4-0.2      c0.1-0.1,0.3-0.2,0.4-0.4l0.8-0.8l3.3-3.3c2.2-2.2,4.4-4.5,6.6-6.7l1.6-1.7l0.8-0.9l0.4-0.4l0.2-0.2c0.1-0.1,0,0,0.2-0.3      c0.4-0.3,0.8-0.5,1.1-0.6l1.1-0.5c0.7-0.3,1.5-0.6,2.2-0.9c3-1.1,5.9-2.2,8.9-3.2c3-1,6-2.1,8.9-3.1c3-1,6-2,8.9-3.1l0,0      c0.1-0.1,0.3,0,0.3,0.2c0,0.1,0,0.3-0.1,0.3c-2.9,1.3-5.9,2.2-8.9,3.3l-8.9,3.1c-3,1-6,2.1-8.9,3.2c-0.7,0.3-1.5,0.6-2.2,0.9      c-0.4,0.1-0.7,0.3-1.1,0.5c-0.3,0.2-0.7,0.4-0.9,0.5c0.1-0.1-0.1,0.1-0.1,0.2l-0.2,0.3l-0.4,0.5l-0.8,0.9l-1.6,1.7      c-2.2,2.3-4.4,4.6-6.6,6.8c-1.1,1.1-2.2,2.2-3.4,3.3l-0.9,0.8c-0.2,0.1-0.3,0.3-0.5,0.4c-0.2,0.2-0.4,0.2-0.6,0.3l-2.2,0.8      l-17.7,6.6l0,0c-0.5,0.2-0.7,0.1-1,0c-0.2-0.1-0.5-0.1-0.7-0.2c-0.4-0.2-0.8-0.4-1.2-0.6c-0.8-0.4-1.6-0.9-2.3-1.3      c-1.5-0.9-3-1.8-4.5-2.8c-3-1.9-5.9-3.9-8.8-5.9l0.6-0.1c-1.5,1.7-3.2,3.2-4.9,4.7c-1.7,1.5-3.4,2.9-5.1,4.3      c-3.4,2.8-6.9,5.6-10.4,8.4c-0.3,0.3-0.8,0.2-1.1-0.1C149.7,182.5,149.7,182,150.1,181.7C150,181.7,150.1,181.7,150.1,181.7z"/>
			</g>
			<path class="st2" d="M188.9,177.5c-1.8,0-2.4-3,0-3.3C191.3,173.8,191.3,177.5,188.9,177.5z"/>
			<path class="st2" d="M172.7,165.3c0.7,1.8-2.1,3.6-3.3,1.3C168.1,164.2,171.8,162.8,172.7,165.3z"/>
			<path class="st2" d="M210.4,169.7c-1.9,0.4-3.3-2.7-0.8-3.7S213.1,169.1,210.4,169.7z"/>
			<path class="st2" d="M226.9,153.3c-0.3,1.9-3.5,1.9-3.4-0.7S227.4,150.8,226.9,153.3z"/>
		</g>
	</g>
	<g>
		<path class="st3" d="M294.5,232.4c-1.4,9.4,4.3,18.1,13.5,20.5c8.6,2.2,19.7,0.8,23.8-8.2c3.9-8.8-1.5-19.9-8.6-25.4    c-3.4-2.6-8.3-3.9-12.5-3.9c-7.7,0-13,5-15.3,12.1C295.2,228.1,294.6,231.9,294.5,232.4z"/>
		<g>
			<path class="st2" d="M294.5,232.4c-1.4,9.4,4.3,18.1,13.5,20.5c8.6,2.2,19.7,0.8,23.8-8.2c3.9-8.8-1.5-19.9-8.6-25.4     c-3.4-2.6-8.3-3.9-12.5-3.9c-7.7,0-13,5-15.3,12.1c-0.2,0.5,0.9,0.7,1,0.2c2-5.9,6-10.7,12.4-11.4c4.1-0.4,8.5,0.6,12.1,2.6     c6.3,3.5,10.8,11.7,11.1,18.8c0.2,4.8-1.7,9.4-5.6,12.3c-4,2.9-9.3,3.3-14,2.8c-5-0.5-9.9-2.4-13.1-6.5c-3.1-3.9-4.3-9.1-3.6-14     C295.7,231.9,294.6,231.9,294.5,232.4z"/>
			<path class="st2" d="M295.2,232.6c-0.7,4.6,0.5,9.4,3.2,13.1c1.4,1.9,3.1,3.4,5.1,4.6c2,1.2,4.2,1.9,6.5,2.3     c4.6,0.8,9.5,0.7,13.7-1.2c2.1-0.9,4-2.3,5.4-4.1c1.4-1.8,2.4-3.9,2.7-6.2c0.8-4.5-0.4-9.3-2.7-13.4c-1.1-2.1-2.5-4-4.2-5.7     c-0.8-0.8-1.7-1.6-2.6-2.3c-0.9-0.7-1.9-1.3-3-1.8c-2.1-1-4.5-1.6-6.8-1.8c-2.4-0.3-4.7-0.1-7,0.6c-2.2,0.7-4.3,2-5.9,3.8     c-1.7,1.7-2.9,3.8-3.8,6l-0.3,0.8c0,0.1-0.1,0.3-0.1,0.4c0,0.1,0,0.1,0.1,0.1c0.2,0.1,0.5,0,0.5-0.1l0.3-0.8     c0.4-1.1,0.9-2.3,1.5-3.3c1.2-2.1,2.8-4,4.9-5.4c2.1-1.4,4.5-2,7-2.1c2.4-0.1,4.9,0.3,7.2,1c2.3,0.8,4.5,1.9,6.4,3.4     c1.9,1.6,3.5,3.4,4.8,5.5c1.3,2.1,2.3,4.3,3,6.6c0.7,2.3,1,4.8,0.8,7.2c-0.2,2.4-1,4.8-2.4,6.9c-1.4,2-3.3,3.7-5.5,4.7     c-2.2,1.1-4.7,1.5-7.1,1.7c-2.4,0.1-4.9,0-7.3-0.5c-2.4-0.5-4.7-1.3-6.8-2.6c-2.1-1.3-3.9-3.1-5.2-5.1c-1.3-2.1-2.2-4.4-2.6-6.8     c-0.2-1.2-0.3-2.4-0.2-3.7c0-0.6,0.1-1.2,0.1-1.8c0-0.1,0-0.4,0-0.3C295.3,232.4,295.2,232.4,295.2,232.6c-0.1,0-0.2,0.1-0.2,0.1     C295,232.8,295.2,232.7,295.2,232.6z M293.8,232.3c0.1-0.4,0.5-0.7,0.8-0.8c0.3-0.1,0.5,0,0.8,0.1c0.2,0.1,0.5,0.2,0.6,0.6     c0.1,0.4,0,0.4,0,0.6c-0.1,0.6-0.1,1.2-0.2,1.8c-0.1,1.2,0,2.4,0.2,3.6c0.3,2.4,1.2,4.6,2.4,6.7c1.2,2,3,3.8,5,5     c2,1.3,4.3,2.1,6.7,2.5c2.4,0.4,4.8,0.6,7.2,0.5c2.4-0.1,4.8-0.6,6.9-1.6c2.2-1,4-2.6,5.3-4.6c1.3-2,2.1-4.3,2.3-6.7     c0.2-2.4-0.1-4.8-0.8-7.1c-0.7-2.3-1.7-4.5-2.9-6.5c-1.3-2-2.8-3.9-4.7-5.4c-1.8-1.5-4-2.6-6.3-3.3c-2.3-0.7-4.7-1.1-7.1-1     c-2.4,0.1-4.7,0.8-6.7,2.1c-2,1.3-3.6,3.2-4.8,5.2c-0.6,1-1.1,2.1-1.5,3.2l-0.2,0.4l-0.1,0.2c0,0.1,0,0.1-0.1,0.3     c-0.3,0.4-0.8,0.4-1.1,0.2c-0.2-0.1-0.4-0.4-0.3-0.6c0.1-0.2,0.1-0.3,0.2-0.5l0.3-0.9c0.9-2.3,2.1-4.4,3.8-6.2     c1.6-1.8,3.8-3.3,6.1-4.1c2.3-0.8,4.9-1,7.3-0.8c2.5,0.2,4.9,0.8,7.2,1.8c1.1,0.5,2.2,1.1,3.3,1.8c1,0.7,1.9,1.6,2.8,2.4     c1.7,1.8,3.3,3.7,4.5,5.9c1.2,2.1,2.2,4.5,2.8,6.9c0.6,2.4,0.8,5,0.3,7.5c-0.4,2.5-1.5,4.9-3.1,6.9c-1.6,2-3.7,3.5-6,4.6     c-4.7,2-9.8,2.2-14.7,1.3c-2.4-0.4-4.9-1.2-7-2.5c-2.2-1.3-4.1-3-5.6-5.1C294.2,242.6,293,237.3,293.8,232.3z"/>
		</g>
		<g>
			<g>
				<path class="st50" d="M307.4,241.6c2.1-2.1,4-4.5,5.9-6.9l5.5-7.2c0.1-0.2,0.4-0.2,0.6-0.1c0.2,0.1,0.2,0.4,0.1,0.5      c-1.4,2.7-3.2,5.2-5.1,7.6c-1.8,2.4-3.8,4.8-5.6,7.2c-0.3,0.4-0.9,0.5-1.3,0.2c-0.4-0.3-0.5-0.9-0.2-1.3      C307.3,241.7,307.4,241.6,307.4,241.6L307.4,241.6z"/>
			</g>
			<g>
				<path class="st50" d="M304.5,234.2c-0.7-0.7-1-1.8-0.7-2.8c0.3-1,0.9-1.8,1.6-2.4c0.8-0.6,1.7-1,2.8-1c1.1,0,2.1,0.6,2.7,1.5      c0.6,0.9,0.8,2,0.7,2.9c-0.1,1-0.5,1.9-1.1,2.7c-0.6,0.8-1.6,1.4-2.7,1.4c-1.1,0-2-0.7-2.6-1.4c-0.2-0.2-0.2-0.5,0-0.7      c0.2-0.2,0.5-0.2,0.7,0l0,0c0.6,0.5,1.3,0.9,1.9,0.9c0.6,0,1.3-0.4,1.7-1c0.9-1.1,1.2-3,0.4-4.1c-0.4-0.6-1-1-1.7-1      c-0.7,0-1.5,0.2-2.1,0.7c-0.6,0.4-1.2,1.1-1.4,1.8c-0.2,0.7-0.1,1.5,0.4,2.1c0.1,0.1,0.1,0.4,0,0.5      C304.9,234.3,304.7,234.3,304.5,234.2L304.5,234.2z"/>
			</g>
			<g>
				<path class="st50" d="M315.1,242.2c-0.6-0.8-0.9-1.9-0.7-2.9c0.2-1,0.7-1.9,1.5-2.6c0.8-0.7,1.8-1.2,2.9-1.1      c1.1,0,2.2,0.8,2.7,1.7c0.6,0.9,0.8,2.1,0.6,3.1c-0.2,1-0.8,2-1.6,2.7c-0.8,0.7-1.8,1.1-2.9,1      C316.5,243.9,315.5,243.1,315.1,242.2c-0.1-0.2,0-0.4,0.2-0.4c0.1-0.1,0.3,0,0.4,0.1c0.5,0.6,1.2,1,2,1c0.7,0,1.5-0.3,2.1-0.8      c1.1-1,1.6-2.9,0.7-4c-0.4-0.6-1-1.1-1.7-1.1c-0.7-0.1-1.5,0.2-2.1,0.7c-1.2,1-1.8,2.8-1,4.3c0.1,0.2,0,0.4-0.1,0.4      C315.4,242.4,315.2,242.3,315.1,242.2z"/>
			</g>
		</g>
	</g>
	<g>
		<path class="st2" d="M210.5,91.3c0-8.4-0.6-17.2,15.5-16.7c16.5,0.5,72.5,0.7,84.5,0.2c13.4-0.5,18.4,7.9,18.4,19.5    c-0.1,11.5,0.7,12.1,0.6,21.4c-0.1,9.4-3.2,12.3-20.2,11.6c-17-0.7-72.6-0.7-87-1.5c-14.4-0.7-10.8-10.7-11.1-18.9    C211,98.9,210.5,95.9,210.5,91.3z"/>
		<path class="st3" d="M212.1,91.5c0-8-0.5-16.2,15.1-15.8c16,0.4,70.4,0.7,82.1,0.2c13-0.5,17.9,7.5,17.9,18.4    c-0.1,10.8,0.7,11,0.6,19.8s-3.1,11.6-19.6,10.9c-16.5-0.7-70.5-0.7-84.5-1.4c-14-0.7-10.4-10.1-10.7-17.8S212.1,95.8,212.1,91.5z    "/>
	</g>
	<path class="st73" d="M278.3,174c19.4-21.5,27.2-18.2,51.3-8s61.8-6.4,37.1-26.4s-2.6-35.3-15.2-47.9c-8.1-8.1-16.9-3.6-23.7,0.8"/>
	<g>
		<path class="st50" d="M302.7,100.7c-1.2,1.2-2.7,1.2-4,1.3c-14.4,0.6-28.8,1.2-43.2,1.7c-7.5,0.3-14.9,0.6-22.4,0.7    c-1.1,0-3.2,0.9-3.1-1.1c0-1.3,1.9-0.9,3.1-0.9c21.9-0.7,43.7-1.7,65.6-2C299.9,100.5,301.3,100.6,302.7,100.7z"/>
		<path class="st52" d="M273.9,109.8c-0.9,1.6-2.3,1.3-3.4,1.4c-11.8,0.9-23.7,1.7-35.5,2.4c-1.3,0.1-3.8,1.2-3.8-1.2    c0-2,2.3-1.1,3.6-1.2c10.9-0.6,21.8-1.2,32.8-1.7C269.6,109.5,271.7,109.3,273.9,109.8z"/>
		<path class="st52" d="M274.3,91.2c-1.1,0-2.1,0-3.2,0c-0.9,0-1.5-0.5-1.7-1.4c-0.1-1,0.6-1.4,1.4-1.5c3.3-0.2,6.6-0.4,9.9-0.5    c0.9,0,2,0,2.1,1.2c0.1,1.2-1,1.3-1.9,1.4C278.8,90.7,276.6,91.3,274.3,91.2z"/>
		<path class="st4" d="M235.1,91.2c-2,0-3.7,0.2-5.4-0.3c-0.5-0.1-1.1-0.4-1.1-0.9c-0.1-0.6,0.3-0.9,0.9-1c3.8-0.8,7.6-0.9,11.5-0.6    c0.7,0,1.2,0.5,1.2,1.3c0,0.6-0.5,0.9-1,1.1C239.1,91.3,236.9,90.9,235.1,91.2z"/>
		<path class="st52" d="M256.7,87.4c1.9,0,3.4,0,4.8,0c0.7,0,1.3,0.5,1.3,1.2c0.1,0.6-0.4,1-0.9,1.1c-3.3,0.9-6.6,1.1-9.9,0.7    c-0.7-0.1-1.1-0.6-1-1.4c0.1-0.6,0.4-1,1-1.1C253.7,87.6,255.4,87.5,256.7,87.4z"/>
	</g>
	<path class="st74" d="M151.7,190.9c0,0,96-4.7,103.5-4.8"/>
</g>
</svg>