<svg xmlns="http://www.w3.org/2000/svg" xmlns:xlink="http://www.w3.org/1999/xlink" version="1.1" x="0px" y="0px" viewBox="0 0 450 330" style="enable-background:new 0 0 450 330;" xml:space="preserve" width="478"  height="351" >
<style type="text/css">
	.st0{fill:#F9F9F7;}
	.st1{fill:#FEFEFE;}
	.st2{fill:#1A2E44;}
	.st3{fill:#FFFFFF;}
	.st4{fill:#99BFF5;}
	.st5{fill:#DCDFE1;}
	.st6{fill:#22D172;}
	.st7{fill-rule:evenodd;clip-rule:evenodd;fill:#FFE717;}
	.st8{fill-rule:evenodd;clip-rule:evenodd;fill:#273649;}
	.st9{fill:none;stroke:#1A2E44;stroke-width:1.458;stroke-linecap:round;stroke-linejoin:round;stroke-miterlimit:10;}
	.st10{fill:#F4F4EF;}
	.st11{fill:#FAFBFB;}
	.st12{fill:#F9C273;}
	.st13{fill:#1A2E44;stroke:#FFFFFF;stroke-width:0.633;stroke-linecap:square;}
	.st14{clip-path:url(#SVGID_14_);}
	.st15{clip-path:url(#SVGID_16_);}
	.st16{clip-path:url(#SVGID_18_);}
	.st17{fill:#E5E5E5;}
	.st18{clip-path:url(#SVGID_24_);}
	.st19{clip-path:url(#SVGID_26_);}
	.st20{clip-path:url(#SVGID_28_);}
	.st21{clip-path:url(#SVGID_30_);}
	.st22{clip-path:url(#SVGID_32_);}
	.st23{clip-path:url(#SVGID_34_);}
	.st24{fill:none;stroke:#1A2E44;stroke-width:6.4901;stroke-linecap:round;stroke-linejoin:round;stroke-miterlimit:10;}
	.st25{clip-path:url(#SVGID_36_);}
	.st26{clip-path:url(#SVGID_38_);}
	.st27{fill:#97B4EF;}
	.st28{fill-rule:evenodd;clip-rule:evenodd;fill:#273649;stroke:#273649;stroke-width:1.5432;stroke-linejoin:round;}
	.st29{fill:none;stroke:#1A2E44;stroke-width:5;stroke-linecap:round;stroke-linejoin:round;stroke-miterlimit:10;}
	.st30{clip-path:url(#SVGID_40_);}
	.st31{clip-path:url(#SVGID_42_);}
	.st32{fill:#FFFFFF;stroke:#1A2E44;stroke-width:1.9876;stroke-linecap:square;}
	.st33{fill:none;stroke:#1A2E44;stroke-width:1.9876;stroke-dasharray:5.9629,5.9629;}
	.st34{fill:none;stroke:#1A2E44;stroke-width:17;stroke-linecap:round;stroke-linejoin:round;stroke-miterlimit:10;}
	.st35{clip-path:url(#SVGID_44_);}
	.st36{clip-path:url(#SVGID_46_);}
	.st37{clip-path:url(#SVGID_48_);}
	.st38{fill:#FFFFFF;stroke:#1A2E44;stroke-width:2.8788;stroke-linecap:square;}
	.st39{fill:none;stroke:#1A2E44;stroke-width:2.8788;stroke-linecap:round;stroke-linejoin:round;stroke-dasharray:8.6363,8.6363;}
	.st40{clip-path:url(#SVGID_50_);}
	.st41{clip-path:url(#SVGID_52_);}
	.st42{fill:none;stroke:#1A2E44;stroke-width:2.9571;stroke-linecap:round;stroke-linejoin:round;stroke-dasharray:8.8713,8.8713;}
	.st43{fill:none;stroke:#1A2E44;stroke-width:9;stroke-linecap:round;stroke-linejoin:round;stroke-miterlimit:10;}
	.st44{fill-rule:evenodd;clip-rule:evenodd;fill:#273649;stroke:#273649;stroke-width:1.4755;stroke-linejoin:round;}
	.st45{fill:none;stroke:#1A2E44;stroke-width:4.7807;stroke-linecap:round;stroke-linejoin:round;stroke-miterlimit:10;}
	.st46{fill-rule:evenodd;clip-rule:evenodd;fill:#273649;stroke:#273649;stroke-width:0.8978;stroke-linejoin:round;}
	.st47{fill:none;stroke:#1A2E44;stroke-width:1.4922;stroke-linecap:round;stroke-linejoin:round;stroke-dasharray:4.4767,4.4767;}
	.st48{fill:#17354A;}
	.st49{fill:#FDFDFE;}
	.st50{fill:#434D60;}
	.st51{fill:#2B4155;}
	.st52{fill:#354357;}
	.st53{fill:#FCFDFD;}
	.st54{fill:#213349;}
	.st55{fill:#22D173;}
	.st56{fill:#22D072;}
	.st57{fill:none;stroke:#213349;stroke-width:5.6;stroke-dasharray:10,10;}
	.st58{fill:none;stroke:#1A2E44;stroke-width:2.6503;stroke-linecap:round;stroke-linejoin:round;stroke-dasharray:7.9509,7.9509;}
	.st59{fill:#1A2E44;stroke:#1A2E44;stroke-width:0.8403;}
	.st60{fill:#1A2E44;stroke:#1A2E44;stroke-width:0.668;}
	.st61{clip-path:url(#SVGID_54_);}
	.st62{clip-path:url(#SVGID_56_);}
	.st63{fill:#FFFFFF;stroke:#1A2E44;stroke-width:1.5353;stroke-linecap:square;}
	.st64{fill:none;stroke:#1A2E44;stroke-width:1.5771;stroke-linecap:round;stroke-linejoin:round;stroke-dasharray:4.7313,4.7313;}
	.st65{fill:#1A2E44;stroke:#1A2E44;stroke-width:0.4482;}
	.st66{fill:#1A2E44;stroke:#1A2E44;stroke-width:0.3563;}
	.st67{fill:none;stroke:#1A2E44;stroke-width:2.5896;stroke-linecap:round;stroke-linejoin:round;stroke-miterlimit:10;}
	.st68{clip-path:url(#SVGID_58_);}
	.st69{clip-path:url(#SVGID_60_);}
	.st70{fill:none;stroke:#1A2E44;stroke-width:2;stroke-linecap:round;stroke-linejoin:round;stroke-dasharray:7.9509,7.9509;}
	.st71{fill:none;stroke:#1A2E44;stroke-width:1.0159;stroke-linecap:round;stroke-linejoin:round;stroke-dasharray:3.0476,3.0476;}
	.st72{fill:none;stroke:#1A2E44;stroke-width:0.9926;stroke-linecap:round;stroke-linejoin:round;stroke-miterlimit:10;}
	.st73{fill:none;stroke:#1A2E44;stroke-width:0.9965;stroke-linecap:round;stroke-linejoin:round;stroke-dasharray:2.9895,2.9895;}
	.st74{fill:none;stroke:#1A2E44;stroke-width:0.752;stroke-linecap:round;stroke-linejoin:round;stroke-dasharray:2.9895,2.9895;}
	.st75{clip-path:url(#SVGID_62_);}
	.st76{clip-path:url(#SVGID_64_);}
	.st77{fill:#FFFFFF;stroke:#1A2E44;stroke-width:1.1079;stroke-linecap:square;}
	.st78{fill:none;stroke:#1A2E44;stroke-width:1.1079;stroke-linecap:round;stroke-linejoin:round;stroke-dasharray:3.3238,3.3238;}
	.st79{fill:#1A2E44;stroke:#1A2E44;stroke-width:0.3234;}
	.st80{fill:#1A2E44;stroke:#1A2E44;stroke-width:0.2571;}
	.st81{fill:none;stroke:#1A2E44;stroke-width:1.2018;stroke-linecap:round;stroke-linejoin:round;stroke-miterlimit:10;}
	.st82{clip-path:url(#SVGID_66_);}
	.st83{clip-path:url(#SVGID_68_);}
	.st84{fill:#FFFFFF;stroke:#1A2E44;stroke-width:1.3415;stroke-linecap:square;}
	.st85{fill:none;stroke:#1A2E44;stroke-width:1.3415;stroke-linecap:round;stroke-linejoin:round;stroke-dasharray:4.0245,4.0245;}
	.st86{fill:none;stroke:#1A2E44;stroke-width:1.23;stroke-linecap:round;stroke-linejoin:round;stroke-dasharray:3.69,3.69;}
	.st87{fill:none;stroke:#1A2E44;stroke-width:1.2066;stroke-linecap:round;stroke-linejoin:round;stroke-dasharray:3.6197,3.6197;}
	.st88{fill:none;stroke:#1A2E44;stroke-width:0.9105;stroke-linecap:round;stroke-linejoin:round;stroke-dasharray:3.6197,3.6197;}
	.st89{fill:#1A2E44;stroke:#1A2E44;stroke-width:0.3916;}
	.st90{fill:#1A2E44;stroke:#1A2E44;stroke-width:0.3113;}
	.st91{fill:none;stroke:#1A2E44;stroke-width:1.4631;stroke-linecap:round;stroke-linejoin:round;stroke-miterlimit:10;}
	.st92{clip-path:url(#SVGID_70_);}
	.st93{clip-path:url(#SVGID_72_);}
	.st94{fill:#FFFFFF;stroke:#1A2E44;stroke-width:1.6332;stroke-linecap:square;}
	.st95{fill:none;stroke:#1A2E44;stroke-width:1.6332;stroke-linecap:round;stroke-linejoin:round;stroke-dasharray:4.8995,4.8995;}
	.st96{fill:none;stroke:#1A2E44;stroke-width:1.4974;stroke-linecap:round;stroke-linejoin:round;stroke-dasharray:4.4922,4.4922;}
	.st97{fill:none;stroke:#1A2E44;stroke-width:1.4689;stroke-linecap:round;stroke-linejoin:round;stroke-dasharray:4.4066,4.4066;}
	.st98{fill:none;stroke:#1A2E44;stroke-width:1.1085;stroke-linecap:round;stroke-linejoin:round;stroke-dasharray:4.4066,4.4066;}
	.st99{fill:#1A2E44;stroke:#1A2E44;stroke-width:0.4767;}
	.st100{fill:#1A2E44;stroke:#1A2E44;stroke-width:0.379;}
	.st101{fill:none;stroke:#1A2E44;stroke-width:1.4269;stroke-linecap:round;stroke-linejoin:round;stroke-dasharray:4.2807,4.2807;}
	.st102{fill:none;stroke:#1A2E44;stroke-width:1.0768;stroke-linecap:round;stroke-linejoin:round;stroke-dasharray:4.2807,4.2807;}
	.st103{opacity:0.37;}
	.st104{fill:#FEFEFE;stroke:#1A2E44;stroke-width:2.8729;stroke-linecap:round;stroke-linejoin:round;stroke-miterlimit:10;}
	.st105{fill:#FEFEFE;stroke:#1A2E44;stroke-width:1.7429;stroke-linecap:round;stroke-linejoin:round;stroke-miterlimit:10;}
	.st106{fill:#FEFEFE;stroke:#1A2E44;stroke-width:1.4917;stroke-linecap:round;stroke-linejoin:round;stroke-miterlimit:10;}
	.st107{fill:#213349;stroke:#1A2E44;stroke-width:0.4564;stroke-miterlimit:10;}
	.st108{fill:none;stroke:#213349;stroke-width:3;stroke-linecap:round;stroke-miterlimit:10;}
	.st109{fill:#F2F4F4;}
	.st110{fill:none;stroke:#FFFFFF;stroke-width:1.0176;stroke-linecap:round;stroke-linejoin:round;stroke-miterlimit:10;}
	.st111{fill:none;stroke:#FFFFFF;stroke-linecap:round;stroke-linejoin:round;stroke-miterlimit:10;}
	.st112{fill:none;stroke:#99BFF5;stroke-linecap:round;stroke-linejoin:round;stroke-miterlimit:10;}
	.st113{fill:#172D42;}
	.st114{fill:#24374C;}
	.st115{fill:#182D42;}
	.st116{fill:#182E42;}
</style>
<g id="Слой_2">
</g>
<g id="Слой_1">
	<path class="st10" d="M210.2,63.9c58.6,0,131.3,50.6,131.3,107.1c0,56.5-56.1,97.5-114.7,97.5s-106.1-45.8-106.1-102.3   S151.5,63.9,210.2,63.9z"/>
	<path class="st2" d="M291.8,225.2c0,1.7-43.8,3.2-97.7,3.2c-25.7,0-59.3,0.5-76.8,0c-19.1-0.6-20.9-2.2-20.9-3.2   c0-1.7,83.6-2.9,137.6-2.9C287.9,222.3,291.8,223.4,291.8,225.2z"/>
	<g>
		<g>
			<path class="st3" d="M93.7,129.8c0.2-13.7-6.2-16.3,14-19.1C127.9,107.9,283,113,283,113s-3.2,80.4-1.3,101.7     c0.6,7.1-6.6,11.5-27,8.9c-17.9-2.3-67.7,5.1-101.9,2.6c-34.2-2.5-43.7,1.7-50.1-4.2c-6.4-5.9-8.1-16.4-7.4-31.3     C96.1,175.8,93.6,133.4,93.7,129.8z"/>
			<path class="st2" d="M92.6,129.8c0.2-13.7-5.1-16.3,15.1-19.1c20.2-2.8,25.3,2.3,25.3,2.3s0.2,91.4,2.1,112.8     c-11.8-1.2-26.5,0.6-32.3-3.7c-7-5.1-7.5-10.9-8.5-25.8C93.3,180.1,92.5,133.4,92.6,129.8z"/>
			<path class="st6" d="M94.3,103.7c3-5,6.2-6.4,21.1-6.8c14.8-0.4,128.7-0.7,157.8,2.9c0,0,7.7,1.9,8.6,6.5s0.4,5.7,0.3,8.2     c-12.3,0-31.9-1.5-53.8-0.8c-20.8,0.6-46.3-0.6-59.1,0.1s-73.1,1.4-74.8,1.5C92.6,115.4,92.3,107,94.3,103.7z"/>
			<path class="st2" d="M281.1,191.6c0.3-10.6,0.4-37.9,0.8-48.5c0.4-10.1,1.6-18.1,1.1-28.1c-0.3-6,0.3-13.5-7.2-15.7     c-3.7-1.1-7.7-1.2-11.6-1.4c-5.8-0.4-21.2-0.8-27-1.1c-11.7-0.6-23.4-1-35.1-1.2c-22.9-0.4-55.4,0.1-78.5,0.7     c-6.2,0.1-15-1.2-21,0.6c-5.1,1.4-8.7,3.4-10.3,9.2c-0.9,3.2-1.3,64.5,0.6,85.3c0.4,4.5,0.5,8,0.4,12.5     c-0.1,4.1-0.1,8.6,1.5,12.5c2.3,5.4,7.6,8.5,13.8,9.7c6.5,1.3,15.7,1.1,22.4,0.6c8.9-0.6,27.3,0.4,36.2,0.2     c11.6-0.4,23.2,0.2,34.8-0.5c11.6-0.7,68.2-1.3,72.2-1.8c6.9-1.1,7.5-7.5,7.6-12.9C281.6,208.8,281,195.3,281.1,191.6z      M280.5,213.1c-0.1,2.5-0.3,5.6-2.1,7.8c-2.2,2.5-7.6,2.8-10.8,2.8c-11.4,0-44.4,0.6-54.2,1.3c-11.3,0.9-86.2,1.1-94.3-0.7     c-6-0.1-13-0.9-17.7-4.7c-6.5-5.1-6-14.8-6.2-21.8c-0.2-5.3-1.1-32.6-1.5-41c-0.6-10.1,0.1-41.2,0.1-41.7     c0.1-4.9-0.3-11.1,5.5-14.7c5.7-3.6,11-2.4,16.3-2.5c20.8-0.7,51.3-0.7,72.2-0.6c22.5,0.1,54.8,0.8,77.2,2.5     c3.5,0.3,7.3,0.4,10.5,1.6c2.6,1,4.3,2.8,5,5.2c1.5,4.2,1.4,8.8,1.4,13.1c0,4.8-0.3,9.8-0.6,14.6c-0.7,10-0.9,17.8-1.1,27.8     C280,167.2,279.7,201.8,280.5,213.1z"/>
			<path class="st2" d="M281.2,113.5c-4.7,0.6-8.3,0.1-13.2-0.2c-5.4-0.4-20.4-0.3-25.9-0.3c-11.4,0-22.7-0.1-34.1-0.1     c-11.3,0-22.5,0-33.8,0.3c-11.2,0.3-32.1,0.6-43.2,0.7c-6.3,0.1-12.6,0.2-19,0.3c-3,0-5.9,0-8.9-0.1c-2.6-0.1-7.5-0.3-10.1,0.2     c-1.1,0.2,0.6,1.8,1.9,1.5c2.4-0.4,4.9-0.4,7.4-0.3c2.6,0.1,5.3,0.1,7.9,0.1c5.6,0,11.1-0.1,16.7-0.2c11.3-0.2,32.2-0.4,43.4-0.7     c22.5-0.6,45.1-0.4,67.7-0.3c6.2,0,22-0.2,28.2,0.2c5.2,0.4,10.3,0.8,15.6,0.3C283.1,114.8,282.6,113.4,281.2,113.5z"/>
			<path class="st2" d="M108.2,103.7c0-0.1-0.1-0.1-0.2-0.2c-0.1-0.1-0.3-0.3-0.4-0.3c-0.3-0.2-1.1-0.3-1.3-0.3     c-0.7-0.1-1.3,0.2-1.9,0.5c-0.7,0.4-1.1,1.2-1.4,1.9c-0.1,0.3-0.2,0.6-0.3,0.9c0,0.3-0.1,0.5,0,0.8c0,0.3,0.1,0.4,0.2,0.7     c0.1,0.2,0.2,0.4,0.3,0.5c0.3,0.3,0.7,0.5,1.1,0.6c0.3,0.1,0.8,0.1,1.1,0C108,108.5,109.6,105.7,108.2,103.7z"/>
			<path class="st2" d="M118.2,103.5c-0.1-0.1-0.1-0.1-0.2-0.2c-0.1-0.1-0.3-0.2-0.4-0.3c-0.3-0.1-1.2-0.1-1.3-0.1     c-0.7,0-1.3,0.3-1.8,0.8c-0.6,0.5-1,1.3-1.1,2c-0.1,0.3-0.1,0.6-0.1,0.9c0,0.3,0,0.5,0.1,0.8c0.1,0.3,0.2,0.4,0.3,0.7     c0.1,0.2,0.3,0.3,0.4,0.5c0.3,0.3,0.7,0.4,1.2,0.4c0.3,0,0.8-0.1,1-0.2C118.6,108.3,119.8,105.4,118.2,103.5z"/>
			<path class="st2" d="M128.2,103.4c-0.1-0.1-0.1-0.1-0.2-0.1c-0.2-0.1-0.3-0.2-0.4-0.2c-0.3-0.1-1.2,0.1-1.3,0.1     c-0.7,0.1-1.2,0.5-1.7,1c-0.5,0.6-0.8,1.4-0.9,2.2c0,0.3,0,0.7,0,0.9s0.1,0.5,0.2,0.8c0.1,0.2,0.2,0.4,0.3,0.6s0.3,0.3,0.5,0.4     c0.4,0.3,0.8,0.3,1.3,0.3c0.3,0,0.7-0.2,1-0.3C129.2,108.1,129.9,105,128.2,103.4z"/>
		</g>
		<g>
			<path class="st3" d="M107.8,137.2l-1.5,0.9c-0.2,0.1-0.1,0.4,0,0.4l5.9,3.3c0.4,0.2,0.8,0.2,1.1,0l6-3.3c0.2-0.1,0.2-0.3,0-0.4     l-1.6-0.9c-0.2-0.1-0.5-0.1-0.5,0l-3.8,2.1c-0.4,0.2-0.8,0.2-1.1,0l-3.9-2.2C108.2,137.2,107.9,137.2,107.8,137.2z"/>
			<path class="st3" d="M112.2,124.3c0.4-0.2,0.8-0.2,1.1,0c0,0,4.5,2.5,4.8,2.6c0.2,0.1,0.2,0.4,0,0.5c-0.5,0.3-1.2,0.6-1.5,0.8     c-0.2,0.1-0.3,0.1-0.5,0l-2.8-1.6c-0.4-0.2-0.8-0.2-1.1,0l-2.8,1.6c-0.2,0.1-0.3,0.1-0.5,0c-0.4-0.2-1.1-0.6-1.6-0.9     c-0.2-0.1-0.2-0.3,0-0.4L112.2,124.3z"/>
			<path class="st6" d="M120.2,128.3c0.4,0.2,0.6,0.5,0.6,0.9v7.7c0,0.4-0.2,0.5-0.5,0.3l-1.8-0.9v-5.1l-5.2,2.9     c-0.4,0.2-0.8,0.2-1.1,0l-5.2-2.9v5.1l-1.6,0.9c-0.2,0.1-0.7,0.2-0.7-0.3v-7.7c0-0.4,0.2-0.8,0.6-0.9c0.6-0.3,1.1,0,1.1,0     l6.3,3.5l6.3-3.5C119.1,128.3,119.6,128,120.2,128.3z"/>
		</g>
	</g>
	<g>
		<path class="st3" d="M263.9,101.5c-1.6,10.5,4.8,20.1,14.9,22.8c9.5,2.5,21.9,0.9,26.4-9c4.4-9.7-1.7-22.1-9.5-28.2    c-3.8-2.9-9.2-4.3-13.9-4.4c-8.5,0-14.4,5.5-17,13.4C264.6,96.7,264,100.9,263.9,101.5z"/>
		<g>
			<path class="st2" d="M263.9,101.5c-1.6,10.5,4.8,20.1,14.9,22.8c9.5,2.5,21.9,0.9,26.4-9c4.4-9.7-1.7-22.1-9.5-28.2     c-3.8-2.9-9.2-4.3-13.9-4.4c-8.5,0-14.4,5.5-17,13.4c-0.2,0.6,1,0.8,1.2,0.2c2.2-6.5,6.6-11.8,13.7-12.6     c4.5-0.5,9.4,0.7,13.4,2.9c6.9,3.8,11.9,13,12.3,20.8c0.2,5.3-1.9,10.5-6.2,13.7c-4.4,3.2-10.3,3.6-15.6,3.1     c-5.6-0.5-11-2.7-14.5-7.2c-3.5-4.4-4.8-10.1-4-15.5C265.2,100.9,264,100.9,263.9,101.5z"/>
			<path class="st2" d="M264.7,101.6c-0.8,5.1,0.5,10.5,3.6,14.6c1.5,2.1,3.5,3.8,5.7,5.1c2.2,1.3,4.7,2.1,7.2,2.6     c5.1,0.9,10.5,0.7,15.2-1.3c2.3-1,4.4-2.5,6-4.5c1.6-2,2.6-4.4,3-6.9c0.9-5-0.5-10.4-3-14.9c-1.3-2.3-2.8-4.4-4.6-6.3     c-0.9-0.9-1.9-1.8-2.9-2.6c-1-0.8-2.2-1.4-3.3-2c-2.4-1.1-4.9-1.7-7.5-2c-2.6-0.3-5.3-0.2-7.7,0.6c-2.5,0.8-4.7,2.3-6.5,4.2     c-1.8,1.9-3.2,4.2-4.2,6.6l-0.3,0.9c-0.1,0.1-0.1,0.3-0.2,0.4c0,0.1,0,0.1,0.1,0.1c0.2,0.1,0.5,0.1,0.6-0.1l0.3-0.9     c0.5-1.3,1-2.5,1.7-3.7c1.4-2.3,3.2-4.5,5.5-5.9c1.1-0.7,2.4-1.3,3.7-1.7c1.3-0.4,2.7-0.6,4-0.7c2.7-0.1,5.4,0.3,8,1.1     c2.6,0.8,5,2.1,7.1,3.8c2.1,1.7,3.9,3.8,5.3,6.1c1.4,2.3,2.6,4.8,3.3,7.4c0.7,2.6,1.2,5.3,0.9,8c-0.2,2.7-1.1,5.4-2.6,7.6     c-1.5,2.3-3.6,4.1-6.1,5.3c-2.5,1.2-5.2,1.7-7.9,1.8c-2.7,0.1-5.4,0-8-0.5c-2.6-0.5-5.2-1.4-7.6-2.8c-2.3-1.4-4.3-3.4-5.7-5.7     c-1.5-2.3-2.4-4.9-2.8-7.6c-0.2-1.3-0.3-2.7-0.2-4.1c0-0.7,0.1-1.4,0.2-2c0-0.1,0.1-0.4,0-0.3c0,0-0.1,0-0.1,0.1     c-0.1,0.1-0.2,0.2-0.1,0.2C264.5,101.8,264.7,101.8,264.7,101.6z M263.1,101.4c0.1-0.5,0.5-0.8,0.8-0.9c0.3-0.1,0.6,0,0.8,0.1     c0.2,0.1,0.5,0.3,0.7,0.6c0.1,0.4,0,0.5,0,0.6c-0.1,0.7-0.2,1.3-0.2,2c-0.1,1.3,0,2.6,0.2,3.9c0.4,2.6,1.3,5.1,2.7,7.4     c1.4,2.3,3.3,4.2,5.5,5.6c2.2,1.4,4.8,2.3,7.4,2.8c2.6,0.5,5.3,0.6,7.9,0.5c2.6-0.1,5.3-0.7,7.7-1.8c2.4-1.1,4.4-2.9,5.9-5.1     c1.5-2.2,2.3-4.8,2.6-7.4c0.2-2.6-0.2-5.3-0.9-7.9c-0.7-2.6-1.9-5-3.3-7.2c-1.4-2.3-3.2-4.3-5.2-6c-2-1.7-4.5-2.9-7-3.7     c-2.5-0.8-5.2-1.2-7.8-1.1c-2.6,0.1-5.3,0.8-7.5,2.3c-2.2,1.4-4,3.5-5.3,5.8c-0.7,1.1-1.2,2.4-1.7,3.6l-0.2,0.5l-0.1,0.2     c0,0.1,0,0.2-0.1,0.3c-0.2,0.2-0.4,0.3-0.6,0.3c-0.2,0-0.4,0-0.6-0.1c-0.2-0.1-0.4-0.4-0.3-0.7c0.1-0.2,0.1-0.3,0.2-0.5l0.3-1     c1-2.5,2.3-4.9,4.2-6.9c1.8-2,4.2-3.6,6.8-4.5c1.3-0.5,2.7-0.7,4-0.9c1.4-0.1,2.7-0.1,4.1,0c2.7,0.2,5.4,0.9,7.9,2     c1.3,0.5,2.5,1.2,3.6,2c1.1,0.8,2.1,1.7,3.1,2.7c1.9,1.9,3.6,4.1,5,6.5c1.4,2.4,2.4,4.9,3.1,7.6c0.6,2.7,0.8,5.5,0.3,8.3     c-0.5,2.8-1.6,5.4-3.4,7.7c-1.8,2.2-4.1,3.9-6.7,5.1c-2.6,1.1-5.3,1.7-8.1,1.9c-2.8,0.2-5.5,0-8.2-0.5c-2.7-0.5-5.4-1.4-7.8-2.8     c-2.4-1.4-4.5-3.4-6.2-5.6C263.6,112.7,262.2,106.9,263.1,101.4z"/>
		</g>
	</g>
	<path class="st73" d="M96.3,173.7c-42.8,60.7-8.7,128.2,70.8,77.2s137.8-52.4,157.6-29.6"/>
	<g>
		<path class="st3" d="M327.5,206.4c1-1.6,13.9,3,23.6,8c9.6,5,16.8,8.7,16.7,9.9c-0.1,1.2-11.1,16.3-25.3,8.4    C328.4,224.7,325.4,209.8,327.5,206.4z"/>
		<path class="st2" d="M358.3,249.8c1.5-2.5,2.9-5,4.2-7.7c0.3-0.5,0.5-1.1,0.8-1.6c0.1-0.3,0.2-0.5,0.4-0.8l0,0    c0.1-0.3,0.2-0.5,0.4-0.8c0.2-0.5,0.4-0.9,0.6-1.4c0-0.1,0.1-0.2,0.1-0.3c0.3-0.6,0.6-1.3,0.8-1.9c0.3-0.7,0.6-1.4,0.9-2.1l0,0    c0.8-1.9,1.6-3.8,2.3-5.7c1.2-3.3,1.1-3.8-1.5-5.3c-6.4-3.7-12.8-7.5-19.3-10.8c-0.5-0.2-1-0.5-1.5-0.8l0,0    c-0.2-0.1-0.5-0.2-0.7-0.3l0,0l0,0c-0.3-0.1-0.5-0.3-0.8-0.4c0,0,0,0-0.1,0c-0.1-0.1-0.3-0.1-0.4-0.2c-0.5-0.2-1.1-0.5-1.6-0.7    c-0.3-0.1-0.6-0.3-0.8-0.4c-0.3-0.1-0.7-0.3-1-0.4s-0.6-0.3-1-0.4c-0.1,0-0.1,0-0.2-0.1s-0.2-0.1-0.2-0.1c-0.1,0-0.2-0.1-0.3-0.1    c-0.1,0-0.2-0.1-0.3-0.1c-0.2-0.1-0.3-0.1-0.5-0.2s-0.4-0.2-0.5-0.2c0,0,0,0,0,0c-0.2-0.1-0.3-0.1-0.4-0.2s-0.3-0.1-0.4-0.2    c0,0-0.1,0-0.1,0c-0.3-0.1-0.7-0.3-1.1-0.4c-0.1,0-0.3-0.1-0.4-0.1s-0.3-0.1-0.4-0.1l0,0c-0.1,0-0.3-0.1-0.4-0.1    c-0.3-0.1-0.6-0.2-0.8-0.2c-0.1,0-0.3-0.1-0.4-0.1c-0.1,0-0.2-0.1-0.3-0.1c-0.1,0-0.1,0-0.2-0.1c-0.2-0.1-0.6-0.1-0.8-0.2    c-0.4-0.1-0.8-0.2-1.1-0.3c-0.4-0.1-0.8-0.2-1.2-0.3c-0.8-0.1-1.4-0.2-1.9-0.2c-0.1,0-0.2,0-0.3,0s-0.1,0.1-0.3,0.1    c0,0-0.1,0.1-0.2,0.1l0,0c0,0-0.1,0.1-0.2,0.2c0,0-0.1,0.1-0.2,0.1c0,0-0.1,0.1-0.1,0.2c0,0-0.1,0.1-0.1,0.1c0,0-0.1,0.1-0.1,0.2    c-0.2,0.3-0.5,0.7-0.7,1.2c-0.1,0.1-0.1,0.3-0.3,0.5c-0.3,0.7-0.8,1.4-1.1,2.1c-0.8,1.4-1.5,2.8-2.2,4.3c-0.3,0.7-0.7,1.4-1.1,2.1    c-0.3,0.7-0.7,1.4-1.1,2.2c-0.8,1.6-1.6,3.2-2.3,4.9c-0.3,0.6-0.5,1.1-0.7,1.6c-0.2,0.5-0.4,0.9-0.6,1.4c0,0.1-0.1,0.2-0.1,0.3    c-0.1,0.2-0.2,0.5-0.3,0.7c-0.1,0.3-0.3,0.6-0.4,1l0,0c-0.3,0.7-0.6,1.4-0.9,2.1c-0.3,0.6-0.5,1.2-0.7,1.7c-0.8,1.9-0.6,2.4,1,3.3    c0.2,0.1,0.5,0.2,0.7,0.4c0.9,0.3,1.7,0.7,2.5,1.1l0,0c0.9,0.4,1.8,0.8,2.7,1.3c0.6,0.3,1.2,0.6,1.9,1c5,2.6,10.2,4.9,15.3,7.4    c0.7,0.3,1.5,0.7,2.2,1.1c1.1,0.5,2.2,1.1,3.3,1.6c0.9,0.5,1.9,1,2.8,1.4c2,1,4.2,1.9,6.4,2.5C355.2,253,356.9,252.2,358.3,249.8z     M329.1,207.1c1.3,0,2.6,0.2,3.8,0.6c4.2,1.2,8.3,2.8,12.3,4.6c0.2,0.1,0.5,0.2,0.7,0.3l0,0c2.1,1,4.1,2,6.1,3.1    c4.7,2.5,9.3,5.1,14,7.7c0.2,0.1,0.4,0.2,0.3,0.7c-2.4,1.2-4.8,2.4-7.2,3.5l0,0c-0.8,0.4-1.6,0.7-2.5,1c-2.5,0.9-5,1.5-7.7,1.6    c-0.4,0-0.8,0-1.2,0c-0.4,0-0.8-0.1-1.1-0.1c-2.3-0.3-4.3-1.2-6-2.9c-4.7-4.4-8.7-9.4-11.3-15.6c-0.5-1.1-0.9-2.1-1.1-3.3    C328.1,207.5,328.3,207.1,329.1,207.1z"/>
		<path class="st3" d="M366.4,226.1c-3.8,7.8-7.4,16.1-11.3,23.9l0,0c-12.5-5.8-25.5-11.7-38.6-16.5c5.5-3.6,11-5.9,16.9-7.7    c-1.8-0.6-3.8,0-9,2.2c-2.8,1.2-5.5,2.7-8.7,4.4c3.6-8.1,6.7-15.8,10.4-23.2c0.7,0.1,0.6,0.8,0.8,1.2c2.3,7.4,6.6,13.2,11.9,18.1    c3,2.7,6.7,3.2,10.6,2.9c3.2-0.2,6.3-1.1,9.3-2.5c2.5-1.1,4.9-2.3,7.4-3.4C366.2,225.7,366.3,225.9,366.4,226.1z"/>
		<path class="st2" d="M353.8,250.4c0.8-2.8-1.2-13.6-2.5-17.6c0,0,1.1,0.4,2.1,4.3s2.7,12.6,2.7,12.6S353.3,252.4,353.8,250.4z"/>
	</g>
	<g>
		<path class="st54" d="M284.1,94.9c-1.9,0-3.8,0.6-5.4,1.6c-1.6,1.1-3,2.5-4.1,4.1c-1.1,1.6-1.9,3.4-2.1,5.3    c-0.1,0.9-0.1,1.8,0.2,2.7c0.3,0.8,0.8,1.4,1.6,1.9c1.5,0.8,3.5,0.7,4.9-0.4c1.4-1.1,2.2-2.9,1.9-4.6c-0.3-1.7-1.6-3.3-3.2-3.4    c-1.7-0.1-3.5,0.9-4.9,2.1l0,0c-0.2,0.2-0.6,0.2-0.8-0.1c-0.2-0.2-0.2-0.6,0.1-0.8l1.2-1c0.4-0.3,0.9-0.6,1.4-0.9    c0.9-0.5,2.1-0.9,3.2-0.8c1.2,0,2.4,0.6,3.1,1.5c0.8,0.9,1.3,1.9,1.5,3.1c0.2,1.1,0.1,2.3-0.4,3.4c-0.5,1-1.2,2-2.1,2.6    c-1.8,1.4-4.5,1.7-6.5,0.5c-1-0.6-1.9-1.5-2.2-2.7c-0.4-1.1-0.4-2.2-0.2-3.3c0.3-2.1,1.3-4.1,2.5-5.8c1.2-1.7,2.7-3.2,4.6-4.3    c1.8-1.1,3.9-1.7,6-1.6c0.2,0,0.4,0.2,0.4,0.5C284.5,94.7,284.3,94.9,284.1,94.9L284.1,94.9z"/>
	</g>
	<g>
		<path class="st54" d="M286.7,98.1c1.8-1.2,4-2.1,6.4-1.8c1.2,0.1,2.3,0.6,3.3,1.4c0.9,0.8,1.5,2,1.7,3.1c0.2,1.1,0.1,2.3,0,3.4    c-0.2,1.1-0.4,2.1-0.8,3.1c-0.7,2-1.6,4-3,5.7c-0.7,0.8-1.5,1.6-2.4,2.2c-1,0.6-2.1,1-3.3,1c-1.2,0-2.3-0.4-3.3-1.1    c-1-0.7-1.6-1.9-1.7-3c-0.2-1.1,0-2.2,0.2-3.3c0.2-1,0.6-2,1-3c0.9-1.9,1.9-3.7,3.3-5.4c0.2-0.2,0.4-0.2,0.6-0.1    c0.2,0.2,0.2,0.4,0.1,0.6l0,0c-1.2,1.5-2.1,3.4-2.9,5.2c-0.7,1.8-1.3,3.8-1,5.7c0.1,0.9,0.6,1.7,1.3,2.2c0.7,0.5,1.6,0.8,2.5,0.8    c1.8,0,3.3-1.2,4.5-2.8c1.2-1.5,2-3.3,2.6-5.2c0.3-0.9,0.5-1.9,0.7-2.9c0.2-1,0.2-1.9,0-2.7c-0.2-0.9-0.6-1.6-1.2-2.2    c-0.6-0.6-1.4-0.9-2.3-1c-1.8-0.2-3.6,0.4-5.2,1.4l0,0c-0.4,0.2-0.9,0.1-1.1-0.2C286.2,98.9,286.3,98.4,286.7,98.1z"/>
	</g>
	<g>
		<path class="st50" d="M208.2,143c-0.9,0.8-1.9,0.8-2.9,0.8c-10.2,0-25.8,0-36.1-0.1c-5.3,0-17.3-0.1-22.6-0.2    c-0.8,0-2.3,0.5-2.2-0.8c0-0.9,1.4-0.5,2.2-0.5c15.6,0.1,43.1,0.1,58.7,0.6C206.3,142.8,207.3,142.9,208.2,143z"/>
		<path class="st52" d="M184.9,149.5c-0.7,1.2-1.6,0.9-2.4,0.9c-8.4,0.3-26.2,0.5-34.6,0.7c-0.9,0-2.7,0.8-2.7-1    c0-1.4,1.7-0.7,2.6-0.7c7.8-0.2,22.2-0.2,30-0.3C179.1,149.2,183.3,149.1,184.9,149.5z"/>
		<path class="st52" d="M206.1,130.7c1.3,0,2.6,0,4,0c0.6,0,1.2,0.1,1.1,1c0,0.6-0.4,0.9-0.9,1c-3,0.4-6,0.5-9,0.5    c-0.6,0-1.1-0.4-1.2-1.1c-0.1-0.9,0.5-1.3,1.2-1.3C202.9,130.7,204.5,130.7,206.1,130.7C206.1,130.7,206.1,130.7,206.1,130.7z"/>
		<path class="st52" d="M186.2,133.9c-0.8,0-1.5,0-2.3,0c-0.6,0-1.1-0.4-1.2-1.1c-0.1-0.8,0.4-1.2,1-1.2c2.3-0.2,4.7-0.3,7-0.4    c0.6,0,1.5,0,1.5,1c0.1,1-0.7,1.1-1.4,1.2C189.4,133.5,187.8,134,186.2,133.9z"/>
		<path class="st50" d="M148.9,133.9c-1.4,0-2.7,0.2-3.9-0.3c-0.4-0.1-0.8-0.3-0.8-0.7c-0.1-0.5,0.2-0.8,0.6-0.9    c2.7-0.6,10.8-0.8,13.5-0.5c0.5,0,0.9,0.4,0.8,1c0,0.5-0.3,0.7-0.7,0.9C157.1,134.1,150.2,133.7,148.9,133.9z"/>
		<path class="st52" d="M171,130.8c1.3,0,2.4,0,3.4,0c0.5,0,0.9,0.4,0.9,1c0,0.5-0.3,0.8-0.6,0.9c-2.3,0.7-4.7,0.9-7,0.5    c-0.5-0.1-0.8-0.5-0.7-1.2c0-0.5,0.3-0.8,0.7-0.9C168.8,131,170,130.9,171,130.8z"/>
		<path class="st5" d="M160.5,200.4c-1.9,0.2-3.7-0.5-5.5-0.8c-2.5-0.4-3.6-2-3.9-4.5c-0.4-3.8-0.7-21.2-0.5-22.6    c0.1-1.4,0.5-2.7,0.9-4c1-2.7,3.1-3.5,5.7-3.6c6.6-0.2,13.2-0.2,19.7-0.3c3.9,0,16.3,0.3,18.5,0.3c3.3,0.1,5.8,3,5.6,6.2    c-0.2,3.8-0.2,14.3,0.1,18.1c0.1,1.4,0.1,2.9-0.2,4.3c-0.6,3.2-2.8,5.2-6.6,5.7c-3.3,0.5-6.7,0.4-10.1,0.7    C181.3,200.2,165.2,199.8,160.5,200.4z"/>
		<path class="st5" d="M221.1,200.4c-1.9,0.2-3.7-0.5-5.5-0.8c-2.5-0.4-3.6-2-3.9-4.5c-0.4-3.8-0.7-21.2-0.5-22.6    c0.1-1.4,0.5-2.7,0.9-4c1-2.7,3.1-3.5,5.7-3.6c6.6-0.2,13.2-0.2,19.7-0.3c3.9,0,16.3,0.3,18.5,0.3c3.3,0.1,5.8,3,5.6,6.2    c-0.2,3.8-0.2,14.3,0.1,18.1c0.1,1.4,0.1,2.9-0.2,4.3c-0.6,3.2-2.8,5.2-6.6,5.7c-3.3,0.5-6.7,0.4-10.1,0.7    C241.9,200.2,225.8,199.8,221.1,200.4z"/>
		<path class="st52" d="M143.8,172.8c0-0.8,2.3-2.4,3.1-2.4c0.5,0,0.3,3.5,0.3,4.7c0,0.4-0.4,0.6-0.9,0.3    C145.2,174.9,143.7,173.5,143.8,172.8z"/>
		<path class="st52" d="M268.3,172.8c0-0.8-2.3-2.4-3.1-2.4c-0.5,0-0.3,3.5-0.3,4.7c0,0.4,0.4,0.6,0.9,0.3    C266.9,174.9,268.3,173.5,268.3,172.8z"/>
		<path class="st52" d="M208.4,172.8c0-0.8-2.3-2.4-3.1-2.4c-0.5,0-0.3,3.5-0.3,4.7c0,0.4,0.4,0.6,0.9,0.3    C207,174.9,208.5,173.5,208.4,172.8z"/>
	</g>
</g>
</svg>