<svg xmlns="http://www.w3.org/2000/svg" fill="none" viewBox="0 0 407 344"><path d="m169.77 104c0 27.7-16.65 54.36-41.15 72l-1.07.76c-17.46 12.14-28.3 8.54-50.45 3.79-34.55-7.41-59.6-29.15-70.59996-53.12-9.34-20.31-8.57-42.2399 5.05996-58.4099 48.55-57.56 158.21-13.14 158.21 34.9799z" fill="#22d172"/><path d="m133.22 129.52-4.6 46.54-1.07.76c-17.46 12.14-28.3 8.54-50.45 3.79-34.55-7.41-59.6-29.15-70.6-53.12 2.43-12.65 7.45-25.39 17.1-35.36 19.42-20 27.1-9.14 42.82-6.81 8.6 1.28 21.68 8.53 21.68 8.53s5.65 6.09 21 5.57 22.03 14.58 24.12 30.1z" fill="#f1c37f"/><path d="m350.12 250.72c0 48.16-50.32 93.21-104.73 93.21-42.65 0-84.57-55.6-86.6-97.62-.41-8.61.85-16.65 4.12-23.52 1.125-2.371 2.506-4.611 4.12-6.68 53.21-67.93 183.09-13.55 183.09 34.61z" fill="#22d172"/><path d="m367.34 66.9199c0 16.86-5 35.0001-13.72 50.7401-5.782 10.729-13.518 20.283-22.81 28.17-15.21 12.59-34.08 18.65-54.41 12.55-53.21-16-104.78-88.7201-76.77-126.0701 50.95-67.93 167.71-13.55 167.71 34.61z" fill="#22d172"/><path d="m353.62 117.66c-5.782 10.729-13.518 20.283-22.81 28.17-2.73-2.28-4.44-6.15-4.37-10.82 0 0 .71-11.29 7.8-18.86 5.76-6.15 15.67-3.54 19.38 1.51z" fill="#f1c37f"/><path d="m330.47 146.24c-2.058-1.377-3.6-3.4-4.38-5.75-.433-1.149-.696-2.355-.78-3.58.182-.602.319-1.217.41-1.84 0-.65.14-1.18.24-1.77.772-4.581 2.364-8.985 4.7-13 1.177-2.003 2.662-3.808 4.4-5.35 1.843-1.456 4.063-2.358 6.4-2.6 2.33-.266 4.69.047 6.87.91 2.238.812 4.215 2.215 5.72 4.06.086.112.125.253.108.393-.017.141-.088.269-.198.357-.11.085-.25.124-.388.107-.139-.017-.265-.088-.352-.197-1.325-1.777-3.108-3.16-5.16-4-2.049-.9-4.288-1.281-6.52-1.11-2.24.16-4.367 1.045-6.06 2.52-1.641 1.538-3.031 3.323-4.12 5.29-2.174 3.946-3.534 8.289-4 12.77-.068.541-.108 1.085-.12 1.63.001.277.063.55.18.8.146.246.263.508.35.78.104 1.052.285 2.094.54 3.12.514 2.07 1.512 3.989 2.91 5.6.091.109.137.248.128.39s-.073.274-.178.37c-.085.098-.203.162-.331.181-.129.018-.26-.011-.369-.081z" fill="#1a2e44"/><path d="m193.72 36.19c-1.08 4 2.95 49.81 5 51.55s68.22-5.23 73-6.34 7.33-3.1 6.82-12-3.16-37.95-3.46-40.6-.07-4.83-8.4-4.6-61.68 4.88-67.19 6.6c-4.78 1.48-5.2 3.25-5.77 5.39z" fill="#fff"/><path d="m194.66 36.4499-.06.37v.48 1 2.06c0 1.39.09 2.78.16 4.17.153 2.78.34 5.5634.56 8.35.43 5.56 1 11.13 1.54 16.68.3 2.77.63 5.55 1 8.31.304 2.731.748 5.4445 1.33 8.13.072.2854.162.566.27.84.07.2.05 0 0 .06-.27-.2-.16-.08 0-.09.633.081 1.271.1177 1.91.11 1.36 0 2.75 0 4.14-.09 2.78-.1 5.56-.27 8.35-.45 11.15-.76 22.29-1.76 33.43-2.84 5.573-.54 11.136-1.1166 16.69-1.73l4.16-.5c1.364-.1404 2.72-.3574 4.06-.6499 1.288-.2668 2.5-.8168 3.55-1.6101.942-.879 1.598-2.0223 1.88-3.28.303-1.3112.448-2.6542.43-4 .001-1.3862-.073-2.7715-.22-4.15l-.71-8.36-1.46-16.71-.75-8.35-.43-4.2c-.06-.68-.12-1.42-.21-2.08-.034-.5766-.224-1.1332-.55-1.61-.375-.4315-.875-.7356-1.43-.87-.619-.1917-1.255-.3191-1.9-.38-1.364-.1136-2.734-.137-4.1-.07-2.76.12-5.56.35-8.34.55-11.147.88-22.287 1.88-33.42 3-5.57.56-11.13 1.15-16.67 1.85l-4.14.56c-1.36.22-2.74.44-4 .75-1.233.3439-2.397.8988-3.44 1.64-.902.8056-1.481 1.9104-1.63 3.11zm-1.88-.51c.168-.7476.416-1.4751.74-2.17.377-.7525.912-1.4144 1.57-1.94 1.241-.8867 2.629-1.5469 4.1-1.95 2.79-.5957 5.611-1.0364 8.45-1.32 5.58-.66 11.15-1.21 16.73-1.74 11.146-1.04 22.306-1.9633 33.48-2.77 2.8-.19 5.58-.39 8.41-.5 1.431-.0578 2.864-.021 4.29.11.747.0773 1.484.2315 2.2.46.808.225 1.527.6928 2.06 1.34.478.6736.762 1.4659.82 2.29.09.73.14 1.39.2 2.1l.34 4.19.68 8.37 1.39 16.7501.71 8.3699c.149 1.4051.223 2.8171.22 4.23.017 1.4471-.141 2.8908-.47 4.3-.341 1.4881-1.126 2.8376-2.25 3.87-1.171.932-2.539 1.5852-4 1.91-1.384.3304-2.787.5775-4.2.74l-4.17.56c-5.56.6667-11.124 1.3334-16.69 2-11.13 1.23-22.27 2.38-33.44 3.3-2.8.22-5.59.43-8.41.57-1.4.07-2.81.15-4.25.13-.766.0103-1.531-.0365-2.29-.14-.133-.0162-.264-.0464-.39-.0899-.233-.0607-.448-.1736-.63-.3301-.238-.2406-.425-.5261-.55-.84-.151-.3739-.275-.7582-.37-1.15-.626-2.7763-1.107-5.5835-1.44-8.41-.37-2.78-.69-5.57-1-8.36-.59-5.58-1.06-11.17-1.46-16.76-.19-2.8-.37-5.6-.49-8.41-.07-1.4-.12-2.81-.14-4.22 0-.71 0-1.42 0-2.14 0-.36 0-.71.05-1.09l.05-.57z" fill="#1a2e44"/><path d="m194.45 34.2801c3.62 2 7 4.31 10.45 6.52s6.79 4.53 10.27 6.6c3.415 2.0955 6.997 3.905 10.71 5.41 3.551 1.5411 7.415 2.2262 11.28 2 .958-.1174 1.909-.2843 2.85-.5 1-.17 1.89-.5 2.84-.74s1.85-.63 2.75-1 1.8-.76 2.65-1.25c3.468-1.9054 6.641-4.3037 9.42-7.12 2.842-2.8725 5.472-5.9472 7.87-9.2 2.49-3.21 4.8-6.57 7.16-9.9l1 .62c-4.12 7.08-8.49 14.1-14.2 20.23-2.859 3.1267-6.193 5.7827-9.88 7.87-1.871 1.0316-3.837 1.8821-5.87 2.54-2.05.6404-4.151 1.1054-6.28 1.39-4.332.276-8.667-.4922-12.64-2.24-3.846-1.6214-7.529-3.6036-11-5.92-3.47-2.26-6.8-4.67-10.1-7.09s-6.53-4.91-9.87-7.22z" fill="#1a2e44"/><path d="m198.78 87.8899c-.45-.92 0-1.34.26-1.86s.57-1 .87-1.45c.59-.94 1.23-1.84 1.88-2.72 1.333-1.7466 2.703-3.4366 4.11-5.07 1.407-1.6333 2.877-3.23 4.41-4.79 1.52-1.53 3.05-3.06 4.63-4.53.053-.055.117-.0988.187-.1287.071-.0299.146-.0453.223-.0453.076 0 .152.0154.223.0453.07.0299.134.0737.187.1287.097.1068.151.2458.151.39s-.054.2833-.151.39l-4.22 4.86c-1.42 1.62-2.8 3.25-4.15 4.91s-2.68 3.32-3.91 5c-.61.86-1.21 1.73-1.76 2.62-.27.44-.53.88-.77 1.33s-.28 1-1.05 1.08l-.53.07c-.11.0217-.224.0116-.329-.0291-.104-.0408-.195-.1104-.261-.2009z" fill="#1a2e44"/><path d="m258.77 60c1.934.8757 3.808 1.8779 5.61 3 1.806 1.1043 3.545 2.313 5.21 3.62 1.672 1.3352 3.237 2.7997 4.68 4.38 1.448 1.6056 2.728 3.3546 3.82 5.22.076.1244.127.2627.149.4069.021.1441.015.2911-.021.4326-.035.1414-.098.2744-.185.3912-.088.1168-.197.2152-.323.2893-.253.1479-.553.191-.837.12s-.529-.2505-.683-.5c-.943-1.7764-2.066-3.4518-3.35-5-1.314-1.5564-2.749-3.0075-4.29-4.34-1.557-1.3377-3.193-2.58-4.9-3.72-1.705-1.1426-3.482-2.1747-5.32-3.09-.136-.0707-.239-.1917-.288-.3373s-.038-.3044.028-.4427c.038-.1486.132-.2766.263-.3569s.288-.1065.437-.0731z" fill="#1a2e44"/><path d="m295.21 72.0801c0-6.9569-2.76-13.6297-7.673-18.5546-4.914-4.9248-11.58-7.6996-18.537-7.7154-4.823.1361-9.584 1.1142-14.07 2.89l-1.62 1.3c-2.351 1.3678-4.48 3.0878-6.31 5.1-4.246 4.7149-6.641 10.8075-6.742 17.1514-.102 6.3438 2.097 12.51 6.189 17.3585 4.093 4.8484 9.802 8.0513 16.073 9.0164s12.679-.3728 18.04-3.7663l10.3-8.36 1.21-2c2.062-3.8149 3.141-8.0835 3.14-12.42z" stroke="#1a2e44" stroke-linecap="round" stroke-linejoin="round" stroke-width="1.45"/><path d="m185.6 246.17c.1-8.32-3.79-9.86 8.48-11.58s106.41 1.41 106.41 1.41-1.95 48.77-.8 61.73c.38 4.3-4 7-16.4 5.39-10.84-1.41-41.05 3.09-61.8 1.6s-26.49 1-30.39-2.52-4.93-10-4.47-19-1.06-34.85-1.03-37.03z" fill="#fff"/><path d="m262.85 285.39s-29.42.9-38.94 0c-1.15-.11-3.27-1.46-3.27-3.27v-13.24c.072-.843.44-1.633 1.038-2.232.599-.598 1.389-.966 2.232-1.038 9.73.06 38.94 0 38.94 0 .867.003 1.697.348 2.309.961.613.612.958 1.443.961 2.309 0 0-.06 2.64 0 5.79.07 2.75.3 5.94 0 7.45-.24 1.13-1.47 3.27-3.27 3.27z" fill="#22d172" stroke="#1a2e44" stroke-linecap="round" stroke-linejoin="round" stroke-width="1.75"/><path d="m186.61 230.62c1.61-3.12 7-3.16 16-3.4s74.19-1.42 91.86.76c0 0 4.66 1.17 5.22 3.93.341 1.798.535 3.621.58 5.45 0 0-18.09-1.25-30.73-1.6s-30.4.25-38.18.67-44.36.85-45.4.93.65-6.74.65-6.74z" fill="#22d172"/><g fill="#1a2e44"><path d="m299.8 283.69c.18-6.43.24-23 .47-29.42.24-6.13 1-10.95.64-17-.17-3.62-.35-8.18-4.9-9.52-2.298-.526-4.643-.821-7-.88-3.51-.23-12.85-.46-16.36-.64-7.12-.35-14.19-.58-21.31-.7-13.91-.23-33.65.06-47.61.41-3.74.06-9.11-.7-12.73.35-1.423.349-2.737 1.044-3.827 2.022-1.091.979-1.923 2.211-2.423 3.588-.47 1.34-.82 39.14.35 51.76.222 2.53.298 5.071.23 7.61-.209 2.568.111 5.151.94 7.59 1.4 3.27 4.61 5.14 8.35 5.9 4.439.886 8.969 1.222 13.49 1 5.38-.36 70.44-1.76 73.54-1.52 2.45.17 10.86.58 13.32.23 4.2-.64 5.14-5.2 5.19-8.47 0-1.87-.17-3.74-.35-5.66-.18-2.2-.06-4.43-.01-6.65zm-.8 12.86c-.06 1.52-.18 3.39-1.29 4.68-1.34 1.52-3.91 1.4-5.84 1.28-2.57-.11-26.69.06-33.29.53-6.78.52-38.07.51-44.5.75-3.79.17-6.73-.46-10.47-.52s-7.83-.52-10.63-2.8c-3.91-3.1-3.33-8.3-3.21-12.5-.019-2.036-.156-4.07-.41-6.09-.23-3-.47-16.22-.64-19.26-.35-6.07-.35-24.85-.35-25.15.06-3-.45-6.95 2.53-8.76 2.69-1.63 7.34-1.34 10.49-1.4 12.5-.41 29.15-.64 41.71-.58 13.55.06 32.94.46 46.43 1.52 2.135.035 4.256.348 6.31.93.713.251 1.357.667 1.878 1.215.522.547.906 1.21 1.122 1.935.88 2.52.82 5.32.82 7.89 0 2.92-.18 5.9-.35 8.82-.41 6-.53 10.72-.65 16.74-.02 3.09-.2 23.94.34 30.77z"/><path d="m300.45 236.22c-3.018.275-6.056.215-9.06-.18-3.27-.26-12.38-.22-15.71-.22-6.89 0-13.78-.09-20.67 0s-13.67 0-20.51.22-13.62.4-20.4.53c-3.79.09-5.84 1.15-2.45 1.06 6.84-.17 13.68-.31 20.52-.53 13.67-.44 27.39-.31 41.06-.22 3.74 0 13.37-.13 17.11.18 3.294.404 6.621.477 9.93.22.73-.13 1.05-1.15.18-1.06z"/><path d="m194.41 230.35s-.05 0-.1-.1c-.076-.082-.164-.153-.26-.21-.251-.089-.514-.14-.78-.15-.401-.027-.799.082-1.13.31-.392.276-.684.673-.83 1.13-.05.21-.1.37-.16.57-.025.156-.025.314 0 .47.013.142.05.281.11.41.05.11.1.26.2.31.184.189.421.318.68.37.221.05.45.05.67 0 .345-.036.676-.158.962-.354.287-.196.52-.46.679-.768.159-.309.238-.652.231-.999s-.101-.687-.272-.989z"/><path d="m200.46 230.25-.1-.1c-.077-.068-.165-.122-.26-.16-.255-.037-.512-.054-.77-.05-.405.023-.791.186-1.09.46-.368.321-.607.766-.67 1.25-.041.184-.058.372-.05.56-.008.158.009.317.05.47.05.15.1.26.15.41.069.117.157.222.26.31.204.172.463.265.73.26.21-.006.419-.039.62-.1.333-.09.639-.261.891-.497.252-.237.442-.531.554-.858.111-.326.141-.676.086-1.017-.055-.34-.192-.663-.401-.938z"/><path d="m206.51 230.2c-.05 0-.05 0-.1 0-.078-.053-.167-.091-.26-.11-.258-.014-.516.003-.77.05-.392.092-.743.31-1 .62-.297.391-.474.86-.51 1.35v.57c.009.158.043.313.1.46.047.135.118.261.21.37.089.1.193.185.31.25.233.135.503.191.77.16.221-.018.434-.09.62-.21.317-.147.594-.369.807-.646.214-.277.358-.601.419-.945.062-.345.04-.699-.064-1.033-.103-.333-.286-.637-.532-.886z"/><path d="m221.41 282.55c.28-5.87 21.18-12.13 38.9-16.66 0 0-36.09-.75-37.45.23s-2.22 2.23-2.22 4.84.77 11.59.77 11.59z"/><path d="m5.7799 127.35c1.36395-9.266 4.4939-18.184 9.22-26.27 2.4006-4.0568 5.3221-7.7818 8.69-11.08l2.52-2.46 2.71-2.29c1.868-1.5215 3.8771-2.861 6-4 .27-.14.52-.31.8-.43l.85-.35 1.72-.69c.58-.21 1.19-.33 1.79-.5.5977-.1779 1.2102-.3017 1.83-.37l1.87-.21h1.86.93l.91.12c.61.09 1.23.15 1.82.27 4.76 1 9 2.81 13.33 3.89 1.08.31 2.17.52 3.26.74l1.71.36c.6.11 1.18.26 1.76.42 2.2617.6511 4.4796 1.4461 6.64 2.38 2.16.87 4.25 1.9 6.32 3s4.1 2.17 6.09 3.38l.16.12c.9436.8484 2.0003 1.5619 3.14 2.12 1.1628.5971 2.3737 1.0955 3.62 1.49 2.5225.7846 5.1261 1.2811 7.7601 1.48.66.08 1.32.09 2 .12s1.33.06 2 0h2l2.1.06c2.829.1688 5.589.9465 8.09 2.28 2.442 1.416 4.593 3.282 6.34 5.5 1.715 2.184 3.14 4.58 4.24 7.13 2.155 5.051 3.521 10.404 4.05 15.87.028.19-.021.383-.135.536-.115.154-.285.256-.475.284s-.383-.021-.536-.135c-.154-.115-.256-.285-.284-.475-.794-5.264-2.225-10.411-4.26-15.33-2.08-4.82-5.28-9.27-9.77-11.85-2.274-1.223-4.784-1.943-7.36-2.11l-1.94-.06h-2c-.69 0-1.37 0-2.06 0s-1.37 0-2.06-.14c-2.756-.218-5.4761-.7686-8.1001-1.64-1.3202-.4349-2.6014-.9801-3.83-1.63-1.2798-.6501-2.4587-1.4821-3.5-2.47l.18.14c-4.11-2-8.32-3.82-12.58-5.36-2.1068-.7988-4.2609-1.4667-6.45-2-.54-.12-1.08-.24-1.61-.32l-1.68-.27c-1.1776-.1616-2.3459-.3853-3.5-.67-4.62-1.06-8.94-2.8-13.21-3.65-.54-.11-1.07-.15-1.6-.23l-.8-.1h-.79c-.53 0-1.06 0-1.59 0l-1.56.16c-.5254.0531-1.0445.1569-1.55.31-.51.14-1 .22-1.53.4l-1.5.59-.74.29c-.25.11-.48.26-.72.38-1.9524 1.0156-3.8041 2.2143-5.53 3.58l-2.58 2.15-2.44 2.33c-3.2421 3.1157-6.1052 6.6032-8.53 10.39-4.7476 7.749-8.13001 16.256-10 25.15-.02002.092-.05833.18-.11265.257-.05433.078-.12358.144-.2037.194s-.16948.084-.26284.099c-.09336.016-.18883.012-.28081-.01-.10263-.008-.20242-.037-.29264-.087-.09022-.049-.16878-.118-.23038-.2-.0616-.083-.10481-.177-.12671-.278-.02191-.1-.022-.204-.00027-.305z"/><path d="m317.11 221.87 1.36-14.87 9.72 3.39s-6.79 10.2-11.08 11.48z"/></g><path d="m297.22 210.86s12.89-13 53.06-22.74c0 0-22.69 10.47-31.81 18.83 0 .05-8.21-1.59-21.25 3.91z" fill="#fefefe" stroke="#1a2e44" stroke-linecap="round" stroke-linejoin="round" stroke-width="1.45"/><path d="m335.48 240.26s-16.79-17.41-17-33.31c9.746-7.623 20.439-13.952 31.81-18.83 0 0-18.18 15.88-14.81 52.14z" fill="#fefefe" stroke="#1a2e44" stroke-linecap="round" stroke-linejoin="round" stroke-width="1.45"/><path d="m82.8198 30.3501c-.53-3.81 1.62-8.58 2.84-10.48-.13 1.8-.79 4.07 1 5.2s4.66.31 3.44 2.21-6.75 6.87-7.28 3.07z" fill="#1a2e44"/><path d="m86.72 27.5299c-.64-2.73.69-5.9999 1.49-7.3299 0 1.27-.34 2.86 1.06 3.72 1.3161.6466 2.7333 1.0626 4.19 1.23 1.14.27-6.1 5.0999-6.74 2.3799z" fill="#1a2e44"/><path d="m115.84 42.76c-1.34 4.77-2.43 8.67-3.28 11.66-1.26 4.5-2.34 23.31-7.8 27.81-1.612 1.4273-3.603 2.3576-5.7325 2.6787-2.1292.3212-4.3059.0195-6.2675-.8687-.8979 4.2495-1.496 8.5567-1.79 12.89-.3621 2.2063-.3958 4.454-.1 6.67 0 0 1.85 6.64-7.74 3.3s-16.13-21.51-16.13-21.51c4.45-7.19 1.33-1.2 3-5.31l6.47-15.48 4.84-22.53c7.9133-5.5333 15.1567-8.2333 21.73-8.1 4.953.1 9.22 3.03 12.8 8.79z" fill="#fff"/><path d="m115.24 42.6999c-1.22 4.36-2.75 8.75-3.62 13.2-.7 3.56-1.07 7.18-1.7 10.75-.71 4.11-1.49 8.45-3.38 12.21-2.57 5.12-8.3399 6.5-13.4499 4.58-.48-.19-.92.27-1 .71-1.16 5.49-2.34 11.79-2.06 17.4401 0 1 .54 2.86.26 4-.83 3.22-6.43 1-8.23.11-5.51-2.79-9.05-9.0001-11.69-14.3601-.81-1.62-2.13-3.68-2.44-5.48 0-.2-.28-.46-.26-.67.05-.57-.12 1 .42-.46.4493-.9526 1.0244-1.8405 1.71-2.64l-.8-.09c-.12-.75.27-.9 1.15-.46l.18-.49c.4243-.7129.7411-1.4846.94-2.29l2.68-6.41c1.3176-2.7399 2.4469-5.5665 3.38-8.46 1.2-4.68 2-9.5 3.05-14.24.3367-2.2173.8109-4.4116 1.42-6.57.09-.27 0-.83.22-1.07.2605.0361.5258.0002.7673-.1038.2416-.104.45-.2722.6027-.4862.57-.38 1.14-.74 1.72-1.1 1.32-.8 2.67-1.55 4.06-2.23 4.0234-2.1024 8.4638-3.2843 12.9999-3.46 5.95-.06 10.07 3.81 13.13 8.55.42.66 1.55-.23 1.18-.81-4.17-6.46-9.6-9.89-17.3699-8.74-3.6685.6023-7.2189 1.7801-10.52 3.49-1.65.83-3.26 1.75-4.82 2.73-1.05.67-2.44 1.24-3 2.36-.34 1.0046-.5648 2.0446-.67 3.1-.5 2.3467-1.0033 4.68-1.51 7-.85 4-1.44 8.12-2.58 12s-3.11 7.55-4.64 11.22c-.8414 1.7361-1.5826 3.5191-2.22 5.34-.11.4-.34.76-.2 1.18.08.25.48.28.67.18s.83-.7.56-1.11c-.0451-.0648-.1034-.1193-.1711-.16-.0676-.0407-.1431-.0666-.2215-.076-.0784-.0095-.1579-.0022-.2332.0212-.0754.0235-.145.0626-.2042.1148-1.3003 1.1616-2.2902 2.6292-2.88 4.27-.13.75.48 1.71.75 2.38 1.9181 4.8669 4.5137 9.4387 7.71 13.5801 3.05 3.8 8.29 8.14 13.61 7.1 2.6-.51 3.19-2.61 3-4.92-.56-6.3901.54-13.2801 1.87-19.5401l-1 .72c4.43 1.66 9.0799 1.2 12.7399-2 2.91-2.53 4-6.79 4.92-10.39 1.1-4.5 1.71-9.09 2.41-13.66.81-5.37 2.55-10.57 4-15.79.21-.86-1.03-.77-1.24-.07z" fill="#1a2e44"/><path d="m98.07 38.6c-5.07 8.62-4.31 9.4-10.75 11.26 3.83 11.43-12.45 13.59-15.83 9-4-5.38-.41-22.13.28-23.78 1.25-3 6.24-12.54 14.54-7.5 5.47-6.25 8.94-6.27 16.9-3.88 10.42 3.12 8.72.67 17.32.38 3.66-.12 5.95 8.11 3.25 14.59-2.2 5.25-9.12 6.86-25.71-.07z" fill="#1a2e44"/><path d="m92.3199 84-5.46-2c.414 1.0579.9984 2.0409 1.73 2.91.7871.9718 1.7299 1.8064 2.79 2.47z" fill="#1a2e44"/><path d="m92.63 84.0001-5.11-2.43" stroke="#1a2e44" stroke-linecap="round" stroke-width="1.66"/><path d="m98.2898 49.2101c-1.51-.46-4-1.81-3-2.07s1.51-.68 2.86-.27 2.6002.79 2.4702 1.34c-.071.2309-.191.4436-.352.6233-.161.1798-.3593.3222-.5811.4174s-.4617.1409-.703.1339c-.2413-.0071-.4781-.0666-.6941-.1746z" fill="#1a2e44"/><path d="m80.22 67.2999c-3.56-1-6.83-6.85-5.18-10.57s4.62-4.17 8.18-3.17c1.7087.4824 3.1561 1.6232 4.0242 3.172.8681 1.5487 1.086 3.3787.6058 5.088-1.01 3.56-4.08 6.47-7.63 5.48z" fill="#fff"/><path d="m80.4999 66.77c-5.87-2.06-7.61-13.83.55-13.07 3.2.29 6 2.44 6.29 5.76.35 3.74-2.78 8.17-6.84 7.31-.72-.15-1.5.86-.57 1 4.1.86 7.61-2 8.63-6 1.19-4.57-2.05-8.38-6.44-9.13-3.74-.63-7.47 1.18-8.15 5.22s2.22 8.56 6 9.88c.67.33 1.42-.65.53-.97z" fill="#1a2e44"/><path d="m88.0001 54.1001-3.63 3-2.23 8.75v3.68c4.54-.4333 7.3467-2.7967 8.42-7.09 1.0734-4.2933.22-7.0733-2.56-8.34z" fill="#fff"/><path d="m83.1298 58.6299c-.3278-.3275-.6977-.6099-1.1-.84-.3896-.179-.8045-.2971-1.23-.35" fill="#fff"/><path d="m83.6901 58.31c-.3678-.3692-.7852-.6856-1.24-.94-.5027-.2374-1.039-.396-1.59-.47-.31-.05-.74.1-.79.45s.36.58.66.63c.7075.1275 1.3558.4779 1.85 1 .1346.119.3018.195.4801.2182.1782.0232.3593-.0075.5199-.0882.0749-.0318.1404-.0824.1899-.1471.0494-.0646.0813-.141.0924-.2217.0111-.0806.001-.1627-.0292-.2383s-.0795-.1421-.1431-.1929z" fill="#1a2e44"/><path d="m98.42 58.3599c-.74-.21-.62-.66-.47-1.2s.34-1.2 1.08-1 .56.85.41 1.4-.27 1-1.02.8z" fill="#1a2e44"/><path d="m109.8 61.8c-.77 0-.76-.48-.74-1.06s.22-1.23.81-1.21.75.69.73 1.26-.03 1.03-.8 1.01z" fill="#1a2e44"/><path d="m102.78 55.3799c.147 3.7.197 6.82.15 9.36 0 1.4-1 2.19-2.9998 2.39" fill="#fff"/><path d="m102.07 55.26c.08 2 .14 3.93.16 5.89 0 2.29.56 4.94-2.4301 5.41-.93.14-.4 1.25.3601 1.13 1.8-.28 3.22-.87 3.47-2.84.38-3 0-6.36-.15-9.37-.03-.69-1.48-.98-1.41-.22z" fill="#1a2e44"/><path d="m93.3198 68.6001c.2508.87.6139 1.7037 1.08 2.48.5955.8829 1.5029 1.5081 2.54 1.75" fill="#fff"/><path d="m92.7202 68.94c.69 2.19 1.68 3.8 3.92 4.54.65.22 1.34-1 .6-1.3-2-.64-2.74-2-3.33-3.92-.25-.79-1.39.02-1.19.68z" fill="#1a2e44"/><path d="m106.93 53.4501c1.52.43 2.92.73 3.19-.22s-.47-1.42-1.69-2-2.06-.92-2.5-.3c-.15.2213-.243.4759-.272.7416-.029.2656.007.5344.106.7828.098.2485.256.469.459.6425.204.1735.446.2947.707.3531z" fill="#1a2e44"/><path d="m95.31 61.4601c1.6594.146 3.3155-.3132 4.6628-1.2929 1.3472-.9796 2.2942-2.4136 2.6672-4.0371.186-.873.188-1.775.007-2.6489s-.541-1.7007-1.058-2.4282-1.18-1.3398-1.9453-1.7982c-.7658-.4583-1.6183-.7528-2.5037-.8647-1.647-.1552-3.2945.291-4.6382 1.256-1.3436.965-2.2927 2.3837-2.6718 3.994-.195.8768-.2052 1.7846-.03 2.6657.1751.881.5318 1.7159 1.0473 2.4515s1.1785 1.3558 1.9468 1.8212c.7683.4653 1.6252.7655 2.5159.8816.68.12 1.31-1.13.48-1.28-1.2362-.1613-2.383-.7311-3.2582-1.6189-.8751-.8879-1.4284-2.0428-1.5718-3.2811-.0695-.762.031-1.5298.2942-2.2482s.6826-1.3694 1.2279-1.906c.5453-.5367 1.2029-.9457 1.9254-1.1974.7224-.2518 1.4918-.34 2.2525-.2584 6.64.75 6.07 10.92-.87 10.52-.68-.05-1.31 1.22-.48 1.27z" fill="#1a2e44"/><path d="m109.37 65.88c1.602.1461 3.203-.2915 4.507-1.2324 1.305-.9409 2.226-2.3215 2.593-3.8876.174-.8419.17-1.7107-.011-2.5511-.18-.8403-.534-1.6339-1.038-2.33-.505-.6962-1.148-1.2797-1.891-1.7133-.742-.4337-1.566-.7081-2.42-.8056-1.583-.1546-3.168.2656-4.466 1.1837s-2.223 2.2727-2.604 3.8163c-.181.8449-.185 1.7183-.01 2.5645.175.8463.524 1.6468 1.026 2.3506.501.7037 1.144 1.2953 1.887 1.7369.742.4416 1.569.7236 2.427.828.7.12 1.34-1 .45-1.2-1.258-.1762-2.412-.7959-3.253-1.7475-.842-.9516-1.316-2.1724-1.337-3.4425-.002-.6922.141-1.3771.421-2.0104.279-.6332.689-1.2007 1.202-1.6655s1.117-.8166 1.775-1.0327 1.353-.2915 2.042-.2214c6.33.76 5.74 10.51-.84 10.12-.71 0-1.36 1.19-.46 1.24z" fill="#1a2e44"/><path d="m102.08 57.05c.981.0706 1.94.3215 2.83.74.65.3 1.15-1.05.49-1.36-.98-.4535-2.033-.7246-3.11-.8-.7-.05-.98 1.37-.21 1.42z" fill="#1a2e44"/><path d="m172.12 169.5c4.3 3.3 8.6 5.46 10.7 3.16s-3.7-5.5-4.6-7.7" fill="#fff"/><path d="m172.35 169.19c1.422 1.087 2.938 2.044 4.53 2.86.772.393 1.588.696 2.43.9.764.216 1.577.181 2.32-.1.331-.151.619-.381.84-.67.088-.113.15-.244.183-.384s.035-.285.007-.426c-.247-.768-.692-1.458-1.29-2-.6-.63-1.27-1.23-1.94-1.87-.762-.65-1.399-1.432-1.88-2.31-.073-.172-.078-.366-.012-.541.065-.175.195-.318.363-.4s.361-.097.54-.041c.178.056.328.179.419.342v.05c.396.706.902 1.344 1.5 1.89.63.64 1.29 1.27 1.92 2 .737.715 1.266 1.618 1.53 2.61.05.305.035.616-.044.914-.08.299-.221.577-.416.816-.343.437-.79.781-1.3 1-.964.358-2.019.386-3 .08-.913-.245-1.793-.601-2.62-1.06-1.61-.886-3.136-1.917-4.56-3.08-.041-.03-.075-.069-.1-.112-.026-.044-.043-.093-.049-.143-.007-.051-.003-.102.011-.151.013-.048.036-.094.068-.134.068-.078.163-.126.267-.134.103-.007.205.026.283.094z" fill="#1a2e44"/><path d="m157.66 124.08c4.5-11.6 9.8-11.1 11.8-8.3s-2 12.8-2 12.8" fill="#fff"/><path d="m157 123.82c.861-2.496 2.08-4.854 3.62-7 .825-1.143 1.877-2.103 3.09-2.82.315-.188.65-.339 1-.45.364-.134.744-.222 1.13-.26.795-.091 1.6.033 2.33.36.71.296 1.337.759 1.83 1.35.141.153.256.329.34.52.102.191.192.388.27.59.112.369.189.747.23 1.13.086 1.379-.025 2.763-.33 4.11-.563 2.561-1.37 5.063-2.41 7.47-.075.177-.217.317-.395.39s-.377.073-.555 0c-.169-.071-.304-.204-.378-.371s-.082-.356-.022-.529c.84-2.372 1.509-4.802 2-7.27.251-1.169.339-2.367.26-3.56-.027-.254-.077-.505-.15-.75 0-.11-.1-.18-.14-.28-.039-.105-.1-.201-.18-.28-.299-.397-.695-.71-1.15-.91-.469-.191-.977-.267-1.482-.221-.504.045-.99.21-1.418.481-1.004.596-1.883 1.381-2.59 2.31-1.487 2.002-2.704 4.191-3.62 6.51-.083.162-.223.288-.394.352-.17.064-.359.062-.528-.006-.169-.067-.307-.196-.386-.36s-.094-.351-.042-.526z" fill="#1a2e44"/><path d="m54.5598 142c.11-8.32-3.7799-9.86 8.4901-11.58s106.4001 1.37 106.4001 1.37-1.94 48.78-.8 61.73c.38 4.3-4 7-16.39 5.39-10.84-1.4-41 3.1-61.8102 1.61-20.81-1.49-26.48 1-30.38-2.52s-4.93-10-4.47-19-1.06-34.84-1.04-37z" fill="#fff"/><path d="m55.5801 126.44c1.6-3.13 7-3.17 16-3.41s74.1899-1.41 91.8499.76c0 0 4.67 1.18 5.23 3.94.341 1.794.535 3.614.58 5.44 0 0-18.09-1.24-30.74-1.59s-30.39.25-38.17.67c-7.7799.42-44.3599.84-45.4099.92s.66-6.73.66-6.73z" fill="#22d172"/><path d="m168.77 179.5c.18-6.42.24-23 .47-29.41.23-6.14 1-11 .64-17-.17-3.62-.35-8.18-4.91-9.52-2.297-.531-4.643-.826-7-.88-3.51-.23-12.85-.47-16.36-.64-7.12-.35-14.19-.59-21.32-.7-13.9-.24-33.64.06-47.6.41-3.74.05-9.11-.71-12.73.35-1.4219.347-2.7362 1.04-3.8264 2.017s-1.9227 2.208-2.4236 3.583c-.47 1.35-.82 39.15.35 51.76.2215 2.534.2983 5.078.23 7.62-.2187 2.568.1014 5.153.94 7.59 1.4 3.27 4.61 5.14 8.35 5.9 4.4385.886 8.9694 1.222 13.49 1 5.37-.35 70.44-1.75 73.54-1.52 2.45.18 10.86.59 13.31.24 4.21-.65 5.14-5.2 5.2-8.47 0-1.87-.17-3.74-.35-5.67-.116-2.219-.116-4.442 0-6.66zm-.77 12.87c0 1.52-.17 3.39-1.28 4.67-1.34 1.52-3.91 1.41-5.84 1.29-2.57-.12-26.69.06-33.29.52-6.78.53-38.08.52-44.5.75-3.8.18-6.73-.45-10.47-.51s-7.83-.53-10.63-2.81c-3.92-3.09-3.33-8.29-3.21-12.49-.0291-2.039-.1659-4.075-.41-6.1-.24-3-.47-16.21-.65-19.25-.35-6.08-.35-24.86-.35-25.15.06-3-.44-6.95 2.54-8.76 2.68-1.64 7.34-1.34 10.49-1.4 12.5-.41 29.15-.65 41.71-.59 13.55.06 32.94.47 46.43 1.52 2.135.045 4.255.361 6.31.94.713.251 1.357.667 1.878 1.215.522.547.906 1.21 1.122 1.935.87 2.51.81 5.32.81 7.89 0 2.92-.17 5.89-.35 8.82-.4 6-.52 10.72-.64 16.73-.07 3.1-.24 23.95.33 30.78z" fill="#1a2e44"/><path d="m169.41 132c-2.998.261-6.015.201-9-.18-3.27-.27-12.38-.22-15.71-.22-6.89 0-13.79-.09-20.68 0s-13.67 0-20.5.22c-6.8302.22-19.4502.4-26.2202.54-3.8.08-7.66.17-11.51.22-1.81 0-3.56 0-5.37 0-1.5997-.122-3.2083-.048-4.79.22-.65.14-1 1.2-.18 1 1.4862-.249 2.9965-.323 4.5-.22 1.58.05 3.21.05 4.79.05 3.39 0 6.71-.09 10.1-.18 6.84-.18 19.51-.31 26.3402-.53 13.67-.45 27.4-.31 41.07-.22 3.73 0 13.37-.14 17.11.17 3.294.407 6.62.484 9.93.23.65-.1 1-1.1.12-1.1z" fill="#1a2e44"/><path d="m65.7099 126.17s-.05 0-.1-.1c-.0742-.084-.1621-.155-.26-.21-.2492-.096-.5129-.15-.78-.16-.4033-.021-.8029.087-1.14.31-.3874.283-.6746.683-.82 1.14-.05.21-.11.36-.16.57-.025.156-.025.314 0 .47.0095.143.0468.282.11.41.05.1.1.26.2.31.1797.188.4143.314.67.36.2239.05.4561.05.68 0 .3449-.034.6757-.155.9624-.349.2867-.195.5201-.459.6791-.767.1589-.308.2384-.651.2312-.997-.0073-.347-.101-.686-.2727-.987z" fill="#1a2e44"/><path d="m71.76 126.07-.1-.11c-.08-.061-.1674-.111-.26-.15-.2575-.045-.5187-.065-.78-.06-.4043.024-.787.19-1.08.47-.3664.318-.6045.759-.67 1.24-.0495.186-.0697.378-.06.57-.0097.159.0107.319.06.47 0 .15.1.25.15.41.0715.115.1591.22.26.31.2007.171.4565.263.72.26.2103-.004.4191-.038.62-.1.3341-.089.6411-.259.8942-.495.253-.235.4442-.53.5568-.857.1126-.326.1431-.676.0889-1.018-.0542-.341-.1916-.664-.3999-.94z" fill="#1a2e44"/><path d="m77.8099 126c-.05 0-.05 0-.1 0-.0808-.047-.1686-.081-.26-.1-.2591-.03-.5209-.03-.78 0-.3931.089-.745.308-1 .62-.301.39-.4818.859-.52 1.35v.56c.0079.162.0452.321.11.47.0471.13.1146.251.2.36.09.101.1945.189.31.26.2369.134.5097.19.78.16.2195-.024.431-.096.62-.21 1.26-.66 1.73-2.53.64-3.47z" fill="#1a2e44"/><path d="m72.46 151 27.15-.08c.486-.06.977.061 1.38.34.178.21.31.454.389.717.08.263.104.54.071.813.15 7.21.7 13.23.86 20.43-10.21 2.31-19.82.73-29.49 1.47-.2319.055-.4737.054-.7052-.003-.2314-.058-.4457-.17-.6248-.327-.1521-.239-.232-.517-.23-.8-.6383-7.013-.6216-14.07.05-21.08" fill="#fff"/><path d="m72.9302 151.65 24.39-.07c1.44 0 2.7698-.43 3.5798 1.33.159.875.182 1.768.07 2.65.06 1.86.16 3.72.25 5.58.21 4.07.43 8.14.53 12.21.18-.28.36-.55.53-.84-7.9998 1.72-16.0798 1.15-24.1998 1.24-.93 0-1.29 0-2.22.07-1.46.07-2 .41-3-.69-1.25-1.41-.87-4.8-.93-6.63-.1302-4.688.0201-9.38.45-14.05.08-.92-1.6-.84-1.67 0-.4649 4.966-.6152 9.956-.45 14.94 0 1.41.12 2.81.22 4.22.05.75-.1 2.38.42 3 .77 1 2 .67 3.15.61 9.45-.52 18.88.61 28.2298-1.4.34-.07.53-.51.53-.83-.12-4.73-.41-9.47-.63-14.2-.1-2.06 0-4.17-.22-6.23-.12-1.19-.29-1.83-1.4-2.32-1.4798-.63-4.1798-.06-5.7698-.06h-7.06c-5.07 0-10.73.35-15.8.36-.67 0-1.45 1.68-.7 1.68z" fill="#1a2e44"/><path d="m71.1101 152.44 9.92 7c1.65 1.17 3.3 2.36 5 3.52.3275.322.7264.563 1.1643.702s.9024.172 1.3557.098c2.29-.46 4.73-2.68 6.48-4.13 2.3836-2.008 4.4888-4.325 6.2599-6.89.53-.75-.51-1.12-1-.48-1.5311 2.208-3.3242 4.223-5.3399 6-1.86 1.64-5.77 5.23-8.22 3.54-5-3.46-9.92-7-14.88-10.55-.53-.38-1.36.7-.74 1.14z" fill="#1a2e44"/><path clip-rule="evenodd" d="m109.07 175.69c-2.17-3.2-4.32-6.56-6.31-9.85-.6-1-1.37-2.54-2.52-3.05-1.66-.73-3.19 1.7-3.9 2.77-1.3442 2.21-2.5434 4.505-3.59 6.87-1.46 3-5.89 7.87.52 7.67 4 .06 7.92.3 11.88.22 1.19 0 3.07.23 4.12-.52 1.27-.9.45-3.14-.2-4.11z" fill="#fff" fill-rule="evenodd"/><path clip-rule="evenodd" d="m98.9998 164.08c-1 0-1.84 2-2.46 2.95-1.2124 1.955-2.298 3.986-3.25 6.08-1.3 2.66-5.22 6.4-.93 6.4 3.52.05 8.0902 0 11.6102 0 1.06 0 3.29.15 4.13-.63s-.72-2.74-1.3-3.61c-1.92-2.82-3.83-6.06-5.6-9-.51-.9-1.2002-2.2-2.2002-2.19z" fill="#fb5151" fill-rule="evenodd"/><path clip-rule="evenodd" d="m93.26 179.51c3.82-.09 7.6.07 11.41 0 1.23 0 3 .34 4.12-.18s-.32-3.14-.8-3.85c-2-2.89-3.6-6-5.68-8.86-.6-.82-1.27-2.88-2.3199-3.3-1.33-.53-3.0601 2.79-3.4901 3.5-1.74 2.92-2.84 6.23-4.7 9.05-.25.39-1.3 2.62-.9 3 .6949.465 1.5261.684 2.36.62.19 0 0 .59 0 .59-6.41.2-1.9999-4.66-.5199-7.67 1.0447-2.366 2.244-4.661 3.5899-6.87.7-1.07 2.24-3.5 3.9-2.77 1.15.5 1.92 2.05 2.52 3.05 2 3.29 4.14 6.65 6.3 9.85.66 1 1.48 3.21.21 4.11-1.05.75-2.93.49-4.12.52-4 .08-7.92-.17-11.88-.22" fill="#273649" fill-rule="evenodd"/><path clip-rule="evenodd" d="m93.26 179.51c3.82-.09 7.6.07 11.41 0 1.23 0 3 .34 4.12-.18s-.32-3.14-.8-3.85c-2-2.89-3.6-6-5.68-8.86-.6-.82-1.27-2.88-2.3199-3.3-1.33-.53-3.0601 2.79-3.4901 3.5-1.74 2.92-2.84 6.23-4.7 9.05-.25.39-1.3 2.62-.9 3 .6949.465 1.5261.684 2.36.62.19 0 0 .59 0 .59-6.41.2-1.9999-4.66-.5199-7.67 1.0447-2.366 2.244-4.661 3.5899-6.87.7-1.07 2.24-3.5 3.9-2.77 1.15.5 1.92 2.05 2.52 3.05 2 3.29 4.14 6.65 6.3 9.85.66 1 1.48 3.21.21 4.11-1.05.75-2.93.49-4.12.52-4 .08-7.92-.17-11.88-.22" fill="#273649" fill-rule="evenodd"/><path clip-rule="evenodd" d="m99.0001 174c-.12-1.85 0-5.1 0-6s1.3899-1.75 1.3799.46-.18 4.39-.22 5.54-1.0799 1-1.1599 0z" fill="#273649" fill-rule="evenodd"/><path d="m100.449 176.552c.112-.445-.149-.894-.5825-1.003-.4338-.109-.8762.163-.9881.607-.1119.445.1491.893.5829 1.003.4338.109.8757-.163.9877-.607z" fill="#273649"/><path d="m122 151 27.15-.08c.486-.06.977.061 1.38.34.174.212.304.456.383.719.079.262.105.538.077.811.15 7.21.7 13.23.85 20.43-10.2 2.31-19.81.73-29.49 1.47-.232.054-.474.052-.705-.005-.231-.058-.445-.169-.625-.325-.145-.242-.221-.518-.22-.8-.655-7.011-.655-14.069 0-21.08" fill="#fff"/><path d="m122.5 151.65 24.39-.07c1.44 0 2.77-.43 3.58 1.33.159.875.182 1.768.07 2.65.06 1.86.15 3.72.25 5.58.21 4.07.43 8.14.53 12.21l.53-.84c-8 1.72-16.08 1.15-24.2 1.24-.93 0-1.29 0-2.22.07-1.46.07-2 .41-3-.69-1.25-1.41-.87-4.8-.93-6.63-.13-4.688.02-9.38.45-14.05.08-.92-1.6-.84-1.67 0-.463 4.966-.617 9.955-.46 14.94 0 1.41.13 2.81.22 4.22.06.75-.1 2.38.43 3 .77 1 2 .67 3.15.61 9.45-.52 18.88.61 28.22-1.4.166-.063.308-.178.405-.327.098-.149.145-.325.135-.503-.12-4.73-.41-9.47-.63-14.2-.1-2.06 0-4.17-.23-6.23-.11-1.19-.28-1.83-1.4-2.32-1.47-.63-4.17-.06-5.76-.06h-7.06c-5.07 0-10.73.35-15.8.36-.67 0-1.45 1.68-.7 1.68z" fill="#1a2e44"/><path d="m120.68 152.44c3.3 2.347 6.607 4.68 9.92 7 1.65 1.17 3.29 2.36 5 3.52.327.322.726.563 1.164.702s.903.172 1.356.098c2.28-.46 4.73-2.68 6.47-4.13 2.387-2.008 4.495-4.325 6.27-6.89.52-.75-.51-1.12-1-.48-1.537 2.204-3.33 4.218-5.34 6-1.86 1.64-5.78 5.23-8.22 3.54-5-3.46-9.92-7-14.88-10.55-.53-.38-1.36.7-.74 1.14z" fill="#1a2e44"/><path d="m139 172.33c-.22 1.31-.093 2.654.371 3.899.463 1.244 1.246 2.345 2.269 3.191 1.938 1.416 4.303 2.122 6.7 2 1.413.042 2.818-.221 4.12-.77 1.425-.655 2.555-1.817 3.17-3.26 1-2.45.21-5.28-1.08-7.31-.756-1.204-1.713-2.27-2.83-3.15-1.74-1.37-9.75-4.26-12.34 3.38" fill="#1a2e44"/><path d="m138.17 172.11c-.215 1.309-.085 2.652.378 3.896.463 1.243 1.243 2.344 2.262 3.194 1.943 1.413 4.31 2.119 6.71 2 1.414.043 2.82-.223 4.12-.78 1.424-.653 2.552-1.816 3.16-3.26 1-2.44.21-5.27-1.08-7.3-.756-1.202-1.709-2.267-2.82-3.15-1.75-1.37-9.76-4.26-12.35 3.38" fill="#22d172"/><path d="m137.92 172.11c-.293 1.981.18 3.999 1.323 5.643 1.142 1.644 2.869 2.791 4.827 3.207 3.91 1 9 .36 10.85-3.51s-.69-8.59-3.91-10.95c-1.692-1.12-3.68-1.709-5.71-1.69-1.575-.018-3.112.481-4.377 1.42-1.264.939-2.185 2.267-2.623 3.78-.08.23.4.3.48.08.89-2.52 2.71-4.59 5.64-4.89 1.905-.164 3.817.221 5.51 1.11 1.436.839 2.647 2.013 3.53 3.421.883 1.409 1.412 3.011 1.54 4.669.065 1.032-.137 2.062-.587 2.993-.45.93-1.133 1.728-1.983 2.317-1.93 1.129-4.191 1.556-6.4 1.21-1.134-.046-2.247-.315-3.277-.792-1.029-.477-1.955-1.153-2.723-1.988-.682-.827-1.181-1.789-1.462-2.824s-.338-2.117-.168-3.176c.05-.26-.4-.26-.48-.03z" fill="#1a2e44"/><path d="m138.14 172.55c-.063-.01-.12-.043-.159-.093-.039-.051-.057-.114-.051-.177.059-.851.227-1.691.5-2.5.026-.059.074-.106.133-.132s.126-.029.187-.008c.029.01.056.026.079.047.022.02.04.046.053.074.012.028.018.059.018.09-.001.031-.007.061-.02.089-.216.794-.369 1.603-.46 2.42-.015.061-.051.114-.103.15-.052.035-.115.049-.177.04z" fill="#1a2e44"/><path d="m142.76 173.45 1.4 1.77c.417.63.889 1.222 1.41 1.77.5.44.85.26 1.23-.28.74-1.09 1.34-2.32 2-3.44s1.62-2.4 2.52-3.56c.35-.47-.11-1.33-.57-.75-1.274 1.655-2.453 3.381-3.53 5.17-.22.526-.51 1.02-.86 1.47l-.2.37c-.247-.134-.452-.335-.59-.58-.79-.89-1.49-1.91-2.24-2.84-.33-.55-.9.45-.57.9z" fill="#1a2e44"/><path d="m168.36 163.29c-1.9 3.7-1.5 6.6 4.1 6s9.52-5.95 7.12-13.3" fill="#fff"/><path d="m169 163.62c-.537.92-.877 1.942-1 3-.051.43.061.863.315 1.213s.631.592 1.055.677c1.037.239 2.109.276 3.16.11 1.056-.132 2.076-.472 3-1 .938-.527 1.757-1.244 2.402-2.105.646-.861 1.105-1.847 1.348-2.895.275-1.053.367-2.146.27-3.23-.033-.548-.107-1.093-.22-1.63-.048-.273-.111-.544-.19-.81-.1-.26-.1-.55-.32-.77-.078-.076-.139-.167-.181-.268-.043-.1-.064-.208-.064-.317s.021-.217.064-.317c.042-.101.103-.192.181-.268.157-.155.369-.242.59-.242s.433.087.59.242c.096.097.167.216.207.347.04.13.048.269.023.403-.022.308.029.616.15.9.09.285.16.576.21.87.133.592.217 1.194.25 1.8.113 1.221.015 2.452-.29 3.64-.283 1.213-.815 2.354-1.562 3.35-.747.997-1.693 1.828-2.778 2.44-1.083.613-2.275 1.007-3.51 1.16-1.237.192-2.5.144-3.72-.14-.7-.197-1.322-.605-1.78-1.17-.433-.596-.645-1.325-.6-2.06.1-1.262.464-2.489 1.07-3.6.041-.09.101-.17.174-.236.074-.065.161-.115.254-.146.094-.031.193-.043.292-.034.098.009.193.039.28.086.09.042.17.101.236.174.066.074.116.16.148.253.032.094.044.193.037.291-.008.099-.035.194-.081.282z" fill="#1a2e44"/><path d="m165.56 155.49c-2.9 3.7-2.28 7.8 4.46 7.6s9.76-7.23 10.24-10.81c.185-2.337-.413-4.67-1.7-6.63" fill="#fff"/><path d="m166.13 155.93c-.829 1.012-1.313 2.263-1.38 3.57.039.566.267 1.103.648 1.524.381.42.892.701 1.452.796 1.301.363 2.662.455 4 .27 1.319-.187 2.574-.688 3.66-1.46 2.189-1.709 3.773-4.075 4.52-6.75.44-1.285.567-2.656.37-4-.229-1.353-.715-2.649-1.43-3.82-.104-.162-.139-.358-.097-.545.041-.188.155-.352.317-.455s.358-.138.545-.097c.188.041.351.155.455.317.898 1.32 1.523 2.806 1.84 4.37.288 1.588.185 3.221-.3 4.76-.798 3.084-2.599 5.814-5.12 7.76-1.322.964-2.867 1.576-4.49 1.78-.794.09-1.593.11-2.39.06-.816-.044-1.622-.192-2.4-.44-.86-.26-1.634-.747-2.24-1.41-.63-.714-.984-1.628-1-2.58.102-1.698.775-3.313 1.91-4.58.115-.152.286-.253.476-.279.189-.026.381.024.534.139.152.115.253.287.279.476s-.024.382-.139.534z" fill="#1a2e44"/><path d="m169.24 133.06c9.7 2.7 9.32 9.46 9.32 12.59s-4.7 9.94-11.8 9.84-6.9-4.81-3.5-6.41 5.77-3.27 6-7.86-.02-8.16-.02-8.16z" fill="#fff"/><path d="m168.78 132.49c.4 0 .86 0 1.34.13.24 0 .47.1.7.16.203.047.401.114.59.2.659.24 1.3.524 1.92.85 1.293.632 2.453 1.504 3.42 2.57.971 1.096 1.7 2.384 2.14 3.78.407 1.367.623 2.784.64 4.21v1c.002.392-.028.783-.09 1.17-.148.742-.393 1.462-.73 2.14-.628 1.294-1.455 2.482-2.45 3.52-1.955 2.159-4.578 3.6-7.45 4.09-1.432.23-2.894.21-4.32-.06-.751-.134-1.481-.37-2.17-.7-.771-.387-1.422-.979-1.88-1.71-.224-.407-.365-.854-.414-1.316-.05-.462-.008-.929.124-1.374.259-.816.741-1.543 1.39-2.1.591-.46 1.24-.84 1.93-1.13.571-.271 1.125-.575 1.66-.91 1.015-.607 1.853-1.469 2.43-2.5.522-1.095.808-2.287.84-3.5.07-1.32.13-2.64.15-4v-2-1-.92s0 .07 0-.18c.033-.16.113-.306.23-.42zm.91 1.13c.072-.049.133-.113.18-.187.046-.074.077-.157.09-.243 0-.23 0-.09 0-.11v.19.25.51 1l.05 2v4c-.003 1.466-.328 2.913-.95 4.24-.693 1.331-1.728 2.453-3 3.25-.593.363-1.204.697-1.83 1-.537.228-1.042.527-1.5.89-.366.256-.633.631-.755 1.061s-.092.889.085 1.299c.274.396.646.713 1.08.92.518.243 1.066.414 1.63.51.605.103 1.217.159 1.83.17.606.003 1.212-.044 1.81-.14 2.427-.449 4.644-1.669 6.32-3.48.86-.885 1.579-1.896 2.13-3 .258-.522.453-1.072.58-1.64.01-.127.01-.254 0-.38v-.19-1.23c.144-2.476-.628-4.918-2.17-6.86-.806-.939-1.775-1.725-2.86-2.32-.549-.314-1.117-.594-1.7-.84-.113-.055-.23-.101-.35-.14-.089-.04-.172-.091-.25-.15-.01 0-.18-.2-.42-.38z" fill="#1a2e44"/><path d="m289.36 87.6599c-2 3.2-.29 3.16.23 4.17l2.16 2.5c1.45 1.66 2.92 3.31 4.38 5 2.94 3.2901 5.9 6.5601 8.92 9.7701s-4.28 9.5-7 6-5.51-6.9-8.31-10.3c-1.42-1.69-2.82-3.4-4.25-5.0701l-2.14-2.52c-.92-.67-.62-2.38-4.08-.86 4.59-2.35 7.05-5.23 10.09-8.69z" fill="#fff" stroke="#1a2e44" stroke-linecap="round" stroke-linejoin="round" stroke-width="1.45"/><path d="m307.5 117.87c-12 .37-6.18-14.62-6.18-14.62l-5.78-.75c-3.69 10.08-11.68 7.33-11.68 7.33l5.78-15.8299c2.09-1.35 16.22-3.44 20.4-.61s20.53 21.2599 30.24 21.9999-7.28 26.61-12.17 22.75-11.43-11.3-11.43-11.3z" fill="#fff"/><path d="m307.24 118.55c-.333.03-.667.03-1 0-.44-.024-.877-.077-1.31-.16-.895-.152-1.753-.471-2.53-.94-.784-.486-1.456-1.131-1.973-1.895-.517-.763-.867-1.627-1.027-2.535-.305-1.703-.305-3.447 0-5.15.257-1.674.679-3.319 1.26-4.91l.58 1-5.77-.75.77-.47-.78 1.84c-.34.57-.63 1.18-1 1.73-.754 1.16-1.709 2.176-2.82 3-1.16.783-2.478 1.301-3.861 1.517-1.382.216-2.796.125-4.139-.267-.161-.036-.301-.134-.391-.272s-.122-.306-.089-.468v-.19c.659-2.733 1.539-5.409 2.63-8 .48-1.31 1-2.61 1.53-3.92s1.06-2.6 1.62-3.89l.05-.12c.05-.105.135-.1897.24-.24.545-.3067 1.126-.5451 1.73-.71.55-.18 1.1-.32 1.65-.45 1.11-.26 2.22-.46 3.33-.63 2.235-.337 4.49-.5141 6.75-.53 1.143-.0059 2.285.0575 3.42.19 1.197.1155 2.372.3982 3.49.84 1.069.5549 2.05 1.2661 2.91 2.11.84.75 1.65 1.51 2.47 2.27 3.22 3 6.42 6.09 9.77 8.94 3.267 2.9 6.854 5.42 10.69 7.51.94.478 1.921.873 2.93 1.18.487.15.985.257 1.49.32l.83.12c.344.035.68.119 1 .25l.49.21c.162.091.315.194.46.31.303.219.56.494.76.81.191.316.348.651.47 1 .07.33.16.66.2 1 .09 1.218-.045 2.442-.4 3.61-.637 2.163-1.534 4.242-2.67 6.19-1.116 1.972-2.394 3.849-3.82 5.61-1.409 1.834-3.096 3.437-5 4.75-.523.347-1.092.62-1.69.81-.704.236-1.466.236-2.17 0-.329-.151-.638-.343-.92-.57l-.66-.54c-.43-.36-.87-.73-1.28-1.1-3.287-3.027-6.399-6.239-9.32-9.62zm.53-1.35 9.45 9.08c2.902 3.304 5.99 6.439 9.25 9.39.4.37.82.71 1.23 1.07.351.303.725.577 1.12.82.42.051.847.018 1.254-.099s.787-.315 1.116-.581c1.736-1.224 3.277-2.705 4.57-4.39 1.357-1.695 2.575-3.498 3.64-5.39 1.083-1.851 1.933-3.83 2.53-5.89.292-.971.404-1.988.33-3 .004-.395-.113-.782-.337-1.108-.224-.325-.543-.574-.913-.712-.197-.083-.407-.133-.62-.15-.18 0-.52-.08-.82-.12-.593-.072-1.179-.196-1.75-.37-1.112-.334-2.193-.766-3.23-1.29-3.965-2.145-7.672-4.735-11.05-7.72-3.4-2.89-6.64-6-9.87-9-.8-.76-1.61-1.51-2.43-2.23-.72-.71-1.538-1.3128-2.43-1.79-1.982-.6708-4.068-.9824-6.16-.92-2.176.0004-4.35.1306-6.51.39-1.08.14-2.16.3-3.22.5-.53.1-1.06.21-1.57.35-.467.1136-.922.2709-1.36.47l.28-.36c-.4 1.35-.81 2.69-1.26 4s-.88 2.67-1.36 4c-.84 2.683-1.893 5.295-3.15 7.81l-.45-.93c1.122.313 2.299.381 3.45.2 1.157-.182 2.259-.615 3.23-1.27.956-.712 1.785-1.581 2.45-2.57.34-.49.6-1 .91-1.56l.72-1.7c.062-.146.169-.268.306-.347.138-.079.297-.112.454-.093l5.78.75c.095.011.187.041.27.088s.156.11.215.185c.058.075.101.162.126.254s.032.188.019.283c.005.05.005.1 0 .15-.539 1.489-.934 3.026-1.18 4.59-.265 1.532-.265 3.098 0 4.63.118.714.386 1.395.785 1.998.4.604.923 1.115 1.535 1.502.628.38 1.325.635 2.05.75.37.071.744.121 1.12.15.44.13 1 .14 1.48.18z" fill="#1a2e44"/><path d="m310 115.27c3.14 3.11 10.53 9.58 13.84 12.54.659.588 1.195 1.299 1.579 2.094s.607 1.658.657 2.539-.074 1.764-.365 2.597c-.291.834-.743 1.601-1.331 2.26-2.47 2.76-6.55 2-9.43-1.71-.37-.48-.85-.87-1.16-1.35-2.43-3.73-5-7.29-7.65-10.87s.73-11.24 3.86-8.1z" fill="#fff"/><path d="m310.65 114.59c3.92 4 8.08 7.8 12.34 11.46.54.48 1.05.89 1.62 1.42.57.544 1.049 1.175 1.42 1.87.749 1.409 1.043 3.017.84 4.6-.191 1.601-.892 3.098-2 4.27-.585.623-1.301 1.108-2.097 1.419s-1.651.442-2.503.381c-1.642-.153-3.196-.81-4.45-1.88-.612-.488-1.168-1.041-1.66-1.65l-.31-.36-.33-.35c-.13-.13-.27-.28-.41-.45-.145-.166-.275-.343-.39-.53-1.55-2.33-3.22-4.57-4.83-6.86-.81-1.15-1.65-2.28-2.45-3.44l-.3-.44c-.12-.19-.25-.38-.35-.58-.205-.391-.366-.804-.48-1.23-.209-.806-.287-1.64-.23-2.47.091-1.627.627-3.197 1.55-4.54.538-.801 1.348-1.379 2.28-1.63.543-.115 1.109-.059 1.62.16.423.203.803.484 1.12.83zm-1.33 1.35c-.166-.152-.355-.277-.56-.37-.146-.05-.304-.05-.45 0-.42.183-.77.494-1 .89-.642 1.026-.988 2.21-1 3.42-.018.579.06 1.156.23 1.71.078.252.185.493.32.72.06.113.131.22.21.32l.31.41c.86 1.12 1.67 2.26 2.51 3.4 1.67 2.27 3.25 4.64 4.78 7 .069.115.146.225.23.33l.3.34.37.42.38.45c.378.499.803.962 1.27 1.38.867.81 1.957 1.339 3.13 1.52.551.074 1.111.022 1.639-.151s1.011-.463 1.411-.849c.889-.852 1.48-1.967 1.685-3.181s.014-2.462-.545-3.559c-.276-.556-.641-1.062-1.08-1.5-.44-.45-1-.94-1.52-1.41-4.09-3.88-8.44-7.42-12.62-11.29z" fill="#1a2e44"/><path d="m301.32 103.25c-1.46-1.88-2.73 0-6.67 2.54-.726 1.436-1.811 2.659-3.15 3.55-4.06 2.47-5.34.61-5.32.83.144.935.52 1.819 1.092 2.572s1.323 1.352 2.184 1.742c.862.39 1.807.56 2.751.493.943-.068 1.855-.369 2.653-.877 5.84-3.61 7.96-8.92 6.46-10.85z" fill="#fff"/><path d="m301.29 123.66c.71 4.13 5.53 3.82 8-.37s1.72-9.48.74-10.27c-.211-.168-.453-.292-.713-.364-.259-.072-.531-.091-.798-.055-.267.035-.524.124-.756.262-.232.137-.434.32-.593.537" fill="#fff"/><path d="m302 123.54c.04.413.17.813.381 1.17.21.358.497.665.839.9.375.192.788.301 1.209.318.422.018.842-.057 1.231-.218.868-.387 1.648-.946 2.293-1.644s1.14-1.52 1.457-2.416c.753-1.828 1.048-3.812.86-5.78-.042-.476-.123-.947-.24-1.41-.12-.44-.32-.91-.48-1-.127-.102-.276-.174-.436-.211-.159-.036-.325-.036-.484.001-.346.11-.654.314-.89.59-.128.132-.301.211-.485.221-.183.01-.364-.05-.506-.167-.141-.118-.233-.284-.257-.467-.024-.182.022-.367.128-.517.454-.501 1.051-.85 1.71-1 .349-.065.708-.055 1.053.029.345.085.668.242.947.461.165.116.31.258.43.42.091.142.174.289.25.44.116.273.213.554.29.84.14.54.227 1.093.26 1.65.156 2.172-.186 4.35-1 6.37-.377 1.061-.966 2.035-1.731 2.862s-1.69 1.49-2.719 1.948c-.571.232-1.185.339-1.801.313s-1.219-.184-1.769-.463c-.534-.322-.99-.758-1.335-1.276-.346-.519-.573-1.108-.665-1.724-.032-.191.014-.387.126-.544.113-.158.283-.264.474-.296.094-.016.19-.013.283.009s.18.062.257.118c.078.055.143.126.193.207.05.082.083.172.097.266z" fill="#1a2e44"/><path d="m295.55 120.3c2.34 4 6.2 4.41 9.26 1.44s3.36-9.63 1.67-11c-1.17-.94-2.8 0-2.8 0" fill="#fff"/><path d="m296.17 119.93c.457.88 1.098 1.65 1.88 2.26.761.589 1.697.906 2.66.9.992-.081 1.949-.406 2.787-.945.837-.538 1.528-1.275 2.013-2.145 1.018-1.81 1.52-3.865 1.45-5.94-.024-.506-.094-1.008-.21-1.5-.08-.433-.262-.841-.53-1.19-.46-.54-1.47-.4-2.18 0-.164.076-.351.088-.524.035-.172-.054-.319-.17-.411-.326-.092-.155-.123-.34-.087-.517s.136-.335.282-.442h.06c.591-.302 1.246-.457 1.91-.45.362-.001.719.078 1.047.23.329.152.62.374.853.65.391.508.649 1.106.75 1.74.08.566.107 1.139.08 1.71.031 2.272-.542 4.512-1.66 6.49-.582 1.001-1.382 1.859-2.34 2.51-.968.695-2.111 1.103-3.3 1.18-1.215.045-2.412-.306-3.41-1-.977-.664-1.798-1.53-2.41-2.54-.101-.164-.133-.36-.09-.547.043-.188.158-.35.32-.453.08-.052.169-.087.263-.104s.19-.015.283.005c.093.021.181.059.259.114s.144.124.195.205c.016.004.03.013.041.025.011.013.017.028.019.045z" fill="#1a2e44"/><path d="m289.38 115.05c0 3.44 2.7 6.06 7.07 4.8s7.33-6 7.24-9.5-2.84-2-2.84-2" fill="#fff"/><path d="m290.1 115c-.046 1.01.215 2.011.75 2.87.567.84 1.438 1.428 2.43 1.64 1.042.21 2.121.145 3.13-.19 1.04-.308 2.011-.814 2.86-1.49 1.714-1.366 2.964-3.227 3.58-5.33.31-.991.355-2.046.13-3.06-.13-.47-.37-.71-.65-.77-.399-.044-.8.047-1.14.26-.165.087-.357.107-.537.057s-.333-.167-.429-.327-.127-.351-.087-.533.149-.342.303-.447h.09c.679-.324 1.448-.406 2.18-.23.398.134.747.385 1 .72.208.303.357.642.44 1 .224 1.228.124 2.493-.29 3.67-.734 2.268-2.126 4.266-4 5.74-.923.786-2.001 1.371-3.163 1.715-1.163.345-2.385.442-3.587.285-1.267-.215-2.402-.91-3.17-1.94-.755-1.036-1.19-2.27-1.25-3.55.002-.182.073-.357.198-.49s.295-.214.477-.228c.181-.014.362.041.505.154.144.112.24.274.27.454v.02z" fill="#1a2e44"/><path d="m287.18 110.19c.01.586.142 1.164.388 1.696.246.533.601 1.007 1.042 1.394.451.38.974.664 1.538.836.563.172 1.156.228 1.742.164.605-.056 1.196-.212 1.75-.46.28-.13.55-.29.83-.44l.83-.55c1.099-.754 2.105-1.633 3-2.62.89-.958 1.623-2.052 2.17-3.24.246-.567.411-1.167.49-1.78.082-.5-.013-1.013-.27-1.45-.37-.42-.48-.46-1-.34-.576.235-1.12.541-1.62.91-1.12.78-2.28 1.62-3.49 2.37-.163.101-.36.133-.547.09s-.35-.158-.453-.32c-.099-.163-.132-.358-.091-.544.041-.187.153-.35.311-.456 1.16-.74 2.24-1.56 3.4-2.38.614-.468 1.286-.855 2-1.15.494-.162 1.026-.162 1.52 0 .47.184.878.496 1.18.9.504.749.717 1.655.6 2.55-.095.775-.301 1.533-.61 2.25-.603 1.357-1.424 2.607-2.43 3.7-.978 1.083-2.075 2.052-3.27 2.89l-.91.6c-.33.18-.67.38-1 .54-.718.328-1.485.538-2.27.62-.806.082-1.621-.005-2.392-.254-.771-.25-1.482-.657-2.088-1.196-.614-.555-1.099-1.237-1.42-2-.3-.75-.439-1.553-.41-2.36.021-.178.106-.341.24-.46s.306-.185.485-.185.352.066.485.185c.134.119.219.282.24.46z" fill="#1a2e44"/><path d="m297.47 69.0901c-.003 5.6358-1.818 11.1212-5.178 15.6461-3.36 4.525-8.085 7.8495-13.479 9.4828-5.394 1.6332-11.17 1.4884-16.476-.4129-5.305-1.9014-9.858-5.4584-12.987-10.146-2.419-3.6275-3.896-7.8-4.3-12.1411-.403-4.3411.28-8.7144 1.988-12.7256 1.709-4.0112 4.389-7.5341 7.798-10.251 3.41-2.717 7.443-4.5426 11.734-5.3123 1.529-.2651 3.078-.3989 4.63-.4 4.649-.0076 9.216 1.2247 13.23 3.57 3.968 2.311 7.261 5.6226 9.549 9.6041s3.492 8.4937 3.491 13.0859z" stroke="#1a2e44" stroke-linecap="round" stroke-linejoin="round" stroke-width="1.45"/><path d="m286.32 90.57-5.76 4.3c-5.361 3.3935-11.769 4.7314-18.04 3.7663-6.271-.9652-11.98-4.168-16.073-9.0164-4.092-4.8485-6.291-11.0147-6.189-17.3586.101-6.3438 2.496-12.4364 6.742-17.1513 1.744-1.9263 3.767-3.5812 6-4.91-4.428 4.2693-7.216 9.9581-7.878 16.0735-.662 6.1153.845 12.2688 4.258 17.3865 1.945 2.92 4.455 5.4209 7.381 7.3551 2.927 1.9342 6.212 3.2625 9.661 3.9066s6.991.5908 10.419-.1566 6.671-2.1739 9.539-4.1951z" fill="#1a2e44"/><path d="m290.84 86.52c-1.349 1.5018-2.865 2.8439-4.52 4z" fill="#1a2e44"/><path d="m292.08 84.5301c2.15-3.9978 3.227-8.4844 3.126-13.0223s-1.375-8.9723-3.7-12.871c-2.324-3.8986-5.619-7.1284-9.564-9.3746-3.944-2.2462-8.403-3.4321-12.942-3.4421-4.821.137-9.582 1.1116-14.07 2.88l-1.62 1.3c-.12.0581-.234.1285-.34.21 3.735-3.6367 8.471-6.0743 13.6-7 1.529-.2651 3.078-.399 4.63-.4 4.649-.0077 9.216 1.2247 13.23 3.57 3.358 1.9568 6.239 4.6347 8.436 7.8404 2.197 3.2056 3.654 6.8591 4.268 10.6966.613 3.8375.367 7.7633-.722 11.494-1.088 3.7307-2.991 7.1732-5.572 10.079z" fill="#1a2e44"/><path d="m286.32 90.5701 4.52-4c-1.349 1.5018-2.865 2.8439-4.52 4z" fill="#1a2e44"/><path d="m296.72 69.42c.009 5.5614-1.773 10.9779-5.083 15.4475-3.309 4.4696-7.97 7.7547-13.292 9.369s-11.022 1.472-16.257-.4059c-5.235-1.8778-9.726-5.3914-12.808-10.0206-2.37-3.5852-3.814-7.702-4.203-11.982s.289-8.5897 1.973-12.5436 4.322-7.4286 7.678-10.1134c3.356-2.6847 7.325-4.4957 11.552-5.271 1.506-.2655 3.031-.3994 4.56-.4 4.571-.005 9.06 1.2139 13 3.53 3.919 2.2779 7.171 5.5448 9.432 9.474 2.26 3.9292 3.449 8.383 3.448 12.916z" fill="#fff" opacity=".46"/><path d="m176.38 245.72s-9.8 7.24-17.59 4.07c-.41-8.61-.23-17.77 4.12-27 4.15-.64 11.7-.93 18.06 3.65 11.26 8.1-4.59 19.28-4.59 19.28z" fill="#f1c37f"/><path d="m163.37 222.81c4.15-.64 11.24-.95 17.6 3.63 11.26 8.1-4.59 19.28-4.59 19.28s-9.61 7.11-17.59 4.07" stroke="#1a2e44" stroke-linecap="round" stroke-linejoin="round" stroke-width="1.75"/><path d="m219.78 253.72s.67 5 1.67 10c1.66 8.32 7.49 5.82 7.49 5.82-3.33-28.29-5.83-40.78-11.66-46.6s-28-2.77-44.63 1.39c0 0-7.6 3.91-.37 23.74 0 0 11.63-2.3 27.19-11.93" fill="#fff"/><path d="m219.78 253.72s.67 5 1.67 10c1.66 8.32 7.49 5.82 7.49 5.82-3.33-28.29-5.83-40.78-11.66-46.6s-28-2.77-44.63 1.39c0 0-7.6 3.91-.37 23.74 0 0 11.63-2.3 27.19-11.93" stroke="#1a2e44" stroke-linecap="round" stroke-linejoin="round" stroke-width="1.45"/><path d="m221.45 240.41c.001 3.62-.28 7.234-.84 10.81-.171.988-.563 1.924-1.146 2.739s-1.343 1.488-2.223 1.969c-.879.48-1.856.756-2.857.807-1.001.05-2-.126-2.924-.515" stroke="#1a2e44" stroke-linecap="round" stroke-linejoin="round" stroke-width="1.45"/><path d="m215.62 240.41c0 6.65-1.67 15.81-5.83 16.64-1.007.249-2.066.192-3.041-.164-.974-.357-1.82-.996-2.429-1.836" stroke="#1a2e44" stroke-linecap="round" stroke-linejoin="round" stroke-width="1.45"/><path d="m209.52 240.41s.27 7.49-3.06 12.48-8.32 2.5-9.15-.83 0-8.33 2.5-8.33" stroke="#1a2e44" stroke-linecap="round" stroke-linejoin="round" stroke-width="1.45"/><path d="m201.47 248.73s-2.5-4.16-1.66-14.15" stroke="#1a2e44" stroke-linecap="round" stroke-linejoin="round" stroke-width="1.45"/><path d="m44.9998 121c-.7957 1.612-1.4644 3.284-2 5-.57 1.71-1 3.47-1.43 5.23-.7901 3.53-1.3512 7.108-1.68 10.71l-.23 2.7-.13 2.71c-.11 1.81-.07 3.62-.08 5.43s.11 3.61.16 5.42l.4 5.41c.0155.14.0012.282-.0421.416-.0433.135-.1145.258-.2089.363-.0945.105-.21.189-.3391.246s-.2688.086-.4099.085c-.1403.015-.2823.001-.4166-.042s-.258-.115-.3628-.209-.1885-.21-.2455-.339-.086-.269-.0851-.41l-.25-5.5c0-1.84-.07-3.68 0-5.51s.08-3.68.24-5.51l.2-2.74.31-2.74c.4306-3.653 1.0987-7.274 2-10.84.47-1.77 1-3.54 1.6-5.27.5961-1.758 1.3283-3.466 2.19-5.11.0557-.106.1512-.186.2656-.221.1144-.036.2383-.025.3444.031s.1857.151.2213.266c.0356.114.0244.238-.0313.344z" fill="#1a2e44"/><path d="m253 275.7c45.72-9.92 54.82-19.3 64.14-53.83" stroke="#1a2e44" stroke-dasharray="8.16 8.16" stroke-linecap="round" stroke-linejoin="round" stroke-width="1.45"/><path d="m350.28 188.12c57.05-20.53 71.82-85.62 36.13-126.3-26.24-29.91-81-35.17-110.22-20.94" stroke="#1a2e44" stroke-dasharray="8.16 8.16" stroke-linecap="round" stroke-linejoin="round" stroke-width="1.45"/><path d="m97.5602 201.63c4.1798 32.83-24.56 65.66-2.43 97.29 22.1298 31.63 88.9998 26.8 106.8398 6.08" stroke="#1a2e44" stroke-dasharray="8.16 8.16" stroke-linecap="round" stroke-linejoin="round" stroke-width="1.45"/></svg>