<svg xmlns="http://www.w3.org/2000/svg" xmlns:xlink="http://www.w3.org/1999/xlink" version="1.1" x="0px" y="0px" viewBox="0 0 450 330" style="enable-background:new 0 0 450 330;" xml:space="preserve" width="478"  height="351" >
<style type="text/css">
	.st0{fill:#F9F9F7;}
	.st1{fill:#FEFEFE;}
	.st2{fill:#1A2E44;}
	.st3{fill:#FFFFFF;}
	.st4{fill:#99BFF5;}
	.st5{fill:#DCDFE1;}
	.st6{fill:#22D172;}
	.st7{fill-rule:evenodd;clip-rule:evenodd;fill:#FFE717;}
	.st8{fill-rule:evenodd;clip-rule:evenodd;fill:#273649;}
	.st9{fill:none;stroke:#1A2E44;stroke-width:1.458;stroke-linecap:round;stroke-linejoin:round;stroke-miterlimit:10;}
	.st10{fill:#F4F4EF;}
	.st11{fill:#FAFBFB;}
	.st12{fill:#F9C273;}
	.st13{fill:#1A2E44;stroke:#FFFFFF;stroke-width:0.633;stroke-linecap:square;}
	.st14{clip-path:url(#SVGID_14_);}
	.st15{clip-path:url(#SVGID_16_);}
	.st16{clip-path:url(#SVGID_18_);}
	.st17{fill:#E5E5E5;}
	.st18{clip-path:url(#SVGID_24_);}
	.st19{clip-path:url(#SVGID_26_);}
	.st20{clip-path:url(#SVGID_28_);}
	.st21{clip-path:url(#SVGID_30_);}
	.st22{clip-path:url(#SVGID_32_);}
	.st23{clip-path:url(#SVGID_34_);}
	.st24{fill:none;stroke:#1A2E44;stroke-width:6.4901;stroke-linecap:round;stroke-linejoin:round;stroke-miterlimit:10;}
	.st25{clip-path:url(#SVGID_36_);}
	.st26{clip-path:url(#SVGID_38_);}
	.st27{fill:#97B4EF;}
	.st28{fill-rule:evenodd;clip-rule:evenodd;fill:#273649;stroke:#273649;stroke-width:1.5432;stroke-linejoin:round;}
	.st29{fill:none;stroke:#1A2E44;stroke-width:5;stroke-linecap:round;stroke-linejoin:round;stroke-miterlimit:10;}
	.st30{clip-path:url(#SVGID_40_);}
	.st31{clip-path:url(#SVGID_42_);}
	.st32{fill:#FFFFFF;stroke:#1A2E44;stroke-width:1.9876;stroke-linecap:square;}
	.st33{fill:none;stroke:#1A2E44;stroke-width:1.9876;stroke-dasharray:5.9629,5.9629;}
	.st34{fill:none;stroke:#1A2E44;stroke-width:17;stroke-linecap:round;stroke-linejoin:round;stroke-miterlimit:10;}
	.st35{clip-path:url(#SVGID_44_);}
	.st36{clip-path:url(#SVGID_46_);}
	.st37{clip-path:url(#SVGID_48_);}
	.st38{fill:#FFFFFF;stroke:#1A2E44;stroke-width:2.8788;stroke-linecap:square;}
	.st39{fill:none;stroke:#1A2E44;stroke-width:2.8788;stroke-linecap:round;stroke-linejoin:round;stroke-dasharray:8.6363,8.6363;}
	.st40{clip-path:url(#SVGID_50_);}
	.st41{clip-path:url(#SVGID_52_);}
	.st42{fill:none;stroke:#1A2E44;stroke-width:2.9571;stroke-linecap:round;stroke-linejoin:round;stroke-dasharray:8.8713,8.8713;}
	.st43{fill:none;stroke:#1A2E44;stroke-width:9;stroke-linecap:round;stroke-linejoin:round;stroke-miterlimit:10;}
	.st44{fill-rule:evenodd;clip-rule:evenodd;fill:#273649;stroke:#273649;stroke-width:1.4755;stroke-linejoin:round;}
	.st45{fill:none;stroke:#1A2E44;stroke-width:4.7807;stroke-linecap:round;stroke-linejoin:round;stroke-miterlimit:10;}
	.st46{fill-rule:evenodd;clip-rule:evenodd;fill:#273649;stroke:#273649;stroke-width:0.8978;stroke-linejoin:round;}
	.st47{fill:none;stroke:#1A2E44;stroke-width:1.4922;stroke-linecap:round;stroke-linejoin:round;stroke-dasharray:4.4767,4.4767;}
	.st48{fill:#17354A;}
	.st49{fill:#FDFDFE;}
	.st50{fill:#434D60;}
	.st51{fill:#2B4155;}
	.st52{fill:#354357;}
	.st53{fill:#FCFDFD;}
	.st54{fill:#213349;}
	.st55{fill:#22D173;}
	.st56{fill:#22D072;}
	.st57{fill:none;stroke:#213349;stroke-width:5.6;stroke-dasharray:10,10;}
	.st58{fill:none;stroke:#1A2E44;stroke-width:2.6503;stroke-linecap:round;stroke-linejoin:round;stroke-dasharray:7.9509,7.9509;}
	.st59{fill:#1A2E44;stroke:#1A2E44;stroke-width:0.8403;}
	.st60{fill:#1A2E44;stroke:#1A2E44;stroke-width:0.668;}
	.st61{clip-path:url(#SVGID_54_);}
	.st62{clip-path:url(#SVGID_56_);}
	.st63{fill:#FFFFFF;stroke:#1A2E44;stroke-width:1.5353;stroke-linecap:square;}
	.st64{fill:none;stroke:#1A2E44;stroke-width:1.5771;stroke-linecap:round;stroke-linejoin:round;stroke-dasharray:4.7313,4.7313;}
	.st65{fill:#1A2E44;stroke:#1A2E44;stroke-width:0.4482;}
	.st66{fill:#1A2E44;stroke:#1A2E44;stroke-width:0.3563;}
	.st67{fill:none;stroke:#1A2E44;stroke-width:2.5896;stroke-linecap:round;stroke-linejoin:round;stroke-miterlimit:10;}
	.st68{clip-path:url(#SVGID_58_);}
	.st69{clip-path:url(#SVGID_60_);}
	.st70{fill:none;stroke:#1A2E44;stroke-width:2;stroke-linecap:round;stroke-linejoin:round;stroke-dasharray:7.9509,7.9509;}
	.st71{fill:none;stroke:#1A2E44;stroke-width:1.0159;stroke-linecap:round;stroke-linejoin:round;stroke-dasharray:3.0476,3.0476;}
	.st72{fill:none;stroke:#1A2E44;stroke-width:0.9926;stroke-linecap:round;stroke-linejoin:round;stroke-miterlimit:10;}
	.st73{fill:none;stroke:#1A2E44;stroke-width:0.9965;stroke-linecap:round;stroke-linejoin:round;stroke-dasharray:2.9895,2.9895;}
	.st74{fill:none;stroke:#1A2E44;stroke-width:0.752;stroke-linecap:round;stroke-linejoin:round;stroke-dasharray:2.9895,2.9895;}
	.st75{clip-path:url(#SVGID_62_);}
	.st76{clip-path:url(#SVGID_64_);}
	.st77{fill:#FFFFFF;stroke:#1A2E44;stroke-width:1.1079;stroke-linecap:square;}
	.st78{fill:none;stroke:#1A2E44;stroke-width:1.1079;stroke-linecap:round;stroke-linejoin:round;stroke-dasharray:3.3238,3.3238;}
	.st79{fill:#1A2E44;stroke:#1A2E44;stroke-width:0.3234;}
	.st80{fill:#1A2E44;stroke:#1A2E44;stroke-width:0.2571;}
	.st81{fill:none;stroke:#1A2E44;stroke-width:1.2018;stroke-linecap:round;stroke-linejoin:round;stroke-miterlimit:10;}
	.st82{clip-path:url(#SVGID_66_);}
	.st83{clip-path:url(#SVGID_68_);}
	.st84{fill:#FFFFFF;stroke:#1A2E44;stroke-width:1.3415;stroke-linecap:square;}
	.st85{fill:none;stroke:#1A2E44;stroke-width:1.3415;stroke-linecap:round;stroke-linejoin:round;stroke-dasharray:4.0245,4.0245;}
	.st86{fill:none;stroke:#1A2E44;stroke-width:1.23;stroke-linecap:round;stroke-linejoin:round;stroke-dasharray:3.69,3.69;}
	.st87{fill:none;stroke:#1A2E44;stroke-width:1.2066;stroke-linecap:round;stroke-linejoin:round;stroke-dasharray:3.6197,3.6197;}
	.st88{fill:none;stroke:#1A2E44;stroke-width:0.9105;stroke-linecap:round;stroke-linejoin:round;stroke-dasharray:3.6197,3.6197;}
	.st89{fill:#1A2E44;stroke:#1A2E44;stroke-width:0.3916;}
	.st90{fill:#1A2E44;stroke:#1A2E44;stroke-width:0.3113;}
	.st91{fill:none;stroke:#1A2E44;stroke-width:1.4631;stroke-linecap:round;stroke-linejoin:round;stroke-miterlimit:10;}
	.st92{clip-path:url(#SVGID_70_);}
	.st93{clip-path:url(#SVGID_72_);}
	.st94{fill:#FFFFFF;stroke:#1A2E44;stroke-width:1.6332;stroke-linecap:square;}
	.st95{fill:none;stroke:#1A2E44;stroke-width:1.6332;stroke-linecap:round;stroke-linejoin:round;stroke-dasharray:4.8995,4.8995;}
	.st96{fill:none;stroke:#1A2E44;stroke-width:1.4974;stroke-linecap:round;stroke-linejoin:round;stroke-dasharray:4.4922,4.4922;}
	.st97{fill:none;stroke:#1A2E44;stroke-width:1.4689;stroke-linecap:round;stroke-linejoin:round;stroke-dasharray:4.4066,4.4066;}
	.st98{fill:none;stroke:#1A2E44;stroke-width:1.1085;stroke-linecap:round;stroke-linejoin:round;stroke-dasharray:4.4066,4.4066;}
	.st99{fill:#1A2E44;stroke:#1A2E44;stroke-width:0.4767;}
	.st100{fill:#1A2E44;stroke:#1A2E44;stroke-width:0.379;}
	.st101{fill:none;stroke:#1A2E44;stroke-width:1.4269;stroke-linecap:round;stroke-linejoin:round;stroke-dasharray:4.2807,4.2807;}
	.st102{fill:none;stroke:#1A2E44;stroke-width:1.0768;stroke-linecap:round;stroke-linejoin:round;stroke-dasharray:4.2807,4.2807;}
	.st103{opacity:0.37;}
	.st104{fill:#FEFEFE;stroke:#1A2E44;stroke-width:2.8729;stroke-linecap:round;stroke-linejoin:round;stroke-miterlimit:10;}
	.st105{fill:#FEFEFE;stroke:#1A2E44;stroke-width:1.7429;stroke-linecap:round;stroke-linejoin:round;stroke-miterlimit:10;}
	.st106{fill:#FEFEFE;stroke:#1A2E44;stroke-width:1.4917;stroke-linecap:round;stroke-linejoin:round;stroke-miterlimit:10;}
	.st107{fill:#213349;stroke:#1A2E44;stroke-width:0.4564;stroke-miterlimit:10;}
	.st108{fill:none;stroke:#213349;stroke-width:3;stroke-linecap:round;stroke-miterlimit:10;}
	.st109{fill:#F2F4F4;}
	.st110{fill:none;stroke:#FFFFFF;stroke-width:1.0176;stroke-linecap:round;stroke-linejoin:round;stroke-miterlimit:10;}
	.st111{fill:none;stroke:#FFFFFF;stroke-linecap:round;stroke-linejoin:round;stroke-miterlimit:10;}
	.st112{fill:none;stroke:#99BFF5;stroke-linecap:round;stroke-linejoin:round;stroke-miterlimit:10;}
	.st113{fill:#172D42;}
	.st114{fill:#24374C;}
	.st115{fill:#182D42;}
	.st116{fill:#182E42;}
</style>
<g id="Слой_2">
</g>
<g id="Слой_1">
	<path class="st6" d="M201.8,61.3c58.6,0,131.3,50.1,131.3,106.1c0,56-56.1,96.6-114.7,96.6c-58.6,0-106.1-45.4-106.1-101.3   C112.3,106.7,143.3,61.3,201.8,61.3z"/>
	<path class="st2" d="M329.8,214.1c0,1.8-43.4,3.2-97,3.2c-25.5,0-58.9,0.5-76.2,0c-19-0.6-20.8-2.3-20.8-3.2   c0-1.8,83-2.9,136.6-2.9C325.9,211.1,329.8,212.3,329.8,214.1z"/>
	<g>
		<path class="st3" d="M131.2,121.1c0.2-13.4-6.1-15.9,13.7-18.7c19.8-2.8,171.5,2.2,171.5,2.2s-3.1,78.6-1.3,99.5    c0.6,6.9-6.5,11.3-26.4,8.7c-17.5-2.3-66.2,5-99.6,2.6s-42.7,1.7-49-4.1c-6.3-5.7-7.9-16.1-7.2-30.7    C133.6,166.1,131.2,124.6,131.2,121.1z"/>
		<path class="st10" d="M132.9,96.1c2.6-5,11.3-5.1,25.8-5.5s119.6-2.3,148.1,1.2c0,0,7.5,1.9,8.4,6.3c0.9,4.5,0.9,8.8,0.9,8.8    s-29.2-2-49.5-2.6s-49,0.4-61.5,1.1c-12.6,0.7-71.5,1.4-73.2,1.5C130.1,107,132.9,96.1,132.9,96.1z"/>
		<path class="st2" d="M315.3,181.6c0.3-10.4,0.4-37.1,0.8-47.4c0.4-9.9,1.6-17.7,1-27.5c-0.3-5.8-0.6-13.2-7.9-15.3    c-3.6-1-7.5-1.1-11.3-1.4c-5.6-0.4-20.7-0.8-26.4-1c-11.5-0.6-22.9-0.9-34.4-1.1c-22.4-0.4-54.2,0.1-76.7,0.7    c-6,0.1-14.7-1.1-20.5,0.6c-5,1.4-8.5,4.6-10.1,9c-0.8,2.2-1.3,63.1,0.6,83.4c0.4,4.4,0.5,7.8,0.4,12.3c-0.1,4-0.1,8.4,1.5,12.2    c2.3,5.3,7.4,8.3,13.5,9.5c6.4,1.3,15.3,2.1,21.8,1.6c8.7-0.6,113.6-2.8,118.5-2.4c4,0.3,17.5,0.9,21.5,0.4    c6.8-1,8.3-8.4,8.4-13.7c0-3-0.3-6-0.6-9.1C315.1,188.8,315.3,185.2,315.3,181.6z M314,202.3c-0.1,2.4-0.3,5.5-2.1,7.5    c-2.2,2.4-6.3,2.3-9.4,2.1c-4.1-0.2-43,0.1-53.7,0.8c-10.9,0.8-64.2,0.8-74.5,1.2c-6.1,0.3-10.9-0.7-16.9-0.8    c-5.8-0.1-12.6-0.8-17.1-4.5c-6.3-5-5.4-13.4-5.2-20.1c0.1-4.2-0.4-5.5-0.7-9.8c-0.4-4.9-0.8-26.1-1-31    c-0.6-9.8-0.6-40.1-0.6-40.5c0.1-4.8-0.7-11.2,4.1-14.1c4.3-2.6,11.8-2.2,16.9-2.3c20.1-0.7,49.8-1,70.1-0.9    c21.8,0.1,53.1,0.8,74.9,2.4c3.4,0.3,7.1,0.4,10.2,1.5c2.5,0.9,4.1,2.7,4.9,5.1c1.4,4,1.3,8.6,1.3,12.7c0,4.7-0.3,9.5-0.6,14.2    c-0.7,9.7-0.8,17.3-1,27C313.5,157.7,313.2,191.3,314,202.3z"/>
		<path class="st2" d="M316.4,105.1c-4.6,0.6-9.9,0.1-14.6-0.3c-5.3-0.4-20-0.4-25.3-0.4c-11.1,0-22.2-0.1-33.3-0.1    c-11,0-22,0-33,0.4c-10.9,0.4-31.4,0.6-42.3,0.9c-6.1,0.1-12.3,0.3-18.5,0.4c-2.9,0-5.7,0-8.7-0.1c-2.5-0.1-5.2-0.2-7.7,0.4    c-1,0.2-1.6,1.9-0.3,1.6c2.4-0.5,4.8-0.4,7.3-0.4c2.5,0.1,5.2,0.1,7.7,0.1c5.5,0,10.8-0.1,16.3-0.3c11-0.3,31.4-0.5,42.5-0.9    c22-0.7,44.2-0.5,66.2-0.4c6,0,21.6-0.2,27.6,0.3c5.1,0.4,10.8,1,16,0.4C317.2,106.6,317.8,104.9,316.4,105.1z"/>
		<path class="st2" d="M145.5,95.6c0-0.1-0.1-0.1-0.2-0.2c-0.1-0.1-0.3-0.3-0.4-0.3c-0.3-0.2-1.1-0.3-1.3-0.3    c-0.7-0.1-1.3,0.2-1.8,0.5c-0.7,0.4-1.1,1.2-1.3,1.8c-0.1,0.3-0.2,0.6-0.3,0.9c0,0.3-0.1,0.5,0,0.8c0,0.3,0.1,0.4,0.2,0.7    c0.1,0.2,0.2,0.4,0.3,0.5c0.3,0.3,0.7,0.5,1.1,0.6c0.3,0.1,0.8,0.1,1.1,0C145.3,100.3,146.8,97.5,145.5,95.6z"/>
		<path class="st2" d="M155.2,95.5c-0.1-0.1-0.1-0.1-0.2-0.2c-0.1-0.1-0.3-0.2-0.4-0.3c-0.3-0.1-1.2-0.1-1.3-0.1    c-0.7,0-1.3,0.3-1.8,0.8c-0.6,0.5-1,1.3-1.1,2c-0.1,0.3-0.1,0.6-0.1,0.9c0,0.3,0,0.5,0.1,0.8c0.1,0.3,0.2,0.4,0.3,0.7    c0.1,0.2,0.3,0.3,0.4,0.5c0.3,0.3,0.7,0.4,1.2,0.4c0.3,0,0.8-0.1,1-0.2C155.6,100.1,156.8,97.3,155.2,95.5z"/>
		<path class="st2" d="M165,95.4c-0.1-0.1-0.1-0.1-0.2-0.1c-0.2-0.1-0.3-0.2-0.4-0.2c-0.3-0.1-1.2,0.1-1.3,0.1    c-0.7,0.1-1.2,0.5-1.7,1c-0.5,0.6-0.8,1.4-0.8,2.2c0,0.3,0,0.7,0,0.9s0.1,0.5,0.2,0.8c0.1,0.2,0.2,0.4,0.3,0.6    c0.2,0.2,0.3,0.3,0.5,0.4c0.4,0.3,0.8,0.3,1.3,0.3c0.3,0,0.7-0.2,1-0.3C166,99.9,166.7,96.9,165,95.4z"/>
	</g>
	<g>
		<path class="st2" d="M211.9,166.4l-4,2.4c-0.6,0.3-0.3,1,0,1.1l15.6,8.6c1,0.5,2.1,0.5,3,0l15.9-8.8c0.5-0.3,0.4-0.9,0-1l-4.3-2.3    c-0.4-0.2-1.2-0.2-1.4,0l-10.2,5.6c-1,0.5-2.1,0.5-3,0l-10.2-5.7C212.9,166.2,212.3,166.2,211.9,166.4z"/>
		<path class="st2" d="M223.5,132.3c1-0.5,2.1-0.5,3,0c0,0,11.9,6.6,12.6,7c0.5,0.2,0.6,1,0,1.3c-1.2,0.7-3.1,1.7-4,2.2    c-0.4,0.2-0.8,0.2-1.2,0l-7.4-4.1c-1-0.5-2.1-0.5-3,0l-7.4,4.1c-0.4,0.2-0.8,0.2-1.2,0c-1-0.6-2.9-1.6-4.1-2.3    c-0.5-0.2-0.6-0.8,0-1.1L223.5,132.3z"/>
		<path class="st6" d="M244.7,142.8c1,0.5,1.5,1.4,1.5,2.5v20.2c0,1-0.6,1.2-1.3,0.9l-4.7-2.5v-13.6l-13.7,7.6c-1,0.5-2.1,0.5-3,0    l-13.7-7.6v13.6l-4.2,2.5c-0.5,0.3-1.7,0.4-1.7-0.9v-20.2c0-1,0.6-2,1.5-2.5c1.5-0.8,3,0,3,0l16.7,9.3l16.7-9.3    C241.7,142.8,243.1,141.9,244.7,142.8z"/>
	</g>
	<g class="st103">
		<defs>
			<rect id="SVGID_73_" x="282.2" y="510.9" class="st103" width="324" height="229.5"/>
		</defs>
		<clipPath id="SVGID_2_">
			<use xlink:href="#SVGID_73_" style="overflow:visible;"/>
		</clipPath>
		<g style="clip-path:url(#SVGID_2_);">
			
				<image style="overflow:visible;" width="2048" height="2048" xlink:href="../../../../Downloads/Иллюстрация_без_названия 21.jpg" transform="matrix(0.2727 0 0 0.2727 259.7211 209.0279)">
			</image>
		</g>
	</g>
	<path class="st73" d="M278.3,89.2c40.2-7.6,70.3-4,77.1,11.8c10.7,25-41.2,71.1-115.9,103.1S95.7,241.6,85,216.5   c-6.8-15.9,11.8-40.5,45.6-64.4"/>
	<g>
		<path class="st3" d="M119.1,219.6c-0.1-1.8,12.7-5.7,23.3-7.2c10.5-1.6,18.3-2.8,18.9-1.8c0.6,1,0.7,19.3-15.2,21.2    S119.4,223.5,119.1,219.6z"/>
		<path class="st2" d="M168.5,236.1c-0.2-2.8-0.6-5.7-1.1-8.5c-0.1-0.6-0.2-1.2-0.3-1.7c-0.1-0.3-0.1-0.5-0.2-0.9l0,0    c-0.1-0.3-0.1-0.5-0.2-0.8c-0.1-0.5-0.2-0.9-0.3-1.4c0-0.1,0-0.2-0.1-0.3c-0.1-0.6-0.3-1.3-0.4-2c-0.2-0.7-0.3-1.5-0.5-2.2l0,0    c-0.4-2-0.9-3.9-1.5-5.9c-0.9-3.3-1.3-3.6-4.2-3.3c-7.2,0.8-14.4,1.4-21.5,2.5c-0.5,0.1-1.1,0.2-1.7,0.3l0,0    c-0.3,0-0.5,0.1-0.8,0.1l0,0l0,0c-0.3,0.1-0.6,0.1-0.9,0.2c0,0,0,0-0.1,0c-0.2,0-0.3,0.1-0.4,0.1c-0.5,0.1-1.1,0.2-1.6,0.3    c-0.3,0.1-0.6,0.1-0.9,0.2c-0.3,0.1-0.7,0.2-1,0.3c-0.3,0.1-0.7,0.2-1,0.3c-0.1,0-0.1,0-0.2,0.1c-0.1,0-0.2,0.1-0.2,0.1    c-0.1,0-0.2,0-0.3,0.1c-0.1,0-0.2,0.1-0.3,0.1c-0.2,0.1-0.3,0.1-0.5,0.2c-0.2,0.1-0.4,0.1-0.6,0.1c0,0,0,0,0,0    c-0.2,0.1-0.3,0.1-0.4,0.1s-0.3,0.1-0.4,0.1c0,0-0.1,0-0.1,0c-0.3,0.1-0.7,0.2-1.1,0.4c-0.1,0.1-0.3,0.1-0.4,0.1    c-0.1,0.1-0.3,0.1-0.4,0.1l0,0c-0.1,0.1-0.3,0.1-0.4,0.1c-0.3,0.1-0.6,0.2-0.8,0.3c-0.1,0.1-0.3,0.1-0.4,0.1    c-0.1,0-0.2,0.1-0.3,0.1c-0.1,0-0.1,0-0.2,0.1c-0.2,0.1-0.5,0.2-0.8,0.3c-0.4,0.2-0.7,0.3-1,0.4c-0.4,0.2-0.8,0.3-1.1,0.5    c-0.7,0.4-1.3,0.7-1.6,1c-0.1,0.1-0.1,0.1-0.2,0.2c-0.1,0.1-0.1,0.1-0.2,0.2c0,0-0.1,0.1-0.1,0.2l0,0c0,0,0,0.1-0.1,0.2    c0,0,0,0.1-0.1,0.2c0,0,0,0.1,0,0.2c0,0,0,0.1,0,0.2c0,0,0,0.2,0,0.2c0,0.4,0,0.8,0.1,1.4c0,0.2,0.1,0.3,0.1,0.5    c0.1,0.8,0.2,1.5,0.3,2.4c0.2,1.5,0.4,3.1,0.7,4.7c0.1,0.8,0.3,1.6,0.4,2.3c0.1,0.8,0.3,1.6,0.4,2.3c0.3,1.7,0.6,3.5,1,5.2    c0.1,0.6,0.2,1.1,0.4,1.7c0.1,0.5,0.2,0.9,0.4,1.4c0,0.1,0,0.2,0.1,0.3c0,0.2,0.1,0.5,0.2,0.7c0.1,0.3,0.2,0.7,0.2,1l0,0    c0.2,0.7,0.4,1.4,0.5,2.2c0.1,0.6,0.3,1.2,0.5,1.8c0.5,2,0.9,2.2,2.7,2c0.3,0,0.5-0.1,0.8-0.1c0.9-0.3,1.8-0.5,2.6-0.6l0,0    c0.9-0.2,1.9-0.4,2.9-0.5c0.7-0.1,1.3-0.2,2-0.3c5.5-0.9,10.9-2,16.3-3c0.8-0.1,1.6-0.3,2.4-0.4c1.2-0.2,2.4-0.4,3.6-0.7    c1-0.2,2-0.3,3.1-0.5c2.2-0.3,4.4-0.9,6.5-1.7C167.8,240.5,168.7,238.9,168.5,236.1z M120.7,219.2c1.1-0.7,2.2-1.3,3.4-1.7    c4.1-1.5,8.2-2.6,12.4-3.4c0.3,0,0.5-0.1,0.7-0.1l0,0c2.2-0.4,4.4-0.8,6.7-1.1c5.2-0.7,10.3-1.4,15.5-2c0.2,0,0.4,0,0.6,0.3    c-1.2,2.3-2.4,4.7-3.7,6.9l0,0c-0.4,0.8-0.9,1.5-1.4,2.2c-1.5,2.1-3.1,4.1-5.2,5.7c-0.3,0.2-0.6,0.5-0.9,0.7s-0.7,0.4-1,0.6    c-2,1-4.1,1.5-6.4,1.2c-6.2-0.8-12.3-2.5-17.9-5.8c-1-0.6-1.9-1.2-2.7-2C120.2,220.1,120.1,219.7,120.7,219.2z"/>
		<path class="st3" d="M161.2,212.8c1.5,8.4,3.5,17,4.8,25.5l0,0c-13.2,2.7-26.9,5.4-40,9.1c2.3-6,5.3-10.9,9-15.8    c-1.8,0.6-3,2.2-5.9,6.9c-1.6,2.6-2.8,5.3-4.4,8.5c-1.8-8.5-3.8-16.4-5.1-24.4c0.6-0.3,0.9,0.3,1.3,0.5c6.1,4.5,12.8,6.6,19.8,7.4    c3.9,0.4,7.1-1.3,10.1-3.8c2.4-2,4.3-4.5,6-7.3c1.3-2.3,2.6-4.6,3.9-7C160.8,212.6,161.1,212.7,161.2,212.8z"/>
		<path class="st2" d="M165.3,239.2c-1-2.7-8.8-10.1-12.1-12.4c0,0,1.1-0.3,4.1,2.2s9.4,8.5,9.4,8.5S166,241.1,165.3,239.2z"/>
	</g>
	<g>
		<path class="st2" d="M334.7,153.1c1.4,1.5,4.8,5.6,5.4,5.4c0.6-0.2,2.3-10.2,2.9-12c0.6-2.2,2.6-8,4.3-11.3    c1.2-2.3,2.7-8.4,0.8-5.6C345.7,132.7,334.7,153.1,334.7,153.1z"/>
		<path class="st106" d="M323.1,144.3c0,0-10.4-4.3-15.3-9.1c0,0,28.1-0.8,41.9-10c0,0,3.6-2.4-1.5,1.7S323.1,144.3,323.1,144.3z"/>
		<path class="st106" d="M317.9,165.5c3.9-9.6,5.2-21.2,5.2-21.2s26.4-19,28.1-19.7C352.8,123.9,335,163.9,317.9,165.5z"/>
		<path class="st2" d="M349.9,127c-0.6,0.7-0.9,1.6-1.2,2.6c-0.3,1-0.7,1.9-1,2.9c-0.9,2.1-1.8,4.2-2.7,6.3c-1.7,3.8-2.8,8-3.8,12.3    c-0.5,2.3-0.9,4.6-1.5,6.9c-2-1.8-2.7-3.2-4.9-4.8c-0.6-0.5-0.6,0.8-0.1,1.1c2.3,1.7,3.1,3.2,5.2,5.1c0.3,0.2,0.4,0,0.4-0.2    c1.2-5.4,2.1-11,3.9-16.1c0.9-2.6,2.2-5.1,3.2-7.6c0.5-1.3,0.9-2.7,1.6-3.9c0.5-1,2.3-4.8,2.6-6.4    C351.8,124.7,350.2,126.5,349.9,127z"/>
	</g>
</g>
</svg>