<svg xmlns="http://www.w3.org/2000/svg" xmlns:xlink="http://www.w3.org/1999/xlink" version="1.1" x="0px" y="0px" viewBox="0 0 450 330" style="enable-background:new 0 0 450 330;" xml:space="preserve" width="478"  height="351" >
<style type="text/css">
	.st0{fill:#F9F9F7;}
	.st1{fill:#FEFEFE;}
	.st2{fill:#1A2E44;}
	.st3{fill:#FFFFFF;}
	.st4{fill:#99BFF5;}
	.st5{fill:#DCDFE1;}
	.st6{fill:#22D172;}
	.st7{fill-rule:evenodd;clip-rule:evenodd;fill:#FFE717;}
	.st8{fill-rule:evenodd;clip-rule:evenodd;fill:#273649;}
	.st9{fill:none;stroke:#1A2E44;stroke-width:1.458;stroke-linecap:round;stroke-linejoin:round;stroke-miterlimit:10;}
	.st10{fill:#F4F4EF;}
	.st11{fill:#FAFBFB;}
	.st12{fill:#F9C273;}
	.st13{fill:#1A2E44;stroke:#FFFFFF;stroke-width:0.633;stroke-linecap:square;}
	.st14{clip-path:url(#SVGID_14_);}
	.st15{clip-path:url(#SVGID_16_);}
	.st16{clip-path:url(#SVGID_18_);}
	.st17{fill:#E5E5E5;}
	.st18{clip-path:url(#SVGID_24_);}
	.st19{clip-path:url(#SVGID_26_);}
	.st20{clip-path:url(#SVGID_28_);}
	.st21{clip-path:url(#SVGID_30_);}
	.st22{clip-path:url(#SVGID_32_);}
	.st23{clip-path:url(#SVGID_34_);}
	.st24{fill:none;stroke:#1A2E44;stroke-width:6.4901;stroke-linecap:round;stroke-linejoin:round;stroke-miterlimit:10;}
	.st25{clip-path:url(#SVGID_36_);}
	.st26{clip-path:url(#SVGID_38_);}
	.st27{fill:#97B4EF;}
	.st28{fill-rule:evenodd;clip-rule:evenodd;fill:#273649;stroke:#273649;stroke-width:1.5432;stroke-linejoin:round;}
	.st29{fill:none;stroke:#1A2E44;stroke-width:5;stroke-linecap:round;stroke-linejoin:round;stroke-miterlimit:10;}
	.st30{clip-path:url(#SVGID_40_);}
	.st31{clip-path:url(#SVGID_42_);}
	.st32{fill:#FFFFFF;stroke:#1A2E44;stroke-width:1.9876;stroke-linecap:square;}
	.st33{fill:none;stroke:#1A2E44;stroke-width:1.9876;stroke-dasharray:5.9629,5.9629;}
	.st34{fill:none;stroke:#1A2E44;stroke-width:17;stroke-linecap:round;stroke-linejoin:round;stroke-miterlimit:10;}
	.st35{clip-path:url(#SVGID_44_);}
	.st36{clip-path:url(#SVGID_46_);}
	.st37{clip-path:url(#SVGID_48_);}
	.st38{fill:#FFFFFF;stroke:#1A2E44;stroke-width:2.8788;stroke-linecap:square;}
	.st39{fill:none;stroke:#1A2E44;stroke-width:2.8788;stroke-linecap:round;stroke-linejoin:round;stroke-dasharray:8.6363,8.6363;}
	.st40{clip-path:url(#SVGID_50_);}
	.st41{clip-path:url(#SVGID_52_);}
	.st42{fill:none;stroke:#1A2E44;stroke-width:2.9571;stroke-linecap:round;stroke-linejoin:round;stroke-dasharray:8.8713,8.8713;}
	.st43{fill:none;stroke:#1A2E44;stroke-width:9;stroke-linecap:round;stroke-linejoin:round;stroke-miterlimit:10;}
	.st44{fill-rule:evenodd;clip-rule:evenodd;fill:#273649;stroke:#273649;stroke-width:1.4755;stroke-linejoin:round;}
	.st45{fill:none;stroke:#1A2E44;stroke-width:4.7807;stroke-linecap:round;stroke-linejoin:round;stroke-miterlimit:10;}
	.st46{fill-rule:evenodd;clip-rule:evenodd;fill:#273649;stroke:#273649;stroke-width:0.8978;stroke-linejoin:round;}
	.st47{fill:none;stroke:#1A2E44;stroke-width:1.4922;stroke-linecap:round;stroke-linejoin:round;stroke-dasharray:4.4767,4.4767;}
	.st48{fill:#17354A;}
	.st49{fill:#FDFDFE;}
	.st50{fill:#434D60;}
	.st51{fill:#2B4155;}
	.st52{fill:#354357;}
	.st53{fill:#FCFDFD;}
	.st54{fill:#213349;}
	.st55{fill:#22D173;}
	.st56{fill:#22D072;}
	.st57{fill:none;stroke:#213349;stroke-width:5.6;stroke-dasharray:10,10;}
	.st58{fill:none;stroke:#1A2E44;stroke-width:2.6503;stroke-linecap:round;stroke-linejoin:round;stroke-dasharray:7.9509,7.9509;}
	.st59{fill:#1A2E44;stroke:#1A2E44;stroke-width:0.8403;}
	.st60{fill:#1A2E44;stroke:#1A2E44;stroke-width:0.668;}
	.st61{clip-path:url(#SVGID_54_);}
	.st62{clip-path:url(#SVGID_56_);}
	.st63{fill:#FFFFFF;stroke:#1A2E44;stroke-width:1.5353;stroke-linecap:square;}
	.st64{fill:none;stroke:#1A2E44;stroke-width:1.5771;stroke-linecap:round;stroke-linejoin:round;stroke-dasharray:4.7313,4.7313;}
	.st65{fill:#1A2E44;stroke:#1A2E44;stroke-width:0.4482;}
	.st66{fill:#1A2E44;stroke:#1A2E44;stroke-width:0.3563;}
	.st67{fill:none;stroke:#1A2E44;stroke-width:2.5896;stroke-linecap:round;stroke-linejoin:round;stroke-miterlimit:10;}
	.st68{clip-path:url(#SVGID_58_);}
	.st69{clip-path:url(#SVGID_60_);}
	.st70{fill:none;stroke:#1A2E44;stroke-width:2;stroke-linecap:round;stroke-linejoin:round;stroke-dasharray:7.9509,7.9509;}
	.st71{fill:none;stroke:#1A2E44;stroke-width:1.0159;stroke-linecap:round;stroke-linejoin:round;stroke-dasharray:3.0476,3.0476;}
	.st72{fill:none;stroke:#1A2E44;stroke-width:0.9926;stroke-linecap:round;stroke-linejoin:round;stroke-miterlimit:10;}
	.st73{fill:none;stroke:#1A2E44;stroke-width:0.9965;stroke-linecap:round;stroke-linejoin:round;stroke-dasharray:2.9895,2.9895;}
	.st74{fill:none;stroke:#1A2E44;stroke-width:0.752;stroke-linecap:round;stroke-linejoin:round;stroke-dasharray:2.9895,2.9895;}
	.st75{clip-path:url(#SVGID_62_);}
	.st76{clip-path:url(#SVGID_64_);}
	.st77{fill:#FFFFFF;stroke:#1A2E44;stroke-width:1.1079;stroke-linecap:square;}
	.st78{fill:none;stroke:#1A2E44;stroke-width:1.1079;stroke-linecap:round;stroke-linejoin:round;stroke-dasharray:3.3238,3.3238;}
	.st79{fill:#1A2E44;stroke:#1A2E44;stroke-width:0.3234;}
	.st80{fill:#1A2E44;stroke:#1A2E44;stroke-width:0.2571;}
	.st81{fill:none;stroke:#1A2E44;stroke-width:1.2018;stroke-linecap:round;stroke-linejoin:round;stroke-miterlimit:10;}
	.st82{clip-path:url(#SVGID_66_);}
	.st83{clip-path:url(#SVGID_68_);}
	.st84{fill:#FFFFFF;stroke:#1A2E44;stroke-width:1.3415;stroke-linecap:square;}
	.st85{fill:none;stroke:#1A2E44;stroke-width:1.3415;stroke-linecap:round;stroke-linejoin:round;stroke-dasharray:4.0245,4.0245;}
	.st86{fill:none;stroke:#1A2E44;stroke-width:1.23;stroke-linecap:round;stroke-linejoin:round;stroke-dasharray:3.69,3.69;}
	.st87{fill:none;stroke:#1A2E44;stroke-width:1.2066;stroke-linecap:round;stroke-linejoin:round;stroke-dasharray:3.6197,3.6197;}
	.st88{fill:none;stroke:#1A2E44;stroke-width:0.9105;stroke-linecap:round;stroke-linejoin:round;stroke-dasharray:3.6197,3.6197;}
	.st89{fill:#1A2E44;stroke:#1A2E44;stroke-width:0.3916;}
	.st90{fill:#1A2E44;stroke:#1A2E44;stroke-width:0.3113;}
	.st91{fill:none;stroke:#1A2E44;stroke-width:1.4631;stroke-linecap:round;stroke-linejoin:round;stroke-miterlimit:10;}
	.st92{clip-path:url(#SVGID_70_);}
	.st93{clip-path:url(#SVGID_72_);}
	.st94{fill:#FFFFFF;stroke:#1A2E44;stroke-width:1.6332;stroke-linecap:square;}
	.st95{fill:none;stroke:#1A2E44;stroke-width:1.6332;stroke-linecap:round;stroke-linejoin:round;stroke-dasharray:4.8995,4.8995;}
	.st96{fill:none;stroke:#1A2E44;stroke-width:1.4974;stroke-linecap:round;stroke-linejoin:round;stroke-dasharray:4.4922,4.4922;}
	.st97{fill:none;stroke:#1A2E44;stroke-width:1.4689;stroke-linecap:round;stroke-linejoin:round;stroke-dasharray:4.4066,4.4066;}
	.st98{fill:none;stroke:#1A2E44;stroke-width:1.1085;stroke-linecap:round;stroke-linejoin:round;stroke-dasharray:4.4066,4.4066;}
	.st99{fill:#1A2E44;stroke:#1A2E44;stroke-width:0.4767;}
	.st100{fill:#1A2E44;stroke:#1A2E44;stroke-width:0.379;}
	.st101{fill:none;stroke:#1A2E44;stroke-width:1.4269;stroke-linecap:round;stroke-linejoin:round;stroke-dasharray:4.2807,4.2807;}
	.st102{fill:none;stroke:#1A2E44;stroke-width:1.0768;stroke-linecap:round;stroke-linejoin:round;stroke-dasharray:4.2807,4.2807;}
	.st103{opacity:0.37;}
	.st104{fill:#FEFEFE;stroke:#1A2E44;stroke-width:2.8729;stroke-linecap:round;stroke-linejoin:round;stroke-miterlimit:10;}
	.st105{fill:#FEFEFE;stroke:#1A2E44;stroke-width:1.7429;stroke-linecap:round;stroke-linejoin:round;stroke-miterlimit:10;}
	.st106{fill:#FEFEFE;stroke:#1A2E44;stroke-width:1.4917;stroke-linecap:round;stroke-linejoin:round;stroke-miterlimit:10;}
	.st107{fill:#213349;stroke:#1A2E44;stroke-width:0.4564;stroke-miterlimit:10;}
	.st108{fill:none;stroke:#213349;stroke-width:3;stroke-linecap:round;stroke-miterlimit:10;}
	.st109{fill:#F2F4F4;}
	.st110{fill:none;stroke:#FFFFFF;stroke-width:1.0176;stroke-linecap:round;stroke-linejoin:round;stroke-miterlimit:10;}
	.st111{fill:none;stroke:#FFFFFF;stroke-linecap:round;stroke-linejoin:round;stroke-miterlimit:10;}
	.st112{fill:none;stroke:#99BFF5;stroke-linecap:round;stroke-linejoin:round;stroke-miterlimit:10;}
	.st113{fill:#172D42;}
	.st114{fill:#24374C;}
	.st115{fill:#182D42;}
	.st116{fill:#182E42;}
</style>
<g id="Слой_2">
</g>
<g id="Слой_1">
	<path class="st5" d="M217.2,65.6c58.2,0,130.4,50.2,130.4,106.4c0,56.1-55.8,96.8-114,96.8s-105.4-45.5-105.4-101.6   S159,65.6,217.2,65.6z"/>
	<g>
		<g>
			<path class="st3" d="M96.5,124.7c0.2-13.9-6.3-16.4,14.1-19.3c20.4-2.9,177.3,2.3,177.3,2.3s-3.2,81.3-1.3,102.9     c0.6,7.2-6.7,11.7-27.3,9c-18.1-2.3-68.4,5.2-103,2.7c-34.6-2.5-44.1,1.7-50.6-4.2c-6.5-5.9-8.2-16.6-7.5-31.7     C99,171.2,96.5,128.3,96.5,124.7z"/>
			<path class="st2" d="M96.5,124.7c0.2-13.9-6.3-16.4,14.1-19.3c20.4-2.9,25.6,2.3,25.6,2.3s0.2,92.5,2.2,114.1     c-12-1.2-26.8,0.6-32.7-3.7c-7.1-5.2-8.2-16.6-7.5-31.7C99,171.2,96.5,128.3,96.5,124.7z"/>
			<path class="st4" d="M98.2,98.8c2.7-5.2,11.7-5.3,26.7-5.7c15-0.4,123.6-2.4,153.1,1.3c0,0,7.8,2,8.7,6.6s1,9.1,1,9.1     s-30.2-2.1-51.2-2.7s-50.7,0.4-63.6,1.1s-73.9,1.4-75.7,1.5C95.4,110.1,98.2,98.8,98.2,98.8z"/>
			<path class="st2" d="M286.9,187.2c0.3-10.7,0.4-38.3,0.8-49c0.4-10.2,1.7-18.3,1.1-28.4c-0.3-6-0.6-13.6-8.2-15.9     c-3.7-1.1-7.8-1.2-11.7-1.5c-5.8-0.4-21.4-0.8-27.3-1.1c-11.9-0.6-23.7-1-35.5-1.2c-23.2-0.4-56.1,0.1-79.3,0.7     c-6.2,0.1-15.2-1.2-21.2,0.6c-5.2,1.5-8.8,4.8-10.4,9.3c-0.8,2.2-1.4,65.2,0.6,86.3c0.4,4.6,0.5,8.1,0.4,12.7     c-0.1,4.2-0.1,8.7,1.6,12.7c2.3,5.5,7.7,8.6,13.9,9.8c6.6,1.4,15.8,2.1,22.5,1.7c9-0.6,27.6,0.4,36.6,0.2     c11.8-0.4,23.5,0.2,35.1-0.5c11.8-0.7,23.6-0.9,35.3-1.2c5.2-0.1,10.3-0.3,15.5,0.1c4.1,0.3,18.1-0.2,22.2-0.8     c7-1.1,8.6-8.7,8.7-14.1c0-3.1-0.3-6.2-0.6-9.4C286.6,194.6,286.8,190.9,286.9,187.2z M285.5,208.6c-0.1,2.5-0.3,5.6-2.1,7.8     c-2.2,2.5-8,2.5-11.2,2.6c-11,0.1-40.6-0.3-54,0.4c-11.3,0.6-22.6,0.4-34,0.9c-10.7,0.4-31.1-0.6-41.8-0.2     c-6.3,0.3-12.6-0.2-18.8-0.3c-6-0.1-13-0.9-17.7-4.7c-6.5-5.2-5.5-13.8-5.4-20.8c0.1-4.4-0.4-5.7-0.7-10.2     c-0.4-5.1-0.8-27-1.1-32.1c-0.6-10.1-0.6-41.4-0.6-41.9c0.1-5,0.8-11,5.7-14c4.5-2.7,10.7-2.8,16-2.9c20.8-0.7,51.5-1.1,72.4-1     c22.6,0.1,54.9,0.8,77.4,2.5c3.5,0.3,7.3,0.4,10.5,1.6c2.6,1,4.3,2.8,5.1,5.3c1.5,4.2,1.4,8.9,1.4,13.1c0,4.9-0.3,9.8-0.6,14.7     c-0.7,10-0.9,17.9-1.1,27.9C284.9,162.5,284.7,197.3,285.5,208.6z"/>
			<path class="st2" d="M287.2,107.7c-4.8,0.9-9.5,0.2-14.3-0.4c-5.5-0.6-20.6-0.5-26.2-0.5c-11.5,0-23-0.2-34.5-0.1     c-11.4,0-22.8,0-34.2,0.5c-11.3,0.5-32.4,0.9-43.7,1.2c-6.3,0.2-12.8,0.4-19.2,0.5c-3,0-5.9,0-9-0.1c-2.6-0.1-5.4-0.3-8,0.5     c-1.1,0.3-1.7,2.6-0.3,2.2c2.4-0.7,5-0.6,7.5-0.5c2.6,0.1,5.4,0.1,8,0.1c5.6,0,11.2-0.2,16.8-0.4c11.4-0.4,32.5-0.7,43.9-1.2     c22.8-1,45.7-0.7,68.4-0.5c6.2,0,22.3-0.3,28.5,0.4c5.3,0.6,10.4,1.4,15.8,0.5C288.1,109.8,288.7,107.5,287.2,107.7z"/>
			<path class="st2" d="M111.2,98.3c0-0.1-0.1-0.1-0.2-0.2c-0.1-0.1-0.3-0.3-0.4-0.3c-0.3-0.2-1.1-0.3-1.3-0.3     c-0.7-0.1-1.3,0.2-1.9,0.5c-0.7,0.4-1.1,1.2-1.4,1.9c-0.1,0.3-0.2,0.6-0.3,0.9c0,0.3-0.1,0.5,0,0.8c0,0.3,0.1,0.4,0.2,0.7     c0.1,0.2,0.2,0.4,0.3,0.5c0.3,0.3,0.7,0.5,1.1,0.6c0.3,0.1,0.8,0.1,1.1,0C111.1,103.1,112.6,100.3,111.2,98.3z"/>
			<path class="st2" d="M121.3,98.1c-0.1-0.1-0.1-0.1-0.2-0.2c-0.1-0.1-0.3-0.2-0.4-0.3c-0.3-0.1-1.2-0.1-1.3-0.1     c-0.7,0-1.3,0.3-1.8,0.8c-0.6,0.5-1,1.3-1.1,2.1c-0.1,0.3-0.1,0.6-0.1,0.9c0,0.3,0,0.5,0.1,0.8c0.1,0.3,0.2,0.4,0.3,0.7     c0.1,0.2,0.3,0.3,0.4,0.5c0.3,0.3,0.7,0.4,1.2,0.4c0.3,0,0.8-0.1,1-0.2C121.7,103,123,100,121.3,98.1z"/>
			<path class="st2" d="M131.4,98c-0.1-0.1-0.1-0.1-0.2-0.1c-0.2-0.1-0.3-0.2-0.4-0.2c-0.3-0.1-1.2,0.1-1.3,0.1     c-0.7,0.1-1.2,0.5-1.7,1c-0.5,0.6-0.8,1.5-0.9,2.2c0,0.3,0,0.7,0,0.9c0,0.3,0.1,0.5,0.2,0.8c0.1,0.2,0.2,0.4,0.3,0.6     s0.3,0.3,0.5,0.4c0.4,0.3,0.8,0.3,1.3,0.3c0.3,0,0.7-0.2,1-0.3C132.4,102.7,133.2,99.6,131.4,98z"/>
		</g>
		<g>
			<path class="st3" d="M110.8,132.2l-1.6,0.9c-0.2,0.1-0.1,0.4,0,0.4l6,3.3c0.4,0.2,0.8,0.2,1.2,0l6.1-3.4c0.2-0.1,0.2-0.3,0-0.4     l-1.6-0.9c-0.2-0.1-0.5-0.1-0.5,0l-3.9,2.2c-0.4,0.2-0.8,0.2-1.2,0l-3.9-2.2C111.2,132.1,111,132.1,110.8,132.2z"/>
			<path class="st3" d="M115.3,119.1c0.4-0.2,0.8-0.2,1.2,0c0,0,4.6,2.5,4.8,2.7c0.2,0.1,0.2,0.4,0,0.5c-0.5,0.3-1.2,0.6-1.6,0.9     c-0.2,0.1-0.3,0.1-0.5,0l-2.8-1.6c-0.4-0.2-0.8-0.2-1.2,0l-2.8,1.6c-0.2,0.1-0.3,0.1-0.5,0c-0.4-0.2-1.1-0.6-1.6-0.9     c-0.2-0.1-0.2-0.3,0-0.4L115.3,119.1z"/>
			<path class="st6" d="M123.4,123.2c0.4,0.2,0.6,0.5,0.6,0.9v7.8c0,0.4-0.2,0.5-0.5,0.3l-1.8-0.9V126l-5.3,2.9     c-0.4,0.2-0.8,0.2-1.2,0L110,126v5.2l-1.6,0.9c-0.2,0.1-0.7,0.2-0.7-0.3v-7.8c0-0.4,0.2-0.8,0.6-0.9c0.6-0.3,1.2,0,1.2,0l6.4,3.6     l6.4-3.6C122.2,123.2,122.8,122.8,123.4,123.2z"/>
		</g>
	</g>
	<g>
		<path class="st3" d="M84.7,237c7.3,8.6,19.5,10.2,28.8,3.8c8.6-5.9,16-17,11.1-27.5c-4.8-10.3-19-14.1-29.3-12    c-5,1-9.9,4.4-13.2,8.1c-6,6.8-5.6,15.4-1.1,23C81.3,233,84.3,236.5,84.7,237z"/>
		<g>
			<path class="st2" d="M84.7,237c7.3,8.6,19.5,10.2,28.8,3.8c8.6-5.9,16-17,11.1-27.5c-4.8-10.3-19-14.1-29.3-12     c-5,1-9.9,4.4-13.2,8.1c-6,6.8-5.6,15.4-1.1,23c0.3,0.6,1.3-0.3,1-0.8c-3.7-6.3-4.9-13.6-0.6-19.8c2.8-4,7.1-7.1,11.7-8.8     c7.9-2.9,18.8-0.6,25.3,4.6c4.5,3.5,7.1,8.8,6.7,14.6c-0.5,5.8-4.2,10.8-8.3,14.7c-4.3,4.1-9.8,7-15.9,6.7     c-5.9-0.3-11.4-3.2-15.3-7.6C85.1,235.5,84.3,236.5,84.7,237z"/>
			<path class="st2" d="M84.8,236.9c3.7,4.3,9.1,7.1,14.7,7.5c2.8,0.2,5.7-0.1,8.4-1c2.7-0.9,5.2-2.4,7.4-4.1     c4.4-3.5,8.1-8.2,9.8-13.6c0.8-2.7,1.1-5.6,0.6-8.4c-0.5-2.8-1.8-5.4-3.6-7.6c-3.6-4.4-9-7-14.6-8.1c-2.8-0.6-5.6-0.8-8.5-0.6     c-1.4,0.1-2.8,0.3-4.2,0.6c-1.4,0.3-2.7,0.8-4,1.4c-2.6,1.2-4.9,2.9-7,4.8c-1,1-2,2-2.8,3.2c-0.8,1.2-1.5,2.4-2.1,3.7     c-1.1,2.6-1.5,5.5-1.2,8.3c0.3,2.8,1.2,5.6,2.5,8.1l0.5,0.9c0.1,0.2,0.2,0.3,0.3,0.5c0.1,0.1,0.3,0.2,0.4,0.1     c0.3-0.1,0.6-0.5,0.5-0.8c-0.1-0.3-0.3-0.6-0.5-0.9c-0.7-1.3-1.3-2.6-1.8-3.9c-0.9-2.7-1.4-5.6-1-8.4c0.2-1.4,0.6-2.8,1.2-4.1     c0.6-1.3,1.4-2.5,2.2-3.6c1.8-2.2,4-4.1,6.4-5.6c2.4-1.5,5.1-2.6,8-3.1c2.8-0.5,5.7-0.5,8.5,0c2.8,0.4,5.6,1.2,8.2,2.4     c2.6,1.2,5,2.8,7,4.8c2,2.1,3.5,4.6,4.2,7.4c0.8,2.8,0.8,5.7,0,8.5c-0.8,2.8-2.2,5.3-4,7.6c-1.8,2.2-3.8,4.3-6,6.1     c-2.2,1.8-4.8,3.2-7.5,4c-2.7,0.9-5.7,1.1-8.5,0.6c-2.8-0.4-5.6-1.5-8-3c-1.2-0.8-2.4-1.6-3.4-2.6c-0.5-0.5-1-1-1.5-1.5     c-0.1-0.1-0.2-0.3-0.4-0.3c-0.1-0.1-0.3,0-0.4,0.1C84.7,236.3,84.7,236.7,84.8,236.9z M84.6,237.1c-0.2-0.2-0.2-0.5-0.1-0.7     c0.1-0.2,0.2-0.4,0.4-0.5c0.2-0.1,0.4-0.2,0.6-0.1c0.2,0.1,0.3,0.3,0.4,0.4c0.5,0.5,1,1,1.5,1.5c1,1,2.2,1.8,3.4,2.6     c2.4,1.5,5.1,2.6,7.9,3c2.8,0.5,5.7,0.3,8.4-0.6c2.7-0.8,5.2-2.3,7.5-4c2.2-1.8,4.2-3.8,6-6.1c1.7-2.2,3.2-4.8,3.9-7.5     c0.8-2.7,0.8-5.7,0-8.4c-0.8-2.7-2.2-5.3-4.2-7.3c-2-2.1-4.4-3.6-7-4.8c-2.6-1.2-5.4-2-8.2-2.4c-2.8-0.5-5.7-0.5-8.5,0     c-2.8,0.5-5.5,1.6-7.9,3c-2.4,1.5-4.6,3.3-6.4,5.6c-0.9,1.1-1.6,2.3-2.2,3.6c-0.6,1.3-1,2.7-1.2,4.1c-0.4,2.8,0.1,5.7,1,8.4     c0.5,1.3,1.1,2.6,1.7,3.9c0.2,0.3,0.4,0.6,0.5,0.9c0.1,0.4-0.2,0.8-0.6,0.9c-0.2,0.1-0.4,0-0.5-0.1c-0.1-0.2-0.2-0.3-0.3-0.5     l-0.5-0.9c-1.3-2.5-2.3-5.3-2.6-8.1c-0.3-2.8,0.1-5.8,1.1-8.4c0.5-1.3,1.3-2.6,2.1-3.8c0.9-1.1,1.8-2.2,2.8-3.2     c2.1-2,4.4-3.7,7-4.9c1.3-0.6,2.7-1.1,4.1-1.4c1.4-0.3,2.8-0.5,4.3-0.6c2.9-0.2,5.7,0,8.6,0.6c2.8,0.6,5.6,1.5,8.1,2.8     c2.5,1.3,4.9,3.1,6.7,5.4c1.8,2.2,3.1,4.9,3.7,7.7c0.5,2.8,0.3,5.8-0.6,8.5c-1.7,5.5-5.5,10.2-9.9,13.8c-2.2,1.8-4.7,3.3-7.5,4.2     c-2.7,0.9-5.6,1.3-8.5,1C93.8,244.3,88.3,241.5,84.6,237.1z"/>
		</g>
	</g>
	<path class="st73" d="M225,90.1c19.8-16.6,83.4-26.7,90.7,2.2s-35.3,90.5,0,85.2c6.4-1,13.1-2,19.8-3"/>
	<g>
		<path class="st3" d="M330.4,160.6c-0.4-1.7,11.4-7.5,21.3-10.7s17.2-5.6,18-4.8c0.8,0.8,3.7,18.5-11.2,22.8    C343.5,172.3,331.3,164.3,330.4,160.6z"/>
		<path class="st2" d="M380.7,168.6c-0.7-2.7-1.5-5.4-2.4-8c-0.2-0.6-0.4-1.1-0.6-1.6c-0.1-0.3-0.2-0.5-0.3-0.8l0,0    c-0.1-0.3-0.2-0.5-0.3-0.8c-0.2-0.5-0.3-0.9-0.5-1.3c0-0.1-0.1-0.2-0.1-0.3c-0.2-0.6-0.5-1.2-0.7-1.8c-0.3-0.7-0.6-1.4-0.8-2l0,0    c-0.8-1.8-1.5-3.6-2.4-5.4c-1.4-3-1.8-3.3-4.6-2.5c-6.8,1.9-13.6,3.7-20.3,5.9c-0.5,0.2-1.1,0.4-1.6,0.5l0,0    c-0.2,0.1-0.5,0.2-0.7,0.3l0,0l0,0c-0.3,0.1-0.6,0.2-0.8,0.3c0,0,0,0-0.1,0c-0.1,0-0.3,0.1-0.4,0.2c-0.5,0.2-1,0.4-1.5,0.6    c-0.3,0.1-0.6,0.2-0.8,0.3c-0.3,0.1-0.7,0.3-1,0.4c-0.3,0.2-0.6,0.3-1,0.4c-0.1,0-0.1,0-0.2,0.1c-0.1,0-0.2,0.1-0.2,0.1    c-0.1,0-0.2,0.1-0.3,0.1c-0.1,0-0.2,0.1-0.3,0.1c-0.2,0.1-0.3,0.2-0.5,0.2c-0.2,0.1-0.4,0.2-0.5,0.2c0,0,0,0,0,0    c-0.2,0.1-0.3,0.1-0.4,0.2c-0.2,0.1-0.3,0.2-0.4,0.2c0,0-0.1,0-0.1,0c-0.3,0.2-0.7,0.3-1,0.5c-0.1,0.1-0.3,0.1-0.4,0.2    c-0.1,0.1-0.3,0.1-0.4,0.2l0,0c-0.1,0.1-0.3,0.1-0.4,0.2c-0.3,0.1-0.5,0.3-0.7,0.4c-0.1,0.1-0.3,0.1-0.4,0.2    c-0.1,0-0.2,0.1-0.3,0.2c-0.1,0-0.1,0-0.2,0.1c-0.2,0.1-0.5,0.3-0.7,0.4c-0.3,0.2-0.6,0.4-0.9,0.6c-0.3,0.3-0.7,0.5-1,0.7    c-0.6,0.5-1.1,0.8-1.4,1.2c-0.1,0.1-0.1,0.1-0.2,0.2c-0.1,0.1-0.1,0.1-0.1,0.2c0,0-0.1,0.1-0.1,0.2l0,0c0,0,0,0.1,0,0.2    c0,0,0,0.1,0,0.2s0,0.1,0,0.2c0,0,0,0.1,0,0.1c0,0,0,0.1,0,0.2c0.1,0.3,0.1,0.8,0.3,1.3c0,0.1,0.1,0.3,0.1,0.5    c0.3,0.7,0.5,1.5,0.7,2.2c0.5,1.5,0.9,2.9,1.4,4.4c0.3,0.7,0.5,1.5,0.7,2.2c0.3,0.7,0.5,1.5,0.8,2.2c0.6,1.6,1.2,3.2,1.8,4.9    c0.2,0.6,0.4,1.1,0.6,1.6c0.2,0.5,0.4,0.9,0.6,1.3c0,0.1,0.1,0.2,0.1,0.3c0.1,0.2,0.2,0.5,0.3,0.7c0.1,0.3,0.3,0.6,0.4,0.9l0,0    c0.3,0.7,0.6,1.3,0.8,2c0.2,0.6,0.4,1.1,0.7,1.6c0.8,1.8,1.2,2,2.9,1.5c0.2-0.1,0.5-0.2,0.8-0.2c0.8-0.4,1.6-0.7,2.4-1l0,0    c0.9-0.3,1.8-0.7,2.7-1c0.7-0.2,1.3-0.4,1.9-0.6c5.1-1.7,10.2-3.6,15.3-5.5c0.7-0.3,1.5-0.6,2.2-0.8c1.1-0.4,2.2-0.8,3.3-1.2    c1-0.3,1.9-0.6,2.9-1c2.1-0.7,4.1-1.5,6-2.7C380.8,173,381.4,171.2,380.7,168.6z M331.9,160c0.9-0.9,1.9-1.6,3-2.2    c3.7-2.1,7.5-3.8,11.4-5.3c0.2-0.1,0.4-0.2,0.7-0.3l0,0c2.1-0.8,4.2-1.5,6.3-2.1c4.9-1.5,9.7-3,14.6-4.4c0.2-0.1,0.4-0.1,0.7,0.2    c-0.8,2.4-1.6,4.9-2.5,7.3l0,0c-0.3,0.8-0.6,1.6-1,2.3c-1.1,2.3-2.3,4.4-4.1,6.3c-0.3,0.3-0.5,0.6-0.8,0.8    c-0.3,0.3-0.6,0.5-0.8,0.7c-1.7,1.3-3.7,2.1-6,2.2c-6.1,0.2-12.2-0.4-18.2-2.7c-1-0.4-2-0.8-3-1.5    C331.5,161,331.4,160.5,331.9,160z"/>
		<path class="st3" d="M370,147.3c2.8,7.8,6.1,15.8,8.7,23.8l0,0c-12.3,4.7-25.1,9.6-37.1,15.2c1.3-6.1,3.3-11.4,6.1-16.7    c-1.6,0.9-2.6,2.6-4.5,7.6c-1.1,2.7-1.8,5.6-2.8,8.9c-3.1-7.9-6.3-15.2-8.9-22.7c0.5-0.4,1,0.1,1.4,0.3c6.6,3.4,13.4,4.3,20.3,4    c3.8-0.2,6.7-2.5,9.1-5.3c2-2.3,3.5-5.1,4.6-8c0.9-2.4,1.7-4.9,2.6-7.3C369.6,147.1,369.8,147.2,370,147.3z"/>
		<path class="st2" d="M378.1,172.1c-1.4-2.4-10.1-8.3-13.7-10c0,0,1-0.5,4.4,1.5c3.4,2,10.4,6.6,10.4,6.6S379.1,173.8,378.1,172.1z    "/>
	</g>
	<path class="st73" d="M296.1,173.6c2.7,11.7,17.6,12.3,30.3,8.5"/>
	<line class="st73" x1="314.5" y1="170.2" x2="327.6" y2="168.8"/>
	<g>
		<g>
			<path class="st4" d="M231.6,119.4c2.6,0,3.2,0.9,3.3,1.9c0.2,2.2,0.4,10.3,0.4,12.3c0,1.6-2,2.5-3.4,2.5l-0.1,0     c-0.1,0-0.2,0-0.3,0c-1.4,0-5.9,0.1-11,0.2c-6.9,0.2-15.4,0.2-19,0.2c-0.6,0-1.1,0-1.4,0c-1.1-0.1-5.2-0.1-7.5-0.1h-1.3l-2,0     c-9.2,0-22,0.1-24.8,0.1c-1.3,0-3,0-5.1,0c-2.3,0-4.7,0-6.5,0c-1.1,0-2,0-2.5,0c-1.6,0-2.6-0.5-2.6-3v-11.2c0-1.2,1.1-2,2.8-2     h39.1c0.4,0,1,0,1.7,0c0.2,0,0.4,0,0.6,0c0.2,0,0.4,0,0.7,0c7.9-0.1,26.9-0.7,35-0.8c2,0,3.4-0.1,3.8-0.1L231.6,119.4      M231.6,118.7c-0.1,0-0.1,0-0.2,0c-2.1,0-29,0.5-38.8,0.6c-0.5,0-0.9,0-1.3,0c-0.7,0-1.3,0-1.7,0h-39.1c-2.3,0-3.8,1.3-3.8,3     v11.2c0,3.1,1.6,4,3.6,4c1.4,0,5.3,0,9,0c1.9,0,3.7,0,5.1,0c2.8,0,15.3-0.1,24.8-0.1c0.7,0,1.3,0,2,0h1.3c3.7,0,6.6,0,7.4,0.1     c0.3,0,0.8,0,1.4,0c6.1,0,26.7-0.6,30-0.6c0.1,0,0.2,0,0.3,0c0.1,0,0.1,0,0.2,0c2.3,0,4-1.2,4-3.2c0-2.1-0.2-10.2-0.4-12.3     C235.3,119.1,233.9,118.7,231.6,118.7L231.6,118.7z"/>
		</g>
		<g>
			<path class="st4" d="M192.6,119.2v18.1h-1.3c-9.6,0-23.8,0.1-26.7,0.1c-4.3,0.1-12.1,0-14.2,0c-2.1,0-3.6-0.9-3.6-4v-11.2     c0-1.7,1.5-3,3.8-3h39.1c0.4,0,1,0,1.7,0C191.7,119.2,192.1,119.2,192.6,119.2z"/>
		</g>
		<path class="st110" d="M163.3,133c0-3.5,0.8-8.4,1.8-8.4c1,0.1,2,4.2,2.5,8.4"/>
		<path class="st111" d="M170.3,133c0-1.6,0-7.1,0-8.1s3.2,0,3.2,2.1c0,1.9-2.6,2.3-2.6,2.3"/>
		<path class="st112" d="M222.6,132.1c0-1.6-0.1-6.6-0.1-7.6s3.2,0,3.2,2.1c0,1.9-2.6,2.3-2.6,2.3"/>
		<path class="st111" d="M163.4,129.8c0,0,2.2-0.4,3.8-0.4"/>
		<path class="st111" d="M176.2,124.7c0,1-0.1,7.5,0,8.3"/>
		<path class="st112" d="M204.6,125c-1.4-1.7-4.5,0.2-2,2.4c2.1,1.8,2.7,2.8,2,4c-0.7,1.1-2.5,1.6-3.6-0.3"/>
		<path class="st112" d="M207.3,132.6c0-2.7,0.5-8.6,1.1-8.5c0.5,0,2,6,2,6s1.5-6,2-6c0.5,0,0.9,4.9,0.9,8.3"/>
		<path class="st112" d="M215,124.3c0,0,3-0.3,5.3,0"/>
		<path class="st112" d="M217.8,132.3c0.2-2.6-0.2-7.9-0.2-7.9"/>
		<g>
			<path class="st2" d="M151.4,144.5c22.2,0,44.4,0.2,66.6,0.1l33.3-0.4l16.6-0.2c0.7,0,1.4,0,2.1,0.2c0.7,0.1,1.5,0.4,2,1.1     c0.3,0.3,0.4,0.7,0.5,1.1c0.1,0.4,0,0.8,0.1,1.1l0.1,2.1c0,0.7,0,1.4,0,2.1c0,0.7-0.1,1.5-0.4,2.2c-0.3,0.7-0.9,1.3-1.6,1.6     c-0.7,0.3-1.4,0.4-2.2,0.4c-22.2,0.2-44.4,0.2-66.6,0.7l-33.3,0c-5.5,0-11.1,0-16.6,0c-0.7,0-1.5,0-2.2-0.2     c-0.7-0.2-1.6-0.5-2.2-1.3c-0.3-0.4-0.4-0.9-0.4-1.4l-0.1-1l-0.1-2.1l-0.1-2.1l-0.1-1c0-0.3-0.1-0.8,0.1-1.3     c0.1-0.5,0.5-0.9,0.9-1.2c0.4-0.2,0.8-0.4,1.2-0.4C149.9,144.5,150.7,144.5,151.4,144.5z M151.4,145.9c-0.7,0-1.3,0-1.9,0.2     c-0.6,0.1-1,0.4-1.1,0.7c-0.1,0.3,0,1.2,0,1.8l0.1,2.1l0.1,2.1l0.1,1c0,0.2,0.1,0.4,0.2,0.6c0.2,0.3,0.7,0.6,1.3,0.7     c0.6,0.1,1.2,0.2,1.9,0.2c5.6,0,11.1,0,16.7,0.1l33.3,0.2c22.2-0.4,44.4-0.2,66.6-0.3c1.3,0,2.7-0.4,3.1-1.6     c0.2-0.6,0.3-1.2,0.3-1.9c0-0.7,0-1.4,0-2.1l-0.1-2.1c0-0.4,0-0.7-0.1-1c-0.1-0.3-0.2-0.6-0.3-0.8c-0.4-0.4-1-0.7-1.6-0.8     c-0.6-0.1-1.3-0.1-2-0.1l-16.6,0.3l-33.3,0.5C195.8,145.8,173.6,145.8,151.4,145.9z"/>
		</g>
		<g>
			<path class="st2" d="M215.6,170.4h-16.6c-2.5,0-5,0.1-7.5,0.2c-2.5,0.1-5,0.2-7.4-0.3c-0.5-0.1-0.9,1-0.4,1.2     c2.4,0.5,4.9,0.4,7.3,0.3c2.6-0.1,5.1-0.2,7.7-0.2h16.6C215.8,171.5,216.2,170.4,215.6,170.4z"/>
			<path class="st2" d="M228.5,170.5c-3,0-6,0.2-9,0.2c-0.5,0-0.9,1.2-0.4,1.2c3,0,6-0.2,9-0.2C228.7,171.6,229.1,170.5,228.5,170.5     z"/>
			<path class="st2" d="M230.3,175.4c-2.4,0.2-4.7,0.1-7.1,0.1c-2.5,0-4.9,0.1-7.4,0.2c-5,0.2-10,0.4-14.9,0.5     c-2.8,0.1-5.6,0.1-8.4,0.1c-0.5,0-0.9,1.2-0.4,1.2c10.1,0,20.1-0.7,30.2-0.9c2.6-0.1,5.3,0,7.9-0.2     C230.7,176.6,231,175.4,230.3,175.4z"/>
			<path class="st2" d="M248.5,179.4c-2.6,0-5.1,0.6-7.7,1c-2.7,0.4-5.5,0.5-8.2,0.7c-5.6,0.4-11.2,0.5-16.8,0.6c-3.2,0-6.3,0-9.5,0     c-0.5,0-0.9,1.2-0.4,1.2c11,0,22.1-0.1,33-1.2c3.1-0.3,6.1-1.1,9.2-1.1C248.7,180.5,249.1,179.4,248.5,179.4z"/>
			<path class="st2" d="M263.2,179.1c-3.5,0.5-7,0.2-10.6,0.2c-0.5,0-0.9,1.2-0.4,1.2c3.6,0,7.2,0.3,10.8-0.2     C263.6,180.2,263.8,179,263.2,179.1z"/>
			<path class="st2" d="M246.5,186.2c-0.6,0.7-2.4,0.5-3.3,0.5c-1.4,0-2.9,0.1-4.3,0.1c-2.8,0.1-5.6,0.1-8.3,0.1c-5.7,0-11.3,0-17,0     c-0.5,0-0.9,1.2-0.4,1.2c6.1,0,12.1,0.1,18.2,0c3,0,6-0.1,8.9-0.1c1.4,0,2.7-0.1,4.1-0.1c1,0,1.9-0.1,2.6-0.9     C247.5,186.4,247.1,185.6,246.5,186.2z"/>
			<path class="st2" d="M239.5,191.6c-5.6,0.4-11.2,0.8-16.8,1.2c-2.7,0.2-5.4,0.4-8,0.5c-2.6,0.1-5.2,0.2-7.8-0.2     c-0.5-0.1-0.9,1.1-0.4,1.2c2.6,0.4,5.3,0.4,7.9,0.2c2.6-0.1,5.2-0.3,7.8-0.5c2.9-0.2,5.7-0.5,8.6-0.7c2.8-0.2,5.7-0.3,8.5-0.6     C239.9,192.7,240.2,191.5,239.5,191.6z"/>
			<path class="st2" d="M210.5,199.1c-8.5,0.9-17.1,0.5-25.7,0.5c-0.5,0-0.9,1.2-0.4,1.2c8.6,0,17.3,0.4,25.9-0.5     C210.9,200.2,211.2,199,210.5,199.1z"/>
			<path class="st2" d="M225.7,199.1c-1,0.3-2,0.1-2.9,0.1c-1,0-2,0-3,0h-6.2c-0.5,0-0.9,1.2-0.4,1.2h6.5c1,0,2.1,0,3.1,0     c1,0,1.9,0.1,2.8-0.1C226.1,200.1,226.4,198.9,225.7,199.1z"/>
			<path class="st2" d="M248.4,199.3c-0.2-0.8-0.9-1.3-1.5-1.8c-0.6-0.5-1.3-1-2-1.5c-0.5-0.3-1,0.8-0.6,1.1     c0.6,0.4,1.2,0.9,1.8,1.3c0.3,0.3,0.8,0.6,1.1,1c-0.6,0.4-2.3,3.6-3.1,4.1c-0.2,0.2-0.4,0.5-0.4,0.8c0,0.3,0.3,0.4,0.5,0.3     c0.9-0.6,3-4.1,3.9-4.3C248.5,200.2,248.5,199.6,248.4,199.3z"/>
			<path class="st2" d="M180.3,174.5c-0.3-0.5-0.8-0.7-1.2-1c-0.5-0.3-1-0.7-1.5-1.1c-0.8-0.6-1.7-1-2.6-1.4     c0.5-0.8,1.1-1.6,1.7-2.4c0.8-0.9,1.6-1.9,2.7-2.4c0.5-0.2,0.6-1.4-0.1-1.1c-1.2,0.5-2.1,1.5-3,2.5c-0.9,1-1.6,2.2-2.3,3.3     c-0.1,0.2-0.4,0.7,0,0.9c1,0.4,2,0.9,3,1.6c0.5,0.3,0.9,0.7,1.3,1c0.4,0.3,0.9,0.5,1.2,1C179.9,175.9,180.6,175,180.3,174.5z"/>
		</g>
	</g>
	<g>
		<path class="st6" d="M91.3,224.9c-0.6-5.6,3.3-10.2,9.3-10.8c4.9-0.5,9.7,3.4,10.4,8.6c0.7,5.3-3.3,10.4-8.8,11    C96.8,234.3,91.9,230.4,91.3,224.9z"/>
		<path class="st114" d="M97.2,211.9c-0.4,0.1-0.9,0.2-1.3,0.3c-0.3,0.1-0.5,0.1-0.8,0.2c-0.6,0.1-1.1-0.3-1.3-0.9    c-0.1-0.6,0.2-1.1,0.9-1.3c1.8-0.4,3.5-0.8,5.3-1.2c0.4-0.1,0.7-0.2,1.1-0.1c0.4,0.1,0.7,0.3,0.9,0.7c0.1,0.4,0,0.8-0.3,1.1    c-0.2,0.3-0.5,0.3-0.8,0.4c-0.6,0.2-1.2,0.3-1.9,0.4c0,0-0.1,0-0.2,0c0,0.1,0,0.2,0,0.3c0.1,0.6,0.3,1.2,0.4,1.7    c0,0.2,0.1,0.2,0.3,0.2c1.4-0.2,2.8-0.2,4.2,0.1c0.2,0,0.4,0.1,0.5,0.1c0.1-0.1,0.2-0.3,0.2-0.5c0.1-0.3,0.3-0.7,0.4-1    c0.1-0.3,0.3-0.4,0.6-0.4c0.6,0.1,1,0.4,1.4,0.8c0.2,0.2,0.2,0.4,0.1,0.7c-0.2,0.4-0.4,0.9-0.6,1.3c0.4,0.2,0.7,0.5,1,0.7    c2.3,1.8,3.5,4.2,3.9,7.1c0.3,2.6-1.1,6.5-3.3,8.6c-2.2,2.2-4.9,3.1-8,2.9c-2.9-0.2-5.3-1.3-7.3-3.5c-1.1-1.2-1.9-2.7-2.2-4.3    c-0.3-1.5-0.3-3,0-4.4c0.4-1.8,1.3-3.4,2.6-4.8c1.2-1.4,2.7-2.4,4.4-3c0.1,0,0.2-0.1,0.1-0.2C97.6,213.3,97.5,212.6,97.2,211.9    C97.3,211.9,97.3,211.9,97.2,211.9z M91.9,224.5c0.2,1.7,0.6,3.1,1.4,4.4c0.6,0.9,1.2,1.8,2.2,2.4c1.2,0.7,2.4,1.2,3.8,1.5    c2.3,0.4,4.5,0,6.6-1.2c2.9-1.7,4.6-4.3,4.8-7.6c0.2-3.5-1.2-6.2-4.1-8.1c-2.2-1.5-4.7-1.9-7.4-1.3c-2.3,0.5-4.2,1.7-5.6,3.7    C92.1,220.2,91.7,222.4,91.9,224.5z M96.9,211.3c1.4-0.2,2.8-0.6,4.2-0.8c0.2,0,0.3-0.2,0.3-0.4c0-0.2-0.1-0.3-0.2-0.4    c-0.2-0.1-0.4-0.2-0.6-0.1c-1.3,0.3-2.6,0.6-3.9,0.9c-0.3,0.1-0.7,0.2-1,0.2c-0.2,0-0.3,0.2-0.3,0.4c0,0.1,0.2,0.2,0.3,0.3    c0.1,0,0.2,0,0.3,0C96.2,211.3,96.5,211.3,96.9,211.3z M105.6,214.4c0.2-0.5,0.4-1,0.2-1.5c-0.1-0.1-0.2-0.2-0.3-0.3    c-0.1,0.1-0.2,0.2-0.2,0.3c-0.2,0.4-0.3,0.8-0.5,1.1C105.1,214.2,105.3,214.3,105.6,214.4z M98.7,213.9    C98.7,213.8,98.8,213.8,98.7,213.9c-0.1-0.8-0.2-1.5-0.4-2.1c0,0-0.1-0.1-0.1-0.1c0,0.1-0.1,0.1,0,0.2c0.1,0.6,0.3,1.3,0.5,1.9    C98.6,213.7,98.7,213.8,98.7,213.9z"/>
		<path class="st3" d="M96.9,211.3c-0.3,0-0.7,0-1,0c-0.1,0-0.2,0-0.3,0c-0.1-0.1-0.3-0.2-0.3-0.3c0-0.2,0.1-0.3,0.3-0.4    c0.3-0.1,0.7-0.2,1-0.2c1.3-0.3,2.6-0.6,3.9-0.9c0.2-0.1,0.4,0,0.6,0.1c0.2,0.1,0.3,0.2,0.2,0.4c0,0.2-0.1,0.4-0.3,0.4    C99.7,210.7,98.3,211.1,96.9,211.3z"/>
		<path class="st3" d="M105.6,214.4c-0.3-0.1-0.5-0.2-0.8-0.3c0.2-0.4,0.3-0.8,0.5-1.1c0.1-0.1,0.2-0.2,0.2-0.3    c0.1,0.1,0.2,0.2,0.3,0.3C106.1,213.5,105.8,214,105.6,214.4z"/>
		<path class="st3" d="M98.7,213.9c0-0.1-0.1-0.2-0.1-0.2c-0.2-0.6-0.3-1.3-0.5-1.9c0,0,0-0.1,0-0.2c0,0,0.1,0.1,0.1,0.1    C98.5,212.4,98.6,213.1,98.7,213.9C98.8,213.8,98.7,213.8,98.7,213.9z"/>
	</g>
	<path class="st113" d="M112.6,210.4c-0.3-0.2-0.8,0.2-0.9,0.5c-1.6,3.6-1.8,3.9-4,7.1c-2,2.9-1.3,2.3-3.2,5.3   c-0.7,1.1-1.5,2.4-1.9,3.7c-1.2-0.7-2.3-1.7-3.4-2.5c-1.3-0.9-2.7-1.8-3.5-3.1c-0.2-0.4-0.7,0-0.9,0.2c-0.3,0.3-0.4,0.8-0.1,1.1   c0.9,1.4,2.3,2.3,3.7,3.2c0.7,0.5,1.3,0.9,1.9,1.4c0.8,0.6,1.5,1.2,2.4,1.6c0.5,0.2,1-0.4,1.1-0.9c0.1-1.4,1-2.7,1.7-3.9   c0.8-1.3,0.8-1.4,1.6-2.7c2-3.3,0.6-0.9,2.6-4.2c1.2-1.8,2.3-3.7,3.1-5.7C112.9,211.2,113,210.7,112.6,210.4z"/>
</g>
</svg>