<?xml version="1.0" standalone="no"?>
<!DOCTYPE svg PUBLIC "-//W3C//DTD SVG 20010904//EN"
 "http://www.w3.org/TR/2001/REC-SVG-20010904/DTD/svg10.dtd">
<svg version="1.0" xmlns="http://www.w3.org/2000/svg"
 width="376.000000pt" height="115.000000pt" viewBox="0 0 376.000000 115.000000"
 preserveAspectRatio="xMidYMid meet" >

<g transform="translate(0.000000,115.000000) scale(0.100000,-0.100000)"
fill="#ffffff" stroke="none" >
<path d="M493 997 c-79 -45 -143 -84 -143 -87 0 -3 21 -17 48 -32 l47 -26 99
59 c54 32 102 57 105 55 95 -52 291 -170 291 -175 0 -6 -80 -51 -92 -51 -3 0
-51 25 -105 56 l-98 56 -60 -33 c-33 -18 -80 -44 -105 -58 l-45 -24 -100 56
c-147 83 -139 95 -143 -234 l-2 -264 141 -80 c77 -44 144 -81 150 -83 5 -2 9
21 9 51 l0 55 -100 57 -100 57 0 174 c0 96 2 174 4 174 2 0 24 -11 47 -25 l44
-24 5 -123 5 -122 73 -43 72 -43 0 59 c0 51 -3 59 -25 71 -24 13 -25 17 -25
105 0 104 -5 96 90 148 l65 35 78 -45 77 -45 0 -89 0 -89 -125 -72 c-68 -40
-125 -76 -125 -80 0 -4 9 -10 20 -13 18 -6 20 -15 20 -122 0 -99 3 -118 17
-129 10 -7 25 -13 33 -13 8 0 114 57 235 128 l220 128 3 171 c1 95 1 172 -2
172 -2 0 -24 -12 -50 -26 l-46 -26 0 -116 0 -117 -146 -85 c-81 -47 -151 -87
-155 -88 -5 -2 -9 21 -9 52 l0 55 105 61 105 62 0 119 0 118 100 58 c93 54
100 60 98 87 -3 26 -23 40 -227 157 -124 71 -227 129 -230 129 -3 0 -70 -37
-148 -83z"/>
<path d="M1260 741 c-21 -39 19 -73 60 -51 24 13 27 55 4 64 -29 11 -53 6 -64
-13z"/>
<path d="M1710 585 l0 -175 34 0 c21 0 36 6 40 15 5 14 9 14 35 0 42 -21 65
-19 98 9 26 23 28 29 28 106 0 77 -2 83 -28 106 -32 27 -64 31 -93 9 -10 -8
-22 -15 -25 -15 -3 0 -3 27 -1 60 l4 60 -46 0 -46 0 0 -175z m154 -17 c15 -41
-3 -83 -34 -83 -22 0 -25 5 -28 44 -2 24 -1 50 2 58 10 24 50 11 60 -19z"/>
<path d="M2621 698 c-5 -13 -18 -32 -30 -42 -25 -22 -27 -42 -6 -50 11 -4 15
-22 15 -76 0 -62 3 -74 25 -95 24 -25 57 -31 103 -19 16 5 22 14 22 35 0 25
-4 29 -30 29 -34 0 -43 21 -38 86 3 36 6 39 36 42 28 3 32 7 32 33 0 27 -3 29
-35 29 -31 0 -35 3 -35 25 0 20 -5 25 -25 25 -17 0 -28 -7 -34 -22z"/>
<path d="M1260 540 l0 -130 40 0 40 0 0 130 0 130 -40 0 -40 0 0 -130z"/>
<path d="M1400 540 l0 -130 45 0 44 0 3 86 c3 91 15 115 52 101 13 -5 16 -22
16 -97 l0 -90 46 0 46 0 -4 106 c-3 102 -4 107 -31 130 -32 27 -70 30 -107 9
-32 -18 -40 -18 -40 0 0 10 -11 15 -35 15 l-35 0 0 -130z"/>
<path d="M2064 656 c-45 -20 -64 -52 -64 -111 0 -67 27 -110 79 -126 109 -33
195 57 159 167 -24 70 -101 101 -174 70z m80 -62 c30 -29 13 -125 -22 -124
-25 1 -37 23 -37 70 0 34 5 54 15 60 21 13 26 12 44 -6z"/>
<path d="M2301 633 c59 -99 57 -84 16 -151 -20 -33 -37 -63 -37 -66 0 -3 20
-6 45 -6 42 0 46 2 66 42 l21 42 20 -37 c22 -44 32 -50 82 -45 l36 3 -39 64
-40 64 33 51 c18 28 36 57 40 64 5 9 -5 12 -42 12 -46 0 -51 -2 -62 -30 -18
-44 -28 -45 -47 -6 -16 34 -19 36 -66 36 l-49 0 23 -37z"/>
<path d="M2800 540 l0 -130 40 0 40 0 0 70 c0 78 19 110 65 110 20 0 25 5 25
24 0 13 3 31 6 40 9 24 -37 21 -69 -4 -14 -11 -27 -20 -30 -20 -3 0 -7 9 -10
20 -4 15 -14 20 -36 20 l-31 0 0 -130z"/>
<path d="M3063 659 c-37 -11 -37 -10 -22 -42 10 -22 13 -23 51 -13 35 9 42 8
54 -9 14 -19 13 -20 -34 -26 -57 -7 -88 -22 -102 -49 -16 -31 -12 -59 15 -85
29 -30 68 -32 112 -5 32 19 32 19 38 0 4 -14 15 -20 36 -20 l29 0 0 99 c0 90
-2 103 -23 127 -18 21 -34 27 -73 30 -27 2 -64 -1 -81 -7z m97 -145 c0 -3 -5
-14 -10 -25 -19 -34 -70 -19 -56 16 5 14 66 22 66 9z"/>
<path d="M3300 485 l0 -185 46 0 46 0 -4 69 -4 69 28 -14 c39 -20 63 -17 95
10 25 21 28 31 31 100 4 73 3 76 -26 106 -36 35 -69 38 -105 10 l-26 -20 -6
20 c-5 15 -15 20 -41 20 l-34 0 0 -185z m148 103 c16 -16 15 -70 -1 -92 -7
-10 -22 -17 -33 -15 -15 3 -20 14 -22 48 -2 24 -1 50 2 57 7 17 38 18 54 2z"/>
<path d="M542 581 c-18 -11 -11 -45 9 -49 9 -2 19 5 23 14 8 22 -14 46 -32 35z"/>
<path d="M631 580 c-19 -11 -9 -45 14 -45 13 0 21 8 23 21 3 23 -17 37 -37 24z"/>
<path d="M722 581 c-19 -11 -11 -45 11 -49 9 -2 20 4 23 13 9 21 -16 47 -34
36z"/>
</g>
</svg>
