<svg xmlns="http://www.w3.org/2000/svg" class="single-faq__icon d-block position-absolute" xmlns:xlink="https://www.w3.org/1999/xlink" viewBox="0 0 50 52"><defs><clipPath class="a-path"><rect y="1" width="50" height="50.71" style="fill: none"/></clipPath></defs><path d="M3.18,25.16a23.5,23.5,0,0,0,7.23,21.06c5.2,4.54,11.88,5.84,18.34,5.78A24.33,24.33,0,0,0,40,49.7,17.77,17.77,0,0,0,48.69,40c2.74-7.25.55-15.61-3-21.68A36.3,36.3,0,0,0,38,9C33.25,5,11.28-3.59,4.22,19" style="" fill="#1A2E44"/><path d="M.77,21.84A23.48,23.48,0,0,0,8,42.85c5.2,4.49,11.88,5.84,18.35,5.78a24.31,24.31,0,0,0,11.28-2.3,17.77,17.77,0,0,0,8.65-9.66c2.74-7.24.55-15.61-3-21.68A36.3,36.3,0,0,0,35.6,5.67C30.89,1.63,8.93-6.91,1.81,15.72" style="" fill="#FFFFFF"/><path d="M.28,21.73c-1.76,11.91,5,23.14,16.37,26.4,10.9,3.08,25.25,1.12,30-10.79C51.21,26.11,44.74,12.24,36,5.11,31.71,1.68,25.58,0,20.21,0,10.63.06,4.27,6.57,1.37,15.5c-.27.73.66,1.35.93.45C4.77,8.48,9.75,2.47,17.75,1.52A26.22,26.22,0,0,1,33,4.72C40.69,8.93,46.28,19,47,27.8c.49,6.45-1.92,12.74-7.17,16.51-4.88,3.48-11.18,4-16.93,3.53-6-.5-12-2.52-16.21-7.18A23.28,23.28,0,0,1,1.32,21.9C1.43,21,.39,20.89.28,21.73Z" style="" fill="#1A2E44"/><g style="clip-path: url(.a-path)"><g><path d="M3.18,25.53a22.59,22.59,0,0,0,7.23,20.54c5.2,4.44,11.88,5.7,18.34,5.64A24.91,24.91,0,0,0,40,49.47a17.5,17.5,0,0,0,8.65-9.42c2.74-7.07.55-15.23-3-21.14A35.5,35.5,0,0,0,38,9.82C33.25,5.87,11.29-2.5,4.22,19.57" style="" fill="#1A2E44"/><path d="M.77,22.3A22.58,22.58,0,0,0,8,42.79c5.2,4.38,11.88,5.69,18.35,5.64a24.77,24.77,0,0,0,11.28-2.25,17.47,17.47,0,0,0,8.65-9.42c2.74-7.06.55-15.22-3-21.14A35.67,35.67,0,0,0,35.6,6.53C30.89,2.59,8.93-5.74,1.81,16.33" style="" fill="#FFFFFF"/><path d="M.28,22.19A22.78,22.78,0,0,0,16.65,47.93c10.9,3,25.25,1.1,30-10.51C51.21,26.47,44.75,12.94,36,6c-4.27-3.34-10.4-5-15.77-5C10.63,1.05,4.28,7.41,1.37,16.11c-.27.72.66,1.32.93.44C4.77,9.27,9.75,3.41,17.75,2.48A26.79,26.79,0,0,1,33,5.6c7.72,4.11,13.31,14,14,22.51.49,6.3-1.92,12.43-7.17,16.1-4.88,3.39-11.17,3.89-16.93,3.45-6-.49-12-2.47-16.21-7A22.29,22.29,0,0,1,1.32,22.36C1.43,21.48.39,21.37.28,22.19Z" style="" fill="#1A2E44"/><path d="M18.9,15.79a6.65,6.65,0,0,1,2-2.36A4.48,4.48,0,0,1,27,15.51a5.34,5.34,0,0,1-2.08,6.36c-.6.49-1.37.82-1.92,1.31C21.42,24.55,21.36,27,21.42,29" style="" fill="#FFFFFF"/><path d="M20.1,16.61c1.26-2,3.89-2.58,5.26-.22s-.93,3.89-2.63,5.15c-2.68,2-3,5.09-3,8.16.06,2.35,3.18.65,3.18-1.21-.05-2.41.49-3.67,2.52-5a7.78,7.78,0,0,0,2.19-2.24,7.34,7.34,0,0,0,.77-6.79,5.73,5.73,0,0,0-5-3.23c-2.63-.06-4.38,1.75-5.7,3.83S18.84,18.63,20.1,16.61Z" style="" fill="#1A2E44"/><path d="M21.09,34c-.49,0-.66.82-.22,1s1-.44.66-.82" style="" fill="#FFFFFF"/><path d="M20.81,32.54a2.34,2.34,0,0,0-1.53.61,2,2,0,0,0-.55.93,1.84,1.84,0,0,0,.93,2A2.81,2.81,0,0,0,23,35.83a1.69,1.69,0,0,0,.33-2.14,2.26,2.26,0,0,0-1-.82,2.78,2.78,0,0,0-1.48-.11,1.49,1.49,0,0,0-1,.72,1.23,1.23,0,0,0,0,1.15c.06,0,.06,0,.06.1a2,2,0,0,1-.17-.38v-.11a.74.74,0,0,0,.11-.38.41.41,0,0,1-.11.22c.06-.11.17-.22.22-.33l-.16.16c.11,0,.22-.16.33-.22-.06,0-.06.06-.11.06l.44-.17h-.11c.16,0,.32,0,.49,0h-.11a1.63,1.63,0,0,1,.49,0H21a1.5,1.5,0,0,0,.5.11c-.06,0-.06,0-.11,0,.16,0,.27.16.43.22a.05.05,0,0,1-.05-.06c.11.11.22.17.33.28a.06.06,0,0,1-.06-.06c.11.11.17.22.28.33,0-.05-.06-.05-.06-.11a2.5,2.5,0,0,1,.17.39c0-.06-.06-.11-.06-.17v.38c0-.11,0-.16.06-.21a.69.69,0,0,0-.11.38c0-.06,0-.17.11-.22-.06.11-.17.22-.22.33,0-.06.05-.06.11-.06-.11.06-.22.17-.33.22.05,0,.05-.05.11-.05-.17.05-.28.11-.44.16h.06c-.17,0-.33.06-.5.06h.06a1.83,1.83,0,0,0,1.26-.5,1.33,1.33,0,0,0,.38-1A2,2,0,0,0,20.81,32.54Z" style="" fill="#1A2E44"/></g></g></svg>