<svg xmlns:xlink="http://www.w3.org/1999/xlink" xmlns="http://www.w3.org/2000/svg" class="icon__cnt" width="24"  height="24" ><defs><symbol id="github-icon" viewBox="0 0 24 24"><g id="github-logo" fill-rule="nonzero" fill="#000"><path d="M22.364 5.99a11.934 11.934 0 0 0-4.362-4.363C16.166.557 14.162.02 11.986.02 9.81.02 7.806.556 5.97 1.627A11.932 11.932 0 0 0 1.608 5.99C.536 7.825 0 9.83 0 12.004c0 2.612.762 4.96 2.286 7.047 1.525 2.086 3.494 3.53 5.907 4.33.28.053.49.016.624-.11a.61.61 0 0 0 .203-.467l-.008-.842c-.005-.53-.007-.994-.007-1.39l-.36.063a4.58 4.58 0 0 1-.866.055 6.6 6.6 0 0 1-1.085-.11 2.424 2.424 0 0 1-1.046-.467 1.98 1.98 0 0 1-.687-.96l-.156-.358A3.9 3.9 0 0 0 4.315 18c-.224-.293-.45-.49-.68-.594l-.108-.078a1.146 1.146 0 0 1-.203-.188.856.856 0 0 1-.14-.218c-.032-.073-.006-.133.078-.18.083-.047.234-.07.452-.07l.312.047c.208.04.466.165.773.373.306.208.558.48.756.812.24.426.528.75.866.975.338.224.68.336 1.022.336.343 0 .64-.026.89-.078.25-.052.483-.13.702-.234.093-.698.348-1.234.764-1.608a10.686 10.686 0 0 1-1.6-.28 6.37 6.37 0 0 1-1.466-.61 4.2 4.2 0 0 1-1.256-1.045c-.333-.416-.607-.962-.82-1.638-.213-.677-.32-1.457-.32-2.34 0-1.26.41-2.332 1.233-3.216-.384-.947-.347-2.008.11-3.184.302-.093.75-.023 1.343.21.593.235 1.027.436 1.303.602.276.166.497.307.663.42.967-.27 1.966-.404 2.996-.404s2.03.135 2.996.405l.593-.374a8.4 8.4 0 0 1 1.436-.686c.552-.208.974-.265 1.266-.172.468 1.176.51 2.237.124 3.184.822.884 1.233 1.956 1.233 3.215 0 .885-.107 1.668-.32 2.35-.213.68-.488 1.227-.826 1.638-.34.412-.76.757-1.265 1.038a6.38 6.38 0 0 1-1.467.61c-.473.124-1.007.218-1.6.28.54.468.812 1.207.812 2.216v3.293c0 .187.065.343.195.468.13.124.335.16.616.11 2.414-.802 4.383-2.246 5.908-4.332 1.524-2.085 2.286-4.433 2.286-7.045 0-2.174-.537-4.18-1.608-6.016z"></path></g><path d="M22.364 5.99a11.934 11.934 0 0 0-4.362-4.363C16.166.557 14.162.02 11.986.02 9.81.02 7.806.556 5.97 1.627A11.932 11.932 0 0 0 1.608 5.99C.536 7.825 0 9.83 0 12.004c0 2.612.762 4.96 2.286 7.047 1.525 2.086 3.494 3.53 5.907 4.33.28.053.49.016.624-.11a.61.61 0 0 0 .203-.467l-.008-.842c-.005-.53-.007-.994-.007-1.39l-.36.063a4.58 4.58 0 0 1-.866.055 6.6 6.6 0 0 1-1.085-.11 2.424 2.424 0 0 1-1.046-.467 1.98 1.98 0 0 1-.687-.96l-.156-.358A3.9 3.9 0 0 0 4.315 18c-.224-.293-.45-.49-.68-.594l-.108-.078a1.146 1.146 0 0 1-.203-.188.856.856 0 0 1-.14-.218c-.032-.073-.006-.133.078-.18.083-.047.234-.07.452-.07l.312.047c.208.04.466.165.773.373.306.208.558.48.756.812.24.426.528.75.866.975.338.224.68.336 1.022.336.343 0 .64-.026.89-.078.25-.052.483-.13.702-.234.093-.698.348-1.234.764-1.608a10.686 10.686 0 0 1-1.6-.28 6.37 6.37 0 0 1-1.466-.61 4.2 4.2 0 0 1-1.256-1.045c-.333-.416-.607-.962-.82-1.638-.213-.677-.32-1.457-.32-2.34 0-1.26.41-2.332 1.233-3.216-.384-.947-.347-2.008.11-3.184.302-.093.75-.023 1.343.21.593.235 1.027.436 1.303.602.276.166.497.307.663.42.967-.27 1.966-.404 2.996-.404s2.03.135 2.996.405l.593-.374a8.4 8.4 0 0 1 1.436-.686c.552-.208.974-.265 1.266-.172.468 1.176.51 2.237.124 3.184.822.884 1.233 1.956 1.233 3.215 0 .885-.107 1.668-.32 2.35-.213.68-.488 1.227-.826 1.638-.34.412-.76.757-1.265 1.038a6.38 6.38 0 0 1-1.467.61c-.473.124-1.007.218-1.6.28.54.468.812 1.207.812 2.216v3.293c0 .187.065.343.195.468.13.124.335.16.616.11 2.414-.802 4.383-2.246 5.908-4.332 1.524-2.085 2.286-4.433 2.286-7.045 0-2.174-.537-4.18-1.608-6.016z"></path></symbol></defs><use href="#github-icon" fill="#1A2E44"></use></svg>