<svg xmlns:xlink="http://www.w3.org/1999/xlink" xmlns="http://www.w3.org/2000/svg" class="icon__cnt" width="24"  height="24" ><defs><symbol id="google-icon" viewBox="0 0 24 24"><g id="google" fill-rule="nonzero"><path d="M5.32 14.504l-.837 3.118-3.053.065A11.946 11.946 0 0 1 0 12c0-1.99.484-3.866 1.342-5.52l2.72.5 1.19 2.702A7.133 7.133 0 0 0 4.867 12c0 .88.16 1.725.452 2.504z" fill="#1A2E44"></path><path d="M23.79 9.758a12.022 12.022 0 0 1-.053 4.747 11.997 11.997 0 0 1-4.224 6.853l-3.425-.175-.485-3.025a7.152 7.152 0 0 0 3.078-3.652h-6.416V9.758H23.79z" fill="#1A2E44"></path><path d="M19.512 21.357A11.95 11.95 0 0 1 12 24c-4.57 0-8.543-2.554-10.57-6.313l3.89-3.183a7.135 7.135 0 0 0 10.283 3.654l3.91 3.2z" fill="#1A2E44"></path><path d="M19.66 2.763l-3.888 3.182A7.137 7.137 0 0 0 5.252 9.68l-3.91-3.2A11.998 11.998 0 0 1 12 0a11.95 11.95 0 0 1 7.66 2.763z" fill="#1A2E44"></path></g><path d="M5.32 14.504l-.837 3.118-3.053.065A11.946 11.946 0 0 1 0 12c0-1.99.484-3.866 1.342-5.52l2.72.5 1.19 2.702A7.133 7.133 0 0 0 4.867 12c0 .88.16 1.725.452 2.504z" fill="#1A2E44"></path><path d="M23.79 9.758a12.022 12.022 0 0 1-.053 4.747 11.997 11.997 0 0 1-4.224 6.853l-3.425-.175-.485-3.025a7.152 7.152 0 0 0 3.078-3.652h-6.416V9.758H23.79z" fill="#1A2E44"></path><path d="M19.512 21.357A11.95 11.95 0 0 1 12 24c-4.57 0-8.543-2.554-10.57-6.313l3.89-3.183a7.135 7.135 0 0 0 10.283 3.654l3.91 3.2z" fill="#1A2E44"></path><path d="M19.66 2.763l-3.888 3.182A7.137 7.137 0 0 0 5.252 9.68l-3.91-3.2A11.998 11.998 0 0 1 12 0a11.95 11.95 0 0 1 7.66 2.763z" fill="#1A2E44"></path></symbol></defs><use href="#google-icon" fill="#1A2E44"></use></svg>